<?xml version="1.0" encoding="utf-8"?>
<!-- Generator: Adobe Illustrator 16.0.4, SVG Export Plug-In . SVG Version: 6.00 Build 0)  -->
<!DOCTYPE svg PUBLIC "-//W3C//DTD SVG 1.0//EN" "http://www.w3.org/TR/2001/REC-SVG-20010904/DTD/svg10.dtd">
<svg version="1.0" id="C" xmlns="http://www.w3.org/2000/svg" xmlns:xlink="http://www.w3.org/1999/xlink" x="0px" y="0px"
	 width="159px" height="187px" viewBox="0 0 159 187" enable-background="new 0 0 159 187" xml:space="preserve">
<g id="c-anim1">
	<path fill="#0F1D42" d="M83.9,70.3c0,0-0.9,20.2,5.399,37.5S101.4,135.9,115.4,144.5l5.398,19.2l-66.3,3.6l-30.101-35.7l-8.5-59.3
		L25.5,40.6l20.2-13.5L78.1,50L83.9,70.3z"/>
	<path fill="#E2C000" d="M152.5,139.8l-63.7,9.5c0,0-24.1,31.3-24.3,30.7c-0.1-0.6,3.2,1.2,3.2,1.2s54.3-8.101,54.399-8.7
		c0.199-0.6,16.601-0.6,24.301-10.8C154,151.5,157.3,141.6,157.3,141.6L152.5,139.8z"/>
	<polyline fill="#FEFFFF" points="78.1,147.5 142.7,135.9 157.1,141.7 94,153.2 78.1,147.3"/>
	
		<line fill="none" stroke="#000000" stroke-width="1.3489" stroke-linecap="round" stroke-miterlimit="10" x1="95.6" y1="69.8" x2="95.6" y2="148.5"/>
	
		<line fill="none" stroke="#000000" stroke-width="1.3489" stroke-linecap="round" stroke-miterlimit="10" x1="103" y1="67.9" x2="103" y2="146.6"/>
	
		<line fill="none" stroke="#000000" stroke-width="1.3489" stroke-linecap="round" stroke-miterlimit="10" x1="111.1" y1="66.7" x2="111.1" y2="145.4"/>
	
		<line fill="none" stroke="#000000" stroke-width="1.3489" stroke-linecap="round" stroke-miterlimit="10" x1="118.7" y1="65.1" x2="118.7" y2="143.8"/>
	
		<line fill="none" stroke="#000000" stroke-width="1.3489" stroke-linecap="round" stroke-miterlimit="10" x1="126.7" y1="64.1" x2="126.7" y2="142.8"/>
	
		<line fill="none" stroke="#000000" stroke-width="1.3489" stroke-linecap="round" stroke-miterlimit="10" x1="134" y1="62.3" x2="134" y2="141"/>
	
		<line fill="none" stroke="#000000" stroke-width="1.3489" stroke-linecap="round" stroke-miterlimit="10" x1="141.5" y1="61.2" x2="141.5" y2="139.8"/>
	<path fill="#6390FF" d="M94,75.9l-15.6-5.2c0,0-4.5-17.1-16.5-25.5c-12-8.4-18.9-7.6-24.4-3.4C22.4,53.2,20.4,74.7,21.9,92.2
		c0.6,6.6,1.5,13.5,3,20c1.8,7.7,4.6,15.6,8.3,22.6c6.2,11.9,13,22.9,27.5,24c2.899,0.2,5.2-0.1,7.8-1.399
		c3.6-1.801,8.7-6.899,9.6-9.699L94,153.4c0,0-3.4,14.199-9.7,19.601s-15,10.601-25.3,7.8c-15.1-4.199-26.7-16.398-34.1-29.699
		c-4.9-8.801-8.601-18.199-11.4-27.801c-2.2-7.8-3.8-15.699-4.6-23.699C8.3,93.301,8,86.9,8,80.501c-0.1-9,0.4-18.3,2.5-27.1
		c3-12.1,7.5-19.6,12-25.8c4.5-6.1,14.5-13.7,24.2-10.8c9.8,3,20.399,10,26.6,18.7s20.101,28.9,20.7,39.9"/>
	<path fill="#E2C000" d="M126.8,12.5c-12.1-10-26.2-7.3-26.2-7.3L39.5,15.9C77.7,18.4,94,76.4,94,76.4l63.1-11.2
		C152,42.2,138.9,22.5,126.8,12.5z"/>
</g>
<g id="c-anim2">
	<path fill="#0F1D42" d="M83.9,70.3c0,0-0.9,20.2,5.399,37.5S101.4,135.9,115.4,144.5l5.398,19.2l-66.3,3.6l-30.101-35.7l-8.5-59.3
		L25.5,40.6l20.2-13.5L78.1,50L83.9,70.3z"/>
	<path fill="#E2C000" d="M152.5,139.8l-63.7,9.5c0,0-24.1,31.3-24.3,30.7c-0.1-0.6,3.2,1.2,3.2,1.2s54.3-8.101,54.399-8.7
		c0.199-0.6,16.601-0.6,24.301-10.8C154,151.5,157.3,141.6,157.3,141.6L152.5,139.8z"/>
	<polyline fill="#FEFFFF" points="78.1,147.5 142.7,135.9 157.1,141.7 94,153.2 78.1,147.3"/>
	<g>
		<path fill="none" stroke="#000000" stroke-width="1.3489" stroke-linecap="round" stroke-miterlimit="10" d="M97.6,69.8
			c0,3.9-4,3.9-4,7.9c0,3.899,4,3.899,4,7.899c0,3.9-4,3.9-4,7.9s4,3.9,4,7.9c0,3.899-4,3.899-4,7.899c0,3.9,4,3.9,4,7.9
			c0,3.899-4,3.899-4,7.899c0,3.899,4,3.899,4,7.899c0,3.899-4,3.899-4,7.899s4,3.899,4,7.899"/>
	</g>
	<g>
		<path fill="none" stroke="#000000" stroke-width="1.3489" stroke-linecap="round" stroke-miterlimit="10" d="M105,67.9
			c0,3.9-4,3.9-4,7.9c0,3.9,4,3.9,4,7.9c0,3.899-4,3.899-4,7.899s4,3.9,4,7.9c0,3.9-4,3.9-4,7.9c0,3.899,4,3.899,4,7.899
			c0,3.9-4,3.9-4,7.9c0,3.899,4,3.899,4,7.899c0,3.899-4,3.899-4,7.899s4,3.899,4,7.899"/>
	</g>
	<g>
		<path fill="none" stroke="#000000" stroke-width="1.3489" stroke-linecap="round" stroke-miterlimit="10" d="M113.1,66.7
			c0,3.9-4,3.9-4,7.9c0,3.9,4,3.9,4,7.9s-4,3.9-4,7.9s4,3.899,4,7.899s-4,3.9-4,7.9c0,3.899,4,3.899,4,7.899
			c0,3.899-4,3.899-4,7.899c0,3.899,4,3.899,4,7.899c0,3.899-4,3.899-4,7.899s4,3.9,4,7.9"/>
	</g>
	<g>
		<path fill="none" stroke="#000000" stroke-width="1.3489" stroke-linecap="round" stroke-miterlimit="10" d="M120.7,65.1
			c0,3.9-4,3.9-4,7.9c0,3.9,4,3.9,4,7.9c0,3.899-4,3.899-4,7.899c0,3.9,4,3.9,4,7.9c0,3.899-4,3.899-4,7.899c0,3.9,4,3.9,4,7.9
			c0,3.9-4,3.9-4,7.9c0,3.898,4,3.898,4,7.898c0,3.9-4,3.9-4,7.9c0,3.898,4,3.898,4,7.898"/>
	</g>
	<g>
		<path fill="none" stroke="#000000" stroke-width="1.3489" stroke-linecap="round" stroke-miterlimit="10" d="M128.7,64.1
			c0,3.9-4,3.9-4,7.9c0,3.9,4,3.9,4,7.9c0,4-4,3.899-4,7.899s4,3.9,4,7.9s-4,3.899-4,7.899c0,3.9,4,3.9,4,7.9c0,3.9-4,3.9-4,7.9
			c0,3.898,4,3.898,4,7.898c0,3.9-4,3.9-4,7.9s4,3.898,4,7.898"/>
	</g>
	<g>
		<path fill="none" stroke="#000000" stroke-width="1.3489" stroke-linecap="round" stroke-miterlimit="10" d="M136,62.3
			c0,3.9-4,3.9-4,7.9c0,3.9,4,3.9,4,7.899c0,3.9-4,3.9-4,7.9s4,3.9,4,7.9s-4,3.899-4,7.899c0,3.9,4,3.9,4,7.9
			c0,3.899-4,3.899-4,7.899c0,3.899,4,3.899,4,7.899c0,3.899-4,3.899-4,7.899s4,3.899,4,7.899"/>
	</g>
	<g>
		<path fill="none" stroke="#000000" stroke-width="1.3489" stroke-linecap="round" stroke-miterlimit="10" d="M143.5,61.2
			c0,3.9-4,3.9-4,7.9c0,3.9,4,3.9,4,7.9c0,3.9-4,3.9-4,7.9s4,3.899,4,7.899s-4,3.9-4,7.9c0,3.899,4,3.899,4,7.899c0,3.9-4,3.9-4,7.9
			c0,3.9,4,3.9,4,7.9c0,3.898-4,3.898-4,7.898s4,3.9,4,7.9"/>
	</g>
	<path fill="#6390FF" d="M94,75.9l-15.6-5.2c0,0-4.5-17.1-16.5-25.5c-12-8.4-18.9-7.6-24.4-3.4C22.4,53.2,20.4,74.7,21.9,92.2
		c0.6,6.6,1.5,13.5,3,20c1.8,7.7,4.6,15.6,8.3,22.6c6.2,11.9,13,22.9,27.5,24c2.899,0.2,5.2-0.1,7.8-1.399
		c3.6-1.801,8.7-6.899,9.6-9.699L94,153.4c0,0-3.4,14.199-9.7,19.601s-15,10.601-25.3,7.8c-15.1-4.199-26.7-16.398-34.1-29.699
		c-4.9-8.801-8.601-18.199-11.4-27.801c-2.2-7.8-3.8-15.699-4.6-23.699C8.3,93.301,8,86.9,8,80.501c-0.1-9,0.4-18.3,2.5-27.1
		c3-12.1,7.5-19.6,12-25.8c4.5-6.1,14.5-13.7,24.2-10.8c9.8,3,20.399,10,26.6,18.7s20.101,28.9,20.7,39.9"/>
	<path fill="#E2C000" d="M126.8,12.5c-12.1-10-26.2-7.3-26.2-7.3L39.5,15.9C77.7,18.4,94,76.4,94,76.4l63.1-11.2
		C152,42.2,138.9,22.5,126.8,12.5z"/>
</g>
</svg>
