<svg id="all" xmlns="http://www.w3.org/2000/svg" width="212" height="219.6538" viewBox="0 0 212 219.6538">
  <title>C</title>
  <g id="c-anim1">
    <path d="M78.0996,179.562a0.21746,0.21746,0,0,1-.1392.0996C77.9404,179.5815,77.9985,179.5561,78.0996,179.562Z" style="fill: #e2c000"/>
    <path d="M151.4663,146.0766l-53.2315,7.9268s-18.4223,23.916-20.1342,25.5586a12.99439,12.99439,0,0,1,2.4926,1.0811s45.3038-6.7422,45.4288-7.2403c0.125-.5019,13.8935-0.5019,20.2724-9.0127a64.64534,64.64534,0,0,0,9.0742-16.751Z" style="fill: #e2c000"/>
    <rect x="92.024" y="141.28557" width="6.13231" height="19.46297" transform="translate(270.16991 116.44296) rotate(111.02636)" style="fill: #feffff"/>
    <rect x="100.2098" y="141.55317" width="61.50131" height="11.04685" transform="translate(-22.76292 23.98602) rotate(-9.63215)" style="fill: #feffff"/>
    <path d="M104.49437,104.0366a21.49,21.49,0,0,0-.41044-4.499,19.87781,19.87781,0,0,1,0-7.4229,21.47848,21.47848,0,0,0,.41044-4.498,0.83193,0.83193,0,0,0-.10707-0.5635,0.83314,0.83314,0,0,0-.10706.5635,17.24388,17.24388,0,0,1-.34956,3.7109,24.85809,24.85809,0,0,0,0,8.9971,19.87728,19.87728,0,0,1,0,7.4228,24.85809,24.85809,0,0,0,0,8.9971,19.90861,19.90861,0,0,1,0,7.4287,24.86357,24.86357,0,0,0,0,8.9981,19.924,19.924,0,0,1,0,7.4316,24.88989,24.88989,0,0,0,0,9.0029,17.30478,17.30478,0,0,1,.34956,3.7178,0.82933,0.82933,0,0,0,.10706.5625,0.83,0.83,0,0,0,.10707-0.5625,21.52727,21.52727,0,0,0-.41044-4.5029,19.92934,19.92934,0,0,1,0-7.4326,24.89044,24.89044,0,0,0,0-9.003,19.898,19.898,0,0,1,0-7.4267,24.86851,24.86851,0,0,0,0-8.999,19.89321,19.89321,0,0,1,0-7.4258A21.46022,21.46022,0,0,0,104.49437,104.0366Z"/>
    <path d="M110.67151,102.4546a21.49037,21.49037,0,0,0-.41042-4.499,19.87675,19.87675,0,0,1,0-7.4229,21.4796,21.4796,0,0,0,.41042-4.498,0.83177,0.83177,0,0,0-.107-0.5635,0.8333,0.8333,0,0,0-.10688.5635,17.25618,17.25618,0,0,1-.34958,3.7109,24.85922,24.85922,0,0,0,0,8.9971,19.87622,19.87622,0,0,1,0,7.4228,24.85922,24.85922,0,0,0,0,8.9971,19.90755,19.90755,0,0,1,0,7.4287,24.86964,24.86964,0,0,0,0,8.999,19.91817,19.91817,0,0,1,0,7.4307,24.891,24.891,0,0,0,0,9.0029,17.315,17.315,0,0,1,.34958,3.7178,0.8297,0.8297,0,0,0,.10688.5625,0.83029,0.83029,0,0,0,.107-0.5625,21.51012,21.51012,0,0,0-.41042-4.502,19.93359,19.93359,0,0,1,0-7.4336,24.88005,24.88005,0,0,0,0-9.0009,19.90755,19.90755,0,0,1,0-7.4287,24.87019,24.87019,0,0,0,0-8.9991,19.88684,19.88684,0,0,1,0-7.4248A21.47881,21.47881,0,0,0,110.67151,102.4546Z"/>
    <path d="M117.45867,101.4536a21.49,21.49,0,0,0-.41044-4.499,19.87781,19.87781,0,0,1,0-7.4229,21.47848,21.47848,0,0,0,.41044-4.498,0.83193,0.83193,0,0,0-.10706-0.5635,0.83351,0.83351,0,0,0-.10688.5635,17.25618,17.25618,0,0,1-.34958,3.7109,24.85922,24.85922,0,0,0,0,8.9971,19.87622,19.87622,0,0,1,0,7.4228,24.85922,24.85922,0,0,0,0,8.9971,19.90224,19.90224,0,0,1,0,7.4277,24.87512,24.87512,0,0,0,0,9,19.91817,19.91817,0,0,1,0,7.4307,24.891,24.891,0,0,0,0,9.0029,17.31567,17.31567,0,0,1,.34958,3.7178,0.8297,0.8297,0,0,0,.10688.5625,0.83,0.83,0,0,0,.10706-0.5625,21.50784,21.50784,0,0,0-.41044-4.5019,19.93465,19.93465,0,0,1,0-7.4336,24.87947,24.87947,0,0,0,0-9.001,19.90861,19.90861,0,0,1,.00019-7.4297,24.86869,24.86869,0,0,0-.00019-8.998,19.88843,19.88843,0,0,1,0-7.4249A21.47769,21.47769,0,0,0,117.45867,101.4536Z"/>
    <path d="M123.78147,100.063a21.49536,21.49536,0,0,0-.41044-4.4981,19.87728,19.87728,0,0,1,0-7.4228,21.483,21.483,0,0,0,.41044-4.499,0.83,0.83,0,0,0-.10706-0.5625,0.83,0.83,0,0,0-.10707.5625,17.23433,17.23433,0,0,1-.34956,3.7119,24.85754,24.85754,0,0,0,0,8.997,19.87781,19.87781,0,0,1,0,7.4229,24.85809,24.85809,0,0,0,0,8.9971,19.90861,19.90861,0,0,1,0,7.4287,24.8685,24.8685,0,0,0,0,8.999,19.91393,19.91393,0,0,1,0,7.4297,24.89537,24.89537,0,0,0,0,9.0039,17.28261,17.28261,0,0,1,.34956,3.7158,0.82981,0.82981,0,0,0,.10707.5635,0.83193,0.83193,0,0,0,.10706-0.5635,21.49822,21.49822,0,0,0-.41044-4.501,19.93466,19.93466,0,0,1,0-7.4336,24.87892,24.87892,0,0,0,0-9.0009,19.90861,19.90861,0,0,1,0-7.4287,24.86357,24.86357,0,0,0,0-8.9981,19.8879,19.8879,0,0,1,0-7.4248A21.4979,21.4979,0,0,0,123.78147,100.063Z"/>
    <path d="M130.44751,99.2212a21.48916,21.48916,0,0,0-.41042-4.4981,19.87622,19.87622,0,0,1,0-7.4228,21.48462,21.48462,0,0,0,.41042-4.499,0.82991,0.82991,0,0,0-.10707-0.5625,0.83008,0.83008,0,0,0-.107.5625,17.23409,17.23409,0,0,1-.34958,3.7119,24.85868,24.85868,0,0,0,0,8.997,19.87675,19.87675,0,0,1,0,7.4229,24.85922,24.85922,0,0,0,0,8.9971,19.90224,19.90224,0,0,1,0,7.4277,24.86964,24.86964,0,0,0,0,8.999,19.91817,19.91817,0,0,1,0,7.4307,24.891,24.891,0,0,0,0,9.0029,17.28657,17.28657,0,0,1,.34958,3.7168,0.82818,0.82818,0,0,0,.107.5625,0.82991,0.82991,0,0,0,.10707-0.5625,21.51737,21.51737,0,0,0-.41042-4.5019,19.92881,19.92881,0,0,1,0-7.4327,24.87511,24.87511,0,0,0,0-9,19.91233,19.91233,0,0,1,0-7.4296,24.8647,24.8647,0,0,0,0-8.9981,19.88683,19.88683,0,0,1,0-7.4248A21.4917,21.4917,0,0,0,130.44751,99.2212Z"/>
    <path d="M136.58067,97.728a21.49376,21.49376,0,0,0-.41042-4.498,19.87675,19.87675,0,0,1,0-7.4229,21.48251,21.48251,0,0,0,.41042-4.499,0.82991,0.82991,0,0,0-.10707-0.5625,0.83173,0.83173,0,0,0-.10688.5625A17.2319,17.2319,0,0,1,136.017,85.02a24.86941,24.86941,0,0,0,0,8.9971,19.86667,19.86667,0,0,1,0,7.4228,24.86941,24.86941,0,0,0,0,8.9971,19.90329,19.90329,0,0,1,0,7.4297,24.87435,24.87435,0,0,0,0,8.998,19.90861,19.90861,0,0,1,0,7.4307,24.90671,24.90671,0,0,0,0,9.0039,17.2809,17.2809,0,0,1,.34975,3.7158,0.83151,0.83151,0,0,0,.10688.5635,0.83181,0.83181,0,0,0,.10707-0.5635,21.49856,21.49856,0,0,0-.41042-4.501,19.93306,19.93306,0,0,1,0-7.4335,24.88609,24.88609,0,0,0,0-9.002,19.90223,19.90223,0,0,1,0-7.4277,24.87018,24.87018,0,0,0,0-8.9991,19.88683,19.88683,0,0,1,0-7.4248A21.49037,21.49037,0,0,0,136.58067,97.728Z"/>
    <path d="M102.6147,92.6528L89.5986,88.2739S85.8447,74.0044,75.8315,66.9985c-10.0132-7.0117-15.769-6.3867-20.3989-2.8789-12.5762,9.5176-14.2891,27.4863-12.9932,42.044a119.96433,119.96433,0,0,0,2.5074,16.6904,81.95222,81.95222,0,0,0,6.9018,18.9062c5.1987,9.8995,10.8237,19.1465,22.9859,20.0157a11.71443,11.71443,0,0,0,6.5039-1.167c3.0039-1.502,7.2592-5.7549,8.0122-8.1338l13.2641,4.7558s-2.8799,11.8907-8.1357,16.3965c-5.2554,4.5059-12.5147,8.8867-21.1494,6.5078-12.5943-3.4677-22.3262-13.7031-28.5059-24.8369a115.09386,115.09386,0,0,1-13.4131-43.0752c-0.5351-5.292-.7119-10.622-0.7412-15.9365-0.0449-7.5537.293-15.2949,2.1113-22.6562A57.57727,57.57727,0,0,1,42.7925,52.105c3.7539-5.1289,12.0752-11.4668,20.2422-8.9873,8.1669,2.4775,16.998,8.3418,22.2089,15.6006,5.21,7.2578,16.7461,24.1738,17.2461,33.3095" style="fill: #6390ff"/>
    <path d="M130.0239,39.7417a28.55659,28.55659,0,0,0-21.9004-6.1338L57.1074,42.56c31.9131,2.127,45.5083,50.4952,45.5083,50.4952l52.6895-9.3858C151.0483,64.52,140.1597,48.1274,130.0239,39.7417Z" style="fill: #e2c000"/>
  </g>
  <g id="c-anim2">
    <path d="M78.0996,179.562a0.21746,0.21746,0,0,1-.1392.0996C77.9404,179.5815,77.9985,179.5561,78.0996,179.562Z" style="fill: #e2c000"/>
    <path d="M151.4663,146.0766l-53.2315,7.9268s-18.4223,23.916-20.1342,25.5586a12.99439,12.99439,0,0,1,2.4926,1.0811s45.3038-6.7422,45.4288-7.2403c0.125-.5019,13.8935-0.5019,20.2724-9.0127a64.64534,64.64534,0,0,0,9.0742-16.751Z" style="fill: #e2c000"/>
    <rect x="92.024" y="141.28557" width="6.13231" height="19.46297" transform="translate(270.16991 116.44296) rotate(111.02636)" style="fill: #feffff"/>
    <rect x="100.2098" y="141.55317" width="61.50131" height="11.04685" transform="translate(-22.76292 23.98602) rotate(-9.63215)" style="fill: #feffff"/>
    <path d="M106.5708,104.0366a5.941,5.941,0,0,0-2.1602-4.499,4.66348,4.66348,0,0,1,0-7.4229,5.9387,5.9387,0,0,0,2.1602-4.498,0.5635,0.5635,0,1,0-1.127,0,4.81982,4.81982,0,0,1-1.8398,3.7109,5.76415,5.76415,0,0,0,0,8.9971,4.66337,4.66337,0,0,1,0,7.4228,5.76415,5.76415,0,0,0,0,8.9971,4.66933,4.66933,0,0,1,0,7.4287,5.76519,5.76519,0,0,0,0,8.9981,4.67226,4.67226,0,0,1,0,7.4316,5.77019,5.77019,0,0,0,0,9.0029,4.8313,4.8313,0,0,1,1.8398,3.7178,0.5635,0.5635,0,0,0,1.127,0,5.94805,5.94805,0,0,0-2.1602-4.5029,4.67327,4.67327,0,0,1,0-7.4326,5.77029,5.77029,0,0,0,0-9.003,4.66731,4.66731,0,0,1,0-7.4267,5.76612,5.76612,0,0,0,0-8.999,4.6664,4.6664,0,0,1,0-7.4258A5.93491,5.93491,0,0,0,106.5708,104.0366Z"/>
    <path d="M112.7475,102.4546a5.94091,5.94091,0,0,0-2.1601-4.499,4.66332,4.66332,0,0,1,0-7.4229,5.93882,5.93882,0,0,0,2.1601-4.498,0.563,0.563,0,1,0-1.1259,0,4.823,4.823,0,0,1-1.8399,3.7109,5.76431,5.76431,0,0,0,0,8.9971,4.66322,4.66322,0,0,1,0,7.4228,5.76431,5.76431,0,0,0,0,8.9971,4.66917,4.66917,0,0,1,0,7.4287,5.76629,5.76629,0,0,0,0,8.999,4.67119,4.67119,0,0,1,0,7.4307,5.77035,5.77035,0,0,0,0,9.0029,4.834,4.834,0,0,1,1.8399,3.7178,0.563,0.563,0,0,0,1.1259,0,5.94438,5.94438,0,0,0-2.1601-4.502,4.67412,4.67412,0,0,1,0-7.4336,5.76827,5.76827,0,0,0,0-9.0009,4.66917,4.66917,0,0,1,0-7.4287,5.7664,5.7664,0,0,0,0-8.9991,4.66524,4.66524,0,0,1,0-7.4248A5.93864,5.93864,0,0,0,112.7475,102.4546Z"/>
    <path d="M119.5347,101.4536a5.941,5.941,0,0,0-2.1602-4.499,4.66348,4.66348,0,0,1,0-7.4229,5.9387,5.9387,0,0,0,2.1602-4.498,0.563,0.563,0,1,0-1.126,0,4.823,4.823,0,0,1-1.8399,3.7109,5.76431,5.76431,0,0,0,0,8.9971,4.66322,4.66322,0,0,1,0,7.4228,5.76431,5.76431,0,0,0,0,8.9971,4.66817,4.66817,0,0,1,0,7.4277,5.76733,5.76733,0,0,0,0,9,4.67119,4.67119,0,0,1,0,7.4307,5.77035,5.77035,0,0,0,0,9.0029,4.83418,4.83418,0,0,1,1.8399,3.7178,0.563,0.563,0,0,0,1.126,0,5.944,5.944,0,0,0-2.1602-4.5019,4.67428,4.67428,0,0,1,0-7.4336,5.76821,5.76821,0,0,0,0-9.001,4.66957,4.66957,0,0,1,.001-7.4297,5.76592,5.76592,0,0,0-.001-8.998,4.66549,4.66549,0,0,1,0-7.4249A5.93853,5.93853,0,0,0,119.5347,101.4536Z"/>
    <path d="M125.8579,100.063a5.94243,5.94243,0,0,0-2.1602-4.4981,4.66337,4.66337,0,0,1,0-7.4228,5.93939,5.93939,0,0,0,2.1602-4.499,0.5635,0.5635,0,0,0-1.127,0,4.81736,4.81736,0,0,1-1.8398,3.7119,5.764,5.764,0,0,0,0,8.997,4.66348,4.66348,0,0,1,0,7.4229,5.76415,5.76415,0,0,0,0,8.9971,4.66933,4.66933,0,0,1,0,7.4287,5.76612,5.76612,0,0,0,0,8.999,4.67034,4.67034,0,0,1,0,7.4297,5.77123,5.77123,0,0,0,0,9.0039,4.827,4.827,0,0,1,1.8398,3.7158,0.5635,0.5635,0,0,0,1.127,0,5.94217,5.94217,0,0,0-2.1602-4.501,4.67428,4.67428,0,0,1,0-7.4336,5.7681,5.7681,0,0,0,0-9.0009,4.66933,4.66933,0,0,1,0-7.4287,5.76519,5.76519,0,0,0,0-8.9981,4.66539,4.66539,0,0,1,0-7.4248A5.94272,5.94272,0,0,0,125.8579,100.063Z"/>
    <path d="M132.5239,99.2212a5.941,5.941,0,0,0-2.1601-4.4981,4.66322,4.66322,0,0,1,0-7.4228,5.93966,5.93966,0,0,0,2.1601-4.499,0.56345,0.56345,0,0,0-1.1269,0,4.81744,4.81744,0,0,1-1.8399,3.7119,5.76421,5.76421,0,0,0,0,8.997,4.66332,4.66332,0,0,1,0,7.4229,5.76431,5.76431,0,0,0,0,8.9971,4.66816,4.66816,0,0,1,0,7.4277,5.76629,5.76629,0,0,0,0,8.999,4.67119,4.67119,0,0,1,0,7.4307,5.77035,5.77035,0,0,0,0,9.0029,4.82767,4.82767,0,0,1,1.8399,3.7168,0.56345,0.56345,0,0,0,1.1269,0,5.946,5.946,0,0,0-2.1601-4.5019,4.67321,4.67321,0,0,1,0-7.4327,5.76733,5.76733,0,0,0,0-9,4.67008,4.67008,0,0,1,0-7.4296,5.76535,5.76535,0,0,0,0-8.9981,4.66524,4.66524,0,0,1,0-7.4248A5.94124,5.94124,0,0,0,132.5239,99.2212Z"/>
    <path d="M138.6567,97.728a5.942,5.942,0,0,0-2.1601-4.498,4.66332,4.66332,0,0,1,0-7.4229,5.93916,5.93916,0,0,0,2.1601-4.499,0.563,0.563,0,0,0-1.126,0,4.81815,4.81815,0,0,1-1.8408,3.7119,5.76582,5.76582,0,0,0,0,8.9971,4.66184,4.66184,0,0,1,0,7.4228,5.76582,5.76582,0,0,0,0,8.9971,4.6688,4.6688,0,0,1,0,7.4297,5.76675,5.76675,0,0,0,0,8.998,4.66981,4.66981,0,0,1,0,7.4307,5.7729,5.7729,0,0,0,0,9.0039,4.82791,4.82791,0,0,1,1.8408,3.7158,0.563,0.563,0,1,0,1.126,0,5.94211,5.94211,0,0,0-2.1601-4.501,4.674,4.674,0,0,1,0-7.4335,5.76942,5.76942,0,0,0,0-9.002,4.66816,4.66816,0,0,1,0-7.4277,5.7664,5.7664,0,0,0,0-8.9991,4.66524,4.66524,0,0,1,0-7.4248A5.94091,5.94091,0,0,0,138.6567,97.728Z"/>
    <path d="M102.6147,92.6528L89.5986,88.2739S85.8447,74.0044,75.8315,66.9985c-10.0132-7.0117-15.769-6.3867-20.3989-2.8789-12.5762,9.5176-14.2891,27.4863-12.9932,42.044a119.96433,119.96433,0,0,0,2.5074,16.6904,81.95222,81.95222,0,0,0,6.9018,18.9062c5.1987,9.8995,10.8237,19.1465,22.9859,20.0157a11.71443,11.71443,0,0,0,6.5039-1.167c3.0039-1.502,7.2592-5.7549,8.0122-8.1338l13.2641,4.7558s-2.8799,11.8907-8.1357,16.3965c-5.2554,4.5059-12.5147,8.8867-21.1494,6.5078-12.5943-3.4677-22.3262-13.7031-28.5059-24.8369a115.09386,115.09386,0,0,1-13.4131-43.0752c-0.5351-5.292-.7119-10.622-0.7412-15.9365-0.0449-7.5537.293-15.2949,2.1113-22.6562A57.57727,57.57727,0,0,1,42.7925,52.105c3.7539-5.1289,12.0752-11.4668,20.2422-8.9873,8.1669,2.4775,16.998,8.3418,22.2089,15.6006,5.21,7.2578,16.7461,24.1738,17.2461,33.3095" style="fill: #6390ff"/>
    <path d="M130.0239,39.7417a28.55659,28.55659,0,0,0-21.9004-6.1338L57.1074,42.56c31.9131,2.127,45.5083,50.4952,45.5083,50.4952l52.6895-9.3858C151.0483,64.52,140.1597,48.1274,130.0239,39.7417Z" style="fill: #e2c000"/>
  </g>
</svg>
