<?xml version="1.0" encoding="utf-8"?>
<!-- Generator: Adobe Illustrator 16.0.4, SVG Export Plug-In . SVG Version: 6.00 Build 0)  -->
<!DOCTYPE svg PUBLIC "-//W3C//DTD SVG 1.1//EN" "http://www.w3.org/Graphics/SVG/1.1/DTD/svg11.dtd">
<svg version="1.1" id="C" xmlns="http://www.w3.org/2000/svg" xmlns:xlink="http://www.w3.org/1999/xlink" x="0px" y="0px"
	 width="122.333px" height="139.667px" viewBox="0 0 122.333 139.667" enable-background="new 0 0 122.333 139.667"
	 xml:space="preserve">
<g id="c-anim1">
	<path fill="#211D56" d="M84.12,107.216c-10.016-6.23-14.216-13.965-18.74-26.404c-4.521-12.438-3.875-26.979-3.875-26.979
		l-4.2-14.54L34.04,22.815L19.5,32.499l-6.948,22.788l6.14,42.649l21.647,25.688l47.66-2.584L84.12,107.216z"/>
	<path fill="#D1F5DD" d="M110.756,103.824l-45.809,6.82c0,0-17.362,22.512-17.458,22.08c-0.107-0.432,2.265,0.848,2.265,0.848
		s38.989-5.803,39.094-6.23c0.104-0.432,11.956-0.432,17.438-7.756c5.494-7.312,7.812-14.416,7.812-14.416L110.756,103.824z"/>
	<polyline fill="#FEFFFF" points="57.302,109.33 103.722,101.007 114.116,105.169 68.715,113.423 57.302,109.193 	"/>
	<path fill="none" stroke="#000000" stroke-width="2" d="M70.499,51.607c0,14.135,0,45.592,0,58.727"/>
	<path fill="none" stroke="#000000" stroke-width="2" d="M77.833,49.94c0,14.788,0,46.7,0,58.728"/>
	<path fill="none" stroke="#000000" stroke-width="2" d="M85.167,49.106c0,14.916,0,46.914,0,58.728"/>
	<path fill="none" stroke="#000000" stroke-width="2" d="M92.499,47.273c0,15.164,0,47.334,0,58.727"/>
	<path fill="none" stroke="#000000" stroke-width="2" d="M99.833,45.773c0.271,15.436,0,47.85,0,58.727"/>
	<path fill="none" stroke="#000000" stroke-width="2" d="M107.167,44.439c0,15.287,0,47.542,0,58.727"/>
	<path fill="#635CFF" d="M68.715,57.849l-11.199-3.77c0,0-3.229-12.278-11.847-18.31c-8.617-6.033-13.57-5.494-17.555-2.478
		c-10.823,8.192-12.297,23.657-11.182,36.184c0.425,4.759,1.061,9.712,2.157,14.364c1.302,5.514,3.301,11.246,5.939,16.271
		c4.475,8.521,9.313,16.476,19.782,17.226c2.051,0.146,3.758-0.082,5.597-1.004c2.584-1.293,6.246-4.953,6.894-7l11.415,4.092
		c0,0-2.479,10.229-7,14.109c-4.521,3.877-10.77,7.645-18.188,5.6c-10.838-2.979-19.213-11.791-24.531-21.373
		c-3.504-6.311-6.208-13.061-8.217-20.004c-1.61-5.562-2.742-11.293-3.325-17.062c-0.462-4.556-0.614-9.142-0.64-13.716
		c-0.04-6.5,0.25-13.163,1.815-19.498c2.155-8.725,5.386-14.109,8.615-18.525c3.229-4.414,10.392-9.866,17.42-7.732
		c7.028,2.132,14.628,7.178,19.111,13.424c4.484,6.246,14.413,20.804,14.85,28.666"/>
	<path fill="#D1F5DD" d="M114.058,50.116l-45.343,8.078c0,0-11.698-41.625-39.167-43.455l43.908-7.703
		c0,0,10.123-1.939,18.846,5.276C101.027,19.53,110.398,33.639,114.058,50.116z"/>
</g>
<g id="c-anim2">
	<path fill="#211D56" d="M84.12,107.216c-10.016-6.23-14.216-13.965-18.74-26.404c-4.521-12.438-3.875-26.979-3.875-26.979
		l-4.2-14.54L34.04,22.815L19.5,32.499l-6.948,22.788l6.14,42.649l21.647,25.688l47.66-2.584L84.12,107.216z"/>
	<path fill="#D1F5DD" d="M110.756,103.824l-45.809,6.82c0,0-17.362,22.512-17.458,22.08c-0.107-0.432,2.265,0.848,2.265,0.848
		s38.989-5.803,39.094-6.23c0.104-0.432,11.956-0.432,17.438-7.756c5.494-7.312,7.812-14.416,7.812-14.416L110.756,103.824z"/>
	<polyline fill="#FEFFFF" points="57.302,109.33 103.722,101.007 114.116,105.169 68.715,113.423 57.302,109.193 	"/>
	<path fill="none" stroke="#000000" stroke-width="2" d="M70.499,51.607c3.182,14.279-3.019,46.383,0,58.727"/>
	<path fill="none" stroke="#000000" stroke-width="2" d="M77.833,49.94c4.176,14.728-4.765,42.664,0,58.728"/>
	<path fill="none" stroke="#000000" stroke-width="2" d="M85.167,49.106c3.444,14.038-4.375,45.327,0,58.728"/>
	<path fill="none" stroke="#000000" stroke-width="2" d="M92.499,47.273c3.528,14.347-4.09,45.939,0,58.727"/>
	<path fill="none" stroke="#000000" stroke-width="2" d="M99.833,45.773c3.813,14.729-5.432,47.949,0,58.727"/>
	<path fill="none" stroke="#000000" stroke-width="2" d="M107.167,44.439c3.59,15.25-4.842,46.234,0,58.727"/>
	<path fill="#7D7DF9" d="M68.715,57.849l-11.199-3.77c0,0-3.229-12.278-11.847-18.31c-8.617-6.033-13.57-5.494-17.555-2.478
		c-10.823,8.192-12.297,23.657-11.182,36.184c0.425,4.759,1.061,9.712,2.157,14.364c1.302,5.514,3.301,11.246,5.939,16.271
		c4.475,8.521,9.313,16.476,19.782,17.226c2.051,0.146,3.758-0.082,5.597-1.004c2.584-1.293,6.246-4.953,6.894-7l11.415,4.092
		c0,0-2.479,10.229-7,14.109c-4.521,3.877-10.77,7.645-18.188,5.6c-10.838-2.979-19.213-11.791-24.531-21.373
		c-3.504-6.311-6.208-13.061-8.217-20.004c-1.61-5.562-2.742-11.293-3.325-17.062c-0.462-4.556-0.614-9.142-0.64-13.716
		c-0.04-6.5,0.25-13.163,1.815-19.498c2.155-8.725,5.386-14.109,8.615-18.525c3.229-4.414,10.392-9.866,17.42-7.732
		c7.028,2.132,14.628,7.178,19.111,13.424c4.484,6.246,14.413,20.804,14.85,28.666"/>
	<path fill="#D1F5DD" d="M114.058,50.116l-45.343,8.078c0,0-11.698-41.625-39.167-43.455l43.908-7.703
		c0,0,10.123-1.939,18.846,5.276C101.027,19.53,110.398,33.639,114.058,50.116z"/>
</g>
</svg>
