<?xml version="1.0" encoding="utf-8"?>
<!-- Generator: Adobe Illustrator 16.0.4, SVG Export Plug-In . SVG Version: 6.00 Build 0)  -->
<!DOCTYPE svg PUBLIC "-//W3C//DTD SVG 1.1//EN" "http://www.w3.org/Graphics/SVG/1.1/DTD/svg11.dtd">
<svg version="1.1" id="all" xmlns="http://www.w3.org/2000/svg" xmlns:xlink="http://www.w3.org/1999/xlink" x="0px" y="0px"
	 width="212px" height="219.7px" viewBox="0 0 212 219.7" style="enable-background:new 0 0 212 219.7;" xml:space="preserve">
<style type="text/css">
<![CDATA[
	.st0{fill:#47797F;}
	.st1{fill:#4779B3;}
	.st2{display:inline;fill:#803675;}
	.st3{fill:#E2C000;}
	.st4{fill:#803675;}
	.st5{fill:#85ACFF;}
	.st6{fill:#F4571C;}
	.st7{display:inline;fill:#2A3297;}
	.st8{display:inline;fill:#FD858F;}
	.st9{display:inline;fill:#FFFFFF;}
	.st10{fill:#2A3297;}
	.st11{fill:#FD858F;}
	.st12{fill:#FEFFFF;}
	.st13{fill:#FFFFFF;}
	.st14{fill:#634382;}
	.st15{fill:#6390FF;}
	.st16{display:inline;fill:#D47513;}
	.st17{fill:#0000A6;}
	.st18{display:inline;fill:#3FB9AE;}
	.st19{fill:#D2B8B5;}
	.st20{fill:#D47513;}
	.st21{fill:#D9B90F;}
	.st22{fill:#3FB9AE;}
	.st23{display:none;}
	.st24{display:inline;fill:#47797F;}
	.st25{fill:#0D1B42;}
	.st26{fill:#0F1D42;}
	.st27{fill:#0F1D44;}
	.st28{fill:#DDBA18;}
	.st29{fill:none;stroke:#000000;stroke-width:1.1264;stroke-linecap:round;stroke-miterlimit:10;}
]]>
</style>
<g id="m3-anim2">
</g>
<g id="m3-anim1" class="st23">
</g>
<g id="m2-anim2">
</g>
<g id="m2-anim1">
</g>
<g id="c-anim1">
	<path class="st26" d="M94.2,88c0,0-0.8,16.9,4.5,31.4c5.3,14.5,10.1,23.4,21.8,30.7l4.5,16.1l-55.4,3l-25.2-29.9l-7.1-49.6
		l8.1-26.5l16.9-11.3l27,19.1L94.2,88z"/>
	<path class="st3" d="M151.5,146.1L98.2,154c0,0-20.1,26.2-20.3,25.7c-0.1-0.5,2.6,1,2.6,1s45.3-6.7,45.4-7.2
		c0.1-0.5,13.9-0.5,20.3-9c6.4-8.5,9.1-16.8,9.1-16.8L151.5,146.1z"/>
	<polyline class="st12" points="89.4,152.5 143.3,142.8 155.4,147.6 102.6,157.2 89.4,152.3 	"/>
	<line class="st29" x1="104" y1="87.6" x2="104" y2="153.3"/>
	<line class="st29" x1="110.2" y1="86" x2="110.2" y2="151.7"/>
	<line class="st29" x1="117" y1="85" x2="117" y2="150.7"/>
	<line class="st29" x1="123.3" y1="83.6" x2="123.3" y2="149.4"/>
	<line class="st29" x1="130" y1="82.8" x2="130" y2="148.5"/>
	<line class="st29" x1="136.1" y1="81.3" x2="136.1" y2="147"/>
	<line class="st29" x1="142.4" y1="80.4" x2="142.4" y2="146.1"/>
	<path class="st15" d="M102.6,92.7l-13-4.4c0,0-3.8-14.3-13.8-21.3c-10-7-15.8-6.4-20.4-2.9c-12.6,9.5-14.3,27.5-13,42
		c0.5,5.5,1.2,11.3,2.5,16.7c1.5,6.4,3.8,13.1,6.9,18.9c5.2,9.9,10.8,19.1,23,20c2.4,0.2,4.4-0.1,6.5-1.2c3-1.5,7.3-5.8,8-8.1
		l13.3,4.8c0,0-2.9,11.9-8.1,16.4c-5.3,4.5-12.5,8.9-21.1,6.5c-12.6-3.5-22.3-13.7-28.5-24.8c-4.1-7.3-7.2-15.2-9.5-23.2
		c-1.9-6.5-3.2-13.1-3.9-19.8c-0.5-5.3-0.7-10.6-0.7-15.9c0-7.6,0.3-15.3,2.1-22.7c2.5-10.1,6.3-16.4,10-21.5s12.1-11.5,20.2-9
		c8.2,2.5,17,8.3,22.2,15.6C90.5,66,102,82.9,102.5,92"/>
	<path class="st3" d="M130,39.7c-10.1-8.4-21.9-6.1-21.9-6.1l-51,9c31.9,2.1,45.5,50.5,45.5,50.5l52.7-9.4
		C151,64.5,140.2,48.1,130,39.7z"/>
</g>
<g id="c-anim2">
	<path class="st26" d="M120.5,150c-11.6-7.2-16.5-16.2-21.8-30.7C93.5,104.9,94.2,88,94.2,88l-4.9-16.9l-27-19.1L45.4,63.2
		l-8.1,26.5l7.1,49.6l25.2,29.9l55.4-3L120.5,150z"/>
	<path class="st3" d="M78.1,179.6c-0.1,0.1-0.1,0.1-0.1,0.1C77.9,179.6,78,179.6,78.1,179.6z"/>
	<path class="st3" d="M151.5,146.1L98.2,154c0,0-18.4,23.9-20.1,25.6c0.5,0,2.5,1.1,2.5,1.1s45.3-6.7,45.4-7.2
		c0.1-0.5,13.9-0.5,20.3-9c6.4-8.5,9.1-16.8,9.1-16.8L151.5,146.1z"/>
	<path class="st15" d="M81.3,160.6c-2.1,1.1-4.1,1.3-6.5,1.2c-12.2-0.9-17.8-10.1-23-20c-3.1-5.8-5.4-12.5-6.9-18.9
		c-1.3-5.4-2-11.2-2.5-16.7c-1.3-14.6,0.4-32.5,13-42c4.6-3.5,10.4-4.1,20.4,2.9c10,7,13.8,21.3,13.8,21.3l13,4.4l-0.1-0.6
		c-0.5-9.1-12-26.1-17.2-33.3C80,51.5,71.2,45.6,63,43.1c-8.2-2.5-16.5,3.9-20.2,9s-7.5,11.4-10,21.5C31,81,30.6,88.7,30.7,96.3
		c0,5.3,0.2,10.6,0.7,15.9c0.7,6.7,2,13.4,3.9,19.8c2.3,8.1,5.5,15.9,9.5,23.2c6.2,11.1,15.9,21.4,28.5,24.8
		c8.6,2.4,15.9-2,21.1-6.5c5.3-4.5,8.1-16.4,8.1-16.4l-13.3-4.8C88.6,154.9,84.3,159.1,81.3,160.6z"/>
	<polygon class="st12" points="143.3,142.8 89.4,152.5 102.6,157.2 155.4,147.6 	"/>
	<path d="M106.6,104c0-2.3-1.1-3.5-2.2-4.5c-1-1-1.8-1.9-1.8-3.7c0-1.8,0.9-2.7,1.8-3.7c1-1,2.2-2.2,2.2-4.5c0-0.3-0.3-0.6-0.6-0.6
		c-0.3,0-0.6,0.3-0.6,0.6c0,1.8-0.9,2.7-1.8,3.7c-1,1-2.2,2.2-2.2,4.5c0,2.3,1.1,3.5,2.2,4.5c1,1,1.8,1.9,1.8,3.7
		c0,1.8-0.9,2.7-1.8,3.7c-1,1-2.2,2.2-2.2,4.5c0,2.3,1.1,3.5,2.2,4.5c1,1,1.8,1.9,1.8,3.7c0,1.8-0.9,2.7-1.8,3.7
		c-1,1-2.2,2.2-2.2,4.5c0,2.3,1.1,3.5,2.2,4.5c1,1,1.8,1.9,1.8,3.7c0,1.8-0.9,2.7-1.8,3.7c-1,1-2.2,2.2-2.2,4.5s1.1,3.5,2.2,4.5
		c1,1,1.8,1.9,1.8,3.7c0,0.3,0.3,0.6,0.6,0.6c0.3,0,0.6-0.3,0.6-0.6c0-2.3-1.1-3.5-2.2-4.5c-1-1-1.8-1.9-1.8-3.7
		c0-1.8,0.9-2.7,1.8-3.7c1-1,2.2-2.2,2.2-4.5s-1.1-3.5-2.2-4.5c-1-1-1.8-1.9-1.8-3.7c0-1.8,0.9-2.7,1.8-3.7c1-1,2.2-2.2,2.2-4.5
		s-1.1-3.5-2.2-4.5c-1-1-1.8-1.9-1.8-3.7c0-1.8,0.9-2.7,1.8-3.7C105.4,107.5,106.6,106.3,106.6,104z"/>
	<path d="M112.7,102.5c0-2.3-1.1-3.5-2.2-4.5c-1-1-1.8-1.9-1.8-3.7c0-1.8,0.9-2.7,1.8-3.7c1-1,2.2-2.2,2.2-4.5
		c0-0.3-0.3-0.6-0.6-0.6c-0.3,0-0.6,0.3-0.6,0.6c0,1.8-0.9,2.7-1.8,3.7c-1,1-2.2,2.2-2.2,4.5c0,2.3,1.1,3.5,2.2,4.5
		c1,1,1.8,1.9,1.8,3.7c0,1.8-0.9,2.7-1.8,3.7c-1,1-2.2,2.2-2.2,4.5c0,2.3,1.1,3.5,2.2,4.5c1,1,1.8,1.9,1.8,3.7
		c0,1.8-0.9,2.7-1.8,3.7c-1,1-2.2,2.2-2.2,4.5s1.1,3.5,2.2,4.5c1,1,1.8,1.9,1.8,3.7c0,1.8-0.9,2.7-1.8,3.7c-1,1-2.2,2.2-2.2,4.5
		c0,2.3,1.1,3.5,2.2,4.5c1,1,1.8,1.9,1.8,3.7c0,0.3,0.3,0.6,0.6,0.6c0.3,0,0.6-0.3,0.6-0.6c0-2.3-1.1-3.5-2.2-4.5
		c-1-1-1.8-1.9-1.8-3.7c0-1.8,0.9-2.7,1.8-3.7c1-1,2.2-2.2,2.2-4.5c0-2.3-1.1-3.5-2.2-4.5c-1-1-1.8-1.9-1.8-3.7
		c0-1.8,0.9-2.7,1.8-3.7c1-1,2.2-2.2,2.2-4.5s-1.1-3.5-2.2-4.5c-1-1-1.8-1.9-1.8-3.7c0-1.8,0.9-2.7,1.8-3.7
		C111.6,105.9,112.7,104.7,112.7,102.5z"/>
	<path d="M119.5,101.5c0-2.3-1.1-3.5-2.2-4.5c-1-1-1.8-1.9-1.8-3.7c0-1.8,0.9-2.7,1.8-3.7c1-1,2.2-2.2,2.2-4.5
		c0-0.3-0.3-0.6-0.6-0.6c-0.3,0-0.6,0.3-0.6,0.6c0,1.8-0.9,2.7-1.8,3.7c-1,1-2.2,2.2-2.2,4.5c0,2.3,1.1,3.5,2.2,4.5
		c1,1,1.8,1.9,1.8,3.7c0,1.8-0.9,2.7-1.8,3.7c-1,1-2.2,2.2-2.2,4.5c0,2.3,1.1,3.5,2.2,4.5c1,1,1.8,1.9,1.8,3.7s-0.9,2.7-1.8,3.7
		c-1,1-2.2,2.2-2.2,4.5c0,2.3,1.1,3.5,2.2,4.5c1,1,1.8,1.9,1.8,3.7c0,1.8-0.9,2.7-1.8,3.7c-1,1-2.2,2.2-2.2,4.5
		c0,2.3,1.1,3.5,2.2,4.5c1,1,1.8,1.9,1.8,3.7c0,0.3,0.3,0.6,0.6,0.6c0.3,0,0.6-0.3,0.6-0.6c0-2.3-1.1-3.5-2.2-4.5
		c-1-1-1.8-1.9-1.8-3.7c0-1.8,0.9-2.7,1.8-3.7c1-1,2.2-2.2,2.2-4.5c0-2.3-1.1-3.5-2.2-4.5c-1-1-1.8-1.9-1.8-3.7
		c0-1.8,0.9-2.7,1.8-3.7c1-1,2.2-2.2,2.2-4.5s-1.1-3.5-2.2-4.5c-1-1-1.8-1.9-1.8-3.7c0-1.8,0.9-2.7,1.8-3.7
		C118.4,104.9,119.5,103.7,119.5,101.5z"/>
	<path d="M125.9,100.1c0-2.3-1.1-3.5-2.2-4.5c-1-1-1.8-1.9-1.8-3.7c0-1.8,0.9-2.7,1.8-3.7c1-1,2.2-2.2,2.2-4.5
		c0-0.3-0.3-0.6-0.6-0.6s-0.6,0.3-0.6,0.6c0,1.8-0.9,2.7-1.8,3.7c-1,1-2.2,2.2-2.2,4.5s1.1,3.5,2.2,4.5c1,1,1.8,1.9,1.8,3.7
		c0,1.8-0.9,2.7-1.8,3.7c-1,1-2.2,2.2-2.2,4.5c0,2.3,1.1,3.5,2.2,4.5c1,1,1.8,1.9,1.8,3.7c0,1.8-0.9,2.7-1.8,3.7
		c-1,1-2.2,2.2-2.2,4.5c0,2.3,1.1,3.5,2.2,4.5c1,1,1.8,1.9,1.8,3.7s-0.9,2.7-1.8,3.7c-1,1-2.2,2.2-2.2,4.5s1.1,3.5,2.2,4.5
		c1,1,1.8,1.9,1.8,3.7c0,0.3,0.3,0.6,0.6,0.6s0.6-0.3,0.6-0.6c0-2.3-1.1-3.5-2.2-4.5c-1-1-1.8-1.9-1.8-3.7s0.9-2.7,1.8-3.7
		c1-1,2.2-2.2,2.2-4.5s-1.1-3.5-2.2-4.5c-1-1-1.8-1.9-1.8-3.7c0-1.8,0.9-2.7,1.8-3.7c1-1,2.2-2.2,2.2-4.5c0-2.3-1.1-3.5-2.2-4.5
		c-1-1-1.8-1.9-1.8-3.7c0-1.8,0.9-2.7,1.8-3.7C124.7,103.5,125.9,102.3,125.9,100.1z"/>
	<path d="M132.5,99.2c0-2.3-1.1-3.5-2.2-4.5c-1-1-1.8-1.9-1.8-3.7s0.9-2.7,1.8-3.7c1-1,2.2-2.2,2.2-4.5c0-0.3-0.3-0.6-0.6-0.6
		s-0.6,0.3-0.6,0.6c0,1.8-0.9,2.7-1.8,3.7c-1,1-2.2,2.2-2.2,4.5s1.1,3.5,2.2,4.5c1,1,1.8,1.9,1.8,3.7c0,1.8-0.9,2.7-1.8,3.7
		c-1,1-2.2,2.2-2.2,4.5s1.1,3.5,2.2,4.5c1,1,1.8,1.9,1.8,3.7c0,1.8-0.9,2.7-1.8,3.7c-1,1-2.2,2.2-2.2,4.5c0,2.3,1.1,3.5,2.2,4.5
		c1,1,1.8,1.9,1.8,3.7c0,1.8-0.9,2.7-1.8,3.7c-1,1-2.2,2.2-2.2,4.5s1.1,3.5,2.2,4.5c1,1,1.8,1.9,1.8,3.7c0,0.3,0.3,0.6,0.6,0.6
		s0.6-0.3,0.6-0.6c0-2.3-1.1-3.5-2.2-4.5c-1-1-1.8-1.9-1.8-3.7c0-1.8,0.9-2.7,1.8-3.7c1-1,2.2-2.2,2.2-4.5c0-2.3-1.1-3.5-2.2-4.5
		c-1-1-1.8-1.9-1.8-3.7s0.9-2.7,1.8-3.7c1-1,2.2-2.2,2.2-4.5c0-2.3-1.1-3.5-2.2-4.5c-1-1-1.8-1.9-1.8-3.7c0-1.8,0.9-2.7,1.8-3.7
		C131.4,102.7,132.5,101.5,132.5,99.2z"/>
	<path d="M138.7,97.7c0-2.3-1.1-3.5-2.2-4.5c-1-1-1.8-1.9-1.8-3.7s0.9-2.7,1.8-3.7c1-1,2.2-2.2,2.2-4.5c0-0.3-0.3-0.6-0.6-0.6
		c-0.3,0-0.6,0.3-0.6,0.6c0,1.8-0.9,2.7-1.8,3.7c-1,1-2.2,2.2-2.2,4.5s1.1,3.5,2.2,4.5c1,1,1.8,1.9,1.8,3.7c0,1.8-0.9,2.7-1.8,3.7
		c-1,1-2.2,2.2-2.2,4.5c0,2.3,1.1,3.5,2.2,4.5c1,1,1.8,1.9,1.8,3.7c0,1.8-0.9,2.7-1.8,3.7c-1,1-2.2,2.2-2.2,4.5
		c0,2.3,1.1,3.5,2.2,4.5c1,1,1.8,1.9,1.8,3.7c0,1.8-0.9,2.7-1.8,3.7c-1,1-2.2,2.2-2.2,4.5s1.1,3.5,2.2,4.5c1,1,1.8,1.9,1.8,3.7
		c0,0.3,0.3,0.6,0.6,0.6c0.3,0,0.6-0.3,0.6-0.6c0-2.3-1.1-3.5-2.2-4.5c-1-1-1.8-1.9-1.8-3.7s0.9-2.7,1.8-3.7c1-1,2.2-2.2,2.2-4.5
		c0-2.3-1.1-3.5-2.2-4.5c-1-1-1.8-1.9-1.8-3.7c0-1.8,0.9-2.7,1.8-3.7c1-1,2.2-2.2,2.2-4.5c0-2.3-1.1-3.5-2.2-4.5
		c-1-1-1.8-1.9-1.8-3.7c0-1.8,0.9-2.7,1.8-3.7C137.5,101.2,138.7,100,138.7,97.7z"/>
	<path d="M144.9,96.8c0-2.3-1.1-3.5-2.2-4.5c-1-1-1.8-1.9-1.8-3.7c0-1.8,0.9-2.7,1.8-3.7c1-1,2.2-2.2,2.2-4.5c0-0.3-0.3-0.6-0.6-0.6
		c-0.3,0-0.6,0.3-0.6,0.6c0,1.8-0.9,2.7-1.8,3.7c-1,1-2.2,2.2-2.2,4.5c0,2.3,1.1,3.5,2.2,4.5c1,1,1.8,1.9,1.8,3.7s-0.9,2.7-1.8,3.7
		c-1,1-2.2,2.2-2.2,4.5s1.1,3.5,2.2,4.5c1,1,1.8,1.9,1.8,3.7s-0.9,2.7-1.8,3.7c-1,1-2.2,2.2-2.2,4.5c0,2.3,1.1,3.5,2.2,4.5
		c1,1,1.8,1.9,1.8,3.7c0,1.8-0.9,2.7-1.8,3.7c-1,1-2.2,2.2-2.2,4.5c0,2.3,1.1,3.5,2.2,4.5c1,1,1.8,1.9,1.8,3.7
		c0,0.3,0.3,0.6,0.6,0.6c0.3,0,0.6-0.3,0.6-0.6c0-2.3-1.1-3.5-2.2-4.5c-1-1-1.8-1.9-1.8-3.7c0-1.8,0.9-2.7,1.8-3.7
		c1-1,2.2-2.2,2.2-4.5c0-2.3-1.1-3.5-2.2-4.5c-1-1-1.8-1.9-1.8-3.7c0-1.8,0.9-2.7,1.8-3.7c1-1,2.2-2.2,2.2-4.5s-1.1-3.5-2.2-4.5
		c-1-1-1.8-1.9-1.8-3.7s0.9-2.7,1.8-3.7C143.8,100.2,144.9,99.1,144.9,96.8z"/>
	<path class="st3" d="M130,39.7c-10.1-8.4-21.9-6.1-21.9-6.1l-51,9c31.9,2.1,45.5,50.5,45.5,50.5l52.7-9.4
		C151,64.5,140.2,48.1,130,39.7z"/>
</g>
<g id="m1-anim1">
</g>
<g id="m1-anim2" class="st23">
</g>
<g id="g-anim1">
</g>
<g id="g-anim2">
</g>
</svg>
