<?xml version="1.0" encoding="utf-8"?>
<!-- Generator: Adobe Illustrator 16.0.4, SVG Export Plug-In . SVG Version: 6.00 Build 0)  -->
<!DOCTYPE svg PUBLIC "-//W3C//DTD SVG 1.0//EN" "http://www.w3.org/TR/2001/REC-SVG-20010904/DTD/svg10.dtd">
<svg version="1.0" id="all" xmlns="http://www.w3.org/2000/svg" xmlns:xlink="http://www.w3.org/1999/xlink" x="0px" y="0px"
	 width="147px" height="112.5px" viewBox="0 0 147 112.5" enable-background="new 0 0 147 112.5" xml:space="preserve">
<g id="g-anim1">
	<path fill="#0F1D44" d="M135.92,57.961c-20.3,21.5-44.398,23.5-71.5,19.3c-34-5.199-35.8-27.8-61.1-36.8
		C-11.68,124.261,149.32,136.261,135.92,57.961z"/>
	<polygon fill="#E3E5E8" points="64.12,49.661 64.12,80.361 78.12,84.761 78.12,60.562"/>
	<polygon fill="#DFE1E5" points="71.62,46.161 86.32,39.461 86.32,20.261 71.62,30.861"/>
	<polygon fill="#DFE1E5" points="99.221,51.461 98.721,51.161 98.721,77.261 115.42,70.761 115.42,55.761"/>
	<polygon fill="#DDBA18" points="99.221,80.261 98.721,51.161 77.721,60.661 78.12,60.562 78.12,84.062"/>
	<path fill="#DDBA18" d="M43.22,22.161l-23,18.4l2.4,13.899c3.5,2,6.9,3.9,10.4,5.8c2.4,1.4,4.9,2.7,7.3,4c0.8,0.5,1.7,0.9,2.6,1.4
		c0.4,0.2,0.8,0.5,1.2,0.6l0,0c0-0.1-0.6-0.5-0.7-0.5c-1.5-1-2.7-2.399-3.3-4.1c-0.7-1.8-0.9-3.9-0.6-5.9
		c3.8-19.5,32.1-6.1,32.1-6.1v-18.8l-4.8-10.601L43.22,22.161z"/>
	<path fill="#F4571C" d="M102.92,32.161l-38.8,17.8l14,11l20.7-9.5l10.5,8.2c-0.8,3.1-2.5,6-5,8.7s-5.6,4.899-9.1,6.5
		c-7.5,3.399-15.7,4.399-24.602,2.899c-10.3-1.699-20.5-6.5-30.5-14.3c-9.299-7.3-13.799-13.8-13.599-19.5
		c0.2-5.7,4.2-10.399,11.9-13.899c5-2.301,10.3-3.301,16.2-3.2c5.8,0.1,11.5,1.6,17.101,4.3l14.699-10.6c-9.8-5.4-20-8.3-30.5-8.5
		c-10.5-0.3-21.1,2-31.8,6.9c-8.9,4.101-14.9,8.8-18.1,14.2c-3.2,5.4-3.5,11.6-1,18.5s8.3,13.9,17.4,21.1
		c8.9,7,18.6,12.101,29.1,15.4c10.5,3.299,20.8,4.799,30.8,4.199c10-0.5,19.5-2.801,28.3-6.801c7.2-3.299,13.2-7.601,17.9-12.898
		c4.7-5.3,7.2-10.201,7.6-14.701L102.92,32.161z"/>
	<path fill="#D2B8B5" d="M128.521,59.062c-1.3-0.801-3.101-1.101-4.9-1.101l-0.2-0.1v0.1l-0.199,0.101
		c-1.699,0.1-3.399,0.5-4.699,1.3c-2.801,1.6-3,4.2-0.301,5.8c2.699,1.5,7.199,1.4,10-0.2
		C131.021,63.161,131.221,60.562,128.521,59.062z"/>
	<path fill="#E1E7EF" d="M141.021,55.261c-1.7-5-5.7-9.6-11.5-8.5c-4.9,0.9-7.5,4.801-8.2,9.5c-0.2,1.801-0.6,4.601,0.6,6.101
		c0.602,0.8,1.7,1.1,2.7,0.8c1.3-0.4,1.9-1.5,1.7-2.8c-0.2-2.4-0.1-5.4,1.6-7.3c1.301-1.5,3.801-1.801,5.5-0.7
		c2,1.3,3,4.2,3.301,6.399c0.301,2.9,0.301,5.801,0.301,8.7c0,6.601-0.2,13.101-0.301,19.701c-0.101,3.101-0.101,6.199-0.399,9.399
		c-0.101,1.5-0.3,2.898-0.5,4.398c-0.2,1.301,0.2,2.5,1.5,3c1.601,0.602,3.3-0.5,3.399-2.1c0.101-0.801,0.101-1.6,0.199-2.4
		c0.4-6.199,0.602-12.398,0.7-18.6c0.2-6.699,0.3-13.5,0-20.2C141.521,58.961,141.62,56.961,141.021,55.261
		C140.021,52.361,142.62,59.961,141.021,55.261z"/>
	<path fill="#FFFFFF" d="M9.82,27.461v7c0,0,0.1,2,1.3,2.101c1.2,0,1.9,0.1,2-1.801l0,0v-0.1l0,0v-7.2H9.82z"/>
	<path fill="#85ACFF" d="M13.12,24.361c-1.2-0.3-2.5-0.4-3.8-0.101l-3.3-0.1v2.6l0,0c-0.1,0.801,0.4,1.7,1.6,2.4
		c2.1,1.2,5.4,1.3,7.3,0.1c0.9-0.5,1.3-1.1,1.4-1.8l0,0v-0.3l0,0v-2.7L13.12,24.361z"/>
	<path fill="#0000A6" d="M14.82,22.261c-2.1-1.199-5.4-1.3-7.3-0.1c-1.9,1.1-1.8,3,0.2,4.2c2.1,1.2,5.4,1.3,7.3,0.1
		C16.92,25.361,16.82,23.461,14.82,22.261z"/>
	<path fill="#FFFFFF" d="M24.32,17.461v7c0,0,0.1,2,1.3,2.101c1.2,0,1.9,0.1,2-1.801l0,0v-0.1l0,0v-7.2H24.32z"/>
	<path fill="#85ACFF" d="M27.62,14.361c-1.2-0.3-2.5-0.4-3.8-0.1l-3.3-0.1v2.6l0,0c-0.1,0.8,0.4,1.7,1.6,2.4
		c2.1,1.2,5.4,1.3,7.3,0.1c0.9-0.5,1.3-1.1,1.4-1.8l0,0v-0.3l0,0v-2.7L27.62,14.361z"/>
	<path fill="#0000A6" d="M29.32,12.261c-2.1-1.2-5.4-1.3-7.3-0.1c-1.9,1.1-1.8,3,0.2,4.2c2.1,1.2,5.4,1.3,7.3,0.1
		C31.42,15.361,31.32,13.461,29.32,12.261z"/>
	<path fill="#FFFFFF" d="M38.62,9.661v7c0,0,0.1,2,1.3,2.1c1.2,0,1.9,0.101,2-1.8l0,0v-0.1l0,0v-7.2H38.62z"/>
	<path fill="#85ACFF" d="M41.82,6.661c-1.2-0.3-2.5-0.4-3.8-0.1l-3.2-0.2v2.6l0,0c-0.1,0.8,0.4,1.7,1.6,2.4c2.1,1.2,5.4,1.3,7.3,0.1
		c0.9-0.5,1.3-1.1,1.4-1.8l0,0v-0.3l0,0v-2.7H41.82z"/>
	<path fill="#0000A6" d="M43.521,4.561c-2.1-1.2-5.4-1.3-7.3-0.1c-1.9,1.1-1.8,3,0.2,4.2c2.1,1.2,5.4,1.3,7.3,0.1
		C45.72,7.661,45.62,5.761,43.521,4.561z"/>
</g>
<g id="g-anim2">
	<path fill="#0F1D44" d="M135.92,57.961c-20.3,21.5-44.398,23.5-71.5,19.3c-34-5.199-35.8-27.8-61.1-36.8
		C-11.68,124.261,149.32,136.261,135.92,57.961z"/>
	<polygon fill="#E3E5E8" points="64.12,49.661 64.12,80.361 78.12,84.761 78.12,60.562"/>
	<polygon fill="#DFE1E5" points="71.62,46.161 86.32,39.461 86.32,20.261 71.62,30.861"/>
	<polygon fill="#DFE1E5" points="99.221,51.461 98.721,51.161 98.721,77.261 115.42,70.761 115.42,55.761"/>
	<polygon fill="#DDBA18" points="99.221,80.261 98.721,51.161 77.721,60.661 78.12,60.562 78.12,84.062"/>
	<path fill="#DDBA18" d="M43.22,22.161l-23,18.4l2.4,13.899c3.5,2,6.9,3.9,10.4,5.8c2.4,1.4,4.9,2.7,7.3,4c0.8,0.5,1.7,0.9,2.6,1.4
		c0.4,0.2,0.8,0.5,1.2,0.6l0,0c0-0.1-0.6-0.5-0.7-0.5c-1.5-1-2.7-2.399-3.3-4.1c-0.7-1.8-0.9-3.9-0.6-5.9
		c3.8-19.5,32.1-6.1,32.1-6.1v-18.8l-4.8-10.601L43.22,22.161z"/>
	<path fill="#F4571C" d="M102.92,32.161l-38.8,17.8l14,11l20.7-9.5l10.5,8.2c-0.8,3.1-2.5,6-5,8.7s-5.6,4.899-9.1,6.5
		c-7.5,3.399-15.7,4.399-24.602,2.899c-10.3-1.699-20.5-6.5-30.5-14.3c-9.299-7.3-13.799-13.8-13.599-19.5
		c0.2-5.7,4.2-10.399,11.9-13.899c5-2.301,10.3-3.301,16.2-3.2c5.8,0.1,11.5,1.6,17.101,4.3l14.699-10.6c-9.8-5.4-20-8.3-30.5-8.5
		c-10.5-0.3-21.1,2-31.8,6.9c-8.9,4.101-14.9,8.8-18.1,14.2c-3.2,5.4-3.5,11.6-1,18.5s8.3,13.9,17.4,21.1
		c8.9,7,18.6,12.101,29.1,15.4c10.5,3.299,20.8,4.799,30.8,4.199c10-0.5,19.5-2.801,28.3-6.801c7.2-3.299,13.2-7.601,17.9-12.898
		c4.7-5.3,7.2-10.201,7.6-14.701L102.92,32.161z"/>
	<path fill="#D2B8B5" d="M128.521,59.062c-1.3-0.801-3.101-1.101-4.9-1.101l-0.2-0.1v0.1l-0.199,0.101
		c-1.699,0.1-3.399,0.5-4.699,1.3c-2.801,1.6-3,4.2-0.301,5.8c2.699,1.5,7.199,1.4,10-0.2
		C131.021,63.161,131.221,60.562,128.521,59.062z"/>
	<path fill="#E1E7EF" d="M141.82,54.062c-2-4.9-6.5-8.4-12.3-7.301c-4.9,0.9-7.5,4.801-8.2,9.5c-0.2,1.801-0.6,4.601,0.6,6.101
		c0.602,0.8,1.7,1.1,2.7,0.8c1.3-0.4,1.9-1.5,1.7-2.8c-0.2-2.4-0.1-5.4,1.6-7.3c1.301-1.5,3.5-2.4,5.602-2.101
		c2.199,0.3,4.6,4.2,5,6.4c0.3,2.899,0.5,3.399,0.8,11.1c0.3,6.601,0.399,9.601,0.2,16.201c-0.102,3.101-1.102,7-2.2,10
		c-0.5,1.399-1.3,4.799-1.5,6.299c-0.2,1.302,0.2,2.5,1.5,3c1.601,0.601,3.3-0.5,3.399-2.1c0.101-0.8,0-1.601,0.199-2.4
		c2.102-6.5,3.4-12,3.5-18.299c0.2-6.701,0-7.201-0.3-13.899c-0.1-1.701-0.2-4.801-0.5-6.5
		C142.62,55.961,142.62,56.161,141.82,54.062z"/>
	<path fill="#FFFFFF" d="M9.82,27.461v7c0,0,0.1,2,1.3,2.101c1.2,0,1.9,0.1,2-1.801l0,0v-0.1l0,0v-7.2H9.82z"/>
	<path fill="#85ACFF" d="M13.32,27.961c-1.2-0.3-2.5-0.399-3.8-0.1l-3.3-0.101v2.601l0,0c-0.1,0.8,0.4,1.7,1.6,2.399
		c2.1,1.2,5.4,1.301,7.3,0.101c0.9-0.5,1.3-1.101,1.4-1.8l0,0v-0.301l0,0v-2.699L13.32,27.961z"/>
	<path fill="#0000A6" d="M15.021,25.861c-2.1-1.2-5.4-1.3-7.3-0.101c-1.9,1.101-1.8,3,0.2,4.2c2.1,1.2,5.4,1.3,7.3,0.101
		C17.22,28.961,17.12,27.062,15.021,25.861z"/>
	<path fill="#FFFFFF" d="M24.32,17.461v7c0,0,0.1,2,1.3,2.101c1.2,0,1.9,0.1,2-1.801l0,0v-0.1l0,0v-7.2H24.32z"/>
	<path fill="#85ACFF" d="M27.82,18.661c-1.2-0.3-2.5-0.4-3.8-0.1l-3.2-0.101v2.601l0,0c-0.1,0.8,0.4,1.699,1.6,2.399
		c2.1,1.2,5.4,1.3,7.3,0.101c0.9-0.5,1.3-1.101,1.4-1.801l0,0v-0.3l0,0v-2.7L27.82,18.661z"/>
	<path fill="#0000A6" d="M29.521,16.561c-2.1-1.2-5.4-1.3-7.3-0.1c-1.9,1.101-1.8,3,0.2,4.2c2.1,1.2,5.4,1.3,7.3,0.1
		C31.72,19.661,31.62,17.761,29.521,16.561z"/>
	<path fill="#FFFFFF" d="M38.62,9.661v7c0,0,0.1,2,1.3,2.1c1.2,0,1.9,0.101,2-1.8l0,0v-0.1l0,0v-7.2H38.62z"/>
	<path fill="#85ACFF" d="M42.12,12.361c-1.2-0.3-2.5-0.4-3.8-0.1l-3.3-0.1v2.6l0,0c-0.1,0.8,0.4,1.7,1.6,2.4
		c2.1,1.2,5.4,1.3,7.3,0.1c0.9-0.5,1.3-1.1,1.4-1.8l0,0v-0.3l0,0v-2.7L42.12,12.361z"/>
	<path fill="#0000A6" d="M43.82,10.261c-2.1-1.2-5.4-1.3-7.3-0.1c-1.9,1.1-1.8,3,0.2,4.2c2.1,1.2,5.4,1.3,7.3,0.1
		C45.92,13.361,45.82,11.461,43.82,10.261z"/>
</g>
</svg>
