<?xml version="1.0" encoding="utf-8"?>
<!-- Generator: Adobe Illustrator 16.0.4, SVG Export Plug-In . SVG Version: 6.00 Build 0)  -->
<!DOCTYPE svg PUBLIC "-//W3C//DTD SVG 1.1//EN" "http://www.w3.org/Graphics/SVG/1.1/DTD/svg11.dtd">
<svg version="1.1" id="all" xmlns="http://www.w3.org/2000/svg" xmlns:xlink="http://www.w3.org/1999/xlink" x="0px" y="0px"
	 width="212px" height="219.7px" viewBox="0 0 212 219.7" style="enable-background:new 0 0 212 219.7;" xml:space="preserve">
<style type="text/css">
<![CDATA[
	.st0{fill:#47797F;}
	.st1{fill:#4779B3;}
	.st2{display:inline;fill:#803675;}
	.st3{fill:#E2C000;}
	.st4{fill:#803675;}
	.st5{fill:#85ACFF;}
	.st6{fill:#F4571C;}
	.st7{display:inline;fill:#2A3297;}
	.st8{display:inline;fill:#FD858F;}
	.st9{display:inline;fill:#FFFFFF;}
	.st10{fill:#2A3297;}
	.st11{fill:#FD858F;}
	.st12{fill:#FEFFFF;}
	.st13{fill:#FFFFFF;}
	.st14{fill:#634382;}
	.st15{fill:#6390FF;}
	.st16{display:inline;fill:#D47513;}
	.st17{fill:#0000A6;}
	.st18{display:inline;fill:#3FB9AE;}
	.st19{fill:#D2B8B5;}
	.st20{fill:#D47513;}
	.st21{fill:#D9B90F;}
	.st22{fill:#3FB9AE;}
	.st23{display:none;}
	.st24{display:inline;fill:#47797F;}
	.st25{fill:#0D1B42;}
	.st26{fill:#0F1D42;}
	.st27{fill:#0F1D44;}
	.st28{fill:#DDBA18;}
	.st29{fill:none;stroke:#000000;stroke-width:1.1264;stroke-linecap:round;stroke-miterlimit:10;}
]]>
</style>
<g id="m3-anim2">
</g>
<g id="m3-anim1" class="st23">
</g>
<g id="m2-anim2">
</g>
<g id="m2-anim1">
</g>
<g id="c-anim1">
</g>
<g id="c-anim2">
</g>
<g id="m1-anim1">
</g>
<g id="m1-anim2" class="st23">
</g>
<g id="g-anim1">
	<path class="st27" d="M162.1,97.8L141,113.9l-26.8,6.9L67,113.5l-18.5-11.6l-5.6-17.1l-13.3-4.4l-0.4,11.8
		c0.3,11.1,0,11.4,1.9,18.4c2,7.1,8.3,13.9,17.4,21c8.9,7,18.6,12.1,29.1,15.4c10.5,3.3,20.8,4.8,30.8,4.2c10-0.5,19.5-2.8,28.3-6.8
		c7.2-3.3,13.2-7.6,17.9-12.9c4.7-5.3,7.2-10.2,7.6-14.7L162.1,97.8z"/>
	<polyline class="st13" points="90.3,89.5 90.3,120.2 104.3,124.6 104.3,100.4 	"/>
	<path id="_x3C_Path_x3E__4_" class="st13" d="M112.5,60.1v19.2L97.8,86V70.7 M124.9,91v26.1l16.6-6.5v-15l-16.2-4.3"/>
	<path id="_x3C_Path_x3E__3_" class="st28" d="M92.9,60.1l4.8,10.6v18.8c0,0-28.3-13.4-32.1,6.1c0,0-1.3,6.6,3.9,10
		c5.2,3.4-20.8-11.3-20.8-11.3l-2.4-13.9l23-18.4L92.9,60.1z M125.4,120.1L124.9,91l-21.1,9.5l0.4-0.1v23.5L125.4,120.1z"/>
	<path class="st6" d="M129.1,72L90.3,89.8l14,11l20.7-9.5l10.5,8.2c-0.8,3.1-2.5,6-5,8.7c-2.5,2.7-5.6,4.9-9.1,6.5
		c-7.5,3.4-15.7,4.4-24.6,2.9c-10.3-1.7-20.5-6.5-30.5-14.3c-9.3-7.3-13.8-13.8-13.6-19.5c0.2-5.7,4.2-10.4,11.9-13.9
		c5-2.3,10.3-3.3,16.2-3.2c5.8,0.1,11.5,1.6,17.1,4.3l14.7-10.6c-9.8-5.4-20-8.3-30.5-8.5c-10.5-0.3-21.1,2-31.8,6.9
		c-8.9,4.1-14.9,8.8-18.1,14.2c-3.2,5.4-3.5,11.6-1,18.5c2.5,6.9,8.3,13.9,17.4,21.1c8.9,7,18.6,12.1,29.1,15.4
		c10.5,3.3,20.8,4.8,30.8,4.2c10-0.5,19.5-2.8,28.3-6.8c7.2-3.3,13.2-7.6,17.9-12.9c4.7-5.3,7.2-10.2,7.6-14.7L129.1,72z"/>
	<path class="st13" d="M167.2,95.1c-1-2.9-2.7-6-5.5-7.5c-1.3-0.7-2.8-1.2-4.3-1.2c-1.6,0-3,0.4-4.4,1c-4.8,2.1-6.2,8.4-5.6,13.1
		c0.2,1.4,1,2.5,2.5,2.5c1.3,0,2.7-1.2,2.5-2.5c-0.1-1.2-0.2-2.5,0-3.8c0,0,0,0,0-0.1c0-0.1,0-0.3,0.1-0.4c0.1-0.3,0.1-0.6,0.2-0.9
		c0.1-0.3,0.2-0.6,0.3-0.9c0,0,0-0.1,0.1-0.1c0,0,0-0.1,0-0.1c0.2-0.4,0.4-0.8,0.7-1.2c0.1-0.1,0.2-0.3,0.3-0.3
		c0.1-0.1,0.2-0.2,0.4-0.3c0.1-0.1,0.4-0.3,0.5-0.3c0.1-0.1,0.2-0.1,0.3-0.1c0.5-0.2,1-0.4,1.5-0.4c0,0,0,0,0.1,0c0.1,0,0.3,0,0.4,0
		c0.1,0,0.5,0,0.6,0c0.2,0,0.3,0.1,0.5,0.1c0.1,0,0.4,0.1,0.5,0.2c0.2,0.1,0.4,0.2,0.6,0.3c0.1,0.1,0.2,0.1,0.2,0.2c0,0,0,0,0,0
		c0.2,0.2,0.4,0.4,0.6,0.6c0.1,0.1,0.1,0.1,0.1,0.2c0,0.1,0.1,0.1,0.1,0.2c0.4,0.6,0.8,1.3,1.2,2c0.1,0.1,0.1,0.2,0.2,0.4
		c0,0,0,0.1,0,0.1c0.1,0.3,0.2,0.6,0.3,0.9c0.2,0.6,0.3,1.2,0.4,1.9c0,0.2,0.1,0.5,0.1,0.6c0,0.3,0,0.6,0.1,1c0.1,2,0.2,3.8,0.2,5.9
		c0.1,8-0.2,15.8-0.3,23.6c-0.1,3.5-0.4,7.5-0.9,11c-0.1,0.7-0.1,1.3,0.3,2c0.3,0.6,0.9,1,1.5,1.2c1.2,0.3,2.9-0.4,3.1-1.8
		C167.5,137.4,168.8,99.8,167.2,95.1z"/>
	<path class="st19" d="M154.7,98.9c-1.3-0.8-3.1-1.1-4.9-1.1l-0.2-0.1v0.1l-0.2,0.1c-1.7,0.1-3.4,0.5-4.7,1.3
		c-2.8,1.6-3,4.2-0.3,5.8c2.7,1.5,7.2,1.4,10-0.2C157.2,103,157.4,100.4,154.7,98.9z"/>
	<path class="st13" d="M36,67.3v7c0,0,0.1,2,1.3,2.1c1.2,0,1.9,0.1,2-1.8h0v-0.1c0,0,0,0,0,0v-7.2H36z"/>
	<path class="st5" d="M39.3,64.2c-1.2-0.3-2.5-0.4-3.8-0.1L32.2,64v2.6l0,0c-0.1,0.8,0.4,1.7,1.6,2.4c2.1,1.2,5.4,1.3,7.3,0.1
		c0.9-0.5,1.3-1.1,1.4-1.8l0,0V67c0,0,0,0,0,0v-2.7L39.3,64.2z"/>
	<path class="st17" d="M41,62.1c-2.1-1.2-5.4-1.3-7.3-0.1c-1.9,1.1-1.8,3,0.2,4.2c2.1,1.2,5.4,1.3,7.3,0.1
		C43.1,65.2,43,63.3,41,62.1z"/>
	<path class="st13" d="M50.5,57.3v7c0,0,0.1,2,1.3,2.1c1.2,0,1.9,0.1,2-1.8h0v-0.1c0,0,0,0,0,0v-7.2H50.5z"/>
	<path class="st5" d="M53.8,54.2c-1.2-0.3-2.5-0.4-3.8-0.1L46.7,54v2.6l0,0c-0.1,0.8,0.4,1.7,1.6,2.4c2.1,1.2,5.4,1.3,7.3,0.1
		c0.9-0.5,1.3-1.1,1.4-1.8l0,0V57c0,0,0,0,0,0v-2.7L53.8,54.2z"/>
	<path class="st17" d="M55.5,52.1c-2.1-1.2-5.4-1.3-7.3-0.1c-1.9,1.1-1.8,3,0.2,4.2c2.1,1.2,5.4,1.3,7.3,0.1
		C57.6,55.2,57.5,53.3,55.5,52.1z"/>
	<path class="st13" d="M64.8,49.5v7c0,0,0.1,2,1.3,2.1c1.2,0,1.9,0.1,2-1.8h0v-0.1c0,0,0,0,0,0v-7.2H64.8z"/>
	<path class="st5" d="M68,46.5c-1.2-0.3-2.5-0.4-3.8-0.1L61,46.2v2.6l0,0c-0.1,0.8,0.4,1.7,1.6,2.4c2.1,1.2,5.4,1.3,7.3,0.1
		c0.9-0.5,1.3-1.1,1.4-1.8l0,0v-0.3c0,0,0,0,0,0v-2.7L68,46.5z"/>
	<path class="st17" d="M69.7,44.4c-2.1-1.2-5.4-1.3-7.3-0.1c-1.9,1.1-1.8,3,0.2,4.2c2.1,1.2,5.4,1.3,7.3,0.1
		C71.9,47.5,71.8,45.6,69.7,44.4z"/>
</g>
<g id="g-anim2">
	<path class="st27" d="M162.1,97.8L141,113.9l-26.8,6.9L67,113.5l-18.5-11.6l-5.6-17.1l-13.3-4.4l-0.4,11.8
		c0.3,11.1,0,11.4,1.9,18.4c2,7.1,8.3,13.9,17.4,21c8.9,7,18.6,12.1,29.1,15.4c10.5,3.3,20.8,4.8,30.8,4.2c10-0.5,19.5-2.8,28.3-6.8
		c7.2-3.3,13.2-7.6,17.9-12.9c4.7-5.3,7.2-10.2,7.6-14.7L162.1,97.8z"/>
	<path id="_x3C_Path_x3E__2_" class="st13" d="M97.8,70.7l14.7-10.6v19.2L97.8,86V70.7z M125.4,91.3l-0.4-0.3v26.1l16.6-6.5v-15
		L125.4,91.3z"/>
	<path id="_x3C_Path_x3E__1_" class="st28" d="M92.9,60.1l4.8,10.6v18.8c0,0-28.3-13.4-32.1,6.1c0,0-1.3,6.6,3.9,10
		c5.2,3.4-20.8-11.3-20.8-11.3l-2.4-13.9l23-18.4L92.9,60.1z M125.4,120.1L124.9,91l-21.1,9.5l0.4-0.1v23.5L125.4,120.1z"/>
	<path class="st6" d="M129.1,72L90.3,89.8l14,11l20.7-9.5l10.5,8.2c-0.8,3.1-2.5,6-5,8.7c-2.5,2.7-5.6,4.9-9.1,6.5
		c-7.5,3.4-15.7,4.4-24.6,2.9c-10.3-1.7-20.5-6.5-30.5-14.3c-9.3-7.3-13.8-13.8-13.6-19.5c0.2-5.7,4.2-10.4,11.9-13.9
		c5-2.3,10.3-3.3,16.2-3.2c5.8,0.1,11.5,1.6,17.1,4.3l14.7-10.6c-9.8-5.4-20-8.3-30.5-8.5c-10.5-0.3-21.1,2-31.8,6.9
		c-8.9,4.1-14.9,8.8-18.1,14.2c-3.2,5.4-3.5,11.6-1,18.5c2.5,6.9,8.3,13.9,17.4,21.1c8.9,7,18.6,12.1,29.1,15.4
		c10.5,3.3,20.8,4.8,30.8,4.2c10-0.5,19.5-2.8,28.3-6.8c7.2-3.3,13.2-7.6,17.9-12.9c4.7-5.3,7.2-10.2,7.6-14.7L129.1,72z"/>
	<path class="st19" d="M154.7,98.9c-1.3-0.8-3.1-1.1-4.9-1.1l-0.2-0.1v0.1l-0.2,0.1c-1.7,0.1-3.4,0.5-4.7,1.3
		c-2.8,1.6-3,4.2-0.3,5.8c2.7,1.5,7.2,1.4,10-0.2C157.2,103,157.4,100.4,154.7,98.9z"/>
	<path class="st13" d="M167.1,107c0.3-3.4,0.6-6.9,0.5-10.4c0-1.7,0.1-4.3-1.1-5.7c-1.3-3-4.1-5.7-7.2-6.5c-1.5-0.4-3-0.4-4.3,0
		c-1.4,0.4-2.5,1.2-3.6,2.2c-3.4,3.3-3.9,9.2-3.9,13.3c0,1.2,0.7,2.2,2.2,2c1.2-0.1,2.8-1.4,2.7-2.7c-0.1-1.2,0-2.4,0.1-3.6
		c0,0,0,0,0,0c0-0.1,0-0.3,0.1-0.4c0-0.3,0.1-0.6,0.2-0.9c0.1-0.3,0.1-0.6,0.2-0.9c0,0,0-0.1,0-0.1c0,0,0-0.1,0-0.1
		c0.1-0.4,0.3-0.9,0.5-1.3c0.1-0.1,0.2-0.3,0.2-0.4c0.1-0.1,0.2-0.3,0.3-0.4c0.1-0.1,0.3-0.4,0.4-0.4c0.1-0.1,0.2-0.1,0.2-0.2
		c0.4-0.3,0.9-0.6,1.3-0.8c0,0,0,0,0.1,0c0.1,0,0.3-0.1,0.4-0.1c0.1,0,0.4-0.1,0.6-0.1c0.2,0,0.3,0,0.5,0c0.1,0,0.4,0.1,0.5,0.1
		c0.2,0.1,0.4,0.1,0.7,0.2c0.1,0,0.2,0.1,0.3,0.1c0,0,0,0,0,0c0.2,0.2,0.5,0.3,0.7,0.5c0.1,0,0.1,0.1,0.2,0.1
		c0.1,0.1,0.1,0.1,0.1,0.2c0.5,0.6,1,1.2,1.4,1.8c0.1,0.1,0.1,0.2,0.2,0.4c0,0,0,0.1,0.1,0.1c0.1,0.3,0.3,0.6,0.4,0.9
		c0.2,0.6,0.4,1.3,0.5,1.9c0,0.2,0.1,0.5,0.1,0.6c0,0.3,0,0.7,0,1c0,2.1,0,4-0.3,6.1c-0.3,2.8-0.8,5.6-1.3,8.4
		c-0.9,4.9-1.9,9.8-2.4,14.8c-0.5,4.8,0.2,9.4,0.2,14.2c0,1.9,0.5,3.5,2.6,3.8c0.7,0.1,2.1,0.1,2.7-0.4c1-0.8,0.4-2,0.1-3
		c-0.8-3.3,0-6.8,0.2-10.2C165.1,123.1,166.4,115.1,167.1,107z"/>
	<path class="st13" d="M36,67.3v7c0,0,0.1,2,1.3,2.1c1.2,0,1.9,0.1,2-1.8h0v-0.1c0,0,0,0,0,0v-7.2H36z"/>
	<path class="st5" d="M39.3,69.8c-1.2-0.3-2.5-0.4-3.8-0.1l-3.3-0.1v2.6l0,0c-0.1,0.8,0.4,1.7,1.6,2.4c2.1,1.2,5.4,1.3,7.3,0.1
		c0.9-0.5,1.3-1.1,1.4-1.8l0,0v-0.3c0,0,0,0,0,0v-2.7L39.3,69.8z"/>
	<path class="st17" d="M41,67.7c-2.1-1.2-5.4-1.3-7.3-0.1c-1.9,1.1-1.8,3,0.2,4.2c2.1,1.2,5.4,1.3,7.3,0.1
		C43.1,70.8,43,68.9,41,67.7z"/>
	<path class="st13" d="M50.6,57.4v7c0,0,0.1,2,1.3,2.1c1.2,0,1.9,0.1,2-1.8h0v-0.1c0,0,0,0,0,0v-7.2H50.6z"/>
	<path class="st5" d="M53.9,59.9c-1.2-0.3-2.5-0.4-3.8-0.1l-3.3-0.1v2.6l0,0c-0.1,0.8,0.4,1.7,1.6,2.4c2.1,1.2,5.4,1.3,7.3,0.1
		c0.9-0.5,1.3-1.1,1.4-1.8l0,0v-0.2c0,0,0,0,0,0V60L53.9,59.9z"/>
	<path class="st17" d="M55.5,57.8c-2.1-1.2-5.4-1.3-7.3-0.1c-1.9,1.1-1.8,3,0.2,4.2c2.1,1.2,5.4,1.3,7.3,0.1
		C57.7,60.9,57.6,59,55.5,57.8z"/>
	<path class="st13" d="M64.6,49.5v7c0,0,0.1,2,1.3,2.1c1.2,0,1.9,0.1,2-1.8h0v-0.1c0,0,0,0,0,0v-7.2H64.6z"/>
	<path class="st5" d="M67.9,52c-1.2-0.3-2.5-0.4-3.8-0.1l-3.3-0.1v2.6l0,0c-0.1,0.8,0.4,1.7,1.6,2.4c2.1,1.2,5.4,1.3,7.3,0.1
		c0.9-0.5,1.3-1.1,1.4-1.8l0,0v-0.3c0,0,0,0,0,0v-2.7L67.9,52z"/>
	<path class="st17" d="M69.6,49.9c-2.1-1.2-5.4-1.3-7.3-0.1c-1.9,1.1-1.8,3,0.2,4.2c2.1,1.2,5.4,1.3,7.3,0.1
		C71.8,53.1,71.7,51.2,69.6,49.9z"/>
</g>
</svg>
