<?xml version="1.0" encoding="utf-8"?>
<!-- Generator: Adobe Illustrator 16.0.4, SVG Export Plug-In . SVG Version: 6.00 Build 0)  -->
<!DOCTYPE svg PUBLIC "-//W3C//DTD SVG 1.1//EN" "http://www.w3.org/Graphics/SVG/1.1/DTD/svg11.dtd">
<svg version="1.1" id="all" xmlns="http://www.w3.org/2000/svg" xmlns:xlink="http://www.w3.org/1999/xlink" x="0px" y="0px"
	 width="212px" height="219.7px" viewBox="0 0 212 219.7" style="enable-background:new 0 0 212 219.7;" xml:space="preserve">
<style type="text/css">
<![CDATA[
	.st0{fill:#47797F;}
	.st1{fill:#4779B3;}
	.st2{display:inline;fill:#803675;}
	.st3{fill:#E2C000;}
	.st4{fill:#803675;}
	.st5{fill:#85ACFF;}
	.st6{fill:#F4571C;}
	.st7{display:inline;fill:#2A3297;}
	.st8{display:inline;fill:#FD858F;}
	.st9{display:inline;fill:#FFFFFF;}
	.st10{fill:#2A3297;}
	.st11{fill:#FD858F;}
	.st12{fill:#FEFFFF;}
	.st13{fill:#FFFFFF;}
	.st14{fill:#634382;}
	.st15{fill:#6390FF;}
	.st16{display:inline;fill:#D47513;}
	.st17{fill:#0000A6;}
	.st18{display:inline;fill:#3FB9AE;}
	.st19{fill:#D2B8B5;}
	.st20{fill:#D47513;}
	.st21{fill:#D9B90F;}
	.st22{fill:#3FB9AE;}
	.st23{display:none;}
	.st24{display:inline;fill:#47797F;}
	.st25{fill:#0D1B42;}
	.st26{fill:#0F1D42;}
	.st27{fill:#0F1D44;}
	.st28{fill:#DDBA18;}
	.st29{fill:none;stroke:#000000;stroke-width:1.1264;stroke-linecap:round;stroke-miterlimit:10;}
]]>
</style>
<g id="m3-anim2">
</g>
<g id="m3-anim1" class="st23">
</g>
<g id="m2-anim2">
</g>
<g id="m2-anim1">
</g>
<g id="c-anim1">
</g>
<g id="c-anim2">
</g>
<g id="m1-anim1">
	<polygon class="st11" points="90.5,68.7 71.7,77.9 87.6,88.4 106,79.3 	"/>
	<polygon class="st11" points="139.1,44 120.3,53.1 136.2,63.7 154.8,54.3 	"/>
	<polyline class="st20" points="136.2,63.7 120.3,53.1 109.3,91.6 118.1,117.5 136.2,63.7 	"/>
	<polygon class="st20" points="100.5,114.4 98.4,134 110.2,141.3 110.9,138.6 	"/>
	<polyline class="st20" points="138.3,136.9 125.3,129 137.3,93.6 142.4,108.1 138.5,137.1 138.5,137.1 	"/>
	<polygon class="st20" points="71.7,77.9 64,141.4 61.8,160.3 77.1,170.8 87.6,88.4 	"/>
	<path class="st10" d="M154.8,54.3l-18.6,9.4L119,114.1l-13-34.7l-18.7,9.3l-10.2,82.2c0,0,6.9-2.8,11-5.5c4-2.6,7.1-2.1,8.5-14.2
		c1.4-12.1,4.3-35.8,4.3-35.8l9.5,25.9l14.2-6.6l12.9-37l1,39.3c0,0,3.3,2.6,6.6,0.5c3.3-2.1,11.6-6.4,11.6-6.4L154.8,54.3z"/>
	<polygon class="st13" points="62.5,154.4 51.1,160 56,163.2 67.4,157.6 	"/>
	<polygon class="st22" points="51.1,160 50.8,165.8 55.7,169.1 56,163.2 	"/>
	<polygon class="st0" points="56,163.2 55.7,169.1 67.1,163.5 67.4,157.6 	"/>
	<polygon class="st22" points="56.4,163.4 56,169.3 61,172.5 61.3,166.6 	"/>
	<polygon class="st0" points="61.3,166.6 61,172.5 72.3,167 72.7,161.1 	"/>
	<polygon class="st13" points="67.8,157.8 56.4,163.4 61.3,166.7 72.7,161.1 	"/>
	<polygon class="st22" points="61.6,167 61.2,172.8 66.2,176.1 66.5,170.2 	"/>
	<polygon class="st0" points="66.5,170.2 66.2,176.1 77.5,170.5 77.9,164.6 	"/>
	<polygon class="st13" points="73,161.4 61.6,167 66.5,170.2 77.9,164.6 	"/>
	<polygon class="st4" points="149.4,81.4 142.7,85.5 142.8,123 149.5,118.9 	"/>
	<polygon class="st0" points="144.9,86.3 142.7,85 142.7,93.1 144.9,94.4 	"/>
	<polygon class="st22" points="149.7,80.9 142.7,85 144.9,86.3 151.9,82.2 	"/>
	<polygon class="st13" points="151.9,82.2 144.9,86.3 144.9,94.4 151.9,90.3 	"/>
</g>
<g id="m1-anim2" class="st23">
	<polygon class="st8" points="71.7,77.9 87.6,88.4 106,79.3 90.5,68.7 	"/>
	<polygon class="st8" points="120.3,53.1 136.2,63.7 154.8,54.3 139.1,44 	"/>
	<polyline class="st16" points="136.2,63.7 120.3,53.1 109.3,91.6 118.1,117.5 136.2,63.7 	"/>
	<polyline class="st16" points="110.2,141.3 98.4,134 100.5,114.4 110.9,138.6 110.2,141.3 	"/>
	<polyline class="st16" points="138.3,136.9 125.3,129 137.3,93.6 142.4,108.1 138.5,137.1 138.5,137.1 	"/>
	<polyline class="st16" points="87.6,88.4 71.7,77.9 64,141.4 61.8,160.3 77.1,170.8 	"/>
	<path class="st7" d="M87.3,88.6l-10.2,82.2c0,0,6.9-2.8,11-5.5c4-2.6,7.1-2.1,8.5-14.2c1.4-12.1,4.3-35.8,4.3-35.8l9.5,25.9
		l14.2-6.6l12.9-37l1,39.3c0,0,3.3,2.6,6.6,0.5c3.3-2.1,11.6-6.4,11.6-6.4l-1.7-76.6l-18.6,9.4L119,114.1l-13-34.7L87.3,88.6z"/>
	<polygon class="st9" points="62.5,154.4 51.1,160 56,163.2 67.4,157.6 	"/>
	<polygon class="st18" points="51.1,160 50.8,165.8 55.7,169.1 56,163.2 	"/>
	<polygon class="st24" points="56,163.2 55.7,169.1 67.1,163.5 67.4,157.6 	"/>
	<polygon class="st18" points="56.3,165.4 56,169.3 61,172.5 61.2,168.7 	"/>
	<polygon class="st24" points="61.2,168.7 61,172.5 72.3,167 72.6,163.2 	"/>
	<polygon class="st9" points="67.6,159.9 56.2,165.5 61.1,168.7 72.5,163.1 	"/>
	<polygon class="st18" points="61.4,171 61.2,172.9 66.2,176.2 66.3,174.3 	"/>
	<polygon class="st24" points="66.3,174.3 66.2,176.2 77.5,170.6 77.6,168.8 	"/>
	<polygon class="st9" points="72.7,165.5 61.3,171.1 66.3,174.3 77.6,168.8 	"/>
	<polygon class="st2" points="149.4,81.4 142.7,85.5 142.8,123 149.5,118.9 	"/>
	<polygon class="st24" points="144.9,119.4 142.7,118.2 142.7,126.3 144.9,127.5 	"/>
	<polygon class="st18" points="149.7,114.1 142.7,118.2 144.9,119.4 151.9,115.3 	"/>
	<polygon class="st9" points="151.9,115.3 144.9,119.4 144.9,127.5 151.9,123.5 	"/>
</g>
<g id="g-anim1">
</g>
<g id="g-anim2">
</g>
</svg>
