<?xml version="1.0" encoding="utf-8"?>
<!-- Generator: Adobe Illustrator 16.0.4, SVG Export Plug-In . SVG Version: 6.00 Build 0)  -->
<!DOCTYPE svg PUBLIC "-//W3C//DTD SVG 1.0//EN" "http://www.w3.org/TR/2001/REC-SVG-20010904/DTD/svg10.dtd">
<svg version="1.0" id="M" xmlns="http://www.w3.org/2000/svg" xmlns:xlink="http://www.w3.org/1999/xlink" x="0px" y="0px"
	 width="123px" height="164px" viewBox="0 0 123 164" enable-background="new 0 0 123 164" xml:space="preserve">
<g id="m-anim1">
	<polygon fill="#FD858F" points="20.4,53.4 38.7,62.5 57,50.4 39.2,41.2"/>
	<polygon fill="#FD858F" points="68.9,20.7 87.2,29.9 105.8,17.4 87.7,8.5"/>
	<polyline fill="#D47513" points="87.2,29.9 68.9,20.7 62.2,63.1 74.9,89.5 87.2,29.9"/>
	<polyline fill="#D47513" points="69.7,115.7 56.3,109.5 55.9,88.4 70.1,112.8 69.7,115.7"/>
	<polyline fill="#D47513" points="99.1,107.5 84.2,100.7 92.3,61.5 99.7,76.2 99.3,107.6 99.3,107.6"/>
	<polygon fill="#D47513" points="38.7,62.5 38.2,151.6 20.6,142.4 20.4,122 20.4,53.4"/>
	<path fill="#2A3297" d="M38.4,62.8l-0.2,88.9c0,0,7-3.9,11-7.2s7.2-3.2,7.1-16.3c-0.1-13.101-0.1-38.7-0.1-38.7l13.5,26.3
		l14.2-8.899L92.8,65.8l6.2,41.7c0,0,3.9,2.3,7.1-0.3c3.2-2.601,11.5-8.4,11.5-8.4l-11.8-81.4L87.2,29.8L75.4,85.7L57,50.4
		L38.4,62.8z"/>
	<polygon fill="#803675" points="103.6,44.8 97.3,49.6 101.5,86.8 107.7,82"/>
	<polygon fill="#47797F" points="103.1,83 100.8,82 101.7,90.1 104,91.1"/>
	<polygon fill="#3FB9AE" points="107.4,77.2 100.8,82 103.1,83 109.7,78.2"/>
	<polygon fill="#FFFFFF" points="109.7,78.2 103.1,83 104,91.1 110.6,86.3"/>
	<polygon fill="#FFFFFF" points="20.5,132.9 7.2,139.4 13,143.2 26.3,136.7"/>
	<polygon fill="#3FB9AE" points="7.2,139.4 6.8,146.3 12.6,150.1 13,143.2"/>
	<polygon fill="#47797F" points="13,143.2 12.6,150.1 25.9,143.6 26.3,136.7"/>
	<polygon fill="#3FB9AE" points="13.4,143.4 13,150.3 18.8,154.1 19.2,147.2"/>
	<polygon fill="#47797F" points="19.2,147.2 18.8,154.1 32.1,147.6 32.5,140.7"/>
	<polygon fill="#FFFFFF" points="26.7,136.9 13.4,143.5 19.2,147.3 32.5,140.7"/>
	<polygon fill="#3FB9AE" points="19.5,147.6 19.1,154.5 24.9,158.3 25.3,151.4"/>
	<polygon fill="#47797F" points="25.3,151.4 24.9,158.3 38.2,151.8 38.6,144.9"/>
	<polygon fill="#FFFFFF" points="32.8,141 19.5,147.6 25.3,151.4 38.6,144.9"/>
</g>
<g id="m-anim2">
	<polygon fill="#FD858F" points="20.4,53.4 38.7,62.5 57,50.4 39.2,41.2"/>
	<polygon fill="#FD858F" points="68.9,20.7 87.2,29.9 105.8,17.4 87.7,8.5"/>
	<polyline fill="#D47513" points="87.2,29.9 68.9,20.7 62.2,63.1 74.9,89.5 87.2,29.9"/>
	<polyline fill="#D47513" points="69.7,115.7 56.3,109.5 55.9,88.4 70.1,112.8 69.7,115.7"/>
	<polyline fill="#D47513" points="99.1,107.5 84.2,100.7 92.3,61.5 99.7,76.2 99.3,107.6 99.3,107.6"/>
	<polygon fill="#D47513" points="38.7,62.5 38.2,151.6 20.6,142.4 20.4,122 20.4,53.4"/>
	<path fill="#2A3297" d="M38.4,62.8l-0.2,88.9c0,0,7-3.9,11-7.2s7.2-3.2,7.1-16.3c-0.1-13.101-0.1-38.7-0.1-38.7l13.5,26.3
		l14.2-8.899L92.8,65.8l6.2,41.7c0,0,3.9,2.3,7.1-0.3c3.2-2.601,11.5-8.4,11.5-8.4l-11.8-81.4L87.2,29.8L75.4,85.7L57,50.4
		L38.4,62.8z"/>
	<polygon fill="#803675" points="103.6,44.8 97.3,49.6 101.5,86.8 107.7,82"/>
	<polygon fill="#47797F" points="98.8,49.9 96.5,48.9 97.4,57 99.7,58"/>
	<polygon fill="#3FB9AE" points="103,44.1 96.5,48.9 98.8,49.9 105.4,45.1"/>
	<polygon fill="#FFFFFF" points="105.4,45.1 98.8,49.9 99.7,58 106.3,53.1"/>
	<polygon fill="#FFFFFF" points="20.5,132.9 7.2,139.4 13,143.2 26.3,136.7"/>
	<polygon fill="#3FB9AE" points="7.2,139.4 6.8,146.3 12.6,150.1 13,143.2"/>
	<polygon fill="#47797F" points="13,143.2 12.6,150.1 25.9,143.6 26.3,136.7"/>
	<polygon fill="#3FB9AE" points="13.2,145.7 13,150.3 18.8,154.1 19,149.5"/>
	<polygon fill="#47797F" points="19,149.6 18.8,154.1 32.1,147.6 32.3,143.1"/>
	<polygon fill="#FFFFFF" points="26.6,139.3 13.2,145.8 19,149.6 32.3,143.1"/>
	<polygon fill="#3FB9AE" points="19.2,151.6 19.1,154.5 24.9,158.3 25,155.4"/>
	<polygon fill="#47797F" points="25,155.4 24.9,158.3 38.2,151.8 38.3,148.9"/>
	<polygon fill="#FFFFFF" points="32.5,145.1 19.2,151.7 24.9,155.5 38.3,149"/>
</g>
</svg>
