<?xml version="1.0" encoding="utf-8"?>
<!-- Generator: Adobe Illustrator 16.0.4, SVG Export Plug-In . SVG Version: 6.00 Build 0)  -->
<!DOCTYPE svg PUBLIC "-//W3C//DTD SVG 1.1//EN" "http://www.w3.org/Graphics/SVG/1.1/DTD/svg11.dtd">
<svg version="1.1" id="M" xmlns="http://www.w3.org/2000/svg" xmlns:xlink="http://www.w3.org/1999/xlink" x="0px" y="0px"
	 width="122.9px" height="160.4px" viewBox="0 0 122.9 160.4" enable-background="new 0 0 122.9 160.4" xml:space="preserve">
<g id="m-anim1">
	<polygon fill="#635CFF" points="20.4,53.4 38.7,62.5 57,50.4 39.2,41.2"/>
	<polygon fill="#635CFF" points="68.9,20.7 87.201,29.9 105.8,17.4 87.701,8.5"/>
	<polyline fill="#211D56" points="87.201,29.9 68.9,20.7 62.201,63.1 74.9,89.5 87.201,29.9"/>
	<polyline fill="#211D56" points="69.701,115.701 56.3,109.5 55.9,88.4 70.1,112.8 69.701,115.701"/>
	<polyline fill="#211D56" points="99.1,107.5 84.201,100.701 92.3,61.5 99.701,76.201 99.3,107.6 99.3,107.6"/>
	<polygon fill="#211D56" points="38.7,62.5 38.2,151.6 20.6,142.4 20.4,122 20.4,53.4"/>
	<path fill="#D3E0EA" d="M38.4,62.8l-0.2,88.901c0,0,7-3.9,11-7.201c4-3.299,7.2-3.199,7.1-16.299C56.2,115.099,56.2,89.5,56.2,89.5
		l13.5,26.301l14.199-8.896L92.8,65.8l6.2,41.7c0,0,3.9,2.301,7.104-0.299c3.197-2.602,11.5-8.4,11.5-8.4l-11.803-81.397
		l-18.6,12.397L75.4,85.701L57,50.4L38.4,62.8z"/>
	<polygon fill="#803675" points="103.6,44.8 97.3,49.6 101.5,86.8 107.701,82"/>
	<polygon fill="#4779E6" points="103.1,83 100.8,82 101.701,90.1 104,91.1"/>
	<polygon fill="#4779E6" points="107.4,77.201 100.8,82 103.1,83 109.701,78.201"/>
	<polygon fill="#FFFFFF" points="109.701,78.201 103.1,83 104,91.1 110.6,86.3"/>
	<polygon fill="#FFFFFF" points="20.5,132.9 7.2,139.4 13,143.201 26.3,136.701"/>
	<polygon fill="#3F1FAE" points="7.2,139.4 6.8,146.3 12.6,150.1 13,143.201"/>
	<polygon fill="#4779E6" points="13,143.201 12.6,150.1 25.9,143.6 26.3,136.701"/>
	<polygon fill="#3F1FAE" points="13.4,143.4 13,150.3 18.8,154.1 19.2,147.201"/>
	<polygon fill="#4779E6" points="19.2,147.201 18.8,154.1 32.1,147.6 32.5,140.701"/>
	<polygon fill="#FFFFFF" points="26.7,136.9 13.4,143.5 19.2,147.3 32.5,140.701"/>
	<polygon fill="#3F1FAE" points="19.5,147.6 19.1,154.5 24.9,158.3 25.3,151.4"/>
	<polygon fill="#4779E6" points="25.3,151.4 24.9,158.3 38.2,151.8 38.6,144.9"/>
	<polygon fill="#FFFFFF" points="32.8,141 19.5,147.6 25.3,151.4 38.6,144.9"/>
</g>
<g id="m-anim2">
	<polygon fill="#635CFF" points="20.4,53.4 38.7,62.5 57,50.4 39.2,41.2"/>
	<polygon fill="#635CFF" points="68.9,20.7 87.201,29.9 105.8,17.4 87.701,8.5"/>
	<polyline fill="#211D56" points="87.201,29.9 68.9,20.7 62.201,63.1 74.9,89.5 87.201,29.9"/>
	<polyline fill="#211D56" points="69.701,115.701 56.3,109.5 55.9,88.4 70.1,112.8 69.701,115.701"/>
	<polyline fill="#211D56" points="99.1,107.5 84.201,100.701 92.3,61.5 99.701,76.201 99.3,107.6 99.3,107.6"/>
	<polygon fill="#211D56" points="38.7,62.5 38.2,151.6 20.6,142.4 20.4,122 20.4,53.4"/>
	<path fill="#BDEBFF" d="M38.4,62.8l-0.2,88.901c0,0,7-3.9,11-7.201c4-3.299,7.2-3.199,7.1-16.299C56.2,115.099,56.2,89.5,56.2,89.5
		l13.5,26.301l14.199-8.896L92.8,65.8l6.2,41.7c0,0,3.9,2.301,7.104-0.299c3.197-2.602,11.5-8.4,11.5-8.4l-11.803-81.397
		l-18.6,12.397L75.4,85.701L57,50.4L38.4,62.8z"/>
	<polygon fill="#803675" points="103.6,44.8 97.3,49.6 101.5,86.8 107.701,82"/>
	<polygon fill="#4779E6" points="98.8,49.9 96.5,48.9 97.4,57 99.701,58"/>
	<polygon fill="#4779E6" points="103,44.1 96.5,48.9 98.8,49.9 105.4,45.1"/>
	<polygon fill="#FFFFFF" points="105.4,45.1 98.8,49.9 99.701,58 106.3,53.1"/>
	<polygon fill="#F4ABAB" points="20.5,132.9 7.2,139.4 13,143.201 26.3,136.701"/>
	<polygon fill="#3F1FAE" points="7.2,139.4 6.8,146.3 12.6,150.1 13,143.201"/>
	<polygon fill="#4779E6" points="13,143.201 12.6,150.1 25.9,143.6 26.3,136.701"/>
	<polygon fill="#3F1FAE" points="13.2,145.701 13,150.3 18.8,154.1 19,149.5"/>
	<polygon fill="#4779E6" points="19,149.6 18.8,154.1 32.1,147.6 32.3,143.1"/>
	<polygon fill="#F4ABAB" points="26.6,139.3 13.2,145.8 19,149.6 32.3,143.1"/>
	<polygon fill="#3F1FAE" points="19.2,151.6 19.1,154.5 24.9,158.3 25,155.4"/>
	<polygon fill="#4779E6" points="25,155.4 24.9,158.3 38.2,151.8 38.3,148.9"/>
	<polygon fill="#F4ABAB" points="32.5,145.1 19.2,151.701 24.9,155.5 38.3,149"/>
</g>
</svg>
