<?xml version="1.0" encoding="utf-8"?>
<!-- Generator: Adobe Illustrator 16.0.4, SVG Export Plug-In . SVG Version: 6.00 Build 0)  -->
<!DOCTYPE svg PUBLIC "-//W3C//DTD SVG 1.1//EN" "http://www.w3.org/Graphics/SVG/1.1/DTD/svg11.dtd">
<svg version="1.1" id="all" xmlns="http://www.w3.org/2000/svg" xmlns:xlink="http://www.w3.org/1999/xlink" x="0px" y="0px"
	 width="212px" height="219.7px" viewBox="0 0 212 219.7" style="enable-background:new 0 0 212 219.7;" xml:space="preserve">
<style type="text/css">
<![CDATA[
	.st0{fill:#47797F;}
	.st1{fill:#4779B3;}
	.st2{display:inline;fill:#803675;}
	.st3{fill:#E2C000;}
	.st4{fill:#803675;}
	.st5{fill:#85ACFF;}
	.st6{fill:#F4571C;}
	.st7{display:inline;fill:#2A3297;}
	.st8{display:inline;fill:#FD858F;}
	.st9{display:inline;fill:#FFFFFF;}
	.st10{fill:#2A3297;}
	.st11{fill:#FD858F;}
	.st12{fill:#FEFFFF;}
	.st13{fill:#FFFFFF;}
	.st14{fill:#634382;}
	.st15{fill:#6390FF;}
	.st16{display:inline;fill:#D47513;}
	.st17{fill:#0000A6;}
	.st18{display:inline;fill:#3FB9AE;}
	.st19{fill:#D2B8B5;}
	.st20{fill:#D47513;}
	.st21{fill:#D9B90F;}
	.st22{fill:#3FB9AE;}
	.st23{display:none;}
	.st24{display:inline;fill:#47797F;}
	.st25{fill:#0D1B42;}
	.st26{fill:#0F1D42;}
	.st27{fill:#0F1D44;}
	.st28{fill:#DDBA18;}
	.st29{fill:none;stroke:#000000;stroke-width:1.1264;stroke-linecap:round;stroke-miterlimit:10;}
]]>
</style>
<g id="m3-anim2">
</g>
<g id="m3-anim1" class="st23">
</g>
<g id="m2-anim2">
	<polygon class="st25" points="139.6,68.2 121.3,77.4 102.9,65.2 120.8,56 	"/>
	<polygon class="st25" points="91.1,35.5 72.8,44.7 54.2,32.2 72.3,23.3 	"/>
	<polyline class="st14" points="72.8,44.7 91.1,35.5 97.8,77.9 85.1,104.3 72.8,44.7 	"/>
	<polyline class="st14" points="90.3,130.6 103.7,124.4 104,103.2 89.9,127.6 90.3,130.6 	"/>
	<polyline class="st14" points="60.9,122.3 75.8,115.5 67.6,76.3 60.2,91 60.7,122.4 60.7,122.4 	"/>
	<polygon class="st15" points="121.3,77.4 121.8,166.4 139.4,157.2 139.6,136.9 139.6,68.2 	"/>
	<path class="st21" d="M121.6,77.6l0.2,88.9c0,0-7-3.9-11-7.2c-4-3.3-7.2-3.2-7.1-16.3c0.1-13.1,0.1-38.7,0.1-38.7l-13.5,26.3
		L76,121.7l-8.9-41.1l-6.2,41.7c0,0-3.9,2.3-7.1-0.3c-3.2-2.6-11.5-8.4-11.5-8.4l11.8-81.4l18.6,12.4l11.8,55.9l18.4-35.3
		L121.6,77.6z"/>
	<path class="st1" d="M141.6,171.6c-6.9-4.9-12.8-8.2-15.7-14.9c-3.9-9-4.1-16.9-3.8-26.2l2.1-2l-1.5-51.9l-0.9,0.4l-3.2,49.3l0,0
		c0,0,0,0.3,0,0.8l-0.1,1.3l0.1,0.1c-0.1,5.9-0.2,22.1,1.6,30.6c1.6,7.5,3.2,13.1,6.6,19.9c3.8,7.5,13.1,0.8,13.1,0.8l5.5-5.7
		C144.7,173.7,143.6,173,141.6,171.6z"/>
	<path class="st1" d="M145.8,173.7l-0.4,0.4C147.2,175.1,145.8,173.7,145.8,173.7z"/>
	<path class="st15" d="M151.2,160.6c-0.5-8.4-16.7,1.8-22.6-7c-6-8.9-4.8-17.5-4.4-24.9l4.4,0l-4.2-53l-2.6,1.3l-0.5,51.7
		c0,0-0.5,17.6,3.1,25.9c3,6.9,5.3,12.1,12.2,17c6.9,4.9,6.7,4.7,6.7,4.7l5.5-5.1C148.8,171.2,151.6,166.8,151.2,160.6z"/>
	<path class="st22" d="M139.2,151.5c-8.6,4.3-16.1,15.5-16.7,25.1c-0.6,9.6,5.9,13.9,14.5,9.6c8.6-4.2,16.1-15.5,16.7-25.1
		C154.3,151.6,147.8,147.3,139.2,151.5z"/>
	<path class="st13" d="M140.6,152.4c-8.6,4.3-16.1,15.5-16.7,25.1c-0.6,9.6,5.9,13.9,14.5,9.6c8.6-4.3,16.1-15.5,16.7-25.1
		C155.7,152.4,149.2,148.1,140.6,152.4z"/>
	<path class="st22" d="M140.4,155.9c-6.8,3.4-12.8,12.4-13.3,20c-0.5,7.6,4.7,11,11.5,7.7c6.8-3.4,12.8-12.4,13.3-19.9
		C152.4,156,147.2,152.5,140.4,155.9z"/>
	<path class="st25" d="M138.6,157.3c-4.5,2.2-8.5,8.2-8.8,13.3c-0.3,5.1,3.1,7.3,7.7,5.1c4.5-2.3,8.5-8.2,8.8-13.3
		C146.6,157.4,143.1,155.1,138.6,157.3z"/>
	<path class="st0" d="M127.3,149.9l1-0.8l-0.6-0.7c0-0.1,0-0.2,0-0.3c-0.3-1.6-1.7-3.4-3.1-3.9c-0.1,0-0.2-0.1-0.4-0.1l-0.4-0.5
		l-0.8,0.7l0,0c-0.5,0.3-0.7,1-0.6,1.9c0.3,1.6,1.7,3.4,3.1,3.9c0.6,0.2,1.2,0.2,1.5-0.1l0,0L127.3,149.9
		C127.3,149.9,127.3,149.9,127.3,149.9z"/>
	<path class="st25" d="M128.7,147.3c-0.3-1.6-1.7-3.4-3.1-3.9c-1.4-0.5-2.4,0.3-2.1,2c0.3,1.6,1.7,3.4,3.1,3.9
		C128,149.8,129,148.9,128.7,147.3z"/>
	<path class="st0" d="M131.4,157.4l1-0.8l-0.6-0.7c0-0.1,0-0.2,0-0.3c-0.3-1.6-1.7-3.4-3.1-3.9c-0.1,0-0.2-0.1-0.4-0.1L128,151
		l-0.8,0.7l0,0c-0.5,0.3-0.7,1-0.6,1.9c0.3,1.6,1.7,3.4,3.1,3.9c0.6,0.2,1.2,0.2,1.5-0.1l0,0L131.4,157.4
		C131.4,157.4,131.4,157.4,131.4,157.4z"/>
	<path class="st25" d="M132.8,154.8c-0.3-1.6-1.7-3.4-3.1-3.9c-1.4-0.5-2.4,0.3-2.1,2c0.3,1.6,1.7,3.4,3.1,3.9
		C132.1,157.3,133.1,156.4,132.8,154.8z"/>
</g>
<g id="m2-anim1">
	<polygon class="st25" points="139.6,68.2 121.3,77.4 102.9,65.2 120.8,56 	"/>
	<polygon class="st25" points="91.1,35.5 72.8,44.7 54.2,32.2 72.3,23.3 	"/>
	<polyline class="st14" points="72.8,44.7 91.1,35.5 97.8,77.9 85.1,104.3 72.8,44.7 	"/>
	<polyline class="st14" points="90.3,130.6 103.7,124.4 104,103.2 89.9,127.6 90.3,130.6 	"/>
	<polyline class="st14" points="60.9,122.3 75.8,115.5 67.6,76.3 60.2,91 60.7,122.4 60.7,122.4 	"/>
	<polygon class="st15" points="121.3,77.4 121.8,166.4 139.4,157.2 139.6,136.9 139.6,68.2 	"/>
	<path class="st21" d="M121.6,77.6l0.2,88.9c0,0-7-3.9-11-7.2c-4-3.3-7.2-3.2-7.1-16.3c0.1-13.1,0.1-38.7,0.1-38.7l-13.5,26.3
		L76,121.7l-8.9-41.1l-6.2,41.7c0,0-3.9,2.3-7.1-0.3c-3.2-2.6-11.5-8.4-11.5-8.4l11.8-81.4l18.6,12.4l11.8,55.9l18.4-35.3
		L121.6,77.6z"/>
	<path id="_x3C_Path_x3E__5_" class="st1" d="M141.6,171.6c2,1.4,3.1,2.2,3.8,2.6l-5.5,5.7c0,0-9.3,6.8-13.1-0.8
		c-3.5-6.8-5.1-12.4-6.6-19.9c-1.8-8.5-1.7-24.7-1.6-30.6l-0.1-0.1l0.1-1.3c0-0.5,0-0.8,0-0.8l0,0l3.2-49.3l0.9-0.4l1.5,51.9l-2.1,2
		c-0.3,9.3-0.1,17.2,3.8,26.2C128.8,163.4,134.7,166.7,141.6,171.6z M145.8,173.7l-0.4,0.4C147.2,175.1,145.8,173.7,145.8,173.7z"/>
	<path class="st15" d="M151.2,160.6c-0.5-8.4-16.7,1.8-22.6-7c-6-8.9-4.8-17.5-4.4-24.9l4.4,0l-4.2-53l-2.6,1.3l-0.5,51.7
		c0,0-0.5,17.6,3.1,25.9c3,6.9,5.3,12.1,12.2,17c6.9,4.9,6.7,4.7,6.7,4.7l5.5-5.1C148.8,171.2,151.6,166.8,151.2,160.6z"/>
	<path class="st22" d="M139.1,155.2c-6.8,3.4-12.8,12.3-13.3,19.9c-0.5,7.6,4.7,11,11.5,7.6c6.8-3.4,12.8-12.3,13.3-19.9
		C151.1,155.3,145.9,151.8,139.1,155.2z"/>
	<path class="st13" d="M140.3,155.9c-6.8,3.4-12.8,12.3-13.3,19.9c-0.5,7.6,4.7,11,11.5,7.7c6.8-3.4,12.8-12.3,13.3-19.9
		C152.2,155.9,147.1,152.5,140.3,155.9z"/>
	<path class="st22" d="M140.1,158.7c-5.4,2.7-10.1,9.8-10.5,15.8c-0.4,6,3.7,8.8,9.1,6.1c5.4-2.7,10.2-9.8,10.5-15.8
		C149.6,158.7,145.5,156,140.1,158.7z"/>
	<path class="st25" d="M138.5,159.5c-3.6,1.8-6.8,6.5-7,10.5c-0.3,4,2.5,5.8,6.1,4c3.6-1.8,6.8-6.5,7-10.5
		C144.8,159.6,142.1,157.8,138.5,159.5z"/>
	<path class="st13" d="M125,148.8l2.6-1.9l-1.4-1.9l-2.7,1.9l0,0c-0.2,0.1-0.3,0.3-0.3,0.7c0.1,0.6,0.6,1.2,1.1,1.4
		C124.6,148.9,124.7,148.9,125,148.8L125,148.8L125,148.8C124.9,148.8,125,148.8,125,148.8z"/>
	<path class="st0" d="M130.1,148.5l1-0.8l-0.6-0.7c0-0.1,0-0.2,0-0.3c-0.3-1.6-1.7-3.4-3.1-3.9c-0.1,0-0.2-0.1-0.4-0.1l-0.4-0.5
		l-0.8,0.7l0,0c-0.5,0.3-0.7,1-0.6,1.9c0.3,1.6,1.7,3.4,3.1,3.9c0.6,0.2,1.2,0.2,1.5-0.1l0,0L130.1,148.5
		C130.1,148.5,130.1,148.5,130.1,148.5z"/>
	<path class="st25" d="M131.5,145.9c-0.3-1.6-1.7-3.4-3.1-3.9c-1.4-0.5-2.4,0.3-2.1,2c0.3,1.6,1.7,3.4,3.1,3.9
		C130.8,148.4,131.8,147.5,131.5,145.9z"/>
	<path class="st13" d="M129,156.1l2.6-1.9l-1.4-1.9l-2.7,1.9l0,0c-0.2,0.1-0.3,0.3-0.3,0.7c0.1,0.6,0.6,1.2,1.1,1.4
		C128.6,156.3,128.7,156.3,129,156.1L129,156.1L129,156.1C128.9,156.2,129,156.2,129,156.1z"/>
	<path class="st0" d="M134.1,155.8l1-0.8l-0.6-0.7c0-0.1,0-0.2,0-0.3c-0.3-1.6-1.7-3.4-3.1-3.9c-0.1,0-0.2-0.1-0.4-0.1l-0.4-0.5
		l-0.8,0.7l0,0c-0.5,0.3-0.7,1-0.6,1.9c0.3,1.6,1.7,3.4,3.1,3.9c0.6,0.2,1.2,0.2,1.5-0.1l0,0L134.1,155.8
		C134.1,155.8,134.1,155.8,134.1,155.8z"/>
	<path class="st25" d="M135.5,153.2c-0.3-1.6-1.7-3.4-3.1-3.9c-1.4-0.5-2.4,0.3-2.1,2c0.3,1.6,1.7,3.4,3.1,3.9
		C134.8,155.7,135.8,154.8,135.5,153.2z"/>
</g>
<g id="c-anim1">
</g>
<g id="c-anim2">
</g>
<g id="m1-anim1">
</g>
<g id="m1-anim2" class="st23">
</g>
<g id="g-anim1">
</g>
<g id="g-anim2">
</g>
</svg>
