<?xml version="1.0" encoding="utf-8"?>
<!-- Generator: Adobe Illustrator 16.0.4, SVG Export Plug-In . SVG Version: 6.00 Build 0)  -->
<!DOCTYPE svg PUBLIC "-//W3C//DTD SVG 1.0//EN" "http://www.w3.org/TR/2001/REC-SVG-20010904/DTD/svg10.dtd">
<svg version="1.0" id="M2" xmlns="http://www.w3.org/2000/svg" xmlns:xlink="http://www.w3.org/1999/xlink" x="0px" y="0px"
	 width="120px" height="178px" viewBox="0 0 120 178" enable-background="new 0 0 120 178" xml:space="preserve">
<g id="m2-anim1">
	<polygon fill="#0D1B42" points="101.999,55.374 83.699,64.475 65.399,52.374 83.199,43.174"/>
	<polygon fill="#0D1B42" points="53.499,22.674 35.199,31.874 16.599,19.374 34.699,10.474"/>
	<polyline fill="#634382" points="35.199,31.874 53.499,22.674 60.199,65.074 47.499,91.475 35.199,31.874"/>
	<polyline fill="#634382" points="52.699,117.674 66.099,111.475 66.499,90.374 52.299,114.774 52.699,117.674"/>
	<polyline fill="#634382" points="23.299,109.475 38.199,102.674 29.999,63.475 22.599,78.174 23.099,109.574 23.099,109.574"/>
	<polygon fill="#6390FF" points="83.699,64.475 84.199,153.574 101.799,144.373 101.999,124.074 101.999,55.374"/>
	<path fill="#D9B90F" d="M83.999,64.774l0.2,88.899c0,0-7-3.899-11-7.199c-4-3.301-7.2-3.2-7.101-16.301
		c0.101-13.1,0.101-38.699,0.101-38.699l-13.5,26.3l-14.2-8.9l-8.9-41.1l-6.199,41.7c0,0-3.9,2.3-7.102-0.301
		c-3.199-2.6-11.5-8.399-11.5-8.399l11.801-81.4l18.601,12.4l11.8,55.899l18.4-35.3L83.999,64.774z"/>
	<path id="_x3C_Path_x3E__5_" fill="#4779B3" d="M103.999,158.674c2,1.4,3.102,2.199,3.8,2.601l-5.5,5.7c0,0-9.3,6.8-13.1-0.801
		c-3.5-6.801-5.101-12.399-6.601-19.899c-1.801-8.5-1.699-24.699-1.601-30.601l-0.101-0.1l0.101-1.301c0-0.5,0-0.801,0-0.801l0,0
		l3.2-49.299l0.9-0.4l1.5,51.9l-2.102,2c-0.3,9.299-0.1,17.198,3.8,26.198C91.199,150.475,97.099,153.774,103.999,158.674z
		 M108.199,160.873l-0.4,0.4C109.599,162.274,108.199,160.873,108.199,160.873z"/>
	<path fill="#6390FF" d="M113.599,147.774c-0.5-8.4-16.699,1.801-22.601-7c-6-8.9-4.8-17.5-4.399-24.9h4.399l-4.2-53l-2.6,1.3
		l-0.5,51.699c0,0-0.5,17.602,3.1,25.9c3,6.9,5.301,12.1,12.2,17s6.7,4.699,6.7,4.699l5.5-5.101
		C111.199,158.373,113.999,153.873,113.599,147.774z"/>
	<path fill="#3FB9AE" d="M101.499,142.373c-6.8,3.4-12.8,12.301-13.3,19.9c-0.5,7.599,4.7,11,11.5,7.6
		c6.8-3.398,12.8-12.299,13.3-19.898C113.499,142.475,108.299,138.975,101.499,142.373z"/>
	<path fill="#FFFFFF" d="M102.699,142.975c-6.8,3.398-12.8,12.3-13.3,19.898c-0.5,7.602,4.699,11,11.5,7.701
		c6.8-3.4,12.8-12.301,13.3-19.9C114.599,143.074,109.499,139.674,102.699,142.975z"/>
	<path fill="#3FB9AE" d="M102.499,145.873c-5.398,2.701-10.1,9.801-10.5,15.801c-0.398,6,3.7,8.801,9.102,6.101
		c5.398-2.7,10.198-9.8,10.498-15.8C111.999,145.873,107.899,143.174,102.499,145.873z"/>
	<path fill="#0D1B42" d="M100.899,146.674c-3.602,1.801-6.801,6.5-7,10.5c-0.301,4,2.5,5.801,6.1,4c3.602-1.801,6.8-6.5,7-10.5
		C107.199,146.774,104.499,144.873,100.899,146.674z"/>
	<path fill="#FFFFFF" d="M87.399,135.873l2.6-1.898l-1.4-1.9l-2.699,1.898l0,0c-0.2,0.102-0.301,0.301-0.301,0.701
		c0.101,0.6,0.601,1.198,1.101,1.399C86.999,136.074,87.099,136.074,87.399,135.873L87.399,135.873L87.399,135.873
		C87.299,135.975,87.399,135.975,87.399,135.873z"/>
	<path fill="#47797F" d="M92.499,135.574l1-0.801l-0.6-0.699c0-0.102,0-0.201,0-0.301c-0.301-1.6-1.7-3.4-3.102-3.9
		c-0.1,0-0.199-0.1-0.398-0.1l-0.4-0.5l-0.8,0.699l0,0c-0.5,0.301-0.7,1-0.601,1.899c0.301,1.601,1.699,3.4,3.101,3.9
		c0.6,0.2,1.2,0.2,1.5-0.101l0,0L92.499,135.574L92.499,135.574z"/>
	<path fill="#0D1B42" d="M93.899,132.975c-0.301-1.602-1.7-3.399-3.102-3.899c-1.398-0.5-2.398,0.299-2.1,2
		c0.3,1.601,1.699,3.399,3.1,3.899C93.199,135.475,94.199,134.674,93.899,132.975z"/>
	<path fill="#FFFFFF" d="M91.399,143.274l2.6-1.9l-1.4-1.899l-2.699,1.898l0,0c-0.2,0.102-0.301,0.301-0.301,0.701
		c0.101,0.6,0.601,1.199,1.101,1.398C90.999,143.475,91.099,143.475,91.399,143.274L91.399,143.274L91.399,143.274
		C91.299,143.373,91.399,143.274,91.399,143.274z"/>
	<path fill="#47797F" d="M96.499,142.975l1-0.801l-0.6-0.699c0-0.102,0-0.2,0-0.301c-0.301-1.6-1.7-3.399-3.102-3.899
		c-0.1,0-0.199-0.101-0.398-0.101l-0.4-0.5l-0.8,0.699l0,0c-0.5,0.301-0.7,1-0.601,1.9c0.301,1.6,1.699,3.4,3.101,3.9
		c0.6,0.198,1.2,0.198,1.5-0.101l0,0L96.499,142.975L96.499,142.975z"/>
	<path fill="#0D1B42" d="M97.899,140.373c-0.301-1.6-1.7-3.398-3.102-3.898c-1.398-0.5-2.398,0.3-2.1,2
		c0.3,1.601,1.699,3.398,3.1,3.898C97.199,142.873,98.199,141.975,97.899,140.373z"/>
</g>
<g id="m2-anim2">
	<polygon fill="#0D1B42" points="101.999,55.374 83.699,64.475 65.399,52.374 83.199,43.174"/>
	<polygon fill="#0D1B42" points="53.499,22.674 35.199,31.874 16.599,19.374 34.699,10.474"/>
	<polyline fill="#634382" points="35.199,31.874 53.499,22.674 60.199,65.074 47.499,91.475 35.199,31.874"/>
	<polyline fill="#634382" points="52.699,117.674 66.099,111.475 66.499,90.374 52.299,114.774 52.699,117.674"/>
	<polyline fill="#634382" points="23.299,109.475 38.199,102.674 29.999,63.475 22.599,78.174 23.099,109.574 23.099,109.574"/>
	<polygon fill="#6390FF" points="83.699,64.475 84.199,153.574 101.799,144.373 101.999,124.074 101.999,55.374"/>
	<path fill="#D9B90F" d="M83.999,64.774l0.2,88.899c0,0-7-3.899-11-7.199c-4-3.301-7.2-3.2-7.101-16.301
		c0.101-13.1,0.101-38.699,0.101-38.699l-13.5,26.3l-14.2-8.9l-8.9-41.1l-6.199,41.7c0,0-3.9,2.3-7.102-0.301
		c-3.199-2.6-11.5-8.399-11.5-8.399l11.801-81.4l18.601,12.4l11.8,55.899l18.4-35.3L83.999,64.774z"/>
	<path id="_x3C_Path_x3E__1_" fill="#4779B3" d="M103.999,158.674c2,1.4,3.102,2.199,3.8,2.601l-5.5,5.7c0,0-9.3,6.8-13.1-0.801
		c-3.5-6.801-5.101-12.399-6.601-19.899c-1.801-8.5-1.699-24.699-1.601-30.601l-0.101-0.1l0.101-1.301c0-0.5,0-0.801,0-0.801l0,0
		l3.2-49.299l0.9-0.4l1.5,51.9l-2.102,2c-0.3,9.299-0.1,17.198,3.8,26.198C91.199,150.475,97.099,153.774,103.999,158.674z
		 M108.199,160.873l-0.4,0.4C109.599,162.274,108.199,160.873,108.199,160.873z"/>
	<path fill="#6390FF" d="M113.599,147.774c-0.5-8.4-16.699,1.801-22.601-7c-6-8.9-4.8-17.5-4.399-24.9h4.399l-4.2-53l-2.6,1.3
		l-0.5,51.699c0,0-0.5,17.602,3.1,25.9c3,6.9,5.301,12.1,12.2,17s6.7,4.699,6.7,4.699l5.5-5.101
		C111.199,158.373,113.999,153.873,113.599,147.774z"/>
	<path fill="#3FB9AE" d="M101.599,138.975c-8.399,4.199-15.801,15.3-16.399,24.601c-0.601,9.399,5.8,13.601,14.2,9.5
		c8.398-4.201,15.8-15.301,16.398-24.601C116.399,139.074,109.999,134.873,101.599,138.975z"/>
	<path fill="#FFFFFF" d="M102.999,139.873c-8.4,4.201-15.8,15.301-16.4,24.602c-0.601,9.398,5.801,13.601,14.199,9.5
		c8.4-4.2,15.801-15.301,16.4-24.602C117.799,139.873,111.399,135.674,102.999,139.873z"/>
	<path fill="#3FB9AE" d="M102.799,143.274c-6.698,3.301-12.6,12.1-13,19.6c-0.5,7.5,4.601,10.802,11.302,7.5
		c6.698-3.299,12.6-12.1,13-19.6C114.599,143.373,109.499,139.975,102.799,143.274z"/>
	<path fill="#0D1B42" d="M100.899,146.674c-3.602,1.801-6.801,6.5-7,10.5c-0.301,4,2.5,5.801,6.1,4c3.602-1.801,6.8-6.5,7-10.5
		C107.199,146.774,104.499,144.873,100.899,146.674z"/>
	<path fill="#FFFFFF" d="M87.399,135.873l2.6-1.898l-1.4-1.9l-2.699,1.898l0,0c-0.2,0.102-0.301,0.301-0.301,0.701
		c0.101,0.6,0.601,1.198,1.101,1.399C86.999,136.074,87.099,136.074,87.399,135.873L87.399,135.873L87.399,135.873
		C87.299,135.975,87.399,135.975,87.399,135.873z"/>
	<path fill="#47797F" d="M89.499,136.975l1-0.801l-0.6-0.699c0-0.102,0-0.2,0-0.301c-0.301-1.6-1.7-3.399-3.102-3.899
		c-0.1,0-0.199-0.101-0.398-0.101l-0.4-0.5l-0.8,0.699l0,0c-0.5,0.301-0.7,1-0.601,1.9c0.301,1.6,1.699,3.4,3.101,3.9
		c0.6,0.198,1.2,0.198,1.5-0.101l0,0L89.499,136.975L89.499,136.975z"/>
	<path fill="#0D1B42" d="M90.999,134.373c-0.3-1.6-1.7-3.398-3.1-3.898c-1.4-0.5-2.4,0.3-2.102,2c0.301,1.601,1.7,3.398,3.102,3.898
		C90.299,136.873,91.199,135.975,90.999,134.373z"/>
	<path fill="#FFFFFF" d="M91.399,143.274l2.6-1.9l-1.4-1.899l-2.699,1.898l0,0c-0.2,0.102-0.301,0.301-0.301,0.701
		c0.101,0.6,0.601,1.199,1.101,1.398C90.999,143.475,91.099,143.475,91.399,143.274L91.399,143.274L91.399,143.274
		C91.299,143.373,91.399,143.274,91.399,143.274z"/>
	<path fill="#47797F" d="M95.199,143.574l1-0.801l-0.601-0.699c0-0.102,0-0.201,0-0.301c-0.301-1.6-1.699-3.4-3.101-3.9
		c-0.101,0-0.2-0.1-0.399-0.1l-0.399-0.5l-0.8,0.699l0,0c-0.5,0.301-0.7,1-0.602,1.899c0.301,1.601,1.7,3.4,3.102,3.9
		c0.6,0.2,1.199,0.2,1.5-0.101l0,0L95.199,143.574L95.199,143.574z"/>
	<path fill="#0D1B42" d="M96.599,140.975c-0.3-1.602-1.699-3.4-3.1-3.9c-1.398-0.5-2.398,0.299-2.1,2c0.3,1.6,1.699,3.398,3.1,3.898
		C95.899,143.475,96.899,142.574,96.599,140.975z"/>
</g>
</svg>
