<?xml version="1.0" encoding="utf-8"?>
<!-- Generator: Adobe Illustrator 16.0.4, SVG Export Plug-In . SVG Version: 6.00 Build 0)  -->
<!DOCTYPE svg PUBLIC "-//W3C//DTD SVG 1.1//EN" "http://www.w3.org/Graphics/SVG/1.1/DTD/svg11.dtd">
<svg version="1.1" id="M2" xmlns="http://www.w3.org/2000/svg" xmlns:xlink="http://www.w3.org/1999/xlink" x="0px" y="0px"
	 width="138px" height="184px" viewBox="0 0 138 184" enable-background="new 0 0 138 184" xml:space="preserve">
<g id="m2-anim1">
	<polygon fill="#EDC49A" points="101.999,55.374 83.699,64.475 65.398,52.374 83.199,43.174 	"/>
	<polygon fill="#EDC49A" points="53.499,22.674 35.199,31.874 16.599,19.374 34.699,10.474 	"/>
	<polyline fill="#211D56" points="35.199,31.874 53.499,22.674 60.199,65.074 47.499,91.475 35.199,31.874 	"/>
	<polyline fill="#211D56" points="52.699,117.674 66.1,111.475 66.499,90.374 52.299,114.773 52.699,117.674 	"/>
	<polyline fill="#211D56" points="23.299,109.475 38.199,102.674 29.999,63.475 22.599,78.174 23.099,109.574 23.099,109.574 	"/>
	<polygon fill="#211D56" points="83.699,64.475 84.199,153.574 101.799,144.373 101.999,124.074 101.999,55.374 	"/>
	<path fill="#D1F4D0" d="M83.999,64.774l0.2,88.898c0,0-7-3.898-11-7.197c-4-3.303-7.2-3.201-7.102-16.303
		c0.102-13.1,0.102-38.697,0.102-38.697l-13.5,26.298l-14.2-8.898l-8.899-41.1l-6.199,41.7c0,0-3.9,2.299-7.103-0.303
		c-3.198-2.6-11.5-8.398-11.5-8.398L16.6,19.375l18.601,12.4L47,87.673l18.4-35.3L83.999,64.774z"/>
	<path id="_x3C_Path_x3E__5_" fill="#3C3C82" d="M103.999,158.674c2,1.4,3.104,2.199,3.8,2.604l-5.5,5.699c0,0-9.3,6.801-13.1-0.803
		c-3.5-6.801-5.102-12.396-6.602-19.896c-1.804-8.5-1.699-24.698-1.604-30.604l-0.102-0.1l0.102-1.301c0-0.5,0-0.801,0-0.801l0,0
		l3.199-49.303l0.9-0.399l1.5,51.899l-2.104,2c-0.301,9.303-0.102,17.198,3.8,26.198C91.199,150.475,97.1,153.773,103.999,158.674z
		 M108.199,160.873l-0.4,0.4C109.6,162.273,108.199,160.873,108.199,160.873z"/>
	<path fill="#211D56" d="M113.6,147.773c-0.5-8.399-16.699,1.802-22.603-7c-6-8.899-4.8-17.5-4.397-24.899h4.397l-4.2-53l-2.6,1.3
		l-0.5,51.699c0,0-0.5,17.604,3.1,25.9c3,6.896,5.303,12.1,12.2,17c6.897,4.896,6.7,4.699,6.7,4.699l5.5-5.104
		C111.199,158.373,113.999,153.873,113.6,147.773z"/>
	<path fill="#D1F4D0" d="M101.499,142.373c-6.8,3.4-12.8,12.301-13.3,19.9c-0.5,7.599,4.699,11,11.5,7.6
		c6.8-3.396,12.8-12.299,13.3-19.896C113.499,142.475,108.299,138.975,101.499,142.373z"/>
	<path fill="#FFFFFF" d="M102.699,142.975c-6.801,3.397-12.801,12.301-13.301,19.897c-0.5,7.603,4.699,11,11.5,7.701
		c6.801-3.4,12.801-12.302,13.301-19.9C114.6,143.074,109.499,139.674,102.699,142.975z"/>
	<path fill="#81EFA3" d="M102.499,145.873c-5.396,2.701-10.101,9.801-10.5,15.801c-0.396,6,3.7,8.803,9.104,6.104
		c5.396-2.699,10.194-9.801,10.498-15.801C111.999,145.873,107.898,143.174,102.499,145.873z"/>
	<path fill="#0D1B42" d="M100.898,146.674c-3.604,1.803-6.801,6.5-7,10.5c-0.301,4,2.5,5.803,6.101,4c3.604-1.801,6.8-6.5,7-10.5
		C107.199,146.773,104.499,144.873,100.898,146.674z"/>
	<path fill="#FFFFFF" d="M87.398,135.873l2.601-1.896l-1.397-1.898l-2.699,1.896l0,0c-0.199,0.104-0.301,0.301-0.301,0.699
		c0.102,0.602,0.602,1.198,1.102,1.399C86.999,136.074,87.1,136.074,87.398,135.873L87.398,135.873L87.398,135.873
		C87.299,135.975,87.398,135.975,87.398,135.873z"/>
	<path fill="#47797F" d="M92.499,135.574l1-0.801l-0.601-0.699c0-0.102,0-0.201,0-0.301c-0.301-1.604-1.699-3.4-3.104-3.9
		c-0.101,0-0.196-0.1-0.396-0.1l-0.399-0.5l-0.8,0.699l0,0c-0.5,0.301-0.7,1-0.602,1.896c0.301,1.604,1.696,3.399,3.102,3.899
		c0.6,0.197,1.199,0.197,1.5-0.104l0,0L92.499,135.574L92.499,135.574z"/>
	<path fill="#0D1B42" d="M93.898,132.975c-0.301-1.603-1.699-3.396-3.104-3.896c-1.396-0.5-2.396,0.299-2.101,2
		c0.301,1.602,1.699,3.396,3.101,3.896C93.199,135.475,94.199,134.674,93.898,132.975z"/>
	<path fill="#FFFFFF" d="M91.398,143.273l2.601-1.899l-1.397-1.897l-2.699,1.896l0,0c-0.199,0.104-0.301,0.301-0.301,0.701
		c0.102,0.6,0.602,1.199,1.102,1.398C90.999,143.475,91.1,143.475,91.398,143.273L91.398,143.273L91.398,143.273
		C91.299,143.373,91.398,143.273,91.398,143.273z"/>
	<path fill="#47797F" d="M96.499,142.975l1-0.802l-0.601-0.698c0-0.103,0-0.199,0-0.302c-0.301-1.6-1.699-3.397-3.104-3.897
		c-0.101,0-0.196-0.103-0.396-0.103l-0.399-0.5l-0.8,0.699l0,0c-0.5,0.301-0.7,1-0.602,1.899c0.301,1.601,1.696,3.397,3.102,3.897
		c0.6,0.198,1.199,0.198,1.5-0.103l0,0L96.499,142.975L96.499,142.975z"/>
	<path fill="#0D1B42" d="M97.898,140.373c-0.301-1.6-1.699-3.396-3.104-3.896c-1.396-0.5-2.396,0.301-2.101,2
		c0.301,1.603,1.699,3.396,3.101,3.896C97.199,142.873,98.199,141.975,97.898,140.373z"/>
</g>
<g id="m2-anim2">
	<polygon fill="#EDC49A" points="101.999,55.374 83.699,64.475 65.398,52.374 83.199,43.174 	"/>
	<polygon fill="#EDC49A" points="53.499,22.674 35.199,31.874 16.599,19.374 34.699,10.474 	"/>
	<polyline fill="#211D56" points="35.199,31.874 53.499,22.674 60.199,65.074 47.499,91.475 35.199,31.874 	"/>
	<polyline fill="#211D56" points="52.699,117.674 66.1,111.475 66.499,90.374 52.299,114.773 52.699,117.674 	"/>
	<polyline fill="#211D56" points="23.299,109.475 38.199,102.674 29.999,63.475 22.599,78.174 23.099,109.574 23.099,109.574 	"/>
	<polygon fill="#211D56" points="83.699,64.475 84.199,153.574 101.799,144.373 101.999,124.074 101.999,55.374 	"/>
	<path fill="#B6F9AF" d="M83.999,64.774l0.2,88.898c0,0-7-3.898-11-7.197c-4-3.303-7.2-3.201-7.102-16.303
		c0.102-13.1,0.102-38.697,0.102-38.697l-13.5,26.298l-14.2-8.898l-8.899-41.1l-6.199,41.7c0,0-3.9,2.299-7.103-0.303
		c-3.198-2.6-11.5-8.398-11.5-8.398L16.6,19.375l18.601,12.4L47,87.673l18.4-35.3L83.999,64.774z"/>
	<path id="_x3C_Path_x3E__1_" fill="#3C3C82" d="M103.999,158.674c2,1.4,3.104,2.199,3.8,2.604l-5.5,5.699c0,0-9.3,6.801-13.1-0.803
		c-3.5-6.801-5.102-12.396-6.602-19.896c-1.804-8.5-1.699-24.698-1.604-30.604l-0.102-0.1l0.102-1.301c0-0.5,0-0.801,0-0.801l0,0
		l3.199-49.303l0.9-0.399l1.5,51.899l-2.104,2c-0.301,9.303-0.102,17.198,3.8,26.198C91.199,150.475,97.1,153.773,103.999,158.674z
		 M108.199,160.873l-0.4,0.4C109.6,162.273,108.199,160.873,108.199,160.873z"/>
	<path fill="#211D56" d="M113.6,147.773c-0.5-8.399-16.699,1.802-22.603-7c-6-8.899-4.8-17.5-4.397-24.899h4.397l-4.2-53l-2.6,1.3
		l-0.5,51.699c0,0-0.5,17.604,3.1,25.9c3,6.896,5.303,12.1,12.2,17c6.897,4.896,6.7,4.699,6.7,4.699l5.5-5.104
		C111.199,158.373,113.999,153.873,113.6,147.773z"/>
	<path fill="#D1F4D0" d="M101.6,138.975c-8.397,4.198-15.803,15.301-16.397,24.604c-0.603,9.396,5.8,13.602,14.198,9.5
		c8.396-4.201,15.802-15.303,16.396-24.604C116.398,139.074,109.999,134.873,101.6,138.975z"/>
	<path fill="#FFFFFF" d="M102.999,139.873c-8.397,4.201-15.8,15.301-16.397,24.604c-0.604,9.396,5.801,13.603,14.196,9.5
		c8.4-4.199,15.804-15.303,16.4-24.604C117.799,139.873,111.398,135.674,102.999,139.873z"/>
	<path fill="#AAEDA6" d="M102.799,143.273c-6.695,3.302-12.6,12.101-13,19.601c-0.5,7.5,4.604,10.802,11.305,7.5
		c6.695-3.299,12.601-12.101,13-19.601C114.6,143.373,109.499,139.975,102.799,143.273z"/>
	<path fill="#0D1B42" d="M100.898,146.674c-3.604,1.803-6.801,6.5-7,10.5c-0.301,4,2.5,5.803,6.101,4c3.604-1.801,6.8-6.5,7-10.5
		C107.199,146.773,104.499,144.873,100.898,146.674z"/>
	<path fill="#FFFFFF" d="M87.398,135.873l2.601-1.896l-1.397-1.898l-2.699,1.896l0,0c-0.199,0.104-0.301,0.301-0.301,0.699
		c0.102,0.602,0.602,1.198,1.102,1.399C86.999,136.074,87.1,136.074,87.398,135.873L87.398,135.873L87.398,135.873
		C87.299,135.975,87.398,135.975,87.398,135.873z"/>
	<path fill="#47797F" d="M89.499,136.975l1-0.802l-0.601-0.698c0-0.103,0-0.199,0-0.302c-0.301-1.6-1.699-3.397-3.104-3.897
		c-0.101,0-0.196-0.103-0.396-0.103l-0.399-0.5l-0.8,0.699l0,0c-0.5,0.301-0.7,1-0.602,1.899c0.301,1.601,1.696,3.397,3.102,3.897
		c0.6,0.198,1.199,0.198,1.5-0.103l0,0L89.499,136.975L89.499,136.975z"/>
	<path fill="#3FB9AE" d="M90.999,134.373c-0.3-1.6-1.7-3.396-3.101-3.896c-1.399-0.5-2.399,0.301-2.104,2
		c0.304,1.603,1.7,3.396,3.104,3.896C90.299,136.873,91.199,135.975,90.999,134.373z"/>
	<path fill="#FFFFFF" d="M91.398,143.273l2.601-1.899l-1.397-1.897l-2.699,1.896l0,0c-0.199,0.104-0.301,0.301-0.301,0.701
		c0.102,0.6,0.602,1.199,1.102,1.398C90.999,143.475,91.1,143.475,91.398,143.273L91.398,143.273L91.398,143.273
		C91.299,143.373,91.398,143.273,91.398,143.273z"/>
	<path fill="#47797F" d="M95.199,143.574l1-0.801l-0.602-0.699c0-0.102,0-0.201,0-0.301c-0.304-1.604-1.699-3.4-3.104-3.9
		c-0.102,0-0.2-0.1-0.396-0.1l-0.398-0.5l-0.801,0.699l0,0c-0.5,0.301-0.699,1-0.604,1.896c0.304,1.604,1.7,3.399,3.104,3.899
		c0.601,0.197,1.199,0.197,1.5-0.104l0,0L95.199,143.574L95.199,143.574z"/>
	<path fill="#3FB9AE" d="M96.6,140.975c-0.302-1.603-1.699-3.397-3.102-3.897c-1.396-0.5-2.396,0.299-2.102,2
		c0.302,1.6,1.698,3.396,3.102,3.896C95.898,143.475,96.898,142.574,96.6,140.975z"/>
</g>
</svg>
