<?xml version="1.0" encoding="utf-8"?>
<!-- Generator: Adobe Illustrator 16.0.4, SVG Export Plug-In . SVG Version: 6.00 Build 0)  -->
<!DOCTYPE svg PUBLIC "-//W3C//DTD SVG 1.1//EN" "http://www.w3.org/Graphics/SVG/1.1/DTD/svg11.dtd">
<svg version="1.1" id="all" xmlns="http://www.w3.org/2000/svg" xmlns:xlink="http://www.w3.org/1999/xlink" x="0px" y="0px"
	 width="212px" height="219.7px" viewBox="0 0 212 219.7" style="enable-background:new 0 0 212 219.7;" xml:space="preserve">
<style type="text/css">
<![CDATA[
	.st0{fill:#47797F;}
	.st1{fill:#4779B3;}
	.st2{display:inline;fill:#803675;}
	.st3{fill:#E2C000;}
	.st4{fill:#803675;}
	.st5{fill:#85ACFF;}
	.st6{fill:#F4571C;}
	.st7{display:inline;fill:#2A3297;}
	.st8{display:inline;fill:#FD858F;}
	.st9{display:inline;fill:#FFFFFF;}
	.st10{fill:#2A3297;}
	.st11{fill:#FD858F;}
	.st12{fill:#FEFFFF;}
	.st13{fill:#FFFFFF;}
	.st14{fill:#634382;}
	.st15{fill:#6390FF;}
	.st16{display:inline;fill:#D47513;}
	.st17{fill:#0000A6;}
	.st18{display:inline;fill:#3FB9AE;}
	.st19{fill:#D2B8B5;}
	.st20{fill:#D47513;}
	.st21{fill:#D9B90F;}
	.st22{fill:#3FB9AE;}
	.st23{display:none;}
	.st24{display:inline;fill:#47797F;}
	.st25{fill:#0D1B42;}
	.st26{fill:#0F1D42;}
	.st27{fill:#0F1D44;}
	.st28{fill:#DDBA18;}
	.st29{fill:none;stroke:#000000;stroke-width:1.1264;stroke-linecap:round;stroke-miterlimit:10;}
]]>
</style>
<g id="m3-anim2">
	<polygon class="st11" points="56.9,68.2 75.2,77.4 93.5,65.2 75.7,56 	"/>
	<polygon class="st11" points="105.4,35.5 123.7,44.7 142.3,32.2 124.2,23.3 	"/>
	<polyline class="st20" points="123.7,44.7 105.4,35.5 98.7,77.9 111.4,104.3 123.7,44.7 	"/>
	<polyline class="st20" points="106.2,130.6 92.8,124.4 92.4,103.2 106.6,127.6 106.2,130.6 	"/>
	<polyline class="st20" points="135.6,122.3 120.7,115.5 128.9,76.3 136.3,91 135.8,122.4 135.8,122.4 	"/>
	<polygon class="st20" points="75.2,77.4 74.7,166.4 57.1,157.2 56.9,136.9 56.9,68.2 	"/>
	<path class="st10" d="M74.9,77.6l-0.2,88.9c0,0,7-3.9,11-7.2c4-3.3,7.2-3.2,7.1-16.3c-0.1-13.1-0.1-38.7-0.1-38.7l13.5,26.3
		l14.2-8.9l8.9-41.1l6.2,41.7c0,0,3.9,2.3,7.1-0.3c3.2-2.6,11.5-8.4,11.5-8.4l-11.8-81.4l-18.6,12.4l-11.8,55.9L93.5,65.2L74.9,77.6
		z"/>
	<polygon class="st4" points="140.4,59.6 134.2,64.4 138.3,101.6 144.6,96.8 	"/>
	<polygon class="st0" points="135.9,65.2 133.6,64.2 134.5,72.2 136.8,73.2 	"/>
	<polygon class="st22" points="140.2,59.3 133.6,64.2 135.9,65.2 142.5,60.3 	"/>
	<polygon class="st13" points="142.5,60.3 135.9,65.2 136.8,73.2 143.4,68.4 	"/>
	<polygon class="st22" points="43.3,159.6 43.1,161.1 48.9,164.9 49,163.4 	"/>
	<polygon class="st0" points="49,163.4 48.9,164.9 62.2,158.4 62.4,156.9 	"/>
	<polygon class="st13" points="56.6,153.1 43.3,159.6 49.1,163.4 62.4,156.9 	"/>
	<polygon class="st22" points="49.4,163.5 49.3,165.1 55.1,168.9 55.2,167.3 	"/>
	<polygon class="st0" points="55.3,167.3 55.1,168.9 68.4,162.4 68.6,160.8 	"/>
	<polygon class="st13" points="62.8,157 49.5,163.6 55.2,167.4 68.6,160.8 	"/>
	<polygon class="st22" points="55.5,167.4 55.3,169.3 61.1,173.1 61.3,171.3 	"/>
	<polygon class="st0" points="61.3,171.1 61.1,173.1 74.5,166.6 74.6,164.6 	"/>
	<polygon class="st13" points="68.8,160.9 55.5,167.5 61.3,171.3 74.6,164.7 	"/>
</g>
<g id="m3-anim1" class="st23">
	<polygon class="st8" points="57.2,68.2 75.6,77.4 93.9,65.2 76,56 	"/>
	<polygon class="st8" points="105.7,35.5 124.1,44.7 142.7,32.2 124.5,23.3 	"/>
	<polyline class="st16" points="124.1,44.7 105.7,35.5 99,77.9 111.7,104.3 124.1,44.7 	"/>
	<polyline class="st16" points="106.6,130.6 93.1,124.4 92.8,103.2 106.9,127.6 106.6,130.6 	"/>
	<polyline class="st16" points="135.9,122.3 121.1,115.5 129.2,76.3 136.6,91 136.1,122.4 136.1,122.4 	"/>
	<polygon class="st16" points="75.6,77.4 75.1,166.4 57.4,157.2 57.2,136.9 57.2,68.2 	"/>
	<path class="st7" d="M75.2,77.6l-0.2,88.9c0,0,7-3.9,11-7.2c4-3.3,7.2-3.2,7.1-16.3c-0.1-13.1-0.1-38.7-0.1-38.7l13.5,26.3
		l14.2-8.9l8.9-41.1l6.2,41.7c0,0,3.9,2.3,7.1-0.3c3.2-2.6,11.5-8.4,11.5-8.4l-11.8-81.4l-18.6,12.4l-11.8,55.9L93.9,65.2L75.2,77.6
		z"/>
	<polygon class="st2" points="140.4,59.6 134.2,64.4 138.3,101.6 144.6,96.8 	"/>
	<polygon class="st24" points="140,97.9 137.7,96.9 138.6,104.9 140.9,105.9 	"/>
	<polygon class="st18" points="144.2,92 137.7,96.9 140,97.9 146.5,93 	"/>
	<polygon class="st9" points="146.5,93 140,97.9 140.9,105.9 147.5,101.1 	"/>
	<polygon class="st9" points="57.4,147.7 44.1,154.2 49.8,158 63.2,151.5 	"/>
	<polygon class="st18" points="44.1,154.2 43.7,161.1 49.4,164.9 49.8,158 	"/>
	<polygon class="st24" points="49.8,158 49.4,164.9 62.8,158.4 63.2,151.5 	"/>
	<polygon class="st18" points="50.2,158.3 49.8,165.2 55.6,169 56,162.1 	"/>
	<polygon class="st24" points="56,162.1 55.6,169 69,162.4 69.4,155.5 	"/>
	<polygon class="st9" points="63.6,151.7 50.2,158.3 56,162.1 69.4,155.5 	"/>
	<polygon class="st18" points="56.3,162.4 55.9,169.3 61.7,173.1 62.1,166.2 	"/>
	<polygon class="st24" points="62.1,166.2 61.7,173.1 75.1,166.6 75.5,159.7 	"/>
	<polygon class="st9" points="69.7,155.9 56.3,162.4 62.1,166.2 75.5,159.7 	"/>
</g>
<g id="m2-anim2">
</g>
<g id="m2-anim1">
</g>
<g id="c-anim1">
</g>
<g id="c-anim2">
</g>
<g id="m1-anim1">
</g>
<g id="m1-anim2" class="st23">
</g>
<g id="g-anim1">
</g>
<g id="g-anim2">
</g>
</svg>
