<svg xmlns="http://www.w3.org/2000/svg"><symbol viewBox="0 0 159 187" id="shape-C"><title>C</title> <g id="C-c-anim1"> <path fill="#0F1D42" d="M83.9,70.3c0,0-0.9,20.2,5.399,37.5S101.4,135.9,115.4,144.5l5.398,19.2l-66.3,3.6l-30.101-35.7l-8.5-59.3
		L25.5,40.6l20.2-13.5L78.1,50L83.9,70.3z"/> <path fill="#E2C000" d="M152.5,139.8l-63.7,9.5c0,0-24.1,31.3-24.3,30.7c-0.1-0.6,3.2,1.2,3.2,1.2s54.3-8.101,54.399-8.7
		c0.199-0.6,16.601-0.6,24.301-10.8C154,151.5,157.3,141.6,157.3,141.6L152.5,139.8z"/> <polyline fill="#FEFFFF" points="78.1,147.5 142.7,135.9 157.1,141.7 94,153.2 78.1,147.3"/> <line fill="none" stroke="#000000" stroke-width="1.3489" stroke-linecap="round" stroke-miterlimit="10" x1="95.6" y1="69.8" x2="95.6" y2="148.5"/> <line fill="none" stroke="#000000" stroke-width="1.3489" stroke-linecap="round" stroke-miterlimit="10" x1="103" y1="67.9" x2="103" y2="146.6"/> <line fill="none" stroke="#000000" stroke-width="1.3489" stroke-linecap="round" stroke-miterlimit="10" x1="111.1" y1="66.7" x2="111.1" y2="145.4"/> <line fill="none" stroke="#000000" stroke-width="1.3489" stroke-linecap="round" stroke-miterlimit="10" x1="118.7" y1="65.1" x2="118.7" y2="143.8"/> <line fill="none" stroke="#000000" stroke-width="1.3489" stroke-linecap="round" stroke-miterlimit="10" x1="126.7" y1="64.1" x2="126.7" y2="142.8"/> <line fill="none" stroke="#000000" stroke-width="1.3489" stroke-linecap="round" stroke-miterlimit="10" x1="134" y1="62.3" x2="134" y2="141"/> <line fill="none" stroke="#000000" stroke-width="1.3489" stroke-linecap="round" stroke-miterlimit="10" x1="141.5" y1="61.2" x2="141.5" y2="139.8"/> <path fill="#6390FF" d="M94,75.9l-15.6-5.2c0,0-4.5-17.1-16.5-25.5c-12-8.4-18.9-7.6-24.4-3.4C22.4,53.2,20.4,74.7,21.9,92.2
		c0.6,6.6,1.5,13.5,3,20c1.8,7.7,4.6,15.6,8.3,22.6c6.2,11.9,13,22.9,27.5,24c2.899,0.2,5.2-0.1,7.8-1.399
		c3.6-1.801,8.7-6.899,9.6-9.699L94,153.4c0,0-3.4,14.199-9.7,19.601s-15,10.601-25.3,7.8c-15.1-4.199-26.7-16.398-34.1-29.699
		c-4.9-8.801-8.601-18.199-11.4-27.801c-2.2-7.8-3.8-15.699-4.6-23.699C8.3,93.301,8,86.9,8,80.501c-0.1-9,0.4-18.3,2.5-27.1
		c3-12.1,7.5-19.6,12-25.8c4.5-6.1,14.5-13.7,24.2-10.8c9.8,3,20.399,10,26.6,18.7s20.101,28.9,20.7,39.9"/> <path fill="#E2C000" d="M126.8,12.5c-12.1-10-26.2-7.3-26.2-7.3L39.5,15.9C77.7,18.4,94,76.4,94,76.4l63.1-11.2
		C152,42.2,138.9,22.5,126.8,12.5z"/> </g> <g id="C-c-anim2"> <path fill="#0F1D42" d="M83.9,70.3c0,0-0.9,20.2,5.399,37.5S101.4,135.9,115.4,144.5l5.398,19.2l-66.3,3.6l-30.101-35.7l-8.5-59.3
		L25.5,40.6l20.2-13.5L78.1,50L83.9,70.3z"/> <path fill="#E2C000" d="M152.5,139.8l-63.7,9.5c0,0-24.1,31.3-24.3,30.7c-0.1-0.6,3.2,1.2,3.2,1.2s54.3-8.101,54.399-8.7
		c0.199-0.6,16.601-0.6,24.301-10.8C154,151.5,157.3,141.6,157.3,141.6L152.5,139.8z"/> <polyline fill="#FEFFFF" points="78.1,147.5 142.7,135.9 157.1,141.7 94,153.2 78.1,147.3"/> <g> <path fill="none" stroke="#000000" stroke-width="1.3489" stroke-linecap="round" stroke-miterlimit="10" d="M97.6,69.8
			c0,3.9-4,3.9-4,7.9c0,3.899,4,3.899,4,7.899c0,3.9-4,3.9-4,7.9s4,3.9,4,7.9c0,3.899-4,3.899-4,7.899c0,3.9,4,3.9,4,7.9
			c0,3.899-4,3.899-4,7.899c0,3.899,4,3.899,4,7.899c0,3.899-4,3.899-4,7.899s4,3.899,4,7.899"/> </g> <g> <path fill="none" stroke="#000000" stroke-width="1.3489" stroke-linecap="round" stroke-miterlimit="10" d="M105,67.9
			c0,3.9-4,3.9-4,7.9c0,3.9,4,3.9,4,7.9c0,3.899-4,3.899-4,7.899s4,3.9,4,7.9c0,3.9-4,3.9-4,7.9c0,3.899,4,3.899,4,7.899
			c0,3.9-4,3.9-4,7.9c0,3.899,4,3.899,4,7.899c0,3.899-4,3.899-4,7.899s4,3.899,4,7.899"/> </g> <g> <path fill="none" stroke="#000000" stroke-width="1.3489" stroke-linecap="round" stroke-miterlimit="10" d="M113.1,66.7
			c0,3.9-4,3.9-4,7.9c0,3.9,4,3.9,4,7.9s-4,3.9-4,7.9s4,3.899,4,7.899s-4,3.9-4,7.9c0,3.899,4,3.899,4,7.899
			c0,3.899-4,3.899-4,7.899c0,3.899,4,3.899,4,7.899c0,3.899-4,3.899-4,7.899s4,3.9,4,7.9"/> </g> <g> <path fill="none" stroke="#000000" stroke-width="1.3489" stroke-linecap="round" stroke-miterlimit="10" d="M120.7,65.1
			c0,3.9-4,3.9-4,7.9c0,3.9,4,3.9,4,7.9c0,3.899-4,3.899-4,7.899c0,3.9,4,3.9,4,7.9c0,3.899-4,3.899-4,7.899c0,3.9,4,3.9,4,7.9
			c0,3.9-4,3.9-4,7.9c0,3.898,4,3.898,4,7.898c0,3.9-4,3.9-4,7.9c0,3.898,4,3.898,4,7.898"/> </g> <g> <path fill="none" stroke="#000000" stroke-width="1.3489" stroke-linecap="round" stroke-miterlimit="10" d="M128.7,64.1
			c0,3.9-4,3.9-4,7.9c0,3.9,4,3.9,4,7.9c0,4-4,3.899-4,7.899s4,3.9,4,7.9s-4,3.899-4,7.899c0,3.9,4,3.9,4,7.9c0,3.9-4,3.9-4,7.9
			c0,3.898,4,3.898,4,7.898c0,3.9-4,3.9-4,7.9s4,3.898,4,7.898"/> </g> <g> <path fill="none" stroke="#000000" stroke-width="1.3489" stroke-linecap="round" stroke-miterlimit="10" d="M136,62.3
			c0,3.9-4,3.9-4,7.9c0,3.9,4,3.9,4,7.899c0,3.9-4,3.9-4,7.9s4,3.9,4,7.9s-4,3.899-4,7.899c0,3.9,4,3.9,4,7.9
			c0,3.899-4,3.899-4,7.899c0,3.899,4,3.899,4,7.899c0,3.899-4,3.899-4,7.899s4,3.899,4,7.899"/> </g> <g> <path fill="none" stroke="#000000" stroke-width="1.3489" stroke-linecap="round" stroke-miterlimit="10" d="M143.5,61.2
			c0,3.9-4,3.9-4,7.9c0,3.9,4,3.9,4,7.9c0,3.9-4,3.9-4,7.9s4,3.899,4,7.899s-4,3.9-4,7.9c0,3.899,4,3.899,4,7.899c0,3.9-4,3.9-4,7.9
			c0,3.9,4,3.9,4,7.9c0,3.898-4,3.898-4,7.898s4,3.9,4,7.9"/> </g> <path fill="#6390FF" d="M94,75.9l-15.6-5.2c0,0-4.5-17.1-16.5-25.5c-12-8.4-18.9-7.6-24.4-3.4C22.4,53.2,20.4,74.7,21.9,92.2
		c0.6,6.6,1.5,13.5,3,20c1.8,7.7,4.6,15.6,8.3,22.6c6.2,11.9,13,22.9,27.5,24c2.899,0.2,5.2-0.1,7.8-1.399
		c3.6-1.801,8.7-6.899,9.6-9.699L94,153.4c0,0-3.4,14.199-9.7,19.601s-15,10.601-25.3,7.8c-15.1-4.199-26.7-16.398-34.1-29.699
		c-4.9-8.801-8.601-18.199-11.4-27.801c-2.2-7.8-3.8-15.699-4.6-23.699C8.3,93.301,8,86.9,8,80.501c-0.1-9,0.4-18.3,2.5-27.1
		c3-12.1,7.5-19.6,12-25.8c4.5-6.1,14.5-13.7,24.2-10.8c9.8,3,20.399,10,26.6,18.7s20.101,28.9,20.7,39.9"/> <path fill="#E2C000" d="M126.8,12.5c-12.1-10-26.2-7.3-26.2-7.3L39.5,15.9C77.7,18.4,94,76.4,94,76.4l63.1-11.2
		C152,42.2,138.9,22.5,126.8,12.5z"/> </g> </symbol><symbol viewBox="0 0 147 112.5" id="shape-G"><title>G</title> <g id="G-g-anim1"> <path fill="#0F1D44" d="M135.92,57.961c-20.3,21.5-44.398,23.5-71.5,19.3c-34-5.199-35.8-27.8-61.1-36.8
		C-11.68,124.261,149.32,136.261,135.92,57.961z"/> <polygon fill="#E3E5E8" points="64.12,49.661 64.12,80.361 78.12,84.761 78.12,60.562"/> <polygon fill="#DFE1E5" points="71.62,46.161 86.32,39.461 86.32,20.261 71.62,30.861"/> <polygon fill="#DFE1E5" points="99.221,51.461 98.721,51.161 98.721,77.261 115.42,70.761 115.42,55.761"/> <polygon fill="#DDBA18" points="99.221,80.261 98.721,51.161 77.721,60.661 78.12,60.562 78.12,84.062"/> <path fill="#DDBA18" d="M43.22,22.161l-23,18.4l2.4,13.899c3.5,2,6.9,3.9,10.4,5.8c2.4,1.4,4.9,2.7,7.3,4c0.8,0.5,1.7,0.9,2.6,1.4
		c0.4,0.2,0.8,0.5,1.2,0.6l0,0c0-0.1-0.6-0.5-0.7-0.5c-1.5-1-2.7-2.399-3.3-4.1c-0.7-1.8-0.9-3.9-0.6-5.9
		c3.8-19.5,32.1-6.1,32.1-6.1v-18.8l-4.8-10.601L43.22,22.161z"/> <path fill="#F4571C" d="M102.92,32.161l-38.8,17.8l14,11l20.7-9.5l10.5,8.2c-0.8,3.1-2.5,6-5,8.7s-5.6,4.899-9.1,6.5
		c-7.5,3.399-15.7,4.399-24.602,2.899c-10.3-1.699-20.5-6.5-30.5-14.3c-9.299-7.3-13.799-13.8-13.599-19.5
		c0.2-5.7,4.2-10.399,11.9-13.899c5-2.301,10.3-3.301,16.2-3.2c5.8,0.1,11.5,1.6,17.101,4.3l14.699-10.6c-9.8-5.4-20-8.3-30.5-8.5
		c-10.5-0.3-21.1,2-31.8,6.9c-8.9,4.101-14.9,8.8-18.1,14.2c-3.2,5.4-3.5,11.6-1,18.5s8.3,13.9,17.4,21.1
		c8.9,7,18.6,12.101,29.1,15.4c10.5,3.299,20.8,4.799,30.8,4.199c10-0.5,19.5-2.801,28.3-6.801c7.2-3.299,13.2-7.601,17.9-12.898
		c4.7-5.3,7.2-10.201,7.6-14.701L102.92,32.161z"/> <path fill="#D2B8B5" d="M128.521,59.062c-1.3-0.801-3.101-1.101-4.9-1.101l-0.2-0.1v0.1l-0.199,0.101
		c-1.699,0.1-3.399,0.5-4.699,1.3c-2.801,1.6-3,4.2-0.301,5.8c2.699,1.5,7.199,1.4,10-0.2
		C131.021,63.161,131.221,60.562,128.521,59.062z"/> <path fill="#E1E7EF" d="M141.021,55.261c-1.7-5-5.7-9.6-11.5-8.5c-4.9,0.9-7.5,4.801-8.2,9.5c-0.2,1.801-0.6,4.601,0.6,6.101
		c0.602,0.8,1.7,1.1,2.7,0.8c1.3-0.4,1.9-1.5,1.7-2.8c-0.2-2.4-0.1-5.4,1.6-7.3c1.301-1.5,3.801-1.801,5.5-0.7
		c2,1.3,3,4.2,3.301,6.399c0.301,2.9,0.301,5.801,0.301,8.7c0,6.601-0.2,13.101-0.301,19.701c-0.101,3.101-0.101,6.199-0.399,9.399
		c-0.101,1.5-0.3,2.898-0.5,4.398c-0.2,1.301,0.2,2.5,1.5,3c1.601,0.602,3.3-0.5,3.399-2.1c0.101-0.801,0.101-1.6,0.199-2.4
		c0.4-6.199,0.602-12.398,0.7-18.6c0.2-6.699,0.3-13.5,0-20.2C141.521,58.961,141.62,56.961,141.021,55.261
		C140.021,52.361,142.62,59.961,141.021,55.261z"/> <path fill="#FFFFFF" d="M9.82,27.461v7c0,0,0.1,2,1.3,2.101c1.2,0,1.9,0.1,2-1.801l0,0v-0.1l0,0v-7.2H9.82z"/> <path fill="#85ACFF" d="M13.12,24.361c-1.2-0.3-2.5-0.4-3.8-0.101l-3.3-0.1v2.6l0,0c-0.1,0.801,0.4,1.7,1.6,2.4
		c2.1,1.2,5.4,1.3,7.3,0.1c0.9-0.5,1.3-1.1,1.4-1.8l0,0v-0.3l0,0v-2.7L13.12,24.361z"/> <path fill="#0000A6" d="M14.82,22.261c-2.1-1.199-5.4-1.3-7.3-0.1c-1.9,1.1-1.8,3,0.2,4.2c2.1,1.2,5.4,1.3,7.3,0.1
		C16.92,25.361,16.82,23.461,14.82,22.261z"/> <path fill="#FFFFFF" d="M24.32,17.461v7c0,0,0.1,2,1.3,2.101c1.2,0,1.9,0.1,2-1.801l0,0v-0.1l0,0v-7.2H24.32z"/> <path fill="#85ACFF" d="M27.62,14.361c-1.2-0.3-2.5-0.4-3.8-0.1l-3.3-0.1v2.6l0,0c-0.1,0.8,0.4,1.7,1.6,2.4
		c2.1,1.2,5.4,1.3,7.3,0.1c0.9-0.5,1.3-1.1,1.4-1.8l0,0v-0.3l0,0v-2.7L27.62,14.361z"/> <path fill="#0000A6" d="M29.32,12.261c-2.1-1.2-5.4-1.3-7.3-0.1c-1.9,1.1-1.8,3,0.2,4.2c2.1,1.2,5.4,1.3,7.3,0.1
		C31.42,15.361,31.32,13.461,29.32,12.261z"/> <path fill="#FFFFFF" d="M38.62,9.661v7c0,0,0.1,2,1.3,2.1c1.2,0,1.9,0.101,2-1.8l0,0v-0.1l0,0v-7.2H38.62z"/> <path fill="#85ACFF" d="M41.82,6.661c-1.2-0.3-2.5-0.4-3.8-0.1l-3.2-0.2v2.6l0,0c-0.1,0.8,0.4,1.7,1.6,2.4c2.1,1.2,5.4,1.3,7.3,0.1
		c0.9-0.5,1.3-1.1,1.4-1.8l0,0v-0.3l0,0v-2.7H41.82z"/> <path fill="#0000A6" d="M43.521,4.561c-2.1-1.2-5.4-1.3-7.3-0.1c-1.9,1.1-1.8,3,0.2,4.2c2.1,1.2,5.4,1.3,7.3,0.1
		C45.72,7.661,45.62,5.761,43.521,4.561z"/> </g> <g id="G-g-anim2"> <path fill="#0F1D44" d="M135.92,57.961c-20.3,21.5-44.398,23.5-71.5,19.3c-34-5.199-35.8-27.8-61.1-36.8
		C-11.68,124.261,149.32,136.261,135.92,57.961z"/> <polygon fill="#E3E5E8" points="64.12,49.661 64.12,80.361 78.12,84.761 78.12,60.562"/> <polygon fill="#DFE1E5" points="71.62,46.161 86.32,39.461 86.32,20.261 71.62,30.861"/> <polygon fill="#DFE1E5" points="99.221,51.461 98.721,51.161 98.721,77.261 115.42,70.761 115.42,55.761"/> <polygon fill="#DDBA18" points="99.221,80.261 98.721,51.161 77.721,60.661 78.12,60.562 78.12,84.062"/> <path fill="#DDBA18" d="M43.22,22.161l-23,18.4l2.4,13.899c3.5,2,6.9,3.9,10.4,5.8c2.4,1.4,4.9,2.7,7.3,4c0.8,0.5,1.7,0.9,2.6,1.4
		c0.4,0.2,0.8,0.5,1.2,0.6l0,0c0-0.1-0.6-0.5-0.7-0.5c-1.5-1-2.7-2.399-3.3-4.1c-0.7-1.8-0.9-3.9-0.6-5.9
		c3.8-19.5,32.1-6.1,32.1-6.1v-18.8l-4.8-10.601L43.22,22.161z"/> <path fill="#F4571C" d="M102.92,32.161l-38.8,17.8l14,11l20.7-9.5l10.5,8.2c-0.8,3.1-2.5,6-5,8.7s-5.6,4.899-9.1,6.5
		c-7.5,3.399-15.7,4.399-24.602,2.899c-10.3-1.699-20.5-6.5-30.5-14.3c-9.299-7.3-13.799-13.8-13.599-19.5
		c0.2-5.7,4.2-10.399,11.9-13.899c5-2.301,10.3-3.301,16.2-3.2c5.8,0.1,11.5,1.6,17.101,4.3l14.699-10.6c-9.8-5.4-20-8.3-30.5-8.5
		c-10.5-0.3-21.1,2-31.8,6.9c-8.9,4.101-14.9,8.8-18.1,14.2c-3.2,5.4-3.5,11.6-1,18.5s8.3,13.9,17.4,21.1
		c8.9,7,18.6,12.101,29.1,15.4c10.5,3.299,20.8,4.799,30.8,4.199c10-0.5,19.5-2.801,28.3-6.801c7.2-3.299,13.2-7.601,17.9-12.898
		c4.7-5.3,7.2-10.201,7.6-14.701L102.92,32.161z"/> <path fill="#D2B8B5" d="M128.521,59.062c-1.3-0.801-3.101-1.101-4.9-1.101l-0.2-0.1v0.1l-0.199,0.101
		c-1.699,0.1-3.399,0.5-4.699,1.3c-2.801,1.6-3,4.2-0.301,5.8c2.699,1.5,7.199,1.4,10-0.2
		C131.021,63.161,131.221,60.562,128.521,59.062z"/> <path fill="#E1E7EF" d="M141.82,54.062c-2-4.9-6.5-8.4-12.3-7.301c-4.9,0.9-7.5,4.801-8.2,9.5c-0.2,1.801-0.6,4.601,0.6,6.101
		c0.602,0.8,1.7,1.1,2.7,0.8c1.3-0.4,1.9-1.5,1.7-2.8c-0.2-2.4-0.1-5.4,1.6-7.3c1.301-1.5,3.5-2.4,5.602-2.101
		c2.199,0.3,4.6,4.2,5,6.4c0.3,2.899,0.5,3.399,0.8,11.1c0.3,6.601,0.399,9.601,0.2,16.201c-0.102,3.101-1.102,7-2.2,10
		c-0.5,1.399-1.3,4.799-1.5,6.299c-0.2,1.302,0.2,2.5,1.5,3c1.601,0.601,3.3-0.5,3.399-2.1c0.101-0.8,0-1.601,0.199-2.4
		c2.102-6.5,3.4-12,3.5-18.299c0.2-6.701,0-7.201-0.3-13.899c-0.1-1.701-0.2-4.801-0.5-6.5
		C142.62,55.961,142.62,56.161,141.82,54.062z"/> <path fill="#FFFFFF" d="M9.82,27.461v7c0,0,0.1,2,1.3,2.101c1.2,0,1.9,0.1,2-1.801l0,0v-0.1l0,0v-7.2H9.82z"/> <path fill="#85ACFF" d="M13.32,27.961c-1.2-0.3-2.5-0.399-3.8-0.1l-3.3-0.101v2.601l0,0c-0.1,0.8,0.4,1.7,1.6,2.399
		c2.1,1.2,5.4,1.301,7.3,0.101c0.9-0.5,1.3-1.101,1.4-1.8l0,0v-0.301l0,0v-2.699L13.32,27.961z"/> <path fill="#0000A6" d="M15.021,25.861c-2.1-1.2-5.4-1.3-7.3-0.101c-1.9,1.101-1.8,3,0.2,4.2c2.1,1.2,5.4,1.3,7.3,0.101
		C17.22,28.961,17.12,27.062,15.021,25.861z"/> <path fill="#FFFFFF" d="M24.32,17.461v7c0,0,0.1,2,1.3,2.101c1.2,0,1.9,0.1,2-1.801l0,0v-0.1l0,0v-7.2H24.32z"/> <path fill="#85ACFF" d="M27.82,18.661c-1.2-0.3-2.5-0.4-3.8-0.1l-3.2-0.101v2.601l0,0c-0.1,0.8,0.4,1.699,1.6,2.399
		c2.1,1.2,5.4,1.3,7.3,0.101c0.9-0.5,1.3-1.101,1.4-1.801l0,0v-0.3l0,0v-2.7L27.82,18.661z"/> <path fill="#0000A6" d="M29.521,16.561c-2.1-1.2-5.4-1.3-7.3-0.1c-1.9,1.101-1.8,3,0.2,4.2c2.1,1.2,5.4,1.3,7.3,0.1
		C31.72,19.661,31.62,17.761,29.521,16.561z"/> <path fill="#FFFFFF" d="M38.62,9.661v7c0,0,0.1,2,1.3,2.1c1.2,0,1.9,0.101,2-1.8l0,0v-0.1l0,0v-7.2H38.62z"/> <path fill="#85ACFF" d="M42.12,12.361c-1.2-0.3-2.5-0.4-3.8-0.1l-3.3-0.1v2.6l0,0c-0.1,0.8,0.4,1.7,1.6,2.4
		c2.1,1.2,5.4,1.3,7.3,0.1c0.9-0.5,1.3-1.1,1.4-1.8l0,0v-0.3l0,0v-2.7L42.12,12.361z"/> <path fill="#0000A6" d="M43.82,10.261c-2.1-1.2-5.4-1.3-7.3-0.1c-1.9,1.1-1.8,3,0.2,4.2c2.1,1.2,5.4,1.3,7.3,0.1
		C45.92,13.361,45.82,11.461,43.82,10.261z"/> </g> </symbol><symbol viewBox="0 0 123 164" id="shape-M1"><title>M1</title> <g id="M1-m-anim1"> <polygon fill="#FD858F" points="20.4,53.4 38.7,62.5 57,50.4 39.2,41.2"/> <polygon fill="#FD858F" points="68.9,20.7 87.2,29.9 105.8,17.4 87.7,8.5"/> <polyline fill="#D47513" points="87.2,29.9 68.9,20.7 62.2,63.1 74.9,89.5 87.2,29.9"/> <polyline fill="#D47513" points="69.7,115.7 56.3,109.5 55.9,88.4 70.1,112.8 69.7,115.7"/> <polyline fill="#D47513" points="99.1,107.5 84.2,100.7 92.3,61.5 99.7,76.2 99.3,107.6 99.3,107.6"/> <polygon fill="#D47513" points="38.7,62.5 38.2,151.6 20.6,142.4 20.4,122 20.4,53.4"/> <path fill="#2A3297" d="M38.4,62.8l-0.2,88.9c0,0,7-3.9,11-7.2s7.2-3.2,7.1-16.3c-0.1-13.101-0.1-38.7-0.1-38.7l13.5,26.3
		l14.2-8.899L92.8,65.8l6.2,41.7c0,0,3.9,2.3,7.1-0.3c3.2-2.601,11.5-8.4,11.5-8.4l-11.8-81.4L87.2,29.8L75.4,85.7L57,50.4
		L38.4,62.8z"/> <polygon fill="#803675" points="103.6,44.8 97.3,49.6 101.5,86.8 107.7,82"/> <polygon fill="#47797F" points="103.1,83 100.8,82 101.7,90.1 104,91.1"/> <polygon fill="#3FB9AE" points="107.4,77.2 100.8,82 103.1,83 109.7,78.2"/> <polygon fill="#FFFFFF" points="109.7,78.2 103.1,83 104,91.1 110.6,86.3"/> <polygon fill="#FFFFFF" points="20.5,132.9 7.2,139.4 13,143.2 26.3,136.7"/> <polygon fill="#3FB9AE" points="7.2,139.4 6.8,146.3 12.6,150.1 13,143.2"/> <polygon fill="#47797F" points="13,143.2 12.6,150.1 25.9,143.6 26.3,136.7"/> <polygon fill="#3FB9AE" points="13.4,143.4 13,150.3 18.8,154.1 19.2,147.2"/> <polygon fill="#47797F" points="19.2,147.2 18.8,154.1 32.1,147.6 32.5,140.7"/> <polygon fill="#FFFFFF" points="26.7,136.9 13.4,143.5 19.2,147.3 32.5,140.7"/> <polygon fill="#3FB9AE" points="19.5,147.6 19.1,154.5 24.9,158.3 25.3,151.4"/> <polygon fill="#47797F" points="25.3,151.4 24.9,158.3 38.2,151.8 38.6,144.9"/> <polygon fill="#FFFFFF" points="32.8,141 19.5,147.6 25.3,151.4 38.6,144.9"/> </g> <g id="M1-m-anim2"> <polygon fill="#FD858F" points="20.4,53.4 38.7,62.5 57,50.4 39.2,41.2"/> <polygon fill="#FD858F" points="68.9,20.7 87.2,29.9 105.8,17.4 87.7,8.5"/> <polyline fill="#D47513" points="87.2,29.9 68.9,20.7 62.2,63.1 74.9,89.5 87.2,29.9"/> <polyline fill="#D47513" points="69.7,115.7 56.3,109.5 55.9,88.4 70.1,112.8 69.7,115.7"/> <polyline fill="#D47513" points="99.1,107.5 84.2,100.7 92.3,61.5 99.7,76.2 99.3,107.6 99.3,107.6"/> <polygon fill="#D47513" points="38.7,62.5 38.2,151.6 20.6,142.4 20.4,122 20.4,53.4"/> <path fill="#2A3297" d="M38.4,62.8l-0.2,88.9c0,0,7-3.9,11-7.2s7.2-3.2,7.1-16.3c-0.1-13.101-0.1-38.7-0.1-38.7l13.5,26.3
		l14.2-8.899L92.8,65.8l6.2,41.7c0,0,3.9,2.3,7.1-0.3c3.2-2.601,11.5-8.4,11.5-8.4l-11.8-81.4L87.2,29.8L75.4,85.7L57,50.4
		L38.4,62.8z"/> <polygon fill="#803675" points="103.6,44.8 97.3,49.6 101.5,86.8 107.7,82"/> <polygon fill="#47797F" points="98.8,49.9 96.5,48.9 97.4,57 99.7,58"/> <polygon fill="#3FB9AE" points="103,44.1 96.5,48.9 98.8,49.9 105.4,45.1"/> <polygon fill="#FFFFFF" points="105.4,45.1 98.8,49.9 99.7,58 106.3,53.1"/> <polygon fill="#FFFFFF" points="20.5,132.9 7.2,139.4 13,143.2 26.3,136.7"/> <polygon fill="#3FB9AE" points="7.2,139.4 6.8,146.3 12.6,150.1 13,143.2"/> <polygon fill="#47797F" points="13,143.2 12.6,150.1 25.9,143.6 26.3,136.7"/> <polygon fill="#3FB9AE" points="13.2,145.7 13,150.3 18.8,154.1 19,149.5"/> <polygon fill="#47797F" points="19,149.6 18.8,154.1 32.1,147.6 32.3,143.1"/> <polygon fill="#FFFFFF" points="26.6,139.3 13.2,145.8 19,149.6 32.3,143.1"/> <polygon fill="#3FB9AE" points="19.2,151.6 19.1,154.5 24.9,158.3 25,155.4"/> <polygon fill="#47797F" points="25,155.4 24.9,158.3 38.2,151.8 38.3,148.9"/> <polygon fill="#FFFFFF" points="32.5,145.1 19.2,151.7 24.9,155.5 38.3,149"/> </g> </symbol><symbol viewBox="0 0 120 178" id="shape-M2"><title>M2</title> <g id="M2-m2-anim1"> <polygon fill="#0D1B42" points="101.999,55.374 83.699,64.475 65.399,52.374 83.199,43.174"/> <polygon fill="#0D1B42" points="53.499,22.674 35.199,31.874 16.599,19.374 34.699,10.474"/> <polyline fill="#634382" points="35.199,31.874 53.499,22.674 60.199,65.074 47.499,91.475 35.199,31.874"/> <polyline fill="#634382" points="52.699,117.674 66.099,111.475 66.499,90.374 52.299,114.774 52.699,117.674"/> <polyline fill="#634382" points="23.299,109.475 38.199,102.674 29.999,63.475 22.599,78.174 23.099,109.574 23.099,109.574"/> <polygon fill="#6390FF" points="83.699,64.475 84.199,153.574 101.799,144.373 101.999,124.074 101.999,55.374"/> <path fill="#D9B90F" d="M83.999,64.774l0.2,88.899c0,0-7-3.899-11-7.199c-4-3.301-7.2-3.2-7.101-16.301
		c0.101-13.1,0.101-38.699,0.101-38.699l-13.5,26.3l-14.2-8.9l-8.9-41.1l-6.199,41.7c0,0-3.9,2.3-7.102-0.301
		c-3.199-2.6-11.5-8.399-11.5-8.399l11.801-81.4l18.601,12.4l11.8,55.899l18.4-35.3L83.999,64.774z"/> <path id="M2-_x3C_Path_x3E__5_" fill="#4779B3" d="M103.999,158.674c2,1.4,3.102,2.199,3.8,2.601l-5.5,5.7c0,0-9.3,6.8-13.1-0.801
		c-3.5-6.801-5.101-12.399-6.601-19.899c-1.801-8.5-1.699-24.699-1.601-30.601l-0.101-0.1l0.101-1.301c0-0.5,0-0.801,0-0.801l0,0
		l3.2-49.299l0.9-0.4l1.5,51.9l-2.102,2c-0.3,9.299-0.1,17.198,3.8,26.198C91.199,150.475,97.099,153.774,103.999,158.674z
		 M108.199,160.873l-0.4,0.4C109.599,162.274,108.199,160.873,108.199,160.873z"/> <path fill="#6390FF" d="M113.599,147.774c-0.5-8.4-16.699,1.801-22.601-7c-6-8.9-4.8-17.5-4.399-24.9h4.399l-4.2-53l-2.6,1.3
		l-0.5,51.699c0,0-0.5,17.602,3.1,25.9c3,6.9,5.301,12.1,12.2,17s6.7,4.699,6.7,4.699l5.5-5.101
		C111.199,158.373,113.999,153.873,113.599,147.774z"/> <path fill="#3FB9AE" d="M101.499,142.373c-6.8,3.4-12.8,12.301-13.3,19.9c-0.5,7.599,4.7,11,11.5,7.6
		c6.8-3.398,12.8-12.299,13.3-19.898C113.499,142.475,108.299,138.975,101.499,142.373z"/> <path fill="#FFFFFF" d="M102.699,142.975c-6.8,3.398-12.8,12.3-13.3,19.898c-0.5,7.602,4.699,11,11.5,7.701
		c6.8-3.4,12.8-12.301,13.3-19.9C114.599,143.074,109.499,139.674,102.699,142.975z"/> <path fill="#3FB9AE" d="M102.499,145.873c-5.398,2.701-10.1,9.801-10.5,15.801c-0.398,6,3.7,8.801,9.102,6.101
		c5.398-2.7,10.198-9.8,10.498-15.8C111.999,145.873,107.899,143.174,102.499,145.873z"/> <path fill="#0D1B42" d="M100.899,146.674c-3.602,1.801-6.801,6.5-7,10.5c-0.301,4,2.5,5.801,6.1,4c3.602-1.801,6.8-6.5,7-10.5
		C107.199,146.774,104.499,144.873,100.899,146.674z"/> <path fill="#FFFFFF" d="M87.399,135.873l2.6-1.898l-1.4-1.9l-2.699,1.898l0,0c-0.2,0.102-0.301,0.301-0.301,0.701
		c0.101,0.6,0.601,1.198,1.101,1.399C86.999,136.074,87.099,136.074,87.399,135.873L87.399,135.873L87.399,135.873
		C87.299,135.975,87.399,135.975,87.399,135.873z"/> <path fill="#47797F" d="M92.499,135.574l1-0.801l-0.6-0.699c0-0.102,0-0.201,0-0.301c-0.301-1.6-1.7-3.4-3.102-3.9
		c-0.1,0-0.199-0.1-0.398-0.1l-0.4-0.5l-0.8,0.699l0,0c-0.5,0.301-0.7,1-0.601,1.899c0.301,1.601,1.699,3.4,3.101,3.9
		c0.6,0.2,1.2,0.2,1.5-0.101l0,0L92.499,135.574L92.499,135.574z"/> <path fill="#0D1B42" d="M93.899,132.975c-0.301-1.602-1.7-3.399-3.102-3.899c-1.398-0.5-2.398,0.299-2.1,2
		c0.3,1.601,1.699,3.399,3.1,3.899C93.199,135.475,94.199,134.674,93.899,132.975z"/> <path fill="#FFFFFF" d="M91.399,143.274l2.6-1.9l-1.4-1.899l-2.699,1.898l0,0c-0.2,0.102-0.301,0.301-0.301,0.701
		c0.101,0.6,0.601,1.199,1.101,1.398C90.999,143.475,91.099,143.475,91.399,143.274L91.399,143.274L91.399,143.274
		C91.299,143.373,91.399,143.274,91.399,143.274z"/> <path fill="#47797F" d="M96.499,142.975l1-0.801l-0.6-0.699c0-0.102,0-0.2,0-0.301c-0.301-1.6-1.7-3.399-3.102-3.899
		c-0.1,0-0.199-0.101-0.398-0.101l-0.4-0.5l-0.8,0.699l0,0c-0.5,0.301-0.7,1-0.601,1.9c0.301,1.6,1.699,3.4,3.101,3.9
		c0.6,0.198,1.2,0.198,1.5-0.101l0,0L96.499,142.975L96.499,142.975z"/> <path fill="#0D1B42" d="M97.899,140.373c-0.301-1.6-1.7-3.398-3.102-3.898c-1.398-0.5-2.398,0.3-2.1,2
		c0.3,1.601,1.699,3.398,3.1,3.898C97.199,142.873,98.199,141.975,97.899,140.373z"/> </g> <g id="M2-m2-anim2"> <polygon fill="#0D1B42" points="101.999,55.374 83.699,64.475 65.399,52.374 83.199,43.174"/> <polygon fill="#0D1B42" points="53.499,22.674 35.199,31.874 16.599,19.374 34.699,10.474"/> <polyline fill="#634382" points="35.199,31.874 53.499,22.674 60.199,65.074 47.499,91.475 35.199,31.874"/> <polyline fill="#634382" points="52.699,117.674 66.099,111.475 66.499,90.374 52.299,114.774 52.699,117.674"/> <polyline fill="#634382" points="23.299,109.475 38.199,102.674 29.999,63.475 22.599,78.174 23.099,109.574 23.099,109.574"/> <polygon fill="#6390FF" points="83.699,64.475 84.199,153.574 101.799,144.373 101.999,124.074 101.999,55.374"/> <path fill="#D9B90F" d="M83.999,64.774l0.2,88.899c0,0-7-3.899-11-7.199c-4-3.301-7.2-3.2-7.101-16.301
		c0.101-13.1,0.101-38.699,0.101-38.699l-13.5,26.3l-14.2-8.9l-8.9-41.1l-6.199,41.7c0,0-3.9,2.3-7.102-0.301
		c-3.199-2.6-11.5-8.399-11.5-8.399l11.801-81.4l18.601,12.4l11.8,55.899l18.4-35.3L83.999,64.774z"/> <path id="M2-_x3C_Path_x3E__1_" fill="#4779B3" d="M103.999,158.674c2,1.4,3.102,2.199,3.8,2.601l-5.5,5.7c0,0-9.3,6.8-13.1-0.801
		c-3.5-6.801-5.101-12.399-6.601-19.899c-1.801-8.5-1.699-24.699-1.601-30.601l-0.101-0.1l0.101-1.301c0-0.5,0-0.801,0-0.801l0,0
		l3.2-49.299l0.9-0.4l1.5,51.9l-2.102,2c-0.3,9.299-0.1,17.198,3.8,26.198C91.199,150.475,97.099,153.774,103.999,158.674z
		 M108.199,160.873l-0.4,0.4C109.599,162.274,108.199,160.873,108.199,160.873z"/> <path fill="#6390FF" d="M113.599,147.774c-0.5-8.4-16.699,1.801-22.601-7c-6-8.9-4.8-17.5-4.399-24.9h4.399l-4.2-53l-2.6,1.3
		l-0.5,51.699c0,0-0.5,17.602,3.1,25.9c3,6.9,5.301,12.1,12.2,17s6.7,4.699,6.7,4.699l5.5-5.101
		C111.199,158.373,113.999,153.873,113.599,147.774z"/> <path fill="#3FB9AE" d="M101.599,138.975c-8.399,4.199-15.801,15.3-16.399,24.601c-0.601,9.399,5.8,13.601,14.2,9.5
		c8.398-4.201,15.8-15.301,16.398-24.601C116.399,139.074,109.999,134.873,101.599,138.975z"/> <path fill="#FFFFFF" d="M102.999,139.873c-8.4,4.201-15.8,15.301-16.4,24.602c-0.601,9.398,5.801,13.601,14.199,9.5
		c8.4-4.2,15.801-15.301,16.4-24.602C117.799,139.873,111.399,135.674,102.999,139.873z"/> <path fill="#3FB9AE" d="M102.799,143.274c-6.698,3.301-12.6,12.1-13,19.6c-0.5,7.5,4.601,10.802,11.302,7.5
		c6.698-3.299,12.6-12.1,13-19.6C114.599,143.373,109.499,139.975,102.799,143.274z"/> <path fill="#0D1B42" d="M100.899,146.674c-3.602,1.801-6.801,6.5-7,10.5c-0.301,4,2.5,5.801,6.1,4c3.602-1.801,6.8-6.5,7-10.5
		C107.199,146.774,104.499,144.873,100.899,146.674z"/> <path fill="#FFFFFF" d="M87.399,135.873l2.6-1.898l-1.4-1.9l-2.699,1.898l0,0c-0.2,0.102-0.301,0.301-0.301,0.701
		c0.101,0.6,0.601,1.198,1.101,1.399C86.999,136.074,87.099,136.074,87.399,135.873L87.399,135.873L87.399,135.873
		C87.299,135.975,87.399,135.975,87.399,135.873z"/> <path fill="#47797F" d="M89.499,136.975l1-0.801l-0.6-0.699c0-0.102,0-0.2,0-0.301c-0.301-1.6-1.7-3.399-3.102-3.899
		c-0.1,0-0.199-0.101-0.398-0.101l-0.4-0.5l-0.8,0.699l0,0c-0.5,0.301-0.7,1-0.601,1.9c0.301,1.6,1.699,3.4,3.101,3.9
		c0.6,0.198,1.2,0.198,1.5-0.101l0,0L89.499,136.975L89.499,136.975z"/> <path fill="#0D1B42" d="M90.999,134.373c-0.3-1.6-1.7-3.398-3.1-3.898c-1.4-0.5-2.4,0.3-2.102,2c0.301,1.601,1.7,3.398,3.102,3.898
		C90.299,136.873,91.199,135.975,90.999,134.373z"/> <path fill="#FFFFFF" d="M91.399,143.274l2.6-1.9l-1.4-1.899l-2.699,1.898l0,0c-0.2,0.102-0.301,0.301-0.301,0.701
		c0.101,0.6,0.601,1.199,1.101,1.398C90.999,143.475,91.099,143.475,91.399,143.274L91.399,143.274L91.399,143.274
		C91.299,143.373,91.399,143.274,91.399,143.274z"/> <path fill="#47797F" d="M95.199,143.574l1-0.801l-0.601-0.699c0-0.102,0-0.201,0-0.301c-0.301-1.6-1.699-3.4-3.101-3.9
		c-0.101,0-0.2-0.1-0.399-0.1l-0.399-0.5l-0.8,0.699l0,0c-0.5,0.301-0.7,1-0.602,1.899c0.301,1.601,1.7,3.4,3.102,3.9
		c0.6,0.2,1.199,0.2,1.5-0.101l0,0L95.199,143.574L95.199,143.574z"/> <path fill="#0D1B42" d="M96.599,140.975c-0.3-1.602-1.699-3.4-3.1-3.9c-1.398-0.5-2.398,0.299-2.1,2c0.3,1.6,1.699,3.398,3.1,3.898
		C95.899,143.475,96.899,142.574,96.599,140.975z"/> </g> </symbol></svg>