<svg xmlns="http://www.w3.org/2000/svg"><symbol viewBox="0 0 212 219.7" id="shape-C"><title>C</title> <style type="text/css"> <![CDATA[ .st0{fill:#47797F;} .st1{fill:#4779B3;} .st2{display:inline;fill:#803675;} .st3{fill:#E2C000;} .st4{fill:#803675;} .st5{fill:#85ACFF;} .st6{fill:#F4571C;} .st7{display:inline;fill:#2A3297;} .st8{display:inline;fill:#FD858F;} .st9{display:inline;fill:#FFFFFF;} .st10{fill:#2A3297;} .st11{fill:#FD858F;} .st12{fill:#FEFFFF;} .st13{fill:#FFFFFF;} .st14{fill:#634382;} .st15{fill:#6390FF;} .st16{display:inline;fill:#D47513;} .st17{fill:#0000A6;} .st18{display:inline;fill:#3FB9AE;} .st19{fill:#D2B8B5;} .st20{fill:#D47513;} .st21{fill:#D9B90F;} .st22{fill:#3FB9AE;} .st23{display:none;} .st24{display:inline;fill:#47797F;} .st25{fill:#0D1B42;} .st26{fill:#0F1D42;} .st27{fill:#0F1D44;} .st28{fill:#DDBA18;} .st29{fill:none;stroke:#000000;stroke-width:1.1264;stroke-linecap:round;stroke-miterlimit:10;} ]]> </style>     <g id="C-c-anim1"> <path class="st26" d="M94.2,88c0,0-0.8,16.9,4.5,31.4c5.3,14.5,10.1,23.4,21.8,30.7l4.5,16.1l-55.4,3l-25.2-29.9l-7.1-49.6
		l8.1-26.5l16.9-11.3l27,19.1L94.2,88z"/> <path class="st3" d="M151.5,146.1L98.2,154c0,0-20.1,26.2-20.3,25.7c-0.1-0.5,2.6,1,2.6,1s45.3-6.7,45.4-7.2
		c0.1-0.5,13.9-0.5,20.3-9c6.4-8.5,9.1-16.8,9.1-16.8L151.5,146.1z"/> <polyline class="st12" points="89.4,152.5 143.3,142.8 155.4,147.6 102.6,157.2 89.4,152.3 	"/> <line class="st29" x1="104" y1="87.6" x2="104" y2="153.3"/> <line class="st29" x1="110.2" y1="86" x2="110.2" y2="151.7"/> <line class="st29" x1="117" y1="85" x2="117" y2="150.7"/> <line class="st29" x1="123.3" y1="83.6" x2="123.3" y2="149.4"/> <line class="st29" x1="130" y1="82.8" x2="130" y2="148.5"/> <line class="st29" x1="136.1" y1="81.3" x2="136.1" y2="147"/> <line class="st29" x1="142.4" y1="80.4" x2="142.4" y2="146.1"/> <path class="st15" d="M102.6,92.7l-13-4.4c0,0-3.8-14.3-13.8-21.3c-10-7-15.8-6.4-20.4-2.9c-12.6,9.5-14.3,27.5-13,42
		c0.5,5.5,1.2,11.3,2.5,16.7c1.5,6.4,3.8,13.1,6.9,18.9c5.2,9.9,10.8,19.1,23,20c2.4,0.2,4.4-0.1,6.5-1.2c3-1.5,7.3-5.8,8-8.1
		l13.3,4.8c0,0-2.9,11.9-8.1,16.4c-5.3,4.5-12.5,8.9-21.1,6.5c-12.6-3.5-22.3-13.7-28.5-24.8c-4.1-7.3-7.2-15.2-9.5-23.2
		c-1.9-6.5-3.2-13.1-3.9-19.8c-0.5-5.3-0.7-10.6-0.7-15.9c0-7.6,0.3-15.3,2.1-22.7c2.5-10.1,6.3-16.4,10-21.5s12.1-11.5,20.2-9
		c8.2,2.5,17,8.3,22.2,15.6C90.5,66,102,82.9,102.5,92"/> <path class="st3" d="M130,39.7c-10.1-8.4-21.9-6.1-21.9-6.1l-51,9c31.9,2.1,45.5,50.5,45.5,50.5l52.7-9.4
		C151,64.5,140.2,48.1,130,39.7z"/> </g> <g id="C-c-anim2"> <path class="st26" d="M120.5,150c-11.6-7.2-16.5-16.2-21.8-30.7C93.5,104.9,94.2,88,94.2,88l-4.9-16.9l-27-19.1L45.4,63.2
		l-8.1,26.5l7.1,49.6l25.2,29.9l55.4-3L120.5,150z"/> <path class="st3" d="M78.1,179.6c-0.1,0.1-0.1,0.1-0.1,0.1C77.9,179.6,78,179.6,78.1,179.6z"/> <path class="st3" d="M151.5,146.1L98.2,154c0,0-18.4,23.9-20.1,25.6c0.5,0,2.5,1.1,2.5,1.1s45.3-6.7,45.4-7.2
		c0.1-0.5,13.9-0.5,20.3-9c6.4-8.5,9.1-16.8,9.1-16.8L151.5,146.1z"/> <path class="st15" d="M81.3,160.6c-2.1,1.1-4.1,1.3-6.5,1.2c-12.2-0.9-17.8-10.1-23-20c-3.1-5.8-5.4-12.5-6.9-18.9
		c-1.3-5.4-2-11.2-2.5-16.7c-1.3-14.6,0.4-32.5,13-42c4.6-3.5,10.4-4.1,20.4,2.9c10,7,13.8,21.3,13.8,21.3l13,4.4l-0.1-0.6
		c-0.5-9.1-12-26.1-17.2-33.3C80,51.5,71.2,45.6,63,43.1c-8.2-2.5-16.5,3.9-20.2,9s-7.5,11.4-10,21.5C31,81,30.6,88.7,30.7,96.3
		c0,5.3,0.2,10.6,0.7,15.9c0.7,6.7,2,13.4,3.9,19.8c2.3,8.1,5.5,15.9,9.5,23.2c6.2,11.1,15.9,21.4,28.5,24.8
		c8.6,2.4,15.9-2,21.1-6.5c5.3-4.5,8.1-16.4,8.1-16.4l-13.3-4.8C88.6,154.9,84.3,159.1,81.3,160.6z"/> <polygon class="st12" points="143.3,142.8 89.4,152.5 102.6,157.2 155.4,147.6 	"/> <path d="M106.6,104c0-2.3-1.1-3.5-2.2-4.5c-1-1-1.8-1.9-1.8-3.7c0-1.8,0.9-2.7,1.8-3.7c1-1,2.2-2.2,2.2-4.5c0-0.3-0.3-0.6-0.6-0.6
		c-0.3,0-0.6,0.3-0.6,0.6c0,1.8-0.9,2.7-1.8,3.7c-1,1-2.2,2.2-2.2,4.5c0,2.3,1.1,3.5,2.2,4.5c1,1,1.8,1.9,1.8,3.7
		c0,1.8-0.9,2.7-1.8,3.7c-1,1-2.2,2.2-2.2,4.5c0,2.3,1.1,3.5,2.2,4.5c1,1,1.8,1.9,1.8,3.7c0,1.8-0.9,2.7-1.8,3.7
		c-1,1-2.2,2.2-2.2,4.5c0,2.3,1.1,3.5,2.2,4.5c1,1,1.8,1.9,1.8,3.7c0,1.8-0.9,2.7-1.8,3.7c-1,1-2.2,2.2-2.2,4.5s1.1,3.5,2.2,4.5
		c1,1,1.8,1.9,1.8,3.7c0,0.3,0.3,0.6,0.6,0.6c0.3,0,0.6-0.3,0.6-0.6c0-2.3-1.1-3.5-2.2-4.5c-1-1-1.8-1.9-1.8-3.7
		c0-1.8,0.9-2.7,1.8-3.7c1-1,2.2-2.2,2.2-4.5s-1.1-3.5-2.2-4.5c-1-1-1.8-1.9-1.8-3.7c0-1.8,0.9-2.7,1.8-3.7c1-1,2.2-2.2,2.2-4.5
		s-1.1-3.5-2.2-4.5c-1-1-1.8-1.9-1.8-3.7c0-1.8,0.9-2.7,1.8-3.7C105.4,107.5,106.6,106.3,106.6,104z"/> <path d="M112.7,102.5c0-2.3-1.1-3.5-2.2-4.5c-1-1-1.8-1.9-1.8-3.7c0-1.8,0.9-2.7,1.8-3.7c1-1,2.2-2.2,2.2-4.5
		c0-0.3-0.3-0.6-0.6-0.6c-0.3,0-0.6,0.3-0.6,0.6c0,1.8-0.9,2.7-1.8,3.7c-1,1-2.2,2.2-2.2,4.5c0,2.3,1.1,3.5,2.2,4.5
		c1,1,1.8,1.9,1.8,3.7c0,1.8-0.9,2.7-1.8,3.7c-1,1-2.2,2.2-2.2,4.5c0,2.3,1.1,3.5,2.2,4.5c1,1,1.8,1.9,1.8,3.7
		c0,1.8-0.9,2.7-1.8,3.7c-1,1-2.2,2.2-2.2,4.5s1.1,3.5,2.2,4.5c1,1,1.8,1.9,1.8,3.7c0,1.8-0.9,2.7-1.8,3.7c-1,1-2.2,2.2-2.2,4.5
		c0,2.3,1.1,3.5,2.2,4.5c1,1,1.8,1.9,1.8,3.7c0,0.3,0.3,0.6,0.6,0.6c0.3,0,0.6-0.3,0.6-0.6c0-2.3-1.1-3.5-2.2-4.5
		c-1-1-1.8-1.9-1.8-3.7c0-1.8,0.9-2.7,1.8-3.7c1-1,2.2-2.2,2.2-4.5c0-2.3-1.1-3.5-2.2-4.5c-1-1-1.8-1.9-1.8-3.7
		c0-1.8,0.9-2.7,1.8-3.7c1-1,2.2-2.2,2.2-4.5s-1.1-3.5-2.2-4.5c-1-1-1.8-1.9-1.8-3.7c0-1.8,0.9-2.7,1.8-3.7
		C111.6,105.9,112.7,104.7,112.7,102.5z"/> <path d="M119.5,101.5c0-2.3-1.1-3.5-2.2-4.5c-1-1-1.8-1.9-1.8-3.7c0-1.8,0.9-2.7,1.8-3.7c1-1,2.2-2.2,2.2-4.5
		c0-0.3-0.3-0.6-0.6-0.6c-0.3,0-0.6,0.3-0.6,0.6c0,1.8-0.9,2.7-1.8,3.7c-1,1-2.2,2.2-2.2,4.5c0,2.3,1.1,3.5,2.2,4.5
		c1,1,1.8,1.9,1.8,3.7c0,1.8-0.9,2.7-1.8,3.7c-1,1-2.2,2.2-2.2,4.5c0,2.3,1.1,3.5,2.2,4.5c1,1,1.8,1.9,1.8,3.7s-0.9,2.7-1.8,3.7
		c-1,1-2.2,2.2-2.2,4.5c0,2.3,1.1,3.5,2.2,4.5c1,1,1.8,1.9,1.8,3.7c0,1.8-0.9,2.7-1.8,3.7c-1,1-2.2,2.2-2.2,4.5
		c0,2.3,1.1,3.5,2.2,4.5c1,1,1.8,1.9,1.8,3.7c0,0.3,0.3,0.6,0.6,0.6c0.3,0,0.6-0.3,0.6-0.6c0-2.3-1.1-3.5-2.2-4.5
		c-1-1-1.8-1.9-1.8-3.7c0-1.8,0.9-2.7,1.8-3.7c1-1,2.2-2.2,2.2-4.5c0-2.3-1.1-3.5-2.2-4.5c-1-1-1.8-1.9-1.8-3.7
		c0-1.8,0.9-2.7,1.8-3.7c1-1,2.2-2.2,2.2-4.5s-1.1-3.5-2.2-4.5c-1-1-1.8-1.9-1.8-3.7c0-1.8,0.9-2.7,1.8-3.7
		C118.4,104.9,119.5,103.7,119.5,101.5z"/> <path d="M125.9,100.1c0-2.3-1.1-3.5-2.2-4.5c-1-1-1.8-1.9-1.8-3.7c0-1.8,0.9-2.7,1.8-3.7c1-1,2.2-2.2,2.2-4.5
		c0-0.3-0.3-0.6-0.6-0.6s-0.6,0.3-0.6,0.6c0,1.8-0.9,2.7-1.8,3.7c-1,1-2.2,2.2-2.2,4.5s1.1,3.5,2.2,4.5c1,1,1.8,1.9,1.8,3.7
		c0,1.8-0.9,2.7-1.8,3.7c-1,1-2.2,2.2-2.2,4.5c0,2.3,1.1,3.5,2.2,4.5c1,1,1.8,1.9,1.8,3.7c0,1.8-0.9,2.7-1.8,3.7
		c-1,1-2.2,2.2-2.2,4.5c0,2.3,1.1,3.5,2.2,4.5c1,1,1.8,1.9,1.8,3.7s-0.9,2.7-1.8,3.7c-1,1-2.2,2.2-2.2,4.5s1.1,3.5,2.2,4.5
		c1,1,1.8,1.9,1.8,3.7c0,0.3,0.3,0.6,0.6,0.6s0.6-0.3,0.6-0.6c0-2.3-1.1-3.5-2.2-4.5c-1-1-1.8-1.9-1.8-3.7s0.9-2.7,1.8-3.7
		c1-1,2.2-2.2,2.2-4.5s-1.1-3.5-2.2-4.5c-1-1-1.8-1.9-1.8-3.7c0-1.8,0.9-2.7,1.8-3.7c1-1,2.2-2.2,2.2-4.5c0-2.3-1.1-3.5-2.2-4.5
		c-1-1-1.8-1.9-1.8-3.7c0-1.8,0.9-2.7,1.8-3.7C124.7,103.5,125.9,102.3,125.9,100.1z"/> <path d="M132.5,99.2c0-2.3-1.1-3.5-2.2-4.5c-1-1-1.8-1.9-1.8-3.7s0.9-2.7,1.8-3.7c1-1,2.2-2.2,2.2-4.5c0-0.3-0.3-0.6-0.6-0.6
		s-0.6,0.3-0.6,0.6c0,1.8-0.9,2.7-1.8,3.7c-1,1-2.2,2.2-2.2,4.5s1.1,3.5,2.2,4.5c1,1,1.8,1.9,1.8,3.7c0,1.8-0.9,2.7-1.8,3.7
		c-1,1-2.2,2.2-2.2,4.5s1.1,3.5,2.2,4.5c1,1,1.8,1.9,1.8,3.7c0,1.8-0.9,2.7-1.8,3.7c-1,1-2.2,2.2-2.2,4.5c0,2.3,1.1,3.5,2.2,4.5
		c1,1,1.8,1.9,1.8,3.7c0,1.8-0.9,2.7-1.8,3.7c-1,1-2.2,2.2-2.2,4.5s1.1,3.5,2.2,4.5c1,1,1.8,1.9,1.8,3.7c0,0.3,0.3,0.6,0.6,0.6
		s0.6-0.3,0.6-0.6c0-2.3-1.1-3.5-2.2-4.5c-1-1-1.8-1.9-1.8-3.7c0-1.8,0.9-2.7,1.8-3.7c1-1,2.2-2.2,2.2-4.5c0-2.3-1.1-3.5-2.2-4.5
		c-1-1-1.8-1.9-1.8-3.7s0.9-2.7,1.8-3.7c1-1,2.2-2.2,2.2-4.5c0-2.3-1.1-3.5-2.2-4.5c-1-1-1.8-1.9-1.8-3.7c0-1.8,0.9-2.7,1.8-3.7
		C131.4,102.7,132.5,101.5,132.5,99.2z"/> <path d="M138.7,97.7c0-2.3-1.1-3.5-2.2-4.5c-1-1-1.8-1.9-1.8-3.7s0.9-2.7,1.8-3.7c1-1,2.2-2.2,2.2-4.5c0-0.3-0.3-0.6-0.6-0.6
		c-0.3,0-0.6,0.3-0.6,0.6c0,1.8-0.9,2.7-1.8,3.7c-1,1-2.2,2.2-2.2,4.5s1.1,3.5,2.2,4.5c1,1,1.8,1.9,1.8,3.7c0,1.8-0.9,2.7-1.8,3.7
		c-1,1-2.2,2.2-2.2,4.5c0,2.3,1.1,3.5,2.2,4.5c1,1,1.8,1.9,1.8,3.7c0,1.8-0.9,2.7-1.8,3.7c-1,1-2.2,2.2-2.2,4.5
		c0,2.3,1.1,3.5,2.2,4.5c1,1,1.8,1.9,1.8,3.7c0,1.8-0.9,2.7-1.8,3.7c-1,1-2.2,2.2-2.2,4.5s1.1,3.5,2.2,4.5c1,1,1.8,1.9,1.8,3.7
		c0,0.3,0.3,0.6,0.6,0.6c0.3,0,0.6-0.3,0.6-0.6c0-2.3-1.1-3.5-2.2-4.5c-1-1-1.8-1.9-1.8-3.7s0.9-2.7,1.8-3.7c1-1,2.2-2.2,2.2-4.5
		c0-2.3-1.1-3.5-2.2-4.5c-1-1-1.8-1.9-1.8-3.7c0-1.8,0.9-2.7,1.8-3.7c1-1,2.2-2.2,2.2-4.5c0-2.3-1.1-3.5-2.2-4.5
		c-1-1-1.8-1.9-1.8-3.7c0-1.8,0.9-2.7,1.8-3.7C137.5,101.2,138.7,100,138.7,97.7z"/> <path d="M144.9,96.8c0-2.3-1.1-3.5-2.2-4.5c-1-1-1.8-1.9-1.8-3.7c0-1.8,0.9-2.7,1.8-3.7c1-1,2.2-2.2,2.2-4.5c0-0.3-0.3-0.6-0.6-0.6
		c-0.3,0-0.6,0.3-0.6,0.6c0,1.8-0.9,2.7-1.8,3.7c-1,1-2.2,2.2-2.2,4.5c0,2.3,1.1,3.5,2.2,4.5c1,1,1.8,1.9,1.8,3.7s-0.9,2.7-1.8,3.7
		c-1,1-2.2,2.2-2.2,4.5s1.1,3.5,2.2,4.5c1,1,1.8,1.9,1.8,3.7s-0.9,2.7-1.8,3.7c-1,1-2.2,2.2-2.2,4.5c0,2.3,1.1,3.5,2.2,4.5
		c1,1,1.8,1.9,1.8,3.7c0,1.8-0.9,2.7-1.8,3.7c-1,1-2.2,2.2-2.2,4.5c0,2.3,1.1,3.5,2.2,4.5c1,1,1.8,1.9,1.8,3.7
		c0,0.3,0.3,0.6,0.6,0.6c0.3,0,0.6-0.3,0.6-0.6c0-2.3-1.1-3.5-2.2-4.5c-1-1-1.8-1.9-1.8-3.7c0-1.8,0.9-2.7,1.8-3.7
		c1-1,2.2-2.2,2.2-4.5c0-2.3-1.1-3.5-2.2-4.5c-1-1-1.8-1.9-1.8-3.7c0-1.8,0.9-2.7,1.8-3.7c1-1,2.2-2.2,2.2-4.5s-1.1-3.5-2.2-4.5
		c-1-1-1.8-1.9-1.8-3.7s0.9-2.7,1.8-3.7C143.8,100.2,144.9,99.1,144.9,96.8z"/> <path class="st3" d="M130,39.7c-10.1-8.4-21.9-6.1-21.9-6.1l-51,9c31.9,2.1,45.5,50.5,45.5,50.5l52.7-9.4
		C151,64.5,140.2,48.1,130,39.7z"/> </g>     </symbol><symbol viewBox="0 0 212 219.7" id="shape-G"><title>G</title> <style type="text/css"> <![CDATA[ .st0{fill:#47797F;} .st1{fill:#4779B3;} .st2{display:inline;fill:#803675;} .st3{fill:#E2C000;} .st4{fill:#803675;} .st5{fill:#85ACFF;} .st6{fill:#F4571C;} .st7{display:inline;fill:#2A3297;} .st8{display:inline;fill:#FD858F;} .st9{display:inline;fill:#FFFFFF;} .st10{fill:#2A3297;} .st11{fill:#FD858F;} .st12{fill:#FEFFFF;} .st13{fill:#FFFFFF;} .st14{fill:#634382;} .st15{fill:#6390FF;} .st16{display:inline;fill:#D47513;} .st17{fill:#0000A6;} .st18{display:inline;fill:#3FB9AE;} .st19{fill:#D2B8B5;} .st20{fill:#D47513;} .st21{fill:#D9B90F;} .st22{fill:#3FB9AE;} .st23{display:none;} .st24{display:inline;fill:#47797F;} .st25{fill:#0D1B42;} .st26{fill:#0F1D42;} .st27{fill:#0F1D44;} .st28{fill:#DDBA18;} .st29{fill:none;stroke:#000000;stroke-width:1.1264;stroke-linecap:round;stroke-miterlimit:10;} ]]> </style>         <g id="G-g-anim1"> <path class="st27" d="M162.1,97.8L141,113.9l-26.8,6.9L67,113.5l-18.5-11.6l-5.6-17.1l-13.3-4.4l-0.4,11.8
		c0.3,11.1,0,11.4,1.9,18.4c2,7.1,8.3,13.9,17.4,21c8.9,7,18.6,12.1,29.1,15.4c10.5,3.3,20.8,4.8,30.8,4.2c10-0.5,19.5-2.8,28.3-6.8
		c7.2-3.3,13.2-7.6,17.9-12.9c4.7-5.3,7.2-10.2,7.6-14.7L162.1,97.8z"/> <polyline class="st13" points="90.3,89.5 90.3,120.2 104.3,124.6 104.3,100.4 	"/> <path id="G-_x3C_Path_x3E__4_" class="st13" d="M112.5,60.1v19.2L97.8,86V70.7 M124.9,91v26.1l16.6-6.5v-15l-16.2-4.3"/> <path id="G-_x3C_Path_x3E__3_" class="st28" d="M92.9,60.1l4.8,10.6v18.8c0,0-28.3-13.4-32.1,6.1c0,0-1.3,6.6,3.9,10
		c5.2,3.4-20.8-11.3-20.8-11.3l-2.4-13.9l23-18.4L92.9,60.1z M125.4,120.1L124.9,91l-21.1,9.5l0.4-0.1v23.5L125.4,120.1z"/> <path class="st6" d="M129.1,72L90.3,89.8l14,11l20.7-9.5l10.5,8.2c-0.8,3.1-2.5,6-5,8.7c-2.5,2.7-5.6,4.9-9.1,6.5
		c-7.5,3.4-15.7,4.4-24.6,2.9c-10.3-1.7-20.5-6.5-30.5-14.3c-9.3-7.3-13.8-13.8-13.6-19.5c0.2-5.7,4.2-10.4,11.9-13.9
		c5-2.3,10.3-3.3,16.2-3.2c5.8,0.1,11.5,1.6,17.1,4.3l14.7-10.6c-9.8-5.4-20-8.3-30.5-8.5c-10.5-0.3-21.1,2-31.8,6.9
		c-8.9,4.1-14.9,8.8-18.1,14.2c-3.2,5.4-3.5,11.6-1,18.5c2.5,6.9,8.3,13.9,17.4,21.1c8.9,7,18.6,12.1,29.1,15.4
		c10.5,3.3,20.8,4.8,30.8,4.2c10-0.5,19.5-2.8,28.3-6.8c7.2-3.3,13.2-7.6,17.9-12.9c4.7-5.3,7.2-10.2,7.6-14.7L129.1,72z"/> <path class="st13" d="M167.2,95.1c-1-2.9-2.7-6-5.5-7.5c-1.3-0.7-2.8-1.2-4.3-1.2c-1.6,0-3,0.4-4.4,1c-4.8,2.1-6.2,8.4-5.6,13.1
		c0.2,1.4,1,2.5,2.5,2.5c1.3,0,2.7-1.2,2.5-2.5c-0.1-1.2-0.2-2.5,0-3.8c0,0,0,0,0-0.1c0-0.1,0-0.3,0.1-0.4c0.1-0.3,0.1-0.6,0.2-0.9
		c0.1-0.3,0.2-0.6,0.3-0.9c0,0,0-0.1,0.1-0.1c0,0,0-0.1,0-0.1c0.2-0.4,0.4-0.8,0.7-1.2c0.1-0.1,0.2-0.3,0.3-0.3
		c0.1-0.1,0.2-0.2,0.4-0.3c0.1-0.1,0.4-0.3,0.5-0.3c0.1-0.1,0.2-0.1,0.3-0.1c0.5-0.2,1-0.4,1.5-0.4c0,0,0,0,0.1,0c0.1,0,0.3,0,0.4,0
		c0.1,0,0.5,0,0.6,0c0.2,0,0.3,0.1,0.5,0.1c0.1,0,0.4,0.1,0.5,0.2c0.2,0.1,0.4,0.2,0.6,0.3c0.1,0.1,0.2,0.1,0.2,0.2c0,0,0,0,0,0
		c0.2,0.2,0.4,0.4,0.6,0.6c0.1,0.1,0.1,0.1,0.1,0.2c0,0.1,0.1,0.1,0.1,0.2c0.4,0.6,0.8,1.3,1.2,2c0.1,0.1,0.1,0.2,0.2,0.4
		c0,0,0,0.1,0,0.1c0.1,0.3,0.2,0.6,0.3,0.9c0.2,0.6,0.3,1.2,0.4,1.9c0,0.2,0.1,0.5,0.1,0.6c0,0.3,0,0.6,0.1,1c0.1,2,0.2,3.8,0.2,5.9
		c0.1,8-0.2,15.8-0.3,23.6c-0.1,3.5-0.4,7.5-0.9,11c-0.1,0.7-0.1,1.3,0.3,2c0.3,0.6,0.9,1,1.5,1.2c1.2,0.3,2.9-0.4,3.1-1.8
		C167.5,137.4,168.8,99.8,167.2,95.1z"/> <path class="st19" d="M154.7,98.9c-1.3-0.8-3.1-1.1-4.9-1.1l-0.2-0.1v0.1l-0.2,0.1c-1.7,0.1-3.4,0.5-4.7,1.3
		c-2.8,1.6-3,4.2-0.3,5.8c2.7,1.5,7.2,1.4,10-0.2C157.2,103,157.4,100.4,154.7,98.9z"/> <path class="st13" d="M36,67.3v7c0,0,0.1,2,1.3,2.1c1.2,0,1.9,0.1,2-1.8h0v-0.1c0,0,0,0,0,0v-7.2H36z"/> <path class="st5" d="M39.3,64.2c-1.2-0.3-2.5-0.4-3.8-0.1L32.2,64v2.6l0,0c-0.1,0.8,0.4,1.7,1.6,2.4c2.1,1.2,5.4,1.3,7.3,0.1
		c0.9-0.5,1.3-1.1,1.4-1.8l0,0V67c0,0,0,0,0,0v-2.7L39.3,64.2z"/> <path class="st17" d="M41,62.1c-2.1-1.2-5.4-1.3-7.3-0.1c-1.9,1.1-1.8,3,0.2,4.2c2.1,1.2,5.4,1.3,7.3,0.1
		C43.1,65.2,43,63.3,41,62.1z"/> <path class="st13" d="M50.5,57.3v7c0,0,0.1,2,1.3,2.1c1.2,0,1.9,0.1,2-1.8h0v-0.1c0,0,0,0,0,0v-7.2H50.5z"/> <path class="st5" d="M53.8,54.2c-1.2-0.3-2.5-0.4-3.8-0.1L46.7,54v2.6l0,0c-0.1,0.8,0.4,1.7,1.6,2.4c2.1,1.2,5.4,1.3,7.3,0.1
		c0.9-0.5,1.3-1.1,1.4-1.8l0,0V57c0,0,0,0,0,0v-2.7L53.8,54.2z"/> <path class="st17" d="M55.5,52.1c-2.1-1.2-5.4-1.3-7.3-0.1c-1.9,1.1-1.8,3,0.2,4.2c2.1,1.2,5.4,1.3,7.3,0.1
		C57.6,55.2,57.5,53.3,55.5,52.1z"/> <path class="st13" d="M64.8,49.5v7c0,0,0.1,2,1.3,2.1c1.2,0,1.9,0.1,2-1.8h0v-0.1c0,0,0,0,0,0v-7.2H64.8z"/> <path class="st5" d="M68,46.5c-1.2-0.3-2.5-0.4-3.8-0.1L61,46.2v2.6l0,0c-0.1,0.8,0.4,1.7,1.6,2.4c2.1,1.2,5.4,1.3,7.3,0.1
		c0.9-0.5,1.3-1.1,1.4-1.8l0,0v-0.3c0,0,0,0,0,0v-2.7L68,46.5z"/> <path class="st17" d="M69.7,44.4c-2.1-1.2-5.4-1.3-7.3-0.1c-1.9,1.1-1.8,3,0.2,4.2c2.1,1.2,5.4,1.3,7.3,0.1
		C71.9,47.5,71.8,45.6,69.7,44.4z"/> </g> <g id="G-g-anim2"> <path class="st27" d="M162.1,97.8L141,113.9l-26.8,6.9L67,113.5l-18.5-11.6l-5.6-17.1l-13.3-4.4l-0.4,11.8
		c0.3,11.1,0,11.4,1.9,18.4c2,7.1,8.3,13.9,17.4,21c8.9,7,18.6,12.1,29.1,15.4c10.5,3.3,20.8,4.8,30.8,4.2c10-0.5,19.5-2.8,28.3-6.8
		c7.2-3.3,13.2-7.6,17.9-12.9c4.7-5.3,7.2-10.2,7.6-14.7L162.1,97.8z"/> <path id="G-_x3C_Path_x3E__2_" class="st13" d="M97.8,70.7l14.7-10.6v19.2L97.8,86V70.7z M125.4,91.3l-0.4-0.3v26.1l16.6-6.5v-15
		L125.4,91.3z"/> <path id="G-_x3C_Path_x3E__1_" class="st28" d="M92.9,60.1l4.8,10.6v18.8c0,0-28.3-13.4-32.1,6.1c0,0-1.3,6.6,3.9,10
		c5.2,3.4-20.8-11.3-20.8-11.3l-2.4-13.9l23-18.4L92.9,60.1z M125.4,120.1L124.9,91l-21.1,9.5l0.4-0.1v23.5L125.4,120.1z"/> <path class="st6" d="M129.1,72L90.3,89.8l14,11l20.7-9.5l10.5,8.2c-0.8,3.1-2.5,6-5,8.7c-2.5,2.7-5.6,4.9-9.1,6.5
		c-7.5,3.4-15.7,4.4-24.6,2.9c-10.3-1.7-20.5-6.5-30.5-14.3c-9.3-7.3-13.8-13.8-13.6-19.5c0.2-5.7,4.2-10.4,11.9-13.9
		c5-2.3,10.3-3.3,16.2-3.2c5.8,0.1,11.5,1.6,17.1,4.3l14.7-10.6c-9.8-5.4-20-8.3-30.5-8.5c-10.5-0.3-21.1,2-31.8,6.9
		c-8.9,4.1-14.9,8.8-18.1,14.2c-3.2,5.4-3.5,11.6-1,18.5c2.5,6.9,8.3,13.9,17.4,21.1c8.9,7,18.6,12.1,29.1,15.4
		c10.5,3.3,20.8,4.8,30.8,4.2c10-0.5,19.5-2.8,28.3-6.8c7.2-3.3,13.2-7.6,17.9-12.9c4.7-5.3,7.2-10.2,7.6-14.7L129.1,72z"/> <path class="st19" d="M154.7,98.9c-1.3-0.8-3.1-1.1-4.9-1.1l-0.2-0.1v0.1l-0.2,0.1c-1.7,0.1-3.4,0.5-4.7,1.3
		c-2.8,1.6-3,4.2-0.3,5.8c2.7,1.5,7.2,1.4,10-0.2C157.2,103,157.4,100.4,154.7,98.9z"/> <path class="st13" d="M167.1,107c0.3-3.4,0.6-6.9,0.5-10.4c0-1.7,0.1-4.3-1.1-5.7c-1.3-3-4.1-5.7-7.2-6.5c-1.5-0.4-3-0.4-4.3,0
		c-1.4,0.4-2.5,1.2-3.6,2.2c-3.4,3.3-3.9,9.2-3.9,13.3c0,1.2,0.7,2.2,2.2,2c1.2-0.1,2.8-1.4,2.7-2.7c-0.1-1.2,0-2.4,0.1-3.6
		c0,0,0,0,0,0c0-0.1,0-0.3,0.1-0.4c0-0.3,0.1-0.6,0.2-0.9c0.1-0.3,0.1-0.6,0.2-0.9c0,0,0-0.1,0-0.1c0,0,0-0.1,0-0.1
		c0.1-0.4,0.3-0.9,0.5-1.3c0.1-0.1,0.2-0.3,0.2-0.4c0.1-0.1,0.2-0.3,0.3-0.4c0.1-0.1,0.3-0.4,0.4-0.4c0.1-0.1,0.2-0.1,0.2-0.2
		c0.4-0.3,0.9-0.6,1.3-0.8c0,0,0,0,0.1,0c0.1,0,0.3-0.1,0.4-0.1c0.1,0,0.4-0.1,0.6-0.1c0.2,0,0.3,0,0.5,0c0.1,0,0.4,0.1,0.5,0.1
		c0.2,0.1,0.4,0.1,0.7,0.2c0.1,0,0.2,0.1,0.3,0.1c0,0,0,0,0,0c0.2,0.2,0.5,0.3,0.7,0.5c0.1,0,0.1,0.1,0.2,0.1
		c0.1,0.1,0.1,0.1,0.1,0.2c0.5,0.6,1,1.2,1.4,1.8c0.1,0.1,0.1,0.2,0.2,0.4c0,0,0,0.1,0.1,0.1c0.1,0.3,0.3,0.6,0.4,0.9
		c0.2,0.6,0.4,1.3,0.5,1.9c0,0.2,0.1,0.5,0.1,0.6c0,0.3,0,0.7,0,1c0,2.1,0,4-0.3,6.1c-0.3,2.8-0.8,5.6-1.3,8.4
		c-0.9,4.9-1.9,9.8-2.4,14.8c-0.5,4.8,0.2,9.4,0.2,14.2c0,1.9,0.5,3.5,2.6,3.8c0.7,0.1,2.1,0.1,2.7-0.4c1-0.8,0.4-2,0.1-3
		c-0.8-3.3,0-6.8,0.2-10.2C165.1,123.1,166.4,115.1,167.1,107z"/> <path class="st13" d="M36,67.3v7c0,0,0.1,2,1.3,2.1c1.2,0,1.9,0.1,2-1.8h0v-0.1c0,0,0,0,0,0v-7.2H36z"/> <path class="st5" d="M39.3,69.8c-1.2-0.3-2.5-0.4-3.8-0.1l-3.3-0.1v2.6l0,0c-0.1,0.8,0.4,1.7,1.6,2.4c2.1,1.2,5.4,1.3,7.3,0.1
		c0.9-0.5,1.3-1.1,1.4-1.8l0,0v-0.3c0,0,0,0,0,0v-2.7L39.3,69.8z"/> <path class="st17" d="M41,67.7c-2.1-1.2-5.4-1.3-7.3-0.1c-1.9,1.1-1.8,3,0.2,4.2c2.1,1.2,5.4,1.3,7.3,0.1
		C43.1,70.8,43,68.9,41,67.7z"/> <path class="st13" d="M50.6,57.4v7c0,0,0.1,2,1.3,2.1c1.2,0,1.9,0.1,2-1.8h0v-0.1c0,0,0,0,0,0v-7.2H50.6z"/> <path class="st5" d="M53.9,59.9c-1.2-0.3-2.5-0.4-3.8-0.1l-3.3-0.1v2.6l0,0c-0.1,0.8,0.4,1.7,1.6,2.4c2.1,1.2,5.4,1.3,7.3,0.1
		c0.9-0.5,1.3-1.1,1.4-1.8l0,0v-0.2c0,0,0,0,0,0V60L53.9,59.9z"/> <path class="st17" d="M55.5,57.8c-2.1-1.2-5.4-1.3-7.3-0.1c-1.9,1.1-1.8,3,0.2,4.2c2.1,1.2,5.4,1.3,7.3,0.1
		C57.7,60.9,57.6,59,55.5,57.8z"/> <path class="st13" d="M64.6,49.5v7c0,0,0.1,2,1.3,2.1c1.2,0,1.9,0.1,2-1.8h0v-0.1c0,0,0,0,0,0v-7.2H64.6z"/> <path class="st5" d="M67.9,52c-1.2-0.3-2.5-0.4-3.8-0.1l-3.3-0.1v2.6l0,0c-0.1,0.8,0.4,1.7,1.6,2.4c2.1,1.2,5.4,1.3,7.3,0.1
		c0.9-0.5,1.3-1.1,1.4-1.8l0,0v-0.3c0,0,0,0,0,0v-2.7L67.9,52z"/> <path class="st17" d="M69.6,49.9c-2.1-1.2-5.4-1.3-7.3-0.1c-1.9,1.1-1.8,3,0.2,4.2c2.1,1.2,5.4,1.3,7.3,0.1
		C71.8,53.1,71.7,51.2,69.6,49.9z"/> </g> </symbol><symbol viewBox="0 0 212 219.7" id="shape-M1"><title>M1</title> <style type="text/css"> <![CDATA[ .st0{fill:#47797F;} .st1{fill:#4779B3;} .st2{display:inline;fill:#803675;} .st3{fill:#E2C000;} .st4{fill:#803675;} .st5{fill:#85ACFF;} .st6{fill:#F4571C;} .st7{display:inline;fill:#2A3297;} .st8{display:inline;fill:#FD858F;} .st9{display:inline;fill:#FFFFFF;} .st10{fill:#2A3297;} .st11{fill:#FD858F;} .st12{fill:#FEFFFF;} .st13{fill:#FFFFFF;} .st14{fill:#634382;} .st15{fill:#6390FF;} .st16{display:inline;fill:#D47513;} .st17{fill:#0000A6;} .st18{display:inline;fill:#3FB9AE;} .st19{fill:#D2B8B5;} .st20{fill:#D47513;} .st21{fill:#D9B90F;} .st22{fill:#3FB9AE;} .st23{display:none;} .st24{display:inline;fill:#47797F;} .st25{fill:#0D1B42;} .st26{fill:#0F1D42;} .st27{fill:#0F1D44;} .st28{fill:#DDBA18;} .st29{fill:none;stroke:#000000;stroke-width:1.1264;stroke-linecap:round;stroke-miterlimit:10;} ]]> </style>       <g id="M1-m1-anim1"> <polygon class="st11" points="90.5,68.7 71.7,77.9 87.6,88.4 106,79.3 	"/> <polygon class="st11" points="139.1,44 120.3,53.1 136.2,63.7 154.8,54.3 	"/> <polyline class="st20" points="136.2,63.7 120.3,53.1 109.3,91.6 118.1,117.5 136.2,63.7 	"/> <polygon class="st20" points="100.5,114.4 98.4,134 110.2,141.3 110.9,138.6 	"/> <polyline class="st20" points="138.3,136.9 125.3,129 137.3,93.6 142.4,108.1 138.5,137.1 138.5,137.1 	"/> <polygon class="st20" points="71.7,77.9 64,141.4 61.8,160.3 77.1,170.8 87.6,88.4 	"/> <path class="st10" d="M154.8,54.3l-18.6,9.4L119,114.1l-13-34.7l-18.7,9.3l-10.2,82.2c0,0,6.9-2.8,11-5.5c4-2.6,7.1-2.1,8.5-14.2
		c1.4-12.1,4.3-35.8,4.3-35.8l9.5,25.9l14.2-6.6l12.9-37l1,39.3c0,0,3.3,2.6,6.6,0.5c3.3-2.1,11.6-6.4,11.6-6.4L154.8,54.3z"/> <polygon class="st13" points="62.5,154.4 51.1,160 56,163.2 67.4,157.6 	"/> <polygon class="st22" points="51.1,160 50.8,165.8 55.7,169.1 56,163.2 	"/> <polygon class="st0" points="56,163.2 55.7,169.1 67.1,163.5 67.4,157.6 	"/> <polygon class="st22" points="56.4,163.4 56,169.3 61,172.5 61.3,166.6 	"/> <polygon class="st0" points="61.3,166.6 61,172.5 72.3,167 72.7,161.1 	"/> <polygon class="st13" points="67.8,157.8 56.4,163.4 61.3,166.7 72.7,161.1 	"/> <polygon class="st22" points="61.6,167 61.2,172.8 66.2,176.1 66.5,170.2 	"/> <polygon class="st0" points="66.5,170.2 66.2,176.1 77.5,170.5 77.9,164.6 	"/> <polygon class="st13" points="73,161.4 61.6,167 66.5,170.2 77.9,164.6 	"/> <polygon class="st4" points="149.4,81.4 142.7,85.5 142.8,123 149.5,118.9 	"/> <polygon class="st0" points="144.9,86.3 142.7,85 142.7,93.1 144.9,94.4 	"/> <polygon class="st22" points="149.7,80.9 142.7,85 144.9,86.3 151.9,82.2 	"/> <polygon class="st13" points="151.9,82.2 144.9,86.3 144.9,94.4 151.9,90.3 	"/> </g> <g id="M1-m1-anim2" class="st23"> <polygon class="st8" points="71.7,77.9 87.6,88.4 106,79.3 90.5,68.7 	"/> <polygon class="st8" points="120.3,53.1 136.2,63.7 154.8,54.3 139.1,44 	"/> <polyline class="st16" points="136.2,63.7 120.3,53.1 109.3,91.6 118.1,117.5 136.2,63.7 	"/> <polyline class="st16" points="110.2,141.3 98.4,134 100.5,114.4 110.9,138.6 110.2,141.3 	"/> <polyline class="st16" points="138.3,136.9 125.3,129 137.3,93.6 142.4,108.1 138.5,137.1 138.5,137.1 	"/> <polyline class="st16" points="87.6,88.4 71.7,77.9 64,141.4 61.8,160.3 77.1,170.8 	"/> <path class="st7" d="M87.3,88.6l-10.2,82.2c0,0,6.9-2.8,11-5.5c4-2.6,7.1-2.1,8.5-14.2c1.4-12.1,4.3-35.8,4.3-35.8l9.5,25.9
		l14.2-6.6l12.9-37l1,39.3c0,0,3.3,2.6,6.6,0.5c3.3-2.1,11.6-6.4,11.6-6.4l-1.7-76.6l-18.6,9.4L119,114.1l-13-34.7L87.3,88.6z"/> <polygon class="st9" points="62.5,154.4 51.1,160 56,163.2 67.4,157.6 	"/> <polygon class="st18" points="51.1,160 50.8,165.8 55.7,169.1 56,163.2 	"/> <polygon class="st24" points="56,163.2 55.7,169.1 67.1,163.5 67.4,157.6 	"/> <polygon class="st18" points="56.3,165.4 56,169.3 61,172.5 61.2,168.7 	"/> <polygon class="st24" points="61.2,168.7 61,172.5 72.3,167 72.6,163.2 	"/> <polygon class="st9" points="67.6,159.9 56.2,165.5 61.1,168.7 72.5,163.1 	"/> <polygon class="st18" points="61.4,171 61.2,172.9 66.2,176.2 66.3,174.3 	"/> <polygon class="st24" points="66.3,174.3 66.2,176.2 77.5,170.6 77.6,168.8 	"/> <polygon class="st9" points="72.7,165.5 61.3,171.1 66.3,174.3 77.6,168.8 	"/> <polygon class="st2" points="149.4,81.4 142.7,85.5 142.8,123 149.5,118.9 	"/> <polygon class="st24" points="144.9,119.4 142.7,118.2 142.7,126.3 144.9,127.5 	"/> <polygon class="st18" points="149.7,114.1 142.7,118.2 144.9,119.4 151.9,115.3 	"/> <polygon class="st9" points="151.9,115.3 144.9,119.4 144.9,127.5 151.9,123.5 	"/> </g>   </symbol><symbol viewBox="0 0 212 219.7" id="shape-M2"><title>M2</title> <style type="text/css"> <![CDATA[ .st0{fill:#47797F;} .st1{fill:#4779B3;} .st2{display:inline;fill:#803675;} .st3{fill:#E2C000;} .st4{fill:#803675;} .st5{fill:#85ACFF;} .st6{fill:#F4571C;} .st7{display:inline;fill:#2A3297;} .st8{display:inline;fill:#FD858F;} .st9{display:inline;fill:#FFFFFF;} .st10{fill:#2A3297;} .st11{fill:#FD858F;} .st12{fill:#FEFFFF;} .st13{fill:#FFFFFF;} .st14{fill:#634382;} .st15{fill:#6390FF;} .st16{display:inline;fill:#D47513;} .st17{fill:#0000A6;} .st18{display:inline;fill:#3FB9AE;} .st19{fill:#D2B8B5;} .st20{fill:#D47513;} .st21{fill:#D9B90F;} .st22{fill:#3FB9AE;} .st23{display:none;} .st24{display:inline;fill:#47797F;} .st25{fill:#0D1B42;} .st26{fill:#0F1D42;} .st27{fill:#0F1D44;} .st28{fill:#DDBA18;} .st29{fill:none;stroke:#000000;stroke-width:1.1264;stroke-linecap:round;stroke-miterlimit:10;} ]]> </style>   <g id="M2-m2-anim2"> <polygon class="st25" points="139.6,68.2 121.3,77.4 102.9,65.2 120.8,56 	"/> <polygon class="st25" points="91.1,35.5 72.8,44.7 54.2,32.2 72.3,23.3 	"/> <polyline class="st14" points="72.8,44.7 91.1,35.5 97.8,77.9 85.1,104.3 72.8,44.7 	"/> <polyline class="st14" points="90.3,130.6 103.7,124.4 104,103.2 89.9,127.6 90.3,130.6 	"/> <polyline class="st14" points="60.9,122.3 75.8,115.5 67.6,76.3 60.2,91 60.7,122.4 60.7,122.4 	"/> <polygon class="st15" points="121.3,77.4 121.8,166.4 139.4,157.2 139.6,136.9 139.6,68.2 	"/> <path class="st21" d="M121.6,77.6l0.2,88.9c0,0-7-3.9-11-7.2c-4-3.3-7.2-3.2-7.1-16.3c0.1-13.1,0.1-38.7,0.1-38.7l-13.5,26.3
		L76,121.7l-8.9-41.1l-6.2,41.7c0,0-3.9,2.3-7.1-0.3c-3.2-2.6-11.5-8.4-11.5-8.4l11.8-81.4l18.6,12.4l11.8,55.9l18.4-35.3
		L121.6,77.6z"/> <path class="st1" d="M141.6,171.6c-6.9-4.9-12.8-8.2-15.7-14.9c-3.9-9-4.1-16.9-3.8-26.2l2.1-2l-1.5-51.9l-0.9,0.4l-3.2,49.3l0,0
		c0,0,0,0.3,0,0.8l-0.1,1.3l0.1,0.1c-0.1,5.9-0.2,22.1,1.6,30.6c1.6,7.5,3.2,13.1,6.6,19.9c3.8,7.5,13.1,0.8,13.1,0.8l5.5-5.7
		C144.7,173.7,143.6,173,141.6,171.6z"/> <path class="st1" d="M145.8,173.7l-0.4,0.4C147.2,175.1,145.8,173.7,145.8,173.7z"/> <path class="st15" d="M151.2,160.6c-0.5-8.4-16.7,1.8-22.6-7c-6-8.9-4.8-17.5-4.4-24.9l4.4,0l-4.2-53l-2.6,1.3l-0.5,51.7
		c0,0-0.5,17.6,3.1,25.9c3,6.9,5.3,12.1,12.2,17c6.9,4.9,6.7,4.7,6.7,4.7l5.5-5.1C148.8,171.2,151.6,166.8,151.2,160.6z"/> <path class="st22" d="M139.2,151.5c-8.6,4.3-16.1,15.5-16.7,25.1c-0.6,9.6,5.9,13.9,14.5,9.6c8.6-4.2,16.1-15.5,16.7-25.1
		C154.3,151.6,147.8,147.3,139.2,151.5z"/> <path class="st13" d="M140.6,152.4c-8.6,4.3-16.1,15.5-16.7,25.1c-0.6,9.6,5.9,13.9,14.5,9.6c8.6-4.3,16.1-15.5,16.7-25.1
		C155.7,152.4,149.2,148.1,140.6,152.4z"/> <path class="st22" d="M140.4,155.9c-6.8,3.4-12.8,12.4-13.3,20c-0.5,7.6,4.7,11,11.5,7.7c6.8-3.4,12.8-12.4,13.3-19.9
		C152.4,156,147.2,152.5,140.4,155.9z"/> <path class="st25" d="M138.6,157.3c-4.5,2.2-8.5,8.2-8.8,13.3c-0.3,5.1,3.1,7.3,7.7,5.1c4.5-2.3,8.5-8.2,8.8-13.3
		C146.6,157.4,143.1,155.1,138.6,157.3z"/> <path class="st0" d="M127.3,149.9l1-0.8l-0.6-0.7c0-0.1,0-0.2,0-0.3c-0.3-1.6-1.7-3.4-3.1-3.9c-0.1,0-0.2-0.1-0.4-0.1l-0.4-0.5
		l-0.8,0.7l0,0c-0.5,0.3-0.7,1-0.6,1.9c0.3,1.6,1.7,3.4,3.1,3.9c0.6,0.2,1.2,0.2,1.5-0.1l0,0L127.3,149.9
		C127.3,149.9,127.3,149.9,127.3,149.9z"/> <path class="st25" d="M128.7,147.3c-0.3-1.6-1.7-3.4-3.1-3.9c-1.4-0.5-2.4,0.3-2.1,2c0.3,1.6,1.7,3.4,3.1,3.9
		C128,149.8,129,148.9,128.7,147.3z"/> <path class="st0" d="M131.4,157.4l1-0.8l-0.6-0.7c0-0.1,0-0.2,0-0.3c-0.3-1.6-1.7-3.4-3.1-3.9c-0.1,0-0.2-0.1-0.4-0.1L128,151
		l-0.8,0.7l0,0c-0.5,0.3-0.7,1-0.6,1.9c0.3,1.6,1.7,3.4,3.1,3.9c0.6,0.2,1.2,0.2,1.5-0.1l0,0L131.4,157.4
		C131.4,157.4,131.4,157.4,131.4,157.4z"/> <path class="st25" d="M132.8,154.8c-0.3-1.6-1.7-3.4-3.1-3.9c-1.4-0.5-2.4,0.3-2.1,2c0.3,1.6,1.7,3.4,3.1,3.9
		C132.1,157.3,133.1,156.4,132.8,154.8z"/> </g> <g id="M2-m2-anim1"> <polygon class="st25" points="139.6,68.2 121.3,77.4 102.9,65.2 120.8,56 	"/> <polygon class="st25" points="91.1,35.5 72.8,44.7 54.2,32.2 72.3,23.3 	"/> <polyline class="st14" points="72.8,44.7 91.1,35.5 97.8,77.9 85.1,104.3 72.8,44.7 	"/> <polyline class="st14" points="90.3,130.6 103.7,124.4 104,103.2 89.9,127.6 90.3,130.6 	"/> <polyline class="st14" points="60.9,122.3 75.8,115.5 67.6,76.3 60.2,91 60.7,122.4 60.7,122.4 	"/> <polygon class="st15" points="121.3,77.4 121.8,166.4 139.4,157.2 139.6,136.9 139.6,68.2 	"/> <path class="st21" d="M121.6,77.6l0.2,88.9c0,0-7-3.9-11-7.2c-4-3.3-7.2-3.2-7.1-16.3c0.1-13.1,0.1-38.7,0.1-38.7l-13.5,26.3
		L76,121.7l-8.9-41.1l-6.2,41.7c0,0-3.9,2.3-7.1-0.3c-3.2-2.6-11.5-8.4-11.5-8.4l11.8-81.4l18.6,12.4l11.8,55.9l18.4-35.3
		L121.6,77.6z"/> <path id="M2-_x3C_Path_x3E__5_" class="st1" d="M141.6,171.6c2,1.4,3.1,2.2,3.8,2.6l-5.5,5.7c0,0-9.3,6.8-13.1-0.8
		c-3.5-6.8-5.1-12.4-6.6-19.9c-1.8-8.5-1.7-24.7-1.6-30.6l-0.1-0.1l0.1-1.3c0-0.5,0-0.8,0-0.8l0,0l3.2-49.3l0.9-0.4l1.5,51.9l-2.1,2
		c-0.3,9.3-0.1,17.2,3.8,26.2C128.8,163.4,134.7,166.7,141.6,171.6z M145.8,173.7l-0.4,0.4C147.2,175.1,145.8,173.7,145.8,173.7z"/> <path class="st15" d="M151.2,160.6c-0.5-8.4-16.7,1.8-22.6-7c-6-8.9-4.8-17.5-4.4-24.9l4.4,0l-4.2-53l-2.6,1.3l-0.5,51.7
		c0,0-0.5,17.6,3.1,25.9c3,6.9,5.3,12.1,12.2,17c6.9,4.9,6.7,4.7,6.7,4.7l5.5-5.1C148.8,171.2,151.6,166.8,151.2,160.6z"/> <path class="st22" d="M139.1,155.2c-6.8,3.4-12.8,12.3-13.3,19.9c-0.5,7.6,4.7,11,11.5,7.6c6.8-3.4,12.8-12.3,13.3-19.9
		C151.1,155.3,145.9,151.8,139.1,155.2z"/> <path class="st13" d="M140.3,155.9c-6.8,3.4-12.8,12.3-13.3,19.9c-0.5,7.6,4.7,11,11.5,7.7c6.8-3.4,12.8-12.3,13.3-19.9
		C152.2,155.9,147.1,152.5,140.3,155.9z"/> <path class="st22" d="M140.1,158.7c-5.4,2.7-10.1,9.8-10.5,15.8c-0.4,6,3.7,8.8,9.1,6.1c5.4-2.7,10.2-9.8,10.5-15.8
		C149.6,158.7,145.5,156,140.1,158.7z"/> <path class="st25" d="M138.5,159.5c-3.6,1.8-6.8,6.5-7,10.5c-0.3,4,2.5,5.8,6.1,4c3.6-1.8,6.8-6.5,7-10.5
		C144.8,159.6,142.1,157.8,138.5,159.5z"/> <path class="st13" d="M125,148.8l2.6-1.9l-1.4-1.9l-2.7,1.9l0,0c-0.2,0.1-0.3,0.3-0.3,0.7c0.1,0.6,0.6,1.2,1.1,1.4
		C124.6,148.9,124.7,148.9,125,148.8L125,148.8L125,148.8C124.9,148.8,125,148.8,125,148.8z"/> <path class="st0" d="M130.1,148.5l1-0.8l-0.6-0.7c0-0.1,0-0.2,0-0.3c-0.3-1.6-1.7-3.4-3.1-3.9c-0.1,0-0.2-0.1-0.4-0.1l-0.4-0.5
		l-0.8,0.7l0,0c-0.5,0.3-0.7,1-0.6,1.9c0.3,1.6,1.7,3.4,3.1,3.9c0.6,0.2,1.2,0.2,1.5-0.1l0,0L130.1,148.5
		C130.1,148.5,130.1,148.5,130.1,148.5z"/> <path class="st25" d="M131.5,145.9c-0.3-1.6-1.7-3.4-3.1-3.9c-1.4-0.5-2.4,0.3-2.1,2c0.3,1.6,1.7,3.4,3.1,3.9
		C130.8,148.4,131.8,147.5,131.5,145.9z"/> <path class="st13" d="M129,156.1l2.6-1.9l-1.4-1.9l-2.7,1.9l0,0c-0.2,0.1-0.3,0.3-0.3,0.7c0.1,0.6,0.6,1.2,1.1,1.4
		C128.6,156.3,128.7,156.3,129,156.1L129,156.1L129,156.1C128.9,156.2,129,156.2,129,156.1z"/> <path class="st0" d="M134.1,155.8l1-0.8l-0.6-0.7c0-0.1,0-0.2,0-0.3c-0.3-1.6-1.7-3.4-3.1-3.9c-0.1,0-0.2-0.1-0.4-0.1l-0.4-0.5
		l-0.8,0.7l0,0c-0.5,0.3-0.7,1-0.6,1.9c0.3,1.6,1.7,3.4,3.1,3.9c0.6,0.2,1.2,0.2,1.5-0.1l0,0L134.1,155.8
		C134.1,155.8,134.1,155.8,134.1,155.8z"/> <path class="st25" d="M135.5,153.2c-0.3-1.6-1.7-3.4-3.1-3.9c-1.4-0.5-2.4,0.3-2.1,2c0.3,1.6,1.7,3.4,3.1,3.9
		C134.8,155.7,135.8,154.8,135.5,153.2z"/> </g>       </symbol><symbol viewBox="0 0 212 219.7" id="shape-M3"><title>M3</title> <style type="text/css"> <![CDATA[ .st0{fill:#47797F;} .st1{fill:#4779B3;} .st2{display:inline;fill:#803675;} .st3{fill:#E2C000;} .st4{fill:#803675;} .st5{fill:#85ACFF;} .st6{fill:#F4571C;} .st7{display:inline;fill:#2A3297;} .st8{display:inline;fill:#FD858F;} .st9{display:inline;fill:#FFFFFF;} .st10{fill:#2A3297;} .st11{fill:#FD858F;} .st12{fill:#FEFFFF;} .st13{fill:#FFFFFF;} .st14{fill:#634382;} .st15{fill:#6390FF;} .st16{display:inline;fill:#D47513;} .st17{fill:#0000A6;} .st18{display:inline;fill:#3FB9AE;} .st19{fill:#D2B8B5;} .st20{fill:#D47513;} .st21{fill:#D9B90F;} .st22{fill:#3FB9AE;} .st23{display:none;} .st24{display:inline;fill:#47797F;} .st25{fill:#0D1B42;} .st26{fill:#0F1D42;} .st27{fill:#0F1D44;} .st28{fill:#DDBA18;} .st29{fill:none;stroke:#000000;stroke-width:1.1264;stroke-linecap:round;stroke-miterlimit:10;} ]]> </style> <g id="M3-m3-anim2"> <polygon class="st11" points="56.9,68.2 75.2,77.4 93.5,65.2 75.7,56 	"/> <polygon class="st11" points="105.4,35.5 123.7,44.7 142.3,32.2 124.2,23.3 	"/> <polyline class="st20" points="123.7,44.7 105.4,35.5 98.7,77.9 111.4,104.3 123.7,44.7 	"/> <polyline class="st20" points="106.2,130.6 92.8,124.4 92.4,103.2 106.6,127.6 106.2,130.6 	"/> <polyline class="st20" points="135.6,122.3 120.7,115.5 128.9,76.3 136.3,91 135.8,122.4 135.8,122.4 	"/> <polygon class="st20" points="75.2,77.4 74.7,166.4 57.1,157.2 56.9,136.9 56.9,68.2 	"/> <path class="st10" d="M74.9,77.6l-0.2,88.9c0,0,7-3.9,11-7.2c4-3.3,7.2-3.2,7.1-16.3c-0.1-13.1-0.1-38.7-0.1-38.7l13.5,26.3
		l14.2-8.9l8.9-41.1l6.2,41.7c0,0,3.9,2.3,7.1-0.3c3.2-2.6,11.5-8.4,11.5-8.4l-11.8-81.4l-18.6,12.4l-11.8,55.9L93.5,65.2L74.9,77.6
		z"/> <polygon class="st4" points="140.4,59.6 134.2,64.4 138.3,101.6 144.6,96.8 	"/> <polygon class="st0" points="135.9,65.2 133.6,64.2 134.5,72.2 136.8,73.2 	"/> <polygon class="st22" points="140.2,59.3 133.6,64.2 135.9,65.2 142.5,60.3 	"/> <polygon class="st13" points="142.5,60.3 135.9,65.2 136.8,73.2 143.4,68.4 	"/> <polygon class="st22" points="43.3,159.6 43.1,161.1 48.9,164.9 49,163.4 	"/> <polygon class="st0" points="49,163.4 48.9,164.9 62.2,158.4 62.4,156.9 	"/> <polygon class="st13" points="56.6,153.1 43.3,159.6 49.1,163.4 62.4,156.9 	"/> <polygon class="st22" points="49.4,163.5 49.3,165.1 55.1,168.9 55.2,167.3 	"/> <polygon class="st0" points="55.3,167.3 55.1,168.9 68.4,162.4 68.6,160.8 	"/> <polygon class="st13" points="62.8,157 49.5,163.6 55.2,167.4 68.6,160.8 	"/> <polygon class="st22" points="55.5,167.4 55.3,169.3 61.1,173.1 61.3,171.3 	"/> <polygon class="st0" points="61.3,171.1 61.1,173.1 74.5,166.6 74.6,164.6 	"/> <polygon class="st13" points="68.8,160.9 55.5,167.5 61.3,171.3 74.6,164.7 	"/> </g> <g id="M3-m3-anim1" class="st23"> <polygon class="st8" points="57.2,68.2 75.6,77.4 93.9,65.2 76,56 	"/> <polygon class="st8" points="105.7,35.5 124.1,44.7 142.7,32.2 124.5,23.3 	"/> <polyline class="st16" points="124.1,44.7 105.7,35.5 99,77.9 111.7,104.3 124.1,44.7 	"/> <polyline class="st16" points="106.6,130.6 93.1,124.4 92.8,103.2 106.9,127.6 106.6,130.6 	"/> <polyline class="st16" points="135.9,122.3 121.1,115.5 129.2,76.3 136.6,91 136.1,122.4 136.1,122.4 	"/> <polygon class="st16" points="75.6,77.4 75.1,166.4 57.4,157.2 57.2,136.9 57.2,68.2 	"/> <path class="st7" d="M75.2,77.6l-0.2,88.9c0,0,7-3.9,11-7.2c4-3.3,7.2-3.2,7.1-16.3c-0.1-13.1-0.1-38.7-0.1-38.7l13.5,26.3
		l14.2-8.9l8.9-41.1l6.2,41.7c0,0,3.9,2.3,7.1-0.3c3.2-2.6,11.5-8.4,11.5-8.4l-11.8-81.4l-18.6,12.4l-11.8,55.9L93.9,65.2L75.2,77.6
		z"/> <polygon class="st2" points="140.4,59.6 134.2,64.4 138.3,101.6 144.6,96.8 	"/> <polygon class="st24" points="140,97.9 137.7,96.9 138.6,104.9 140.9,105.9 	"/> <polygon class="st18" points="144.2,92 137.7,96.9 140,97.9 146.5,93 	"/> <polygon class="st9" points="146.5,93 140,97.9 140.9,105.9 147.5,101.1 	"/> <polygon class="st9" points="57.4,147.7 44.1,154.2 49.8,158 63.2,151.5 	"/> <polygon class="st18" points="44.1,154.2 43.7,161.1 49.4,164.9 49.8,158 	"/> <polygon class="st24" points="49.8,158 49.4,164.9 62.8,158.4 63.2,151.5 	"/> <polygon class="st18" points="50.2,158.3 49.8,165.2 55.6,169 56,162.1 	"/> <polygon class="st24" points="56,162.1 55.6,169 69,162.4 69.4,155.5 	"/> <polygon class="st9" points="63.6,151.7 50.2,158.3 56,162.1 69.4,155.5 	"/> <polygon class="st18" points="56.3,162.4 55.9,169.3 61.7,173.1 62.1,166.2 	"/> <polygon class="st24" points="62.1,166.2 61.7,173.1 75.1,166.6 75.5,159.7 	"/> <polygon class="st9" points="69.7,155.9 56.3,162.4 62.1,166.2 75.5,159.7 	"/> </g>         </symbol></svg>