<svg xmlns="http://www.w3.org/2000/svg"><symbol viewBox="0 0 122.333 139.667" id="shape-C"><title>C</title> <g id="C-c-anim1"> <path fill="#211D56" d="M84.12,107.216c-10.016-6.23-14.216-13.965-18.74-26.404c-4.521-12.438-3.875-26.979-3.875-26.979
		l-4.2-14.54L34.04,22.815L19.5,32.499l-6.948,22.788l6.14,42.649l21.647,25.688l47.66-2.584L84.12,107.216z"/> <path fill="#D1F5DD" d="M110.756,103.824l-45.809,6.82c0,0-17.362,22.512-17.458,22.08c-0.107-0.432,2.265,0.848,2.265,0.848
		s38.989-5.803,39.094-6.23c0.104-0.432,11.956-0.432,17.438-7.756c5.494-7.312,7.812-14.416,7.812-14.416L110.756,103.824z"/> <polyline fill="#FEFFFF" points="57.302,109.33 103.722,101.007 114.116,105.169 68.715,113.423 57.302,109.193 	"/> <path fill="none" stroke="#000000" stroke-width="2" d="M70.499,51.607c0,14.135,0,45.592,0,58.727"/> <path fill="none" stroke="#000000" stroke-width="2" d="M77.833,49.94c0,14.788,0,46.7,0,58.728"/> <path fill="none" stroke="#000000" stroke-width="2" d="M85.167,49.106c0,14.916,0,46.914,0,58.728"/> <path fill="none" stroke="#000000" stroke-width="2" d="M92.499,47.273c0,15.164,0,47.334,0,58.727"/> <path fill="none" stroke="#000000" stroke-width="2" d="M99.833,45.773c0.271,15.436,0,47.85,0,58.727"/> <path fill="none" stroke="#000000" stroke-width="2" d="M107.167,44.439c0,15.287,0,47.542,0,58.727"/> <path fill="#635CFF" d="M68.715,57.849l-11.199-3.77c0,0-3.229-12.278-11.847-18.31c-8.617-6.033-13.57-5.494-17.555-2.478
		c-10.823,8.192-12.297,23.657-11.182,36.184c0.425,4.759,1.061,9.712,2.157,14.364c1.302,5.514,3.301,11.246,5.939,16.271
		c4.475,8.521,9.313,16.476,19.782,17.226c2.051,0.146,3.758-0.082,5.597-1.004c2.584-1.293,6.246-4.953,6.894-7l11.415,4.092
		c0,0-2.479,10.229-7,14.109c-4.521,3.877-10.77,7.645-18.188,5.6c-10.838-2.979-19.213-11.791-24.531-21.373
		c-3.504-6.311-6.208-13.061-8.217-20.004c-1.61-5.562-2.742-11.293-3.325-17.062c-0.462-4.556-0.614-9.142-0.64-13.716
		c-0.04-6.5,0.25-13.163,1.815-19.498c2.155-8.725,5.386-14.109,8.615-18.525c3.229-4.414,10.392-9.866,17.42-7.732
		c7.028,2.132,14.628,7.178,19.111,13.424c4.484,6.246,14.413,20.804,14.85,28.666"/> <path fill="#D1F5DD" d="M114.058,50.116l-45.343,8.078c0,0-11.698-41.625-39.167-43.455l43.908-7.703
		c0,0,10.123-1.939,18.846,5.276C101.027,19.53,110.398,33.639,114.058,50.116z"/> </g> <g id="C-c-anim2"> <path fill="#211D56" d="M84.12,107.216c-10.016-6.23-14.216-13.965-18.74-26.404c-4.521-12.438-3.875-26.979-3.875-26.979
		l-4.2-14.54L34.04,22.815L19.5,32.499l-6.948,22.788l6.14,42.649l21.647,25.688l47.66-2.584L84.12,107.216z"/> <path fill="#D1F5DD" d="M110.756,103.824l-45.809,6.82c0,0-17.362,22.512-17.458,22.08c-0.107-0.432,2.265,0.848,2.265,0.848
		s38.989-5.803,39.094-6.23c0.104-0.432,11.956-0.432,17.438-7.756c5.494-7.312,7.812-14.416,7.812-14.416L110.756,103.824z"/> <polyline fill="#FEFFFF" points="57.302,109.33 103.722,101.007 114.116,105.169 68.715,113.423 57.302,109.193 	"/> <path fill="none" stroke="#000000" stroke-width="2" d="M70.499,51.607c3.182,14.279-3.019,46.383,0,58.727"/> <path fill="none" stroke="#000000" stroke-width="2" d="M77.833,49.94c4.176,14.728-4.765,42.664,0,58.728"/> <path fill="none" stroke="#000000" stroke-width="2" d="M85.167,49.106c3.444,14.038-4.375,45.327,0,58.728"/> <path fill="none" stroke="#000000" stroke-width="2" d="M92.499,47.273c3.528,14.347-4.09,45.939,0,58.727"/> <path fill="none" stroke="#000000" stroke-width="2" d="M99.833,45.773c3.813,14.729-5.432,47.949,0,58.727"/> <path fill="none" stroke="#000000" stroke-width="2" d="M107.167,44.439c3.59,15.25-4.842,46.234,0,58.727"/> <path fill="#7D7DF9" d="M68.715,57.849l-11.199-3.77c0,0-3.229-12.278-11.847-18.31c-8.617-6.033-13.57-5.494-17.555-2.478
		c-10.823,8.192-12.297,23.657-11.182,36.184c0.425,4.759,1.061,9.712,2.157,14.364c1.302,5.514,3.301,11.246,5.939,16.271
		c4.475,8.521,9.313,16.476,19.782,17.226c2.051,0.146,3.758-0.082,5.597-1.004c2.584-1.293,6.246-4.953,6.894-7l11.415,4.092
		c0,0-2.479,10.229-7,14.109c-4.521,3.877-10.77,7.645-18.188,5.6c-10.838-2.979-19.213-11.791-24.531-21.373
		c-3.504-6.311-6.208-13.061-8.217-20.004c-1.61-5.562-2.742-11.293-3.325-17.062c-0.462-4.556-0.614-9.142-0.64-13.716
		c-0.04-6.5,0.25-13.163,1.815-19.498c2.155-8.725,5.386-14.109,8.615-18.525c3.229-4.414,10.392-9.866,17.42-7.732
		c7.028,2.132,14.628,7.178,19.111,13.424c4.484,6.246,14.413,20.804,14.85,28.666"/> <path fill="#D1F5DD" d="M114.058,50.116l-45.343,8.078c0,0-11.698-41.625-39.167-43.455l43.908-7.703
		c0,0,10.123-1.939,18.846,5.276C101.027,19.53,110.398,33.639,114.058,50.116z"/> </g> </symbol><symbol viewBox="0 0 162 127" id="shape-G"><title>G</title> <g id="G-g-anim1"> <path fill="#211D56" d="M135.92,57.961c-20.3,21.5-44.398,23.5-71.5,19.3c-34-5.198-35.8-27.8-61.1-36.8
		C-11.68,124.261,149.32,136.261,135.92,57.961z"/> <polygon fill="#E3E5E8" points="64.12,49.661 64.12,80.361 78.12,84.761 78.12,60.562 	"/> <polygon fill="#DFE1E5" points="71.62,46.161 86.32,39.461 86.32,20.261 71.62,30.861 	"/> <polygon fill="#DFE1E5" points="99.221,51.461 98.721,51.161 98.721,77.261 115.42,70.761 115.42,55.761 	"/> <polygon fill="#211D56" points="99.221,80.261 98.721,51.161 77.721,60.661 78.12,60.562 78.12,84.062 	"/> <path fill="#211D56" d="M43.22,22.161l-23,18.4l2.4,13.899c3.5,2,6.9,3.899,10.4,5.8c2.4,1.4,4.9,2.7,7.3,4
		c0.8,0.5,1.7,0.9,2.6,1.4c0.4,0.199,0.8,0.5,1.2,0.6l0,0c0-0.1-0.6-0.5-0.7-0.5c-1.5-1-2.7-2.398-3.3-4.1
		c-0.7-1.801-0.9-3.9-0.6-5.9c3.8-19.5,32.1-6.1,32.1-6.1v-18.8l-4.8-10.601L43.22,22.161z"/> <path fill="#EDC4C2" d="M102.92,32.161l-38.8,17.8l14,11l20.7-9.5l10.5,8.2c-0.801,3.1-2.5,6-5,8.7
		c-2.5,2.699-5.604,4.896-9.104,6.5c-7.5,3.396-15.699,4.396-24.602,2.896c-10.3-1.696-20.5-6.5-30.5-14.3
		c-9.299-7.3-13.799-13.8-13.599-19.5c0.2-5.7,4.2-10.399,11.9-13.899c5-2.301,10.3-3.301,16.2-3.2c5.8,0.1,11.5,1.6,17.101,4.3
		l14.699-10.6c-9.8-5.4-20-8.3-30.5-8.5c-10.5-0.3-21.1,2-31.8,6.9c-8.9,4.101-14.9,8.8-18.1,14.2c-3.2,5.4-3.5,11.6-1,18.5
		c2.5,6.898,8.3,13.896,17.4,21.1c8.9,7,18.6,12.104,29.1,15.4s20.8,4.799,30.796,4.195c10-0.5,19.5-2.801,28.304-6.801
		c7.196-3.299,13.196-7.601,17.897-12.896c4.699-5.302,7.199-10.201,7.603-14.701L102.92,32.161z"/> <path fill="#D2B8B5" d="M128.521,59.062c-1.304-0.803-3.104-1.103-4.9-1.103l-0.2-0.101v0.101l-0.198,0.103
		c-1.699,0.1-3.396,0.5-4.699,1.299c-2.801,1.601-3,4.201-0.301,5.801c2.698,1.5,7.198,1.4,10-0.2
		C131.021,63.161,131.221,60.562,128.521,59.062z"/> <path fill="#E1E7EF" d="M141.021,55.261c-1.701-5-5.701-9.6-11.5-8.5c-4.9,0.9-7.5,4.801-8.201,9.5
		c-0.199,1.802-0.603,4.601,0.601,6.101c0.603,0.802,1.7,1.102,2.7,0.802c1.3-0.399,1.9-1.5,1.699-2.802
		c-0.199-2.398-0.103-5.398,1.601-7.298c1.302-1.5,3.802-1.801,5.5-0.7c2,1.3,3,4.2,3.302,6.399c0.301,2.9,0.301,5.803,0.301,8.7
		c0,6.604-0.197,13.104-0.301,19.701c-0.102,3.104-0.102,6.197-0.396,9.396c-0.104,1.5-0.303,2.897-0.5,4.397
		c-0.2,1.301,0.197,2.5,1.5,3c1.601,0.603,3.3-0.5,3.396-2.101c0.104-0.801,0.104-1.603,0.198-2.399
		c0.399-6.199,0.603-12.397,0.7-18.601c0.199-6.698,0.3-13.5,0-20.199C141.521,58.961,141.62,56.961,141.021,55.261
		C140.021,52.361,142.62,59.961,141.021,55.261z"/> <path d="M9.82,27.461v7c0,0,0.1,2,1.3,2.101c1.2,0,1.9,0.1,2-1.801l0,0v-0.1l0,0v-7.2H9.82z"/> <path fill="#85ACFF" d="M13.12,24.361c-1.2-0.3-2.5-0.4-3.8-0.101l-3.3-0.1v2.6l0,0c-0.1,0.801,0.4,1.7,1.6,2.4
		c2.1,1.2,5.4,1.3,7.3,0.1c0.9-0.5,1.3-1.1,1.4-1.8l0,0v-0.3l0,0v-2.7L13.12,24.361z"/> <path fill="#0000A6" d="M14.82,22.261c-2.1-1.199-5.4-1.3-7.3-0.1c-1.9,1.1-1.8,3,0.2,4.2c2.1,1.2,5.4,1.3,7.3,0.1
		C16.92,25.361,16.82,23.461,14.82,22.261z"/> <path d="M24.32,17.461v7c0,0,0.1,2,1.3,2.101c1.2,0,1.9,0.1,2-1.801l0,0v-0.1l0,0v-7.2H24.32z"/> <path fill="#85ACFF" d="M27.62,14.361c-1.2-0.3-2.5-0.4-3.8-0.1l-3.3-0.1v2.6l0,0c-0.1,0.8,0.4,1.7,1.6,2.4
		c2.1,1.2,5.4,1.3,7.3,0.1c0.9-0.5,1.3-1.1,1.4-1.8l0,0v-0.3l0,0v-2.7L27.62,14.361z"/> <path fill="#0000A6" d="M29.32,12.261c-2.1-1.2-5.4-1.3-7.3-0.1c-1.9,1.1-1.8,3,0.2,4.2c2.1,1.2,5.4,1.3,7.3,0.1
		C31.42,15.361,31.32,13.461,29.32,12.261z"/> <path d="M38.62,9.661v7c0,0,0.1,2,1.3,2.1c1.2,0,1.9,0.101,2-1.8l0,0v-0.1l0,0v-7.2H38.62z"/> <path fill="#85ACFF" d="M41.82,6.661c-1.2-0.3-2.5-0.4-3.8-0.1l-3.2-0.2v2.6l0,0c-0.1,0.8,0.4,1.7,1.6,2.4c2.1,1.2,5.4,1.3,7.3,0.1
		c0.9-0.5,1.3-1.1,1.4-1.8l0,0v-0.3l0,0v-2.7H41.82z"/> <path fill="#0000A6" d="M43.521,4.561c-2.1-1.2-5.4-1.3-7.3-0.1c-1.9,1.1-1.8,3,0.2,4.2c2.1,1.2,5.4,1.3,7.3,0.1
		C45.72,7.661,45.62,5.761,43.521,4.561z"/> </g> <g id="G-g-anim2"> <path fill="#211D56" d="M135.92,57.961c-20.3,21.5-44.398,23.5-71.5,19.3c-34-5.198-35.8-27.8-61.1-36.8
		C-11.68,124.261,149.32,136.261,135.92,57.961z"/> <polygon fill="#E3E5E8" points="64.12,49.661 64.12,80.361 78.12,84.761 78.12,60.562 	"/> <polygon fill="#DFE1E5" points="71.62,46.161 86.32,39.461 86.32,20.261 71.62,30.861 	"/> <polygon fill="#DFE1E5" points="99.221,51.461 98.721,51.161 98.721,77.261 115.42,70.761 115.42,55.761 	"/> <polygon fill="#211D56" points="99.221,80.261 98.721,51.161 77.721,60.661 78.12,60.562 78.12,84.062 	"/> <path fill="#211D56" d="M43.22,22.161l-23,18.4l2.4,13.899c3.5,2,6.9,3.899,10.4,5.8c2.4,1.4,4.9,2.7,7.3,4
		c0.8,0.5,1.7,0.9,2.6,1.4c0.4,0.199,0.8,0.5,1.2,0.6l0,0c0-0.1-0.6-0.5-0.7-0.5c-1.5-1-2.7-2.398-3.3-4.1
		c-0.7-1.801-0.9-3.9-0.6-5.9c3.8-19.5,32.1-6.1,32.1-6.1v-18.8l-4.8-10.601L43.22,22.161z"/> <path fill="#FFD2E2" d="M102.92,32.161l-38.8,17.8l14,11l20.7-9.5l10.5,8.2c-0.801,3.1-2.5,6-5,8.7
		c-2.5,2.699-5.604,4.896-9.104,6.5c-7.5,3.396-15.699,4.396-24.602,2.896c-10.3-1.696-20.5-6.5-30.5-14.3
		c-9.299-7.3-13.799-13.8-13.599-19.5c0.2-5.7,4.2-10.399,11.9-13.899c5-2.301,10.3-3.301,16.2-3.2c5.8,0.1,11.5,1.6,17.101,4.3
		l14.699-10.6c-9.8-5.4-20-8.3-30.5-8.5c-10.5-0.3-21.1,2-31.8,6.9c-8.9,4.101-14.9,8.8-18.1,14.2c-3.2,5.4-3.5,11.6-1,18.5
		c2.5,6.898,8.3,13.896,17.4,21.1c8.9,7,18.6,12.104,29.1,15.4s20.8,4.799,30.796,4.195c10-0.5,19.5-2.801,28.304-6.801
		c7.196-3.299,13.196-7.601,17.897-12.896c4.699-5.302,7.199-10.201,7.603-14.701L102.92,32.161z"/> <path fill="#95FFD9" d="M128.521,59.062c-1.304-0.803-3.104-1.103-4.9-1.103l-0.2-0.101v0.101l-0.198,0.103
		c-1.699,0.1-3.396,0.5-4.699,1.299c-2.801,1.601-3,4.201-0.301,5.801c2.698,1.5,7.198,1.4,10-0.2
		C131.021,63.161,131.221,60.562,128.521,59.062z"/> <path fill="#E1E7EF" d="M141.82,54.062c-2-4.9-6.5-8.4-12.301-7.301c-4.899,0.9-7.5,4.801-8.199,9.5
		c-0.2,1.802-0.6,4.601,0.6,6.101c0.602,0.802,1.7,1.102,2.7,0.802c1.3-0.399,1.899-1.5,1.7-2.802c-0.2-2.398-0.104-5.398,1.6-7.298
		c1.301-1.5,3.5-2.4,5.602-2.101c2.199,0.3,4.604,4.2,5,6.399c0.304,2.898,0.5,3.398,0.804,11.101
		c0.3,6.604,0.396,9.604,0.196,16.201c-0.102,3.104-1.102,7-2.196,10c-0.5,1.396-1.304,4.799-1.5,6.299c-0.2,1.305,0.196,2.5,1.5,3
		c1.601,0.604,3.3-0.5,3.396-2.102c0.104-0.801,0-1.603,0.199-2.398c2.102-6.5,3.4-12,3.5-18.299c0.2-6.701,0-7.201-0.3-13.896
		c-0.101-1.701-0.2-4.804-0.5-6.5C142.62,55.961,142.62,56.161,141.82,54.062z"/> <path d="M9.82,27.461v7c0,0,0.1,2,1.3,2.101c1.2,0,1.9,0.1,2-1.801l0,0v-0.1l0,0v-7.2H9.82z"/> <path fill="#85ACFF" d="M13.32,27.961c-1.2-0.3-2.5-0.399-3.8-0.1l-3.3-0.101v2.601l0,0c-0.1,0.8,0.4,1.7,1.6,2.399
		c2.1,1.2,5.4,1.301,7.3,0.101c0.9-0.5,1.3-1.101,1.4-1.8l0,0V30.76l0,0v-2.699L13.32,27.961z"/> <path fill="#0000A6" d="M15.021,25.861c-2.1-1.2-5.4-1.3-7.3-0.101c-1.9,1.101-1.8,3,0.2,4.2c2.1,1.2,5.4,1.3,7.3,0.101
		C17.22,28.961,17.12,27.062,15.021,25.861z"/> <path d="M24.32,17.461v7c0,0,0.1,2,1.3,2.101c1.2,0,1.9,0.1,2-1.801l0,0v-0.1l0,0v-7.2H24.32z"/> <path fill="#85ACFF" d="M27.82,18.661c-1.2-0.3-2.5-0.4-3.8-0.1l-3.2-0.101v2.601l0,0c-0.1,0.8,0.4,1.699,1.6,2.399
		c2.1,1.2,5.4,1.3,7.3,0.101c0.9-0.5,1.3-1.101,1.4-1.801l0,0v-0.3l0,0v-2.7L27.82,18.661z"/> <path fill="#0000A6" d="M29.521,16.561c-2.1-1.2-5.4-1.3-7.3-0.1c-1.9,1.101-1.8,3,0.2,4.2c2.1,1.2,5.4,1.3,7.3,0.1
		C31.72,19.661,31.62,17.761,29.521,16.561z"/> <path d="M38.62,9.661v7c0,0,0.1,2,1.3,2.1c1.2,0,1.9,0.101,2-1.8l0,0v-0.1l0,0v-7.2H38.62z"/> <path fill="#85ACFF" d="M42.12,12.361c-1.2-0.3-2.5-0.4-3.8-0.1l-3.3-0.1v2.6l0,0c-0.1,0.8,0.4,1.7,1.6,2.4
		c2.1,1.2,5.4,1.3,7.3,0.1c0.9-0.5,1.3-1.1,1.4-1.8l0,0v-0.3l0,0v-2.7L42.12,12.361z"/> <path fill="#0000A6" d="M43.82,10.261c-2.1-1.2-5.4-1.3-7.3-0.1c-1.9,1.1-1.8,3,0.2,4.2c2.1,1.2,5.4,1.3,7.3,0.1
		C45.92,13.361,45.82,11.461,43.82,10.261z"/> </g> </symbol><symbol viewBox="0 0 122.9 160.4" id="shape-M1"><title>M1</title> <g id="M1-m-anim1"> <polygon fill="#635CFF" points="20.4,53.4 38.7,62.5 57,50.4 39.2,41.2 	"/> <polygon fill="#635CFF" points="68.9,20.7 87.201,29.9 105.8,17.4 87.701,8.5 	"/> <polyline fill="#211D56" points="87.201,29.9 68.9,20.7 62.201,63.1 74.9,89.5 87.201,29.9 	"/> <polyline fill="#211D56" points="69.701,115.701 56.3,109.5 55.9,88.4 70.1,112.8 69.701,115.701 	"/> <polyline fill="#211D56" points="99.1,107.5 84.201,100.701 92.3,61.5 99.701,76.201 99.3,107.6 99.3,107.6 	"/> <polygon fill="#211D56" points="38.7,62.5 38.2,151.6 20.6,142.4 20.4,122 20.4,53.4 	"/> <path fill="#D3E0EA" d="M38.4,62.8l-0.2,88.901c0,0,7-3.9,11-7.201c4-3.299,7.2-3.199,7.1-16.299C56.2,115.099,56.2,89.5,56.2,89.5
		l13.5,26.301l14.199-8.896L92.8,65.8l6.2,41.7c0,0,3.9,2.301,7.104-0.299c3.197-2.602,11.5-8.4,11.5-8.4l-11.803-81.397
		l-18.6,12.397L75.4,85.701L57,50.4L38.4,62.8z"/> <polygon fill="#803675" points="103.6,44.8 97.3,49.6 101.5,86.8 107.701,82 	"/> <polygon fill="#4779E6" points="103.1,83 100.8,82 101.701,90.1 104,91.1 	"/> <polygon fill="#4779E6" points="107.4,77.201 100.8,82 103.1,83 109.701,78.201 	"/> <polygon fill="#FFFFFF" points="109.701,78.201 103.1,83 104,91.1 110.6,86.3 	"/> <polygon fill="#FFFFFF" points="20.5,132.9 7.2,139.4 13,143.201 26.3,136.701 	"/> <polygon fill="#3F1FAE" points="7.2,139.4 6.8,146.3 12.6,150.1 13,143.201 	"/> <polygon fill="#4779E6" points="13,143.201 12.6,150.1 25.9,143.6 26.3,136.701 	"/> <polygon fill="#3F1FAE" points="13.4,143.4 13,150.3 18.8,154.1 19.2,147.201 	"/> <polygon fill="#4779E6" points="19.2,147.201 18.8,154.1 32.1,147.6 32.5,140.701 	"/> <polygon fill="#FFFFFF" points="26.7,136.9 13.4,143.5 19.2,147.3 32.5,140.701 	"/> <polygon fill="#3F1FAE" points="19.5,147.6 19.1,154.5 24.9,158.3 25.3,151.4 	"/> <polygon fill="#4779E6" points="25.3,151.4 24.9,158.3 38.2,151.8 38.6,144.9 	"/> <polygon fill="#FFFFFF" points="32.8,141 19.5,147.6 25.3,151.4 38.6,144.9 	"/> </g> <g id="M1-m-anim2"> <polygon fill="#635CFF" points="20.4,53.4 38.7,62.5 57,50.4 39.2,41.2 	"/> <polygon fill="#635CFF" points="68.9,20.7 87.201,29.9 105.8,17.4 87.701,8.5 	"/> <polyline fill="#211D56" points="87.201,29.9 68.9,20.7 62.201,63.1 74.9,89.5 87.201,29.9 	"/> <polyline fill="#211D56" points="69.701,115.701 56.3,109.5 55.9,88.4 70.1,112.8 69.701,115.701 	"/> <polyline fill="#211D56" points="99.1,107.5 84.201,100.701 92.3,61.5 99.701,76.201 99.3,107.6 99.3,107.6 	"/> <polygon fill="#211D56" points="38.7,62.5 38.2,151.6 20.6,142.4 20.4,122 20.4,53.4 	"/> <path fill="#BDEBFF" d="M38.4,62.8l-0.2,88.901c0,0,7-3.9,11-7.201c4-3.299,7.2-3.199,7.1-16.299C56.2,115.099,56.2,89.5,56.2,89.5
		l13.5,26.301l14.199-8.896L92.8,65.8l6.2,41.7c0,0,3.9,2.301,7.104-0.299c3.197-2.602,11.5-8.4,11.5-8.4l-11.803-81.397
		l-18.6,12.397L75.4,85.701L57,50.4L38.4,62.8z"/> <polygon fill="#803675" points="103.6,44.8 97.3,49.6 101.5,86.8 107.701,82 	"/> <polygon fill="#4779E6" points="98.8,49.9 96.5,48.9 97.4,57 99.701,58 	"/> <polygon fill="#4779E6" points="103,44.1 96.5,48.9 98.8,49.9 105.4,45.1 	"/> <polygon fill="#FFFFFF" points="105.4,45.1 98.8,49.9 99.701,58 106.3,53.1 	"/> <polygon fill="#F4ABAB" points="20.5,132.9 7.2,139.4 13,143.201 26.3,136.701 	"/> <polygon fill="#3F1FAE" points="7.2,139.4 6.8,146.3 12.6,150.1 13,143.201 	"/> <polygon fill="#4779E6" points="13,143.201 12.6,150.1 25.9,143.6 26.3,136.701 	"/> <polygon fill="#3F1FAE" points="13.2,145.701 13,150.3 18.8,154.1 19,149.5 	"/> <polygon fill="#4779E6" points="19,149.6 18.8,154.1 32.1,147.6 32.3,143.1 	"/> <polygon fill="#F4ABAB" points="26.6,139.3 13.2,145.8 19,149.6 32.3,143.1 	"/> <polygon fill="#3F1FAE" points="19.2,151.6 19.1,154.5 24.9,158.3 25,155.4 	"/> <polygon fill="#4779E6" points="25,155.4 24.9,158.3 38.2,151.8 38.3,148.9 	"/> <polygon fill="#F4ABAB" points="32.5,145.1 19.2,151.701 24.9,155.5 38.3,149 	"/> </g> </symbol><symbol viewBox="0 0 138 184" id="shape-M2"><title>M2</title> <g id="M2-m2-anim1"> <polygon fill="#EDC49A" points="101.999,55.374 83.699,64.475 65.398,52.374 83.199,43.174 	"/> <polygon fill="#EDC49A" points="53.499,22.674 35.199,31.874 16.599,19.374 34.699,10.474 	"/> <polyline fill="#211D56" points="35.199,31.874 53.499,22.674 60.199,65.074 47.499,91.475 35.199,31.874 	"/> <polyline fill="#211D56" points="52.699,117.674 66.1,111.475 66.499,90.374 52.299,114.773 52.699,117.674 	"/> <polyline fill="#211D56" points="23.299,109.475 38.199,102.674 29.999,63.475 22.599,78.174 23.099,109.574 23.099,109.574 	"/> <polygon fill="#211D56" points="83.699,64.475 84.199,153.574 101.799,144.373 101.999,124.074 101.999,55.374 	"/> <path fill="#D1F4D0" d="M83.999,64.774l0.2,88.898c0,0-7-3.898-11-7.197c-4-3.303-7.2-3.201-7.102-16.303
		c0.102-13.1,0.102-38.697,0.102-38.697l-13.5,26.298l-14.2-8.898l-8.899-41.1l-6.199,41.7c0,0-3.9,2.299-7.103-0.303
		c-3.198-2.6-11.5-8.398-11.5-8.398L16.6,19.375l18.601,12.4L47,87.673l18.4-35.3L83.999,64.774z"/> <path id="M2-_x3C_Path_x3E__5_" fill="#3C3C82" d="M103.999,158.674c2,1.4,3.104,2.199,3.8,2.604l-5.5,5.699c0,0-9.3,6.801-13.1-0.803
		c-3.5-6.801-5.102-12.396-6.602-19.896c-1.804-8.5-1.699-24.698-1.604-30.604l-0.102-0.1l0.102-1.301c0-0.5,0-0.801,0-0.801l0,0
		l3.199-49.303l0.9-0.399l1.5,51.899l-2.104,2c-0.301,9.303-0.102,17.198,3.8,26.198C91.199,150.475,97.1,153.773,103.999,158.674z
		 M108.199,160.873l-0.4,0.4C109.6,162.273,108.199,160.873,108.199,160.873z"/> <path fill="#211D56" d="M113.6,147.773c-0.5-8.399-16.699,1.802-22.603-7c-6-8.899-4.8-17.5-4.397-24.899h4.397l-4.2-53l-2.6,1.3
		l-0.5,51.699c0,0-0.5,17.604,3.1,25.9c3,6.896,5.303,12.1,12.2,17c6.897,4.896,6.7,4.699,6.7,4.699l5.5-5.104
		C111.199,158.373,113.999,153.873,113.6,147.773z"/> <path fill="#D1F4D0" d="M101.499,142.373c-6.8,3.4-12.8,12.301-13.3,19.9c-0.5,7.599,4.699,11,11.5,7.6
		c6.8-3.396,12.8-12.299,13.3-19.896C113.499,142.475,108.299,138.975,101.499,142.373z"/> <path fill="#FFFFFF" d="M102.699,142.975c-6.801,3.397-12.801,12.301-13.301,19.897c-0.5,7.603,4.699,11,11.5,7.701
		c6.801-3.4,12.801-12.302,13.301-19.9C114.6,143.074,109.499,139.674,102.699,142.975z"/> <path fill="#81EFA3" d="M102.499,145.873c-5.396,2.701-10.101,9.801-10.5,15.801c-0.396,6,3.7,8.803,9.104,6.104
		c5.396-2.699,10.194-9.801,10.498-15.801C111.999,145.873,107.898,143.174,102.499,145.873z"/> <path fill="#0D1B42" d="M100.898,146.674c-3.604,1.803-6.801,6.5-7,10.5c-0.301,4,2.5,5.803,6.101,4c3.604-1.801,6.8-6.5,7-10.5
		C107.199,146.773,104.499,144.873,100.898,146.674z"/> <path fill="#FFFFFF" d="M87.398,135.873l2.601-1.896l-1.397-1.898l-2.699,1.896l0,0c-0.199,0.104-0.301,0.301-0.301,0.699
		c0.102,0.602,0.602,1.198,1.102,1.399C86.999,136.074,87.1,136.074,87.398,135.873L87.398,135.873L87.398,135.873
		C87.299,135.975,87.398,135.975,87.398,135.873z"/> <path fill="#47797F" d="M92.499,135.574l1-0.801l-0.601-0.699c0-0.102,0-0.201,0-0.301c-0.301-1.604-1.699-3.4-3.104-3.9
		c-0.101,0-0.196-0.1-0.396-0.1l-0.399-0.5l-0.8,0.699l0,0c-0.5,0.301-0.7,1-0.602,1.896c0.301,1.604,1.696,3.399,3.102,3.899
		c0.6,0.197,1.199,0.197,1.5-0.104l0,0L92.499,135.574L92.499,135.574z"/> <path fill="#0D1B42" d="M93.898,132.975c-0.301-1.603-1.699-3.396-3.104-3.896c-1.396-0.5-2.396,0.299-2.101,2
		c0.301,1.602,1.699,3.396,3.101,3.896C93.199,135.475,94.199,134.674,93.898,132.975z"/> <path fill="#FFFFFF" d="M91.398,143.273l2.601-1.899l-1.397-1.897l-2.699,1.896l0,0c-0.199,0.104-0.301,0.301-0.301,0.701
		c0.102,0.6,0.602,1.199,1.102,1.398C90.999,143.475,91.1,143.475,91.398,143.273L91.398,143.273L91.398,143.273
		C91.299,143.373,91.398,143.273,91.398,143.273z"/> <path fill="#47797F" d="M96.499,142.975l1-0.802l-0.601-0.698c0-0.103,0-0.199,0-0.302c-0.301-1.6-1.699-3.397-3.104-3.897
		c-0.101,0-0.196-0.103-0.396-0.103l-0.399-0.5l-0.8,0.699l0,0c-0.5,0.301-0.7,1-0.602,1.899c0.301,1.601,1.696,3.397,3.102,3.897
		c0.6,0.198,1.199,0.198,1.5-0.103l0,0L96.499,142.975L96.499,142.975z"/> <path fill="#0D1B42" d="M97.898,140.373c-0.301-1.6-1.699-3.396-3.104-3.896c-1.396-0.5-2.396,0.301-2.101,2
		c0.301,1.603,1.699,3.396,3.101,3.896C97.199,142.873,98.199,141.975,97.898,140.373z"/> </g> <g id="M2-m2-anim2"> <polygon fill="#EDC49A" points="101.999,55.374 83.699,64.475 65.398,52.374 83.199,43.174 	"/> <polygon fill="#EDC49A" points="53.499,22.674 35.199,31.874 16.599,19.374 34.699,10.474 	"/> <polyline fill="#211D56" points="35.199,31.874 53.499,22.674 60.199,65.074 47.499,91.475 35.199,31.874 	"/> <polyline fill="#211D56" points="52.699,117.674 66.1,111.475 66.499,90.374 52.299,114.773 52.699,117.674 	"/> <polyline fill="#211D56" points="23.299,109.475 38.199,102.674 29.999,63.475 22.599,78.174 23.099,109.574 23.099,109.574 	"/> <polygon fill="#211D56" points="83.699,64.475 84.199,153.574 101.799,144.373 101.999,124.074 101.999,55.374 	"/> <path fill="#B6F9AF" d="M83.999,64.774l0.2,88.898c0,0-7-3.898-11-7.197c-4-3.303-7.2-3.201-7.102-16.303
		c0.102-13.1,0.102-38.697,0.102-38.697l-13.5,26.298l-14.2-8.898l-8.899-41.1l-6.199,41.7c0,0-3.9,2.299-7.103-0.303
		c-3.198-2.6-11.5-8.398-11.5-8.398L16.6,19.375l18.601,12.4L47,87.673l18.4-35.3L83.999,64.774z"/> <path id="M2-_x3C_Path_x3E__1_" fill="#3C3C82" d="M103.999,158.674c2,1.4,3.104,2.199,3.8,2.604l-5.5,5.699c0,0-9.3,6.801-13.1-0.803
		c-3.5-6.801-5.102-12.396-6.602-19.896c-1.804-8.5-1.699-24.698-1.604-30.604l-0.102-0.1l0.102-1.301c0-0.5,0-0.801,0-0.801l0,0
		l3.199-49.303l0.9-0.399l1.5,51.899l-2.104,2c-0.301,9.303-0.102,17.198,3.8,26.198C91.199,150.475,97.1,153.773,103.999,158.674z
		 M108.199,160.873l-0.4,0.4C109.6,162.273,108.199,160.873,108.199,160.873z"/> <path fill="#211D56" d="M113.6,147.773c-0.5-8.399-16.699,1.802-22.603-7c-6-8.899-4.8-17.5-4.397-24.899h4.397l-4.2-53l-2.6,1.3
		l-0.5,51.699c0,0-0.5,17.604,3.1,25.9c3,6.896,5.303,12.1,12.2,17c6.897,4.896,6.7,4.699,6.7,4.699l5.5-5.104
		C111.199,158.373,113.999,153.873,113.6,147.773z"/> <path fill="#D1F4D0" d="M101.6,138.975c-8.397,4.198-15.803,15.301-16.397,24.604c-0.603,9.396,5.8,13.602,14.198,9.5
		c8.396-4.201,15.802-15.303,16.396-24.604C116.398,139.074,109.999,134.873,101.6,138.975z"/> <path fill="#FFFFFF" d="M102.999,139.873c-8.397,4.201-15.8,15.301-16.397,24.604c-0.604,9.396,5.801,13.603,14.196,9.5
		c8.4-4.199,15.804-15.303,16.4-24.604C117.799,139.873,111.398,135.674,102.999,139.873z"/> <path fill="#AAEDA6" d="M102.799,143.273c-6.695,3.302-12.6,12.101-13,19.601c-0.5,7.5,4.604,10.802,11.305,7.5
		c6.695-3.299,12.601-12.101,13-19.601C114.6,143.373,109.499,139.975,102.799,143.273z"/> <path fill="#0D1B42" d="M100.898,146.674c-3.604,1.803-6.801,6.5-7,10.5c-0.301,4,2.5,5.803,6.101,4c3.604-1.801,6.8-6.5,7-10.5
		C107.199,146.773,104.499,144.873,100.898,146.674z"/> <path fill="#FFFFFF" d="M87.398,135.873l2.601-1.896l-1.397-1.898l-2.699,1.896l0,0c-0.199,0.104-0.301,0.301-0.301,0.699
		c0.102,0.602,0.602,1.198,1.102,1.399C86.999,136.074,87.1,136.074,87.398,135.873L87.398,135.873L87.398,135.873
		C87.299,135.975,87.398,135.975,87.398,135.873z"/> <path fill="#47797F" d="M89.499,136.975l1-0.802l-0.601-0.698c0-0.103,0-0.199,0-0.302c-0.301-1.6-1.699-3.397-3.104-3.897
		c-0.101,0-0.196-0.103-0.396-0.103l-0.399-0.5l-0.8,0.699l0,0c-0.5,0.301-0.7,1-0.602,1.899c0.301,1.601,1.696,3.397,3.102,3.897
		c0.6,0.198,1.199,0.198,1.5-0.103l0,0L89.499,136.975L89.499,136.975z"/> <path fill="#3FB9AE" d="M90.999,134.373c-0.3-1.6-1.7-3.396-3.101-3.896c-1.399-0.5-2.399,0.301-2.104,2
		c0.304,1.603,1.7,3.396,3.104,3.896C90.299,136.873,91.199,135.975,90.999,134.373z"/> <path fill="#FFFFFF" d="M91.398,143.273l2.601-1.899l-1.397-1.897l-2.699,1.896l0,0c-0.199,0.104-0.301,0.301-0.301,0.701
		c0.102,0.6,0.602,1.199,1.102,1.398C90.999,143.475,91.1,143.475,91.398,143.273L91.398,143.273L91.398,143.273
		C91.299,143.373,91.398,143.273,91.398,143.273z"/> <path fill="#47797F" d="M95.199,143.574l1-0.801l-0.602-0.699c0-0.102,0-0.201,0-0.301c-0.304-1.604-1.699-3.4-3.104-3.9
		c-0.102,0-0.2-0.1-0.396-0.1l-0.398-0.5l-0.801,0.699l0,0c-0.5,0.301-0.699,1-0.604,1.896c0.304,1.604,1.7,3.399,3.104,3.899
		c0.601,0.197,1.199,0.197,1.5-0.104l0,0L95.199,143.574L95.199,143.574z"/> <path fill="#3FB9AE" d="M96.6,140.975c-0.302-1.603-1.699-3.397-3.102-3.897c-1.396-0.5-2.396,0.299-2.102,2
		c0.302,1.6,1.698,3.396,3.102,3.896C95.898,143.475,96.898,142.574,96.6,140.975z"/> </g> </symbol></svg>