<svg xmlns="http://www.w3.org/2000/svg"><symbol viewBox="0 0 212 219.6538" id="shape-C-01"><title>C</title>  <g id="C-01-c-anim1"> <path d="M78.0996,179.562a0.21746,0.21746,0,0,1-.1392.0996C77.9404,179.5815,77.9985,179.5561,78.0996,179.562Z" style="fill: #e2c000"/> <path d="M151.4663,146.0766l-53.2315,7.9268s-18.4223,23.916-20.1342,25.5586a12.99439,12.99439,0,0,1,2.4926,1.0811s45.3038-6.7422,45.4288-7.2403c0.125-.5019,13.8935-0.5019,20.2724-9.0127a64.64534,64.64534,0,0,0,9.0742-16.751Z" style="fill: #e2c000"/> <rect x="92.024" y="141.28557" width="6.13231" height="19.46297" transform="translate(270.16991 116.44296) rotate(111.02636)" style="fill: #feffff"/> <rect x="100.2098" y="141.55317" width="61.50131" height="11.04685" transform="translate(-22.76292 23.98602) rotate(-9.63215)" style="fill: #feffff"/> <path d="M104.49437,104.0366a21.49,21.49,0,0,0-.41044-4.499,19.87781,19.87781,0,0,1,0-7.4229,21.47848,21.47848,0,0,0,.41044-4.498,0.83193,0.83193,0,0,0-.10707-0.5635,0.83314,0.83314,0,0,0-.10706.5635,17.24388,17.24388,0,0,1-.34956,3.7109,24.85809,24.85809,0,0,0,0,8.9971,19.87728,19.87728,0,0,1,0,7.4228,24.85809,24.85809,0,0,0,0,8.9971,19.90861,19.90861,0,0,1,0,7.4287,24.86357,24.86357,0,0,0,0,8.9981,19.924,19.924,0,0,1,0,7.4316,24.88989,24.88989,0,0,0,0,9.0029,17.30478,17.30478,0,0,1,.34956,3.7178,0.82933,0.82933,0,0,0,.10706.5625,0.83,0.83,0,0,0,.10707-0.5625,21.52727,21.52727,0,0,0-.41044-4.5029,19.92934,19.92934,0,0,1,0-7.4326,24.89044,24.89044,0,0,0,0-9.003,19.898,19.898,0,0,1,0-7.4267,24.86851,24.86851,0,0,0,0-8.999,19.89321,19.89321,0,0,1,0-7.4258A21.46022,21.46022,0,0,0,104.49437,104.0366Z"/> <path d="M110.67151,102.4546a21.49037,21.49037,0,0,0-.41042-4.499,19.87675,19.87675,0,0,1,0-7.4229,21.4796,21.4796,0,0,0,.41042-4.498,0.83177,0.83177,0,0,0-.107-0.5635,0.8333,0.8333,0,0,0-.10688.5635,17.25618,17.25618,0,0,1-.34958,3.7109,24.85922,24.85922,0,0,0,0,8.9971,19.87622,19.87622,0,0,1,0,7.4228,24.85922,24.85922,0,0,0,0,8.9971,19.90755,19.90755,0,0,1,0,7.4287,24.86964,24.86964,0,0,0,0,8.999,19.91817,19.91817,0,0,1,0,7.4307,24.891,24.891,0,0,0,0,9.0029,17.315,17.315,0,0,1,.34958,3.7178,0.8297,0.8297,0,0,0,.10688.5625,0.83029,0.83029,0,0,0,.107-0.5625,21.51012,21.51012,0,0,0-.41042-4.502,19.93359,19.93359,0,0,1,0-7.4336,24.88005,24.88005,0,0,0,0-9.0009,19.90755,19.90755,0,0,1,0-7.4287,24.87019,24.87019,0,0,0,0-8.9991,19.88684,19.88684,0,0,1,0-7.4248A21.47881,21.47881,0,0,0,110.67151,102.4546Z"/> <path d="M117.45867,101.4536a21.49,21.49,0,0,0-.41044-4.499,19.87781,19.87781,0,0,1,0-7.4229,21.47848,21.47848,0,0,0,.41044-4.498,0.83193,0.83193,0,0,0-.10706-0.5635,0.83351,0.83351,0,0,0-.10688.5635,17.25618,17.25618,0,0,1-.34958,3.7109,24.85922,24.85922,0,0,0,0,8.9971,19.87622,19.87622,0,0,1,0,7.4228,24.85922,24.85922,0,0,0,0,8.9971,19.90224,19.90224,0,0,1,0,7.4277,24.87512,24.87512,0,0,0,0,9,19.91817,19.91817,0,0,1,0,7.4307,24.891,24.891,0,0,0,0,9.0029,17.31567,17.31567,0,0,1,.34958,3.7178,0.8297,0.8297,0,0,0,.10688.5625,0.83,0.83,0,0,0,.10706-0.5625,21.50784,21.50784,0,0,0-.41044-4.5019,19.93465,19.93465,0,0,1,0-7.4336,24.87947,24.87947,0,0,0,0-9.001,19.90861,19.90861,0,0,1,.00019-7.4297,24.86869,24.86869,0,0,0-.00019-8.998,19.88843,19.88843,0,0,1,0-7.4249A21.47769,21.47769,0,0,0,117.45867,101.4536Z"/> <path d="M123.78147,100.063a21.49536,21.49536,0,0,0-.41044-4.4981,19.87728,19.87728,0,0,1,0-7.4228,21.483,21.483,0,0,0,.41044-4.499,0.83,0.83,0,0,0-.10706-0.5625,0.83,0.83,0,0,0-.10707.5625,17.23433,17.23433,0,0,1-.34956,3.7119,24.85754,24.85754,0,0,0,0,8.997,19.87781,19.87781,0,0,1,0,7.4229,24.85809,24.85809,0,0,0,0,8.9971,19.90861,19.90861,0,0,1,0,7.4287,24.8685,24.8685,0,0,0,0,8.999,19.91393,19.91393,0,0,1,0,7.4297,24.89537,24.89537,0,0,0,0,9.0039,17.28261,17.28261,0,0,1,.34956,3.7158,0.82981,0.82981,0,0,0,.10707.5635,0.83193,0.83193,0,0,0,.10706-0.5635,21.49822,21.49822,0,0,0-.41044-4.501,19.93466,19.93466,0,0,1,0-7.4336,24.87892,24.87892,0,0,0,0-9.0009,19.90861,19.90861,0,0,1,0-7.4287,24.86357,24.86357,0,0,0,0-8.9981,19.8879,19.8879,0,0,1,0-7.4248A21.4979,21.4979,0,0,0,123.78147,100.063Z"/> <path d="M130.44751,99.2212a21.48916,21.48916,0,0,0-.41042-4.4981,19.87622,19.87622,0,0,1,0-7.4228,21.48462,21.48462,0,0,0,.41042-4.499,0.82991,0.82991,0,0,0-.10707-0.5625,0.83008,0.83008,0,0,0-.107.5625,17.23409,17.23409,0,0,1-.34958,3.7119,24.85868,24.85868,0,0,0,0,8.997,19.87675,19.87675,0,0,1,0,7.4229,24.85922,24.85922,0,0,0,0,8.9971,19.90224,19.90224,0,0,1,0,7.4277,24.86964,24.86964,0,0,0,0,8.999,19.91817,19.91817,0,0,1,0,7.4307,24.891,24.891,0,0,0,0,9.0029,17.28657,17.28657,0,0,1,.34958,3.7168,0.82818,0.82818,0,0,0,.107.5625,0.82991,0.82991,0,0,0,.10707-0.5625,21.51737,21.51737,0,0,0-.41042-4.5019,19.92881,19.92881,0,0,1,0-7.4327,24.87511,24.87511,0,0,0,0-9,19.91233,19.91233,0,0,1,0-7.4296,24.8647,24.8647,0,0,0,0-8.9981,19.88683,19.88683,0,0,1,0-7.4248A21.4917,21.4917,0,0,0,130.44751,99.2212Z"/> <path d="M136.58067,97.728a21.49376,21.49376,0,0,0-.41042-4.498,19.87675,19.87675,0,0,1,0-7.4229,21.48251,21.48251,0,0,0,.41042-4.499,0.82991,0.82991,0,0,0-.10707-0.5625,0.83173,0.83173,0,0,0-.10688.5625A17.2319,17.2319,0,0,1,136.017,85.02a24.86941,24.86941,0,0,0,0,8.9971,19.86667,19.86667,0,0,1,0,7.4228,24.86941,24.86941,0,0,0,0,8.9971,19.90329,19.90329,0,0,1,0,7.4297,24.87435,24.87435,0,0,0,0,8.998,19.90861,19.90861,0,0,1,0,7.4307,24.90671,24.90671,0,0,0,0,9.0039,17.2809,17.2809,0,0,1,.34975,3.7158,0.83151,0.83151,0,0,0,.10688.5635,0.83181,0.83181,0,0,0,.10707-0.5635,21.49856,21.49856,0,0,0-.41042-4.501,19.93306,19.93306,0,0,1,0-7.4335,24.88609,24.88609,0,0,0,0-9.002,19.90223,19.90223,0,0,1,0-7.4277,24.87018,24.87018,0,0,0,0-8.9991,19.88683,19.88683,0,0,1,0-7.4248A21.49037,21.49037,0,0,0,136.58067,97.728Z"/> <path d="M102.6147,92.6528L89.5986,88.2739S85.8447,74.0044,75.8315,66.9985c-10.0132-7.0117-15.769-6.3867-20.3989-2.8789-12.5762,9.5176-14.2891,27.4863-12.9932,42.044a119.96433,119.96433,0,0,0,2.5074,16.6904,81.95222,81.95222,0,0,0,6.9018,18.9062c5.1987,9.8995,10.8237,19.1465,22.9859,20.0157a11.71443,11.71443,0,0,0,6.5039-1.167c3.0039-1.502,7.2592-5.7549,8.0122-8.1338l13.2641,4.7558s-2.8799,11.8907-8.1357,16.3965c-5.2554,4.5059-12.5147,8.8867-21.1494,6.5078-12.5943-3.4677-22.3262-13.7031-28.5059-24.8369a115.09386,115.09386,0,0,1-13.4131-43.0752c-0.5351-5.292-.7119-10.622-0.7412-15.9365-0.0449-7.5537.293-15.2949,2.1113-22.6562A57.57727,57.57727,0,0,1,42.7925,52.105c3.7539-5.1289,12.0752-11.4668,20.2422-8.9873,8.1669,2.4775,16.998,8.3418,22.2089,15.6006,5.21,7.2578,16.7461,24.1738,17.2461,33.3095" style="fill: #6390ff"/> <path d="M130.0239,39.7417a28.55659,28.55659,0,0,0-21.9004-6.1338L57.1074,42.56c31.9131,2.127,45.5083,50.4952,45.5083,50.4952l52.6895-9.3858C151.0483,64.52,140.1597,48.1274,130.0239,39.7417Z" style="fill: #e2c000"/> </g> <g id="C-01-c-anim2"> <path d="M78.0996,179.562a0.21746,0.21746,0,0,1-.1392.0996C77.9404,179.5815,77.9985,179.5561,78.0996,179.562Z" style="fill: #e2c000"/> <path d="M151.4663,146.0766l-53.2315,7.9268s-18.4223,23.916-20.1342,25.5586a12.99439,12.99439,0,0,1,2.4926,1.0811s45.3038-6.7422,45.4288-7.2403c0.125-.5019,13.8935-0.5019,20.2724-9.0127a64.64534,64.64534,0,0,0,9.0742-16.751Z" style="fill: #e2c000"/> <rect x="92.024" y="141.28557" width="6.13231" height="19.46297" transform="translate(270.16991 116.44296) rotate(111.02636)" style="fill: #feffff"/> <rect x="100.2098" y="141.55317" width="61.50131" height="11.04685" transform="translate(-22.76292 23.98602) rotate(-9.63215)" style="fill: #feffff"/> <path d="M106.5708,104.0366a5.941,5.941,0,0,0-2.1602-4.499,4.66348,4.66348,0,0,1,0-7.4229,5.9387,5.9387,0,0,0,2.1602-4.498,0.5635,0.5635,0,1,0-1.127,0,4.81982,4.81982,0,0,1-1.8398,3.7109,5.76415,5.76415,0,0,0,0,8.9971,4.66337,4.66337,0,0,1,0,7.4228,5.76415,5.76415,0,0,0,0,8.9971,4.66933,4.66933,0,0,1,0,7.4287,5.76519,5.76519,0,0,0,0,8.9981,4.67226,4.67226,0,0,1,0,7.4316,5.77019,5.77019,0,0,0,0,9.0029,4.8313,4.8313,0,0,1,1.8398,3.7178,0.5635,0.5635,0,0,0,1.127,0,5.94805,5.94805,0,0,0-2.1602-4.5029,4.67327,4.67327,0,0,1,0-7.4326,5.77029,5.77029,0,0,0,0-9.003,4.66731,4.66731,0,0,1,0-7.4267,5.76612,5.76612,0,0,0,0-8.999,4.6664,4.6664,0,0,1,0-7.4258A5.93491,5.93491,0,0,0,106.5708,104.0366Z"/> <path d="M112.7475,102.4546a5.94091,5.94091,0,0,0-2.1601-4.499,4.66332,4.66332,0,0,1,0-7.4229,5.93882,5.93882,0,0,0,2.1601-4.498,0.563,0.563,0,1,0-1.1259,0,4.823,4.823,0,0,1-1.8399,3.7109,5.76431,5.76431,0,0,0,0,8.9971,4.66322,4.66322,0,0,1,0,7.4228,5.76431,5.76431,0,0,0,0,8.9971,4.66917,4.66917,0,0,1,0,7.4287,5.76629,5.76629,0,0,0,0,8.999,4.67119,4.67119,0,0,1,0,7.4307,5.77035,5.77035,0,0,0,0,9.0029,4.834,4.834,0,0,1,1.8399,3.7178,0.563,0.563,0,0,0,1.1259,0,5.94438,5.94438,0,0,0-2.1601-4.502,4.67412,4.67412,0,0,1,0-7.4336,5.76827,5.76827,0,0,0,0-9.0009,4.66917,4.66917,0,0,1,0-7.4287,5.7664,5.7664,0,0,0,0-8.9991,4.66524,4.66524,0,0,1,0-7.4248A5.93864,5.93864,0,0,0,112.7475,102.4546Z"/> <path d="M119.5347,101.4536a5.941,5.941,0,0,0-2.1602-4.499,4.66348,4.66348,0,0,1,0-7.4229,5.9387,5.9387,0,0,0,2.1602-4.498,0.563,0.563,0,1,0-1.126,0,4.823,4.823,0,0,1-1.8399,3.7109,5.76431,5.76431,0,0,0,0,8.9971,4.66322,4.66322,0,0,1,0,7.4228,5.76431,5.76431,0,0,0,0,8.9971,4.66817,4.66817,0,0,1,0,7.4277,5.76733,5.76733,0,0,0,0,9,4.67119,4.67119,0,0,1,0,7.4307,5.77035,5.77035,0,0,0,0,9.0029,4.83418,4.83418,0,0,1,1.8399,3.7178,0.563,0.563,0,0,0,1.126,0,5.944,5.944,0,0,0-2.1602-4.5019,4.67428,4.67428,0,0,1,0-7.4336,5.76821,5.76821,0,0,0,0-9.001,4.66957,4.66957,0,0,1,.001-7.4297,5.76592,5.76592,0,0,0-.001-8.998,4.66549,4.66549,0,0,1,0-7.4249A5.93853,5.93853,0,0,0,119.5347,101.4536Z"/> <path d="M125.8579,100.063a5.94243,5.94243,0,0,0-2.1602-4.4981,4.66337,4.66337,0,0,1,0-7.4228,5.93939,5.93939,0,0,0,2.1602-4.499,0.5635,0.5635,0,0,0-1.127,0,4.81736,4.81736,0,0,1-1.8398,3.7119,5.764,5.764,0,0,0,0,8.997,4.66348,4.66348,0,0,1,0,7.4229,5.76415,5.76415,0,0,0,0,8.9971,4.66933,4.66933,0,0,1,0,7.4287,5.76612,5.76612,0,0,0,0,8.999,4.67034,4.67034,0,0,1,0,7.4297,5.77123,5.77123,0,0,0,0,9.0039,4.827,4.827,0,0,1,1.8398,3.7158,0.5635,0.5635,0,0,0,1.127,0,5.94217,5.94217,0,0,0-2.1602-4.501,4.67428,4.67428,0,0,1,0-7.4336,5.7681,5.7681,0,0,0,0-9.0009,4.66933,4.66933,0,0,1,0-7.4287,5.76519,5.76519,0,0,0,0-8.9981,4.66539,4.66539,0,0,1,0-7.4248A5.94272,5.94272,0,0,0,125.8579,100.063Z"/> <path d="M132.5239,99.2212a5.941,5.941,0,0,0-2.1601-4.4981,4.66322,4.66322,0,0,1,0-7.4228,5.93966,5.93966,0,0,0,2.1601-4.499,0.56345,0.56345,0,0,0-1.1269,0,4.81744,4.81744,0,0,1-1.8399,3.7119,5.76421,5.76421,0,0,0,0,8.997,4.66332,4.66332,0,0,1,0,7.4229,5.76431,5.76431,0,0,0,0,8.9971,4.66816,4.66816,0,0,1,0,7.4277,5.76629,5.76629,0,0,0,0,8.999,4.67119,4.67119,0,0,1,0,7.4307,5.77035,5.77035,0,0,0,0,9.0029,4.82767,4.82767,0,0,1,1.8399,3.7168,0.56345,0.56345,0,0,0,1.1269,0,5.946,5.946,0,0,0-2.1601-4.5019,4.67321,4.67321,0,0,1,0-7.4327,5.76733,5.76733,0,0,0,0-9,4.67008,4.67008,0,0,1,0-7.4296,5.76535,5.76535,0,0,0,0-8.9981,4.66524,4.66524,0,0,1,0-7.4248A5.94124,5.94124,0,0,0,132.5239,99.2212Z"/> <path d="M138.6567,97.728a5.942,5.942,0,0,0-2.1601-4.498,4.66332,4.66332,0,0,1,0-7.4229,5.93916,5.93916,0,0,0,2.1601-4.499,0.563,0.563,0,0,0-1.126,0,4.81815,4.81815,0,0,1-1.8408,3.7119,5.76582,5.76582,0,0,0,0,8.9971,4.66184,4.66184,0,0,1,0,7.4228,5.76582,5.76582,0,0,0,0,8.9971,4.6688,4.6688,0,0,1,0,7.4297,5.76675,5.76675,0,0,0,0,8.998,4.66981,4.66981,0,0,1,0,7.4307,5.7729,5.7729,0,0,0,0,9.0039,4.82791,4.82791,0,0,1,1.8408,3.7158,0.563,0.563,0,1,0,1.126,0,5.94211,5.94211,0,0,0-2.1601-4.501,4.674,4.674,0,0,1,0-7.4335,5.76942,5.76942,0,0,0,0-9.002,4.66816,4.66816,0,0,1,0-7.4277,5.7664,5.7664,0,0,0,0-8.9991,4.66524,4.66524,0,0,1,0-7.4248A5.94091,5.94091,0,0,0,138.6567,97.728Z"/> <path d="M102.6147,92.6528L89.5986,88.2739S85.8447,74.0044,75.8315,66.9985c-10.0132-7.0117-15.769-6.3867-20.3989-2.8789-12.5762,9.5176-14.2891,27.4863-12.9932,42.044a119.96433,119.96433,0,0,0,2.5074,16.6904,81.95222,81.95222,0,0,0,6.9018,18.9062c5.1987,9.8995,10.8237,19.1465,22.9859,20.0157a11.71443,11.71443,0,0,0,6.5039-1.167c3.0039-1.502,7.2592-5.7549,8.0122-8.1338l13.2641,4.7558s-2.8799,11.8907-8.1357,16.3965c-5.2554,4.5059-12.5147,8.8867-21.1494,6.5078-12.5943-3.4677-22.3262-13.7031-28.5059-24.8369a115.09386,115.09386,0,0,1-13.4131-43.0752c-0.5351-5.292-.7119-10.622-0.7412-15.9365-0.0449-7.5537.293-15.2949,2.1113-22.6562A57.57727,57.57727,0,0,1,42.7925,52.105c3.7539-5.1289,12.0752-11.4668,20.2422-8.9873,8.1669,2.4775,16.998,8.3418,22.2089,15.6006,5.21,7.2578,16.7461,24.1738,17.2461,33.3095" style="fill: #6390ff"/> <path d="M130.0239,39.7417a28.55659,28.55659,0,0,0-21.9004-6.1338L57.1074,42.56c31.9131,2.127,45.5083,50.4952,45.5083,50.4952l52.6895-9.3858C151.0483,64.52,140.1597,48.1274,130.0239,39.7417Z" style="fill: #e2c000"/> </g> </symbol><symbol viewBox="0 0 212 219.6538" id="shape-C"><title>C</title>  <g id="C-c-anim1"> <path d="M78.0996,179.562a0.21746,0.21746,0,0,1-.1392.0996C77.9404,179.5815,77.9985,179.5561,78.0996,179.562Z" style="fill: #e2c000"/> <path d="M151.4663,146.0766l-53.2315,7.9268s-18.4223,23.916-20.1342,25.5586a12.99439,12.99439,0,0,1,2.4926,1.0811s45.3038-6.7422,45.4288-7.2403c0.125-.5019,13.8935-0.5019,20.2724-9.0127a64.64534,64.64534,0,0,0,9.0742-16.751Z" style="fill: #e2c000"/> <rect x="92.024" y="141.28557" width="6.13231" height="19.46297" transform="translate(270.16991 116.44296) rotate(111.02636)" style="fill: #feffff"/> <rect x="100.2098" y="141.55317" width="61.50131" height="11.04685" transform="translate(-22.76292 23.98602) rotate(-9.63215)" style="fill: #feffff"/> <path d="M104.49437,104.0366a21.49,21.49,0,0,0-.41044-4.499,19.87781,19.87781,0,0,1,0-7.4229,21.47848,21.47848,0,0,0,.41044-4.498,0.83193,0.83193,0,0,0-.10707-0.5635,0.83314,0.83314,0,0,0-.10706.5635,17.24388,17.24388,0,0,1-.34956,3.7109,24.85809,24.85809,0,0,0,0,8.9971,19.87728,19.87728,0,0,1,0,7.4228,24.85809,24.85809,0,0,0,0,8.9971,19.90861,19.90861,0,0,1,0,7.4287,24.86357,24.86357,0,0,0,0,8.9981,19.924,19.924,0,0,1,0,7.4316,24.88989,24.88989,0,0,0,0,9.0029,17.30478,17.30478,0,0,1,.34956,3.7178,0.82933,0.82933,0,0,0,.10706.5625,0.83,0.83,0,0,0,.10707-0.5625,21.52727,21.52727,0,0,0-.41044-4.5029,19.92934,19.92934,0,0,1,0-7.4326,24.89044,24.89044,0,0,0,0-9.003,19.898,19.898,0,0,1,0-7.4267,24.86851,24.86851,0,0,0,0-8.999,19.89321,19.89321,0,0,1,0-7.4258A21.46022,21.46022,0,0,0,104.49437,104.0366Z"/> <path d="M110.67151,102.4546a21.49037,21.49037,0,0,0-.41042-4.499,19.87675,19.87675,0,0,1,0-7.4229,21.4796,21.4796,0,0,0,.41042-4.498,0.83177,0.83177,0,0,0-.107-0.5635,0.8333,0.8333,0,0,0-.10688.5635,17.25618,17.25618,0,0,1-.34958,3.7109,24.85922,24.85922,0,0,0,0,8.9971,19.87622,19.87622,0,0,1,0,7.4228,24.85922,24.85922,0,0,0,0,8.9971,19.90755,19.90755,0,0,1,0,7.4287,24.86964,24.86964,0,0,0,0,8.999,19.91817,19.91817,0,0,1,0,7.4307,24.891,24.891,0,0,0,0,9.0029,17.315,17.315,0,0,1,.34958,3.7178,0.8297,0.8297,0,0,0,.10688.5625,0.83029,0.83029,0,0,0,.107-0.5625,21.51012,21.51012,0,0,0-.41042-4.502,19.93359,19.93359,0,0,1,0-7.4336,24.88005,24.88005,0,0,0,0-9.0009,19.90755,19.90755,0,0,1,0-7.4287,24.87019,24.87019,0,0,0,0-8.9991,19.88684,19.88684,0,0,1,0-7.4248A21.47881,21.47881,0,0,0,110.67151,102.4546Z"/> <path d="M117.45867,101.4536a21.49,21.49,0,0,0-.41044-4.499,19.87781,19.87781,0,0,1,0-7.4229,21.47848,21.47848,0,0,0,.41044-4.498,0.83193,0.83193,0,0,0-.10706-0.5635,0.83351,0.83351,0,0,0-.10688.5635,17.25618,17.25618,0,0,1-.34958,3.7109,24.85922,24.85922,0,0,0,0,8.9971,19.87622,19.87622,0,0,1,0,7.4228,24.85922,24.85922,0,0,0,0,8.9971,19.90224,19.90224,0,0,1,0,7.4277,24.87512,24.87512,0,0,0,0,9,19.91817,19.91817,0,0,1,0,7.4307,24.891,24.891,0,0,0,0,9.0029,17.31567,17.31567,0,0,1,.34958,3.7178,0.8297,0.8297,0,0,0,.10688.5625,0.83,0.83,0,0,0,.10706-0.5625,21.50784,21.50784,0,0,0-.41044-4.5019,19.93465,19.93465,0,0,1,0-7.4336,24.87947,24.87947,0,0,0,0-9.001,19.90861,19.90861,0,0,1,.00019-7.4297,24.86869,24.86869,0,0,0-.00019-8.998,19.88843,19.88843,0,0,1,0-7.4249A21.47769,21.47769,0,0,0,117.45867,101.4536Z"/> <path d="M123.78147,100.063a21.49536,21.49536,0,0,0-.41044-4.4981,19.87728,19.87728,0,0,1,0-7.4228,21.483,21.483,0,0,0,.41044-4.499,0.83,0.83,0,0,0-.10706-0.5625,0.83,0.83,0,0,0-.10707.5625,17.23433,17.23433,0,0,1-.34956,3.7119,24.85754,24.85754,0,0,0,0,8.997,19.87781,19.87781,0,0,1,0,7.4229,24.85809,24.85809,0,0,0,0,8.9971,19.90861,19.90861,0,0,1,0,7.4287,24.8685,24.8685,0,0,0,0,8.999,19.91393,19.91393,0,0,1,0,7.4297,24.89537,24.89537,0,0,0,0,9.0039,17.28261,17.28261,0,0,1,.34956,3.7158,0.82981,0.82981,0,0,0,.10707.5635,0.83193,0.83193,0,0,0,.10706-0.5635,21.49822,21.49822,0,0,0-.41044-4.501,19.93466,19.93466,0,0,1,0-7.4336,24.87892,24.87892,0,0,0,0-9.0009,19.90861,19.90861,0,0,1,0-7.4287,24.86357,24.86357,0,0,0,0-8.9981,19.8879,19.8879,0,0,1,0-7.4248A21.4979,21.4979,0,0,0,123.78147,100.063Z"/> <path d="M130.44751,99.2212a21.48916,21.48916,0,0,0-.41042-4.4981,19.87622,19.87622,0,0,1,0-7.4228,21.48462,21.48462,0,0,0,.41042-4.499,0.82991,0.82991,0,0,0-.10707-0.5625,0.83008,0.83008,0,0,0-.107.5625,17.23409,17.23409,0,0,1-.34958,3.7119,24.85868,24.85868,0,0,0,0,8.997,19.87675,19.87675,0,0,1,0,7.4229,24.85922,24.85922,0,0,0,0,8.9971,19.90224,19.90224,0,0,1,0,7.4277,24.86964,24.86964,0,0,0,0,8.999,19.91817,19.91817,0,0,1,0,7.4307,24.891,24.891,0,0,0,0,9.0029,17.28657,17.28657,0,0,1,.34958,3.7168,0.82818,0.82818,0,0,0,.107.5625,0.82991,0.82991,0,0,0,.10707-0.5625,21.51737,21.51737,0,0,0-.41042-4.5019,19.92881,19.92881,0,0,1,0-7.4327,24.87511,24.87511,0,0,0,0-9,19.91233,19.91233,0,0,1,0-7.4296,24.8647,24.8647,0,0,0,0-8.9981,19.88683,19.88683,0,0,1,0-7.4248A21.4917,21.4917,0,0,0,130.44751,99.2212Z"/> <path d="M136.58067,97.728a21.49376,21.49376,0,0,0-.41042-4.498,19.87675,19.87675,0,0,1,0-7.4229,21.48251,21.48251,0,0,0,.41042-4.499,0.82991,0.82991,0,0,0-.10707-0.5625,0.83173,0.83173,0,0,0-.10688.5625A17.2319,17.2319,0,0,1,136.017,85.02a24.86941,24.86941,0,0,0,0,8.9971,19.86667,19.86667,0,0,1,0,7.4228,24.86941,24.86941,0,0,0,0,8.9971,19.90329,19.90329,0,0,1,0,7.4297,24.87435,24.87435,0,0,0,0,8.998,19.90861,19.90861,0,0,1,0,7.4307,24.90671,24.90671,0,0,0,0,9.0039,17.2809,17.2809,0,0,1,.34975,3.7158,0.83151,0.83151,0,0,0,.10688.5635,0.83181,0.83181,0,0,0,.10707-0.5635,21.49856,21.49856,0,0,0-.41042-4.501,19.93306,19.93306,0,0,1,0-7.4335,24.88609,24.88609,0,0,0,0-9.002,19.90223,19.90223,0,0,1,0-7.4277,24.87018,24.87018,0,0,0,0-8.9991,19.88683,19.88683,0,0,1,0-7.4248A21.49037,21.49037,0,0,0,136.58067,97.728Z"/> <path d="M142.83947,96.7905a21.49037,21.49037,0,0,0-.41042-4.499,19.87675,19.87675,0,0,1,0-7.4229,21.47881,21.47881,0,0,0,.41042-4.498,0.83181,0.83181,0,0,0-.10707-0.5635,0.83364,0.83364,0,0,0-.10688.5635,17.25621,17.25621,0,0,1-.34956,3.7109,24.85809,24.85809,0,0,0,0,8.9971,19.87781,19.87781,0,0,1,0,7.4229,24.85754,24.85754,0,0,0,0,8.997,19.90383,19.90383,0,0,1,0,7.4278,24.874,24.874,0,0,0,0,9,19.91871,19.91871,0,0,1,0,7.4306,24.89044,24.89044,0,0,0,0,9.003,17.31608,17.31608,0,0,1,.34956,3.7177,0.29142,0.29142,0,1,0,.21394,0,21.516,21.516,0,0,0-.41042-4.5019,19.93359,19.93359,0,0,1,0-7.4336,24.8806,24.8806,0,0,0,0-9.001,19.90808,19.90808,0,0,1,.00017-7.4297,24.86925,24.86925,0,0,0-.00017-8.998,19.88684,19.88684,0,0,1,0-7.4248A21.4729,21.4729,0,0,0,142.83947,96.7905Z"/> <path d="M102.6147,92.6528L89.5986,88.2739S85.8447,74.0044,75.8315,66.9985c-10.0132-7.0117-15.769-6.3867-20.3989-2.8789-12.5762,9.5176-14.2891,27.4863-12.9932,42.044a119.96433,119.96433,0,0,0,2.5074,16.6904,81.95222,81.95222,0,0,0,6.9018,18.9062c5.1987,9.8995,10.8237,19.1465,22.9859,20.0157a11.71443,11.71443,0,0,0,6.5039-1.167c3.0039-1.502,7.2592-5.7549,8.0122-8.1338l13.2641,4.7558s-2.8799,11.8907-8.1357,16.3965c-5.2554,4.5059-12.5147,8.8867-21.1494,6.5078-12.5943-3.4677-22.3262-13.7031-28.5059-24.8369a115.09386,115.09386,0,0,1-13.4131-43.0752c-0.5351-5.292-.7119-10.622-0.7412-15.9365-0.0449-7.5537.293-15.2949,2.1113-22.6562A57.57727,57.57727,0,0,1,42.7925,52.105c3.7539-5.1289,12.0752-11.4668,20.2422-8.9873,8.1669,2.4775,16.998,8.3418,22.2089,15.6006,5.21,7.2578,16.7461,24.1738,17.2461,33.3095" style="fill: #6390ff"/> <path d="M130.0239,39.7417a28.55659,28.55659,0,0,0-21.9004-6.1338L57.1074,42.56c31.9131,2.127,45.5083,50.4952,45.5083,50.4952l52.6895-9.3858C151.0483,64.52,140.1597,48.1274,130.0239,39.7417Z" style="fill: #e2c000"/> </g> <g id="C-c-anim2"> <path d="M78.0996,179.562a0.21746,0.21746,0,0,1-.1392.0996C77.9404,179.5815,77.9985,179.5561,78.0996,179.562Z" style="fill: #e2c000"/> <path d="M151.4663,146.0766l-53.2315,7.9268s-18.4223,23.916-20.1342,25.5586a12.99439,12.99439,0,0,1,2.4926,1.0811s45.3038-6.7422,45.4288-7.2403c0.125-.5019,13.8935-0.5019,20.2724-9.0127a64.64534,64.64534,0,0,0,9.0742-16.751Z" style="fill: #e2c000"/> <rect x="92.024" y="141.28557" width="6.13231" height="19.46297" transform="translate(270.16991 116.44296) rotate(111.02636)" style="fill: #feffff"/> <rect x="100.2098" y="141.55317" width="61.50131" height="11.04685" transform="translate(-22.76292 23.98602) rotate(-9.63215)" style="fill: #feffff"/> <path d="M106.5708,104.0366a5.941,5.941,0,0,0-2.1602-4.499,4.66348,4.66348,0,0,1,0-7.4229,5.9387,5.9387,0,0,0,2.1602-4.498,0.5635,0.5635,0,1,0-1.127,0,4.81982,4.81982,0,0,1-1.8398,3.7109,5.76415,5.76415,0,0,0,0,8.9971,4.66337,4.66337,0,0,1,0,7.4228,5.76415,5.76415,0,0,0,0,8.9971,4.66933,4.66933,0,0,1,0,7.4287,5.76519,5.76519,0,0,0,0,8.9981,4.67226,4.67226,0,0,1,0,7.4316,5.77019,5.77019,0,0,0,0,9.0029,4.8313,4.8313,0,0,1,1.8398,3.7178,0.5635,0.5635,0,0,0,1.127,0,5.94805,5.94805,0,0,0-2.1602-4.5029,4.67327,4.67327,0,0,1,0-7.4326,5.77029,5.77029,0,0,0,0-9.003,4.66731,4.66731,0,0,1,0-7.4267,5.76612,5.76612,0,0,0,0-8.999,4.6664,4.6664,0,0,1,0-7.4258A5.93491,5.93491,0,0,0,106.5708,104.0366Z"/> <path d="M112.7475,102.4546a5.94091,5.94091,0,0,0-2.1601-4.499,4.66332,4.66332,0,0,1,0-7.4229,5.93882,5.93882,0,0,0,2.1601-4.498,0.563,0.563,0,1,0-1.1259,0,4.823,4.823,0,0,1-1.8399,3.7109,5.76431,5.76431,0,0,0,0,8.9971,4.66322,4.66322,0,0,1,0,7.4228,5.76431,5.76431,0,0,0,0,8.9971,4.66917,4.66917,0,0,1,0,7.4287,5.76629,5.76629,0,0,0,0,8.999,4.67119,4.67119,0,0,1,0,7.4307,5.77035,5.77035,0,0,0,0,9.0029,4.834,4.834,0,0,1,1.8399,3.7178,0.563,0.563,0,0,0,1.1259,0,5.94438,5.94438,0,0,0-2.1601-4.502,4.67412,4.67412,0,0,1,0-7.4336,5.76827,5.76827,0,0,0,0-9.0009,4.66917,4.66917,0,0,1,0-7.4287,5.7664,5.7664,0,0,0,0-8.9991,4.66524,4.66524,0,0,1,0-7.4248A5.93864,5.93864,0,0,0,112.7475,102.4546Z"/> <path d="M119.5347,101.4536a5.941,5.941,0,0,0-2.1602-4.499,4.66348,4.66348,0,0,1,0-7.4229,5.9387,5.9387,0,0,0,2.1602-4.498,0.563,0.563,0,1,0-1.126,0,4.823,4.823,0,0,1-1.8399,3.7109,5.76431,5.76431,0,0,0,0,8.9971,4.66322,4.66322,0,0,1,0,7.4228,5.76431,5.76431,0,0,0,0,8.9971,4.66817,4.66817,0,0,1,0,7.4277,5.76733,5.76733,0,0,0,0,9,4.67119,4.67119,0,0,1,0,7.4307,5.77035,5.77035,0,0,0,0,9.0029,4.83418,4.83418,0,0,1,1.8399,3.7178,0.563,0.563,0,0,0,1.126,0,5.944,5.944,0,0,0-2.1602-4.5019,4.67428,4.67428,0,0,1,0-7.4336,5.76821,5.76821,0,0,0,0-9.001,4.66957,4.66957,0,0,1,.001-7.4297,5.76592,5.76592,0,0,0-.001-8.998,4.66549,4.66549,0,0,1,0-7.4249A5.93853,5.93853,0,0,0,119.5347,101.4536Z"/> <path d="M125.8579,100.063a5.94243,5.94243,0,0,0-2.1602-4.4981,4.66337,4.66337,0,0,1,0-7.4228,5.93939,5.93939,0,0,0,2.1602-4.499,0.5635,0.5635,0,0,0-1.127,0,4.81736,4.81736,0,0,1-1.8398,3.7119,5.764,5.764,0,0,0,0,8.997,4.66348,4.66348,0,0,1,0,7.4229,5.76415,5.76415,0,0,0,0,8.9971,4.66933,4.66933,0,0,1,0,7.4287,5.76612,5.76612,0,0,0,0,8.999,4.67034,4.67034,0,0,1,0,7.4297,5.77123,5.77123,0,0,0,0,9.0039,4.827,4.827,0,0,1,1.8398,3.7158,0.5635,0.5635,0,0,0,1.127,0,5.94217,5.94217,0,0,0-2.1602-4.501,4.67428,4.67428,0,0,1,0-7.4336,5.7681,5.7681,0,0,0,0-9.0009,4.66933,4.66933,0,0,1,0-7.4287,5.76519,5.76519,0,0,0,0-8.9981,4.66539,4.66539,0,0,1,0-7.4248A5.94272,5.94272,0,0,0,125.8579,100.063Z"/> <path d="M132.5239,99.2212a5.941,5.941,0,0,0-2.1601-4.4981,4.66322,4.66322,0,0,1,0-7.4228,5.93966,5.93966,0,0,0,2.1601-4.499,0.56345,0.56345,0,0,0-1.1269,0,4.81744,4.81744,0,0,1-1.8399,3.7119,5.76421,5.76421,0,0,0,0,8.997,4.66332,4.66332,0,0,1,0,7.4229,5.76431,5.76431,0,0,0,0,8.9971,4.66816,4.66816,0,0,1,0,7.4277,5.76629,5.76629,0,0,0,0,8.999,4.67119,4.67119,0,0,1,0,7.4307,5.77035,5.77035,0,0,0,0,9.0029,4.82767,4.82767,0,0,1,1.8399,3.7168,0.56345,0.56345,0,0,0,1.1269,0,5.946,5.946,0,0,0-2.1601-4.5019,4.67321,4.67321,0,0,1,0-7.4327,5.76733,5.76733,0,0,0,0-9,4.67008,4.67008,0,0,1,0-7.4296,5.76535,5.76535,0,0,0,0-8.9981,4.66524,4.66524,0,0,1,0-7.4248A5.94124,5.94124,0,0,0,132.5239,99.2212Z"/> <path d="M138.6567,97.728a5.942,5.942,0,0,0-2.1601-4.498,4.66332,4.66332,0,0,1,0-7.4229,5.93916,5.93916,0,0,0,2.1601-4.499,0.563,0.563,0,0,0-1.126,0,4.81815,4.81815,0,0,1-1.8408,3.7119,5.76582,5.76582,0,0,0,0,8.9971,4.66184,4.66184,0,0,1,0,7.4228,5.76582,5.76582,0,0,0,0,8.9971,4.6688,4.6688,0,0,1,0,7.4297,5.76675,5.76675,0,0,0,0,8.998,4.66981,4.66981,0,0,1,0,7.4307,5.7729,5.7729,0,0,0,0,9.0039,4.82791,4.82791,0,0,1,1.8408,3.7158,0.563,0.563,0,1,0,1.126,0,5.94211,5.94211,0,0,0-2.1601-4.501,4.674,4.674,0,0,1,0-7.4335,5.76942,5.76942,0,0,0,0-9.002,4.66816,4.66816,0,0,1,0-7.4277,5.7664,5.7664,0,0,0,0-8.9991,4.66524,4.66524,0,0,1,0-7.4248A5.94091,5.94091,0,0,0,138.6567,97.728Z"/> <path d="M144.9155,96.7905a5.94091,5.94091,0,0,0-2.1601-4.499,4.66332,4.66332,0,0,1,0-7.4229,5.93864,5.93864,0,0,0,2.1601-4.498,0.563,0.563,0,1,0-1.126,0,4.82292,4.82292,0,0,1-1.8398,3.7109,5.76415,5.76415,0,0,0,0,8.9971,4.66348,4.66348,0,0,1,0,7.4229,5.764,5.764,0,0,0,0,8.997,4.66842,4.66842,0,0,1,0,7.4278,5.76717,5.76717,0,0,0,0,9,4.67125,4.67125,0,0,1,0,7.4306,5.77029,5.77029,0,0,0,0,9.003,4.8342,4.8342,0,0,1,1.8398,3.7177,0.563,0.563,0,0,0,1.126,0,5.94573,5.94573,0,0,0-2.1601-4.5019,4.67412,4.67412,0,0,1,0-7.4336,5.76837,5.76837,0,0,0,0-9.001,4.66949,4.66949,0,0,1,.0009-7.4297,5.766,5.766,0,0,0-.0009-8.998,4.66524,4.66524,0,0,1,0-7.4248A5.93729,5.93729,0,0,0,144.9155,96.7905Z"/> <path d="M102.6147,92.6528L89.5986,88.2739S85.8447,74.0044,75.8315,66.9985c-10.0132-7.0117-15.769-6.3867-20.3989-2.8789-12.5762,9.5176-14.2891,27.4863-12.9932,42.044a119.96433,119.96433,0,0,0,2.5074,16.6904,81.95222,81.95222,0,0,0,6.9018,18.9062c5.1987,9.8995,10.8237,19.1465,22.9859,20.0157a11.71443,11.71443,0,0,0,6.5039-1.167c3.0039-1.502,7.2592-5.7549,8.0122-8.1338l13.2641,4.7558s-2.8799,11.8907-8.1357,16.3965c-5.2554,4.5059-12.5147,8.8867-21.1494,6.5078-12.5943-3.4677-22.3262-13.7031-28.5059-24.8369a115.09386,115.09386,0,0,1-13.4131-43.0752c-0.5351-5.292-.7119-10.622-0.7412-15.9365-0.0449-7.5537.293-15.2949,2.1113-22.6562A57.57727,57.57727,0,0,1,42.7925,52.105c3.7539-5.1289,12.0752-11.4668,20.2422-8.9873,8.1669,2.4775,16.998,8.3418,22.2089,15.6006,5.21,7.2578,16.7461,24.1738,17.2461,33.3095" style="fill: #6390ff"/> <path d="M130.0239,39.7417a28.55659,28.55659,0,0,0-21.9004-6.1338L57.1074,42.56c31.9131,2.127,45.5083,50.4952,45.5083,50.4952l52.6895-9.3858C151.0483,64.52,140.1597,48.1274,130.0239,39.7417Z" style="fill: #e2c000"/> </g> </symbol><symbol viewBox="0 0 212 219.7" id="shape-G"><title>G</title> <style type="text/css"> <![CDATA[ .st0{fill:#47797F;} .st1{fill:#4779B3;} .st2{display:inline;fill:#803675;} .st3{fill:#E2C000;} .st4{fill:#803675;} .st5{fill:#85ACFF;} .st6{fill:#F4571C;} .st7{display:inline;fill:#2A3297;} .st8{display:inline;fill:#FD858F;} .st9{display:inline;fill:#FFFFFF;} .st10{fill:#2A3297;} .st11{fill:#FD858F;} .st12{fill:#FEFFFF;} .st13{fill:#FFFFFF;} .st14{fill:#634382;} .st15{fill:#6390FF;} .st16{display:inline;fill:#D47513;} .st17{fill:#0000A6;} .st18{display:inline;fill:#3FB9AE;} .st19{fill:#D2B8B5;} .st20{fill:#D47513;} .st21{fill:#D9B90F;} .st22{fill:#3FB9AE;} .st23{display:none;} .st24{display:inline;fill:#47797F;} .st25{fill:#0D1B42;} .st26{fill:#0F1D42;} .st27{fill:#0F1D44;} .st28{fill:#DDBA18;} .st29{fill:none;stroke:#000000;stroke-width:1.1264;stroke-linecap:round;stroke-miterlimit:10;} ]]> </style>         <g id="G-g-anim1"> <path class="st27" d="M162.1,97.8L141,113.9l-26.8,6.9L67,113.5l-18.5-11.6l-5.6-17.1l-13.3-4.4l-0.4,11.8
		c0.3,11.1,0,11.4,1.9,18.4c2,7.1,8.3,13.9,17.4,21c8.9,7,18.6,12.1,29.1,15.4c10.5,3.3,20.8,4.8,30.8,4.2c10-0.5,19.5-2.8,28.3-6.8
		c7.2-3.3,13.2-7.6,17.9-12.9c4.7-5.3,7.2-10.2,7.6-14.7L162.1,97.8z"/> <polyline class="st13" points="90.3,89.5 90.3,120.2 104.3,124.6 104.3,100.4 	"/> <path id="G-_x3C_Path_x3E__4_" class="st13" d="M112.5,60.1v19.2L97.8,86V70.7 M124.9,91v26.1l16.6-6.5v-15l-16.2-4.3"/> <path id="G-_x3C_Path_x3E__3_" class="st28" d="M92.9,60.1l4.8,10.6v18.8c0,0-28.3-13.4-32.1,6.1c0,0-1.3,6.6,3.9,10
		c5.2,3.4-20.8-11.3-20.8-11.3l-2.4-13.9l23-18.4L92.9,60.1z M125.4,120.1L124.9,91l-21.1,9.5l0.4-0.1v23.5L125.4,120.1z"/> <path class="st6" d="M129.1,72L90.3,89.8l14,11l20.7-9.5l10.5,8.2c-0.8,3.1-2.5,6-5,8.7c-2.5,2.7-5.6,4.9-9.1,6.5
		c-7.5,3.4-15.7,4.4-24.6,2.9c-10.3-1.7-20.5-6.5-30.5-14.3c-9.3-7.3-13.8-13.8-13.6-19.5c0.2-5.7,4.2-10.4,11.9-13.9
		c5-2.3,10.3-3.3,16.2-3.2c5.8,0.1,11.5,1.6,17.1,4.3l14.7-10.6c-9.8-5.4-20-8.3-30.5-8.5c-10.5-0.3-21.1,2-31.8,6.9
		c-8.9,4.1-14.9,8.8-18.1,14.2c-3.2,5.4-3.5,11.6-1,18.5c2.5,6.9,8.3,13.9,17.4,21.1c8.9,7,18.6,12.1,29.1,15.4
		c10.5,3.3,20.8,4.8,30.8,4.2c10-0.5,19.5-2.8,28.3-6.8c7.2-3.3,13.2-7.6,17.9-12.9c4.7-5.3,7.2-10.2,7.6-14.7L129.1,72z"/> <path class="st13" d="M167.2,95.1c-1-2.9-2.7-6-5.5-7.5c-1.3-0.7-2.8-1.2-4.3-1.2c-1.6,0-3,0.4-4.4,1c-4.8,2.1-6.2,8.4-5.6,13.1
		c0.2,1.4,1,2.5,2.5,2.5c1.3,0,2.7-1.2,2.5-2.5c-0.1-1.2-0.2-2.5,0-3.8c0,0,0,0,0-0.1c0-0.1,0-0.3,0.1-0.4c0.1-0.3,0.1-0.6,0.2-0.9
		c0.1-0.3,0.2-0.6,0.3-0.9c0,0,0-0.1,0.1-0.1c0,0,0-0.1,0-0.1c0.2-0.4,0.4-0.8,0.7-1.2c0.1-0.1,0.2-0.3,0.3-0.3
		c0.1-0.1,0.2-0.2,0.4-0.3c0.1-0.1,0.4-0.3,0.5-0.3c0.1-0.1,0.2-0.1,0.3-0.1c0.5-0.2,1-0.4,1.5-0.4c0,0,0,0,0.1,0c0.1,0,0.3,0,0.4,0
		c0.1,0,0.5,0,0.6,0c0.2,0,0.3,0.1,0.5,0.1c0.1,0,0.4,0.1,0.5,0.2c0.2,0.1,0.4,0.2,0.6,0.3c0.1,0.1,0.2,0.1,0.2,0.2c0,0,0,0,0,0
		c0.2,0.2,0.4,0.4,0.6,0.6c0.1,0.1,0.1,0.1,0.1,0.2c0,0.1,0.1,0.1,0.1,0.2c0.4,0.6,0.8,1.3,1.2,2c0.1,0.1,0.1,0.2,0.2,0.4
		c0,0,0,0.1,0,0.1c0.1,0.3,0.2,0.6,0.3,0.9c0.2,0.6,0.3,1.2,0.4,1.9c0,0.2,0.1,0.5,0.1,0.6c0,0.3,0,0.6,0.1,1c0.1,2,0.2,3.8,0.2,5.9
		c0.1,8-0.2,15.8-0.3,23.6c-0.1,3.5-0.4,7.5-0.9,11c-0.1,0.7-0.1,1.3,0.3,2c0.3,0.6,0.9,1,1.5,1.2c1.2,0.3,2.9-0.4,3.1-1.8
		C167.5,137.4,168.8,99.8,167.2,95.1z"/> <path class="st19" d="M154.7,98.9c-1.3-0.8-3.1-1.1-4.9-1.1l-0.2-0.1v0.1l-0.2,0.1c-1.7,0.1-3.4,0.5-4.7,1.3
		c-2.8,1.6-3,4.2-0.3,5.8c2.7,1.5,7.2,1.4,10-0.2C157.2,103,157.4,100.4,154.7,98.9z"/> <path class="st13" d="M36,67.3v7c0,0,0.1,2,1.3,2.1c1.2,0,1.9,0.1,2-1.8h0v-0.1c0,0,0,0,0,0v-7.2H36z"/> <path class="st5" d="M39.3,64.2c-1.2-0.3-2.5-0.4-3.8-0.1L32.2,64v2.6l0,0c-0.1,0.8,0.4,1.7,1.6,2.4c2.1,1.2,5.4,1.3,7.3,0.1
		c0.9-0.5,1.3-1.1,1.4-1.8l0,0V67c0,0,0,0,0,0v-2.7L39.3,64.2z"/> <path class="st17" d="M41,62.1c-2.1-1.2-5.4-1.3-7.3-0.1c-1.9,1.1-1.8,3,0.2,4.2c2.1,1.2,5.4,1.3,7.3,0.1
		C43.1,65.2,43,63.3,41,62.1z"/> <path class="st13" d="M50.5,57.3v7c0,0,0.1,2,1.3,2.1c1.2,0,1.9,0.1,2-1.8h0v-0.1c0,0,0,0,0,0v-7.2H50.5z"/> <path class="st5" d="M53.8,54.2c-1.2-0.3-2.5-0.4-3.8-0.1L46.7,54v2.6l0,0c-0.1,0.8,0.4,1.7,1.6,2.4c2.1,1.2,5.4,1.3,7.3,0.1
		c0.9-0.5,1.3-1.1,1.4-1.8l0,0V57c0,0,0,0,0,0v-2.7L53.8,54.2z"/> <path class="st17" d="M55.5,52.1c-2.1-1.2-5.4-1.3-7.3-0.1c-1.9,1.1-1.8,3,0.2,4.2c2.1,1.2,5.4,1.3,7.3,0.1
		C57.6,55.2,57.5,53.3,55.5,52.1z"/> <path class="st13" d="M64.8,49.5v7c0,0,0.1,2,1.3,2.1c1.2,0,1.9,0.1,2-1.8h0v-0.1c0,0,0,0,0,0v-7.2H64.8z"/> <path class="st5" d="M68,46.5c-1.2-0.3-2.5-0.4-3.8-0.1L61,46.2v2.6l0,0c-0.1,0.8,0.4,1.7,1.6,2.4c2.1,1.2,5.4,1.3,7.3,0.1
		c0.9-0.5,1.3-1.1,1.4-1.8l0,0v-0.3c0,0,0,0,0,0v-2.7L68,46.5z"/> <path class="st17" d="M69.7,44.4c-2.1-1.2-5.4-1.3-7.3-0.1c-1.9,1.1-1.8,3,0.2,4.2c2.1,1.2,5.4,1.3,7.3,0.1
		C71.9,47.5,71.8,45.6,69.7,44.4z"/> </g> <g id="G-g-anim2"> <path class="st27" d="M162.1,97.8L141,113.9l-26.8,6.9L67,113.5l-18.5-11.6l-5.6-17.1l-13.3-4.4l-0.4,11.8
		c0.3,11.1,0,11.4,1.9,18.4c2,7.1,8.3,13.9,17.4,21c8.9,7,18.6,12.1,29.1,15.4c10.5,3.3,20.8,4.8,30.8,4.2c10-0.5,19.5-2.8,28.3-6.8
		c7.2-3.3,13.2-7.6,17.9-12.9c4.7-5.3,7.2-10.2,7.6-14.7L162.1,97.8z"/> <path id="G-_x3C_Path_x3E__2_" class="st13" d="M97.8,70.7l14.7-10.6v19.2L97.8,86V70.7z M125.4,91.3l-0.4-0.3v26.1l16.6-6.5v-15
		L125.4,91.3z"/> <path id="G-_x3C_Path_x3E__1_" class="st28" d="M92.9,60.1l4.8,10.6v18.8c0,0-28.3-13.4-32.1,6.1c0,0-1.3,6.6,3.9,10
		c5.2,3.4-20.8-11.3-20.8-11.3l-2.4-13.9l23-18.4L92.9,60.1z M125.4,120.1L124.9,91l-21.1,9.5l0.4-0.1v23.5L125.4,120.1z"/> <path class="st6" d="M129.1,72L90.3,89.8l14,11l20.7-9.5l10.5,8.2c-0.8,3.1-2.5,6-5,8.7c-2.5,2.7-5.6,4.9-9.1,6.5
		c-7.5,3.4-15.7,4.4-24.6,2.9c-10.3-1.7-20.5-6.5-30.5-14.3c-9.3-7.3-13.8-13.8-13.6-19.5c0.2-5.7,4.2-10.4,11.9-13.9
		c5-2.3,10.3-3.3,16.2-3.2c5.8,0.1,11.5,1.6,17.1,4.3l14.7-10.6c-9.8-5.4-20-8.3-30.5-8.5c-10.5-0.3-21.1,2-31.8,6.9
		c-8.9,4.1-14.9,8.8-18.1,14.2c-3.2,5.4-3.5,11.6-1,18.5c2.5,6.9,8.3,13.9,17.4,21.1c8.9,7,18.6,12.1,29.1,15.4
		c10.5,3.3,20.8,4.8,30.8,4.2c10-0.5,19.5-2.8,28.3-6.8c7.2-3.3,13.2-7.6,17.9-12.9c4.7-5.3,7.2-10.2,7.6-14.7L129.1,72z"/> <path class="st19" d="M154.7,98.9c-1.3-0.8-3.1-1.1-4.9-1.1l-0.2-0.1v0.1l-0.2,0.1c-1.7,0.1-3.4,0.5-4.7,1.3
		c-2.8,1.6-3,4.2-0.3,5.8c2.7,1.5,7.2,1.4,10-0.2C157.2,103,157.4,100.4,154.7,98.9z"/> <path class="st13" d="M167.1,107c0.3-3.4,0.6-6.9,0.5-10.4c0-1.7,0.1-4.3-1.1-5.7c-1.3-3-4.1-5.7-7.2-6.5c-1.5-0.4-3-0.4-4.3,0
		c-1.4,0.4-2.5,1.2-3.6,2.2c-3.4,3.3-3.9,9.2-3.9,13.3c0,1.2,0.7,2.2,2.2,2c1.2-0.1,2.8-1.4,2.7-2.7c-0.1-1.2,0-2.4,0.1-3.6
		c0,0,0,0,0,0c0-0.1,0-0.3,0.1-0.4c0-0.3,0.1-0.6,0.2-0.9c0.1-0.3,0.1-0.6,0.2-0.9c0,0,0-0.1,0-0.1c0,0,0-0.1,0-0.1
		c0.1-0.4,0.3-0.9,0.5-1.3c0.1-0.1,0.2-0.3,0.2-0.4c0.1-0.1,0.2-0.3,0.3-0.4c0.1-0.1,0.3-0.4,0.4-0.4c0.1-0.1,0.2-0.1,0.2-0.2
		c0.4-0.3,0.9-0.6,1.3-0.8c0,0,0,0,0.1,0c0.1,0,0.3-0.1,0.4-0.1c0.1,0,0.4-0.1,0.6-0.1c0.2,0,0.3,0,0.5,0c0.1,0,0.4,0.1,0.5,0.1
		c0.2,0.1,0.4,0.1,0.7,0.2c0.1,0,0.2,0.1,0.3,0.1c0,0,0,0,0,0c0.2,0.2,0.5,0.3,0.7,0.5c0.1,0,0.1,0.1,0.2,0.1
		c0.1,0.1,0.1,0.1,0.1,0.2c0.5,0.6,1,1.2,1.4,1.8c0.1,0.1,0.1,0.2,0.2,0.4c0,0,0,0.1,0.1,0.1c0.1,0.3,0.3,0.6,0.4,0.9
		c0.2,0.6,0.4,1.3,0.5,1.9c0,0.2,0.1,0.5,0.1,0.6c0,0.3,0,0.7,0,1c0,2.1,0,4-0.3,6.1c-0.3,2.8-0.8,5.6-1.3,8.4
		c-0.9,4.9-1.9,9.8-2.4,14.8c-0.5,4.8,0.2,9.4,0.2,14.2c0,1.9,0.5,3.5,2.6,3.8c0.7,0.1,2.1,0.1,2.7-0.4c1-0.8,0.4-2,0.1-3
		c-0.8-3.3,0-6.8,0.2-10.2C165.1,123.1,166.4,115.1,167.1,107z"/> <path class="st13" d="M36,67.3v7c0,0,0.1,2,1.3,2.1c1.2,0,1.9,0.1,2-1.8h0v-0.1c0,0,0,0,0,0v-7.2H36z"/> <path class="st5" d="M39.3,69.8c-1.2-0.3-2.5-0.4-3.8-0.1l-3.3-0.1v2.6l0,0c-0.1,0.8,0.4,1.7,1.6,2.4c2.1,1.2,5.4,1.3,7.3,0.1
		c0.9-0.5,1.3-1.1,1.4-1.8l0,0v-0.3c0,0,0,0,0,0v-2.7L39.3,69.8z"/> <path class="st17" d="M41,67.7c-2.1-1.2-5.4-1.3-7.3-0.1c-1.9,1.1-1.8,3,0.2,4.2c2.1,1.2,5.4,1.3,7.3,0.1
		C43.1,70.8,43,68.9,41,67.7z"/> <path class="st13" d="M50.6,57.4v7c0,0,0.1,2,1.3,2.1c1.2,0,1.9,0.1,2-1.8h0v-0.1c0,0,0,0,0,0v-7.2H50.6z"/> <path class="st5" d="M53.9,59.9c-1.2-0.3-2.5-0.4-3.8-0.1l-3.3-0.1v2.6l0,0c-0.1,0.8,0.4,1.7,1.6,2.4c2.1,1.2,5.4,1.3,7.3,0.1
		c0.9-0.5,1.3-1.1,1.4-1.8l0,0v-0.2c0,0,0,0,0,0V60L53.9,59.9z"/> <path class="st17" d="M55.5,57.8c-2.1-1.2-5.4-1.3-7.3-0.1c-1.9,1.1-1.8,3,0.2,4.2c2.1,1.2,5.4,1.3,7.3,0.1
		C57.7,60.9,57.6,59,55.5,57.8z"/> <path class="st13" d="M64.6,49.5v7c0,0,0.1,2,1.3,2.1c1.2,0,1.9,0.1,2-1.8h0v-0.1c0,0,0,0,0,0v-7.2H64.6z"/> <path class="st5" d="M67.9,52c-1.2-0.3-2.5-0.4-3.8-0.1l-3.3-0.1v2.6l0,0c-0.1,0.8,0.4,1.7,1.6,2.4c2.1,1.2,5.4,1.3,7.3,0.1
		c0.9-0.5,1.3-1.1,1.4-1.8l0,0v-0.3c0,0,0,0,0,0v-2.7L67.9,52z"/> <path class="st17" d="M69.6,49.9c-2.1-1.2-5.4-1.3-7.3-0.1c-1.9,1.1-1.8,3,0.2,4.2c2.1,1.2,5.4,1.3,7.3,0.1
		C71.8,53.1,71.7,51.2,69.6,49.9z"/> </g> </symbol><symbol viewBox="0 0 212 219.7" id="shape-M1"><title>M1</title> <style type="text/css"> <![CDATA[ .st0{fill:#47797F;} .st1{fill:#4779B3;} .st2{display:inline;fill:#803675;} .st3{fill:#E2C000;} .st4{fill:#803675;} .st5{fill:#85ACFF;} .st6{fill:#F4571C;} .st7{display:inline;fill:#2A3297;} .st8{display:inline;fill:#FD858F;} .st9{display:inline;fill:#FFFFFF;} .st10{fill:#2A3297;} .st11{fill:#FD858F;} .st12{fill:#FEFFFF;} .st13{fill:#FFFFFF;} .st14{fill:#634382;} .st15{fill:#6390FF;} .st16{display:inline;fill:#D47513;} .st17{fill:#0000A6;} .st18{display:inline;fill:#3FB9AE;} .st19{fill:#D2B8B5;} .st20{fill:#D47513;} .st21{fill:#D9B90F;} .st22{fill:#3FB9AE;} .st23{display:none;} .st24{display:inline;fill:#47797F;} .st25{fill:#0D1B42;} .st26{fill:#0F1D42;} .st27{fill:#0F1D44;} .st28{fill:#DDBA18;} .st29{fill:none;stroke:#000000;stroke-width:1.1264;stroke-linecap:round;stroke-miterlimit:10;} ]]> </style>       <g id="M1-m1-anim1"> <polygon class="st11" points="90.5,68.7 71.7,77.9 87.6,88.4 106,79.3 	"/> <polygon class="st11" points="139.1,44 120.3,53.1 136.2,63.7 154.8,54.3 	"/> <polyline class="st20" points="136.2,63.7 120.3,53.1 109.3,91.6 118.1,117.5 136.2,63.7 	"/> <polygon class="st20" points="100.5,114.4 98.4,134 110.2,141.3 110.9,138.6 	"/> <polyline class="st20" points="138.3,136.9 125.3,129 137.3,93.6 142.4,108.1 138.5,137.1 138.5,137.1 	"/> <polygon class="st20" points="71.7,77.9 64,141.4 61.8,160.3 77.1,170.8 87.6,88.4 	"/> <path class="st10" d="M154.8,54.3l-18.6,9.4L119,114.1l-13-34.7l-18.7,9.3l-10.2,82.2c0,0,6.9-2.8,11-5.5c4-2.6,7.1-2.1,8.5-14.2
		c1.4-12.1,4.3-35.8,4.3-35.8l9.5,25.9l14.2-6.6l12.9-37l1,39.3c0,0,3.3,2.6,6.6,0.5c3.3-2.1,11.6-6.4,11.6-6.4L154.8,54.3z"/> <polygon class="st13" points="62.5,154.4 51.1,160 56,163.2 67.4,157.6 	"/> <polygon class="st22" points="51.1,160 50.8,165.8 55.7,169.1 56,163.2 	"/> <polygon class="st0" points="56,163.2 55.7,169.1 67.1,163.5 67.4,157.6 	"/> <polygon class="st22" points="56.4,163.4 56,169.3 61,172.5 61.3,166.6 	"/> <polygon class="st0" points="61.3,166.6 61,172.5 72.3,167 72.7,161.1 	"/> <polygon class="st13" points="67.8,157.8 56.4,163.4 61.3,166.7 72.7,161.1 	"/> <polygon class="st22" points="61.6,167 61.2,172.8 66.2,176.1 66.5,170.2 	"/> <polygon class="st0" points="66.5,170.2 66.2,176.1 77.5,170.5 77.9,164.6 	"/> <polygon class="st13" points="73,161.4 61.6,167 66.5,170.2 77.9,164.6 	"/> <polygon class="st4" points="149.4,81.4 142.7,85.5 142.8,123 149.5,118.9 	"/> <polygon class="st0" points="144.9,86.3 142.7,85 142.7,93.1 144.9,94.4 	"/> <polygon class="st22" points="149.7,80.9 142.7,85 144.9,86.3 151.9,82.2 	"/> <polygon class="st13" points="151.9,82.2 144.9,86.3 144.9,94.4 151.9,90.3 	"/> </g> <g id="M1-m1-anim2" class="st23"> <polygon class="st8" points="71.7,77.9 87.6,88.4 106,79.3 90.5,68.7 	"/> <polygon class="st8" points="120.3,53.1 136.2,63.7 154.8,54.3 139.1,44 	"/> <polyline class="st16" points="136.2,63.7 120.3,53.1 109.3,91.6 118.1,117.5 136.2,63.7 	"/> <polyline class="st16" points="110.2,141.3 98.4,134 100.5,114.4 110.9,138.6 110.2,141.3 	"/> <polyline class="st16" points="138.3,136.9 125.3,129 137.3,93.6 142.4,108.1 138.5,137.1 138.5,137.1 	"/> <polyline class="st16" points="87.6,88.4 71.7,77.9 64,141.4 61.8,160.3 77.1,170.8 	"/> <path class="st7" d="M87.3,88.6l-10.2,82.2c0,0,6.9-2.8,11-5.5c4-2.6,7.1-2.1,8.5-14.2c1.4-12.1,4.3-35.8,4.3-35.8l9.5,25.9
		l14.2-6.6l12.9-37l1,39.3c0,0,3.3,2.6,6.6,0.5c3.3-2.1,11.6-6.4,11.6-6.4l-1.7-76.6l-18.6,9.4L119,114.1l-13-34.7L87.3,88.6z"/> <polygon class="st9" points="62.5,154.4 51.1,160 56,163.2 67.4,157.6 	"/> <polygon class="st18" points="51.1,160 50.8,165.8 55.7,169.1 56,163.2 	"/> <polygon class="st24" points="56,163.2 55.7,169.1 67.1,163.5 67.4,157.6 	"/> <polygon class="st18" points="56.3,165.4 56,169.3 61,172.5 61.2,168.7 	"/> <polygon class="st24" points="61.2,168.7 61,172.5 72.3,167 72.6,163.2 	"/> <polygon class="st9" points="67.6,159.9 56.2,165.5 61.1,168.7 72.5,163.1 	"/> <polygon class="st18" points="61.4,171 61.2,172.9 66.2,176.2 66.3,174.3 	"/> <polygon class="st24" points="66.3,174.3 66.2,176.2 77.5,170.6 77.6,168.8 	"/> <polygon class="st9" points="72.7,165.5 61.3,171.1 66.3,174.3 77.6,168.8 	"/> <polygon class="st2" points="149.4,81.4 142.7,85.5 142.8,123 149.5,118.9 	"/> <polygon class="st24" points="144.9,119.4 142.7,118.2 142.7,126.3 144.9,127.5 	"/> <polygon class="st18" points="149.7,114.1 142.7,118.2 144.9,119.4 151.9,115.3 	"/> <polygon class="st9" points="151.9,115.3 144.9,119.4 144.9,127.5 151.9,123.5 	"/> </g>   </symbol><symbol viewBox="0 0 212 219.7" id="shape-M2"><title>M2</title> <style type="text/css"> <![CDATA[ .st0{fill:#47797F;} .st1{fill:#4779B3;} .st2{display:inline;fill:#803675;} .st3{fill:#E2C000;} .st4{fill:#803675;} .st5{fill:#85ACFF;} .st6{fill:#F4571C;} .st7{display:inline;fill:#2A3297;} .st8{display:inline;fill:#FD858F;} .st9{display:inline;fill:#FFFFFF;} .st10{fill:#2A3297;} .st11{fill:#FD858F;} .st12{fill:#FEFFFF;} .st13{fill:#FFFFFF;} .st14{fill:#634382;} .st15{fill:#6390FF;} .st16{display:inline;fill:#D47513;} .st17{fill:#0000A6;} .st18{display:inline;fill:#3FB9AE;} .st19{fill:#D2B8B5;} .st20{fill:#D47513;} .st21{fill:#D9B90F;} .st22{fill:#3FB9AE;} .st23{display:none;} .st24{display:inline;fill:#47797F;} .st25{fill:#0D1B42;} .st26{fill:#0F1D42;} .st27{fill:#0F1D44;} .st28{fill:#DDBA18;} .st29{fill:none;stroke:#000000;stroke-width:1.1264;stroke-linecap:round;stroke-miterlimit:10;} ]]> </style>   <g id="M2-m2-anim2"> <polygon class="st25" points="139.6,68.2 121.3,77.4 102.9,65.2 120.8,56 	"/> <polygon class="st25" points="91.1,35.5 72.8,44.7 54.2,32.2 72.3,23.3 	"/> <polyline class="st14" points="72.8,44.7 91.1,35.5 97.8,77.9 85.1,104.3 72.8,44.7 	"/> <polyline class="st14" points="90.3,130.6 103.7,124.4 104,103.2 89.9,127.6 90.3,130.6 	"/> <polyline class="st14" points="60.9,122.3 75.8,115.5 67.6,76.3 60.2,91 60.7,122.4 60.7,122.4 	"/> <polygon class="st15" points="121.3,77.4 121.8,166.4 139.4,157.2 139.6,136.9 139.6,68.2 	"/> <path class="st21" d="M121.6,77.6l0.2,88.9c0,0-7-3.9-11-7.2c-4-3.3-7.2-3.2-7.1-16.3c0.1-13.1,0.1-38.7,0.1-38.7l-13.5,26.3
		L76,121.7l-8.9-41.1l-6.2,41.7c0,0-3.9,2.3-7.1-0.3c-3.2-2.6-11.5-8.4-11.5-8.4l11.8-81.4l18.6,12.4l11.8,55.9l18.4-35.3
		L121.6,77.6z"/> <path class="st1" d="M141.6,171.6c-6.9-4.9-12.8-8.2-15.7-14.9c-3.9-9-4.1-16.9-3.8-26.2l2.1-2l-1.5-51.9l-0.9,0.4l-3.2,49.3l0,0
		c0,0,0,0.3,0,0.8l-0.1,1.3l0.1,0.1c-0.1,5.9-0.2,22.1,1.6,30.6c1.6,7.5,3.2,13.1,6.6,19.9c3.8,7.5,13.1,0.8,13.1,0.8l5.5-5.7
		C144.7,173.7,143.6,173,141.6,171.6z"/> <path class="st1" d="M145.8,173.7l-0.4,0.4C147.2,175.1,145.8,173.7,145.8,173.7z"/> <path class="st15" d="M151.2,160.6c-0.5-8.4-16.7,1.8-22.6-7c-6-8.9-4.8-17.5-4.4-24.9l4.4,0l-4.2-53l-2.6,1.3l-0.5,51.7
		c0,0-0.5,17.6,3.1,25.9c3,6.9,5.3,12.1,12.2,17c6.9,4.9,6.7,4.7,6.7,4.7l5.5-5.1C148.8,171.2,151.6,166.8,151.2,160.6z"/> <path class="st22" d="M139.2,151.5c-8.6,4.3-16.1,15.5-16.7,25.1c-0.6,9.6,5.9,13.9,14.5,9.6c8.6-4.2,16.1-15.5,16.7-25.1
		C154.3,151.6,147.8,147.3,139.2,151.5z"/> <path class="st13" d="M140.6,152.4c-8.6,4.3-16.1,15.5-16.7,25.1c-0.6,9.6,5.9,13.9,14.5,9.6c8.6-4.3,16.1-15.5,16.7-25.1
		C155.7,152.4,149.2,148.1,140.6,152.4z"/> <path class="st22" d="M140.4,155.9c-6.8,3.4-12.8,12.4-13.3,20c-0.5,7.6,4.7,11,11.5,7.7c6.8-3.4,12.8-12.4,13.3-19.9
		C152.4,156,147.2,152.5,140.4,155.9z"/> <path class="st25" d="M138.6,157.3c-4.5,2.2-8.5,8.2-8.8,13.3c-0.3,5.1,3.1,7.3,7.7,5.1c4.5-2.3,8.5-8.2,8.8-13.3
		C146.6,157.4,143.1,155.1,138.6,157.3z"/> <path class="st0" d="M127.3,149.9l1-0.8l-0.6-0.7c0-0.1,0-0.2,0-0.3c-0.3-1.6-1.7-3.4-3.1-3.9c-0.1,0-0.2-0.1-0.4-0.1l-0.4-0.5
		l-0.8,0.7l0,0c-0.5,0.3-0.7,1-0.6,1.9c0.3,1.6,1.7,3.4,3.1,3.9c0.6,0.2,1.2,0.2,1.5-0.1l0,0L127.3,149.9
		C127.3,149.9,127.3,149.9,127.3,149.9z"/> <path class="st25" d="M128.7,147.3c-0.3-1.6-1.7-3.4-3.1-3.9c-1.4-0.5-2.4,0.3-2.1,2c0.3,1.6,1.7,3.4,3.1,3.9
		C128,149.8,129,148.9,128.7,147.3z"/> <path class="st0" d="M131.4,157.4l1-0.8l-0.6-0.7c0-0.1,0-0.2,0-0.3c-0.3-1.6-1.7-3.4-3.1-3.9c-0.1,0-0.2-0.1-0.4-0.1L128,151
		l-0.8,0.7l0,0c-0.5,0.3-0.7,1-0.6,1.9c0.3,1.6,1.7,3.4,3.1,3.9c0.6,0.2,1.2,0.2,1.5-0.1l0,0L131.4,157.4
		C131.4,157.4,131.4,157.4,131.4,157.4z"/> <path class="st25" d="M132.8,154.8c-0.3-1.6-1.7-3.4-3.1-3.9c-1.4-0.5-2.4,0.3-2.1,2c0.3,1.6,1.7,3.4,3.1,3.9
		C132.1,157.3,133.1,156.4,132.8,154.8z"/> </g> <g id="M2-m2-anim1"> <polygon class="st25" points="139.6,68.2 121.3,77.4 102.9,65.2 120.8,56 	"/> <polygon class="st25" points="91.1,35.5 72.8,44.7 54.2,32.2 72.3,23.3 	"/> <polyline class="st14" points="72.8,44.7 91.1,35.5 97.8,77.9 85.1,104.3 72.8,44.7 	"/> <polyline class="st14" points="90.3,130.6 103.7,124.4 104,103.2 89.9,127.6 90.3,130.6 	"/> <polyline class="st14" points="60.9,122.3 75.8,115.5 67.6,76.3 60.2,91 60.7,122.4 60.7,122.4 	"/> <polygon class="st15" points="121.3,77.4 121.8,166.4 139.4,157.2 139.6,136.9 139.6,68.2 	"/> <path class="st21" d="M121.6,77.6l0.2,88.9c0,0-7-3.9-11-7.2c-4-3.3-7.2-3.2-7.1-16.3c0.1-13.1,0.1-38.7,0.1-38.7l-13.5,26.3
		L76,121.7l-8.9-41.1l-6.2,41.7c0,0-3.9,2.3-7.1-0.3c-3.2-2.6-11.5-8.4-11.5-8.4l11.8-81.4l18.6,12.4l11.8,55.9l18.4-35.3
		L121.6,77.6z"/> <path id="M2-_x3C_Path_x3E__5_" class="st1" d="M141.6,171.6c2,1.4,3.1,2.2,3.8,2.6l-5.5,5.7c0,0-9.3,6.8-13.1-0.8
		c-3.5-6.8-5.1-12.4-6.6-19.9c-1.8-8.5-1.7-24.7-1.6-30.6l-0.1-0.1l0.1-1.3c0-0.5,0-0.8,0-0.8l0,0l3.2-49.3l0.9-0.4l1.5,51.9l-2.1,2
		c-0.3,9.3-0.1,17.2,3.8,26.2C128.8,163.4,134.7,166.7,141.6,171.6z M145.8,173.7l-0.4,0.4C147.2,175.1,145.8,173.7,145.8,173.7z"/> <path class="st15" d="M151.2,160.6c-0.5-8.4-16.7,1.8-22.6-7c-6-8.9-4.8-17.5-4.4-24.9l4.4,0l-4.2-53l-2.6,1.3l-0.5,51.7
		c0,0-0.5,17.6,3.1,25.9c3,6.9,5.3,12.1,12.2,17c6.9,4.9,6.7,4.7,6.7,4.7l5.5-5.1C148.8,171.2,151.6,166.8,151.2,160.6z"/> <path class="st22" d="M139.1,155.2c-6.8,3.4-12.8,12.3-13.3,19.9c-0.5,7.6,4.7,11,11.5,7.6c6.8-3.4,12.8-12.3,13.3-19.9
		C151.1,155.3,145.9,151.8,139.1,155.2z"/> <path class="st13" d="M140.3,155.9c-6.8,3.4-12.8,12.3-13.3,19.9c-0.5,7.6,4.7,11,11.5,7.7c6.8-3.4,12.8-12.3,13.3-19.9
		C152.2,155.9,147.1,152.5,140.3,155.9z"/> <path class="st22" d="M140.1,158.7c-5.4,2.7-10.1,9.8-10.5,15.8c-0.4,6,3.7,8.8,9.1,6.1c5.4-2.7,10.2-9.8,10.5-15.8
		C149.6,158.7,145.5,156,140.1,158.7z"/> <path class="st25" d="M138.5,159.5c-3.6,1.8-6.8,6.5-7,10.5c-0.3,4,2.5,5.8,6.1,4c3.6-1.8,6.8-6.5,7-10.5
		C144.8,159.6,142.1,157.8,138.5,159.5z"/> <path class="st13" d="M125,148.8l2.6-1.9l-1.4-1.9l-2.7,1.9l0,0c-0.2,0.1-0.3,0.3-0.3,0.7c0.1,0.6,0.6,1.2,1.1,1.4
		C124.6,148.9,124.7,148.9,125,148.8L125,148.8L125,148.8C124.9,148.8,125,148.8,125,148.8z"/> <path class="st0" d="M130.1,148.5l1-0.8l-0.6-0.7c0-0.1,0-0.2,0-0.3c-0.3-1.6-1.7-3.4-3.1-3.9c-0.1,0-0.2-0.1-0.4-0.1l-0.4-0.5
		l-0.8,0.7l0,0c-0.5,0.3-0.7,1-0.6,1.9c0.3,1.6,1.7,3.4,3.1,3.9c0.6,0.2,1.2,0.2,1.5-0.1l0,0L130.1,148.5
		C130.1,148.5,130.1,148.5,130.1,148.5z"/> <path class="st25" d="M131.5,145.9c-0.3-1.6-1.7-3.4-3.1-3.9c-1.4-0.5-2.4,0.3-2.1,2c0.3,1.6,1.7,3.4,3.1,3.9
		C130.8,148.4,131.8,147.5,131.5,145.9z"/> <path class="st13" d="M129,156.1l2.6-1.9l-1.4-1.9l-2.7,1.9l0,0c-0.2,0.1-0.3,0.3-0.3,0.7c0.1,0.6,0.6,1.2,1.1,1.4
		C128.6,156.3,128.7,156.3,129,156.1L129,156.1L129,156.1C128.9,156.2,129,156.2,129,156.1z"/> <path class="st0" d="M134.1,155.8l1-0.8l-0.6-0.7c0-0.1,0-0.2,0-0.3c-0.3-1.6-1.7-3.4-3.1-3.9c-0.1,0-0.2-0.1-0.4-0.1l-0.4-0.5
		l-0.8,0.7l0,0c-0.5,0.3-0.7,1-0.6,1.9c0.3,1.6,1.7,3.4,3.1,3.9c0.6,0.2,1.2,0.2,1.5-0.1l0,0L134.1,155.8
		C134.1,155.8,134.1,155.8,134.1,155.8z"/> <path class="st25" d="M135.5,153.2c-0.3-1.6-1.7-3.4-3.1-3.9c-1.4-0.5-2.4,0.3-2.1,2c0.3,1.6,1.7,3.4,3.1,3.9
		C134.8,155.7,135.8,154.8,135.5,153.2z"/> </g>       </symbol><symbol viewBox="0 0 212 219.7" id="shape-M3"><title>M3</title> <style type="text/css"> <![CDATA[ .st0{fill:#47797F;} .st1{fill:#4779B3;} .st2{display:inline;fill:#803675;} .st3{fill:#E2C000;} .st4{fill:#803675;} .st5{fill:#85ACFF;} .st6{fill:#F4571C;} .st7{display:inline;fill:#2A3297;} .st8{display:inline;fill:#FD858F;} .st9{display:inline;fill:#FFFFFF;} .st10{fill:#2A3297;} .st11{fill:#FD858F;} .st12{fill:#FEFFFF;} .st13{fill:#FFFFFF;} .st14{fill:#634382;} .st15{fill:#6390FF;} .st16{display:inline;fill:#D47513;} .st17{fill:#0000A6;} .st18{display:inline;fill:#3FB9AE;} .st19{fill:#D2B8B5;} .st20{fill:#D47513;} .st21{fill:#D9B90F;} .st22{fill:#3FB9AE;} .st23{display:none;} .st24{display:inline;fill:#47797F;} .st25{fill:#0D1B42;} .st26{fill:#0F1D42;} .st27{fill:#0F1D44;} .st28{fill:#DDBA18;} .st29{fill:none;stroke:#000000;stroke-width:1.1264;stroke-linecap:round;stroke-miterlimit:10;} ]]> </style> <g id="M3-m3-anim2"> <polygon class="st11" points="56.9,68.2 75.2,77.4 93.5,65.2 75.7,56 	"/> <polygon class="st11" points="105.4,35.5 123.7,44.7 142.3,32.2 124.2,23.3 	"/> <polyline class="st20" points="123.7,44.7 105.4,35.5 98.7,77.9 111.4,104.3 123.7,44.7 	"/> <polyline class="st20" points="106.2,130.6 92.8,124.4 92.4,103.2 106.6,127.6 106.2,130.6 	"/> <polyline class="st20" points="135.6,122.3 120.7,115.5 128.9,76.3 136.3,91 135.8,122.4 135.8,122.4 	"/> <polygon class="st20" points="75.2,77.4 74.7,166.4 57.1,157.2 56.9,136.9 56.9,68.2 	"/> <path class="st10" d="M74.9,77.6l-0.2,88.9c0,0,7-3.9,11-7.2c4-3.3,7.2-3.2,7.1-16.3c-0.1-13.1-0.1-38.7-0.1-38.7l13.5,26.3
		l14.2-8.9l8.9-41.1l6.2,41.7c0,0,3.9,2.3,7.1-0.3c3.2-2.6,11.5-8.4,11.5-8.4l-11.8-81.4l-18.6,12.4l-11.8,55.9L93.5,65.2L74.9,77.6
		z"/> <polygon class="st4" points="140.4,59.6 134.2,64.4 138.3,101.6 144.6,96.8 	"/> <polygon class="st0" points="135.9,65.2 133.6,64.2 134.5,72.2 136.8,73.2 	"/> <polygon class="st22" points="140.2,59.3 133.6,64.2 135.9,65.2 142.5,60.3 	"/> <polygon class="st13" points="142.5,60.3 135.9,65.2 136.8,73.2 143.4,68.4 	"/> <polygon class="st22" points="43.3,159.6 43.1,161.1 48.9,164.9 49,163.4 	"/> <polygon class="st0" points="49,163.4 48.9,164.9 62.2,158.4 62.4,156.9 	"/> <polygon class="st13" points="56.6,153.1 43.3,159.6 49.1,163.4 62.4,156.9 	"/> <polygon class="st22" points="49.4,163.5 49.3,165.1 55.1,168.9 55.2,167.3 	"/> <polygon class="st0" points="55.3,167.3 55.1,168.9 68.4,162.4 68.6,160.8 	"/> <polygon class="st13" points="62.8,157 49.5,163.6 55.2,167.4 68.6,160.8 	"/> <polygon class="st22" points="55.5,167.4 55.3,169.3 61.1,173.1 61.3,171.3 	"/> <polygon class="st0" points="61.3,171.1 61.1,173.1 74.5,166.6 74.6,164.6 	"/> <polygon class="st13" points="68.8,160.9 55.5,167.5 61.3,171.3 74.6,164.7 	"/> </g> <g id="M3-m3-anim1" class="st23"> <polygon class="st8" points="57.2,68.2 75.6,77.4 93.9,65.2 76,56 	"/> <polygon class="st8" points="105.7,35.5 124.1,44.7 142.7,32.2 124.5,23.3 	"/> <polyline class="st16" points="124.1,44.7 105.7,35.5 99,77.9 111.7,104.3 124.1,44.7 	"/> <polyline class="st16" points="106.6,130.6 93.1,124.4 92.8,103.2 106.9,127.6 106.6,130.6 	"/> <polyline class="st16" points="135.9,122.3 121.1,115.5 129.2,76.3 136.6,91 136.1,122.4 136.1,122.4 	"/> <polygon class="st16" points="75.6,77.4 75.1,166.4 57.4,157.2 57.2,136.9 57.2,68.2 	"/> <path class="st7" d="M75.2,77.6l-0.2,88.9c0,0,7-3.9,11-7.2c4-3.3,7.2-3.2,7.1-16.3c-0.1-13.1-0.1-38.7-0.1-38.7l13.5,26.3
		l14.2-8.9l8.9-41.1l6.2,41.7c0,0,3.9,2.3,7.1-0.3c3.2-2.6,11.5-8.4,11.5-8.4l-11.8-81.4l-18.6,12.4l-11.8,55.9L93.9,65.2L75.2,77.6
		z"/> <polygon class="st2" points="140.4,59.6 134.2,64.4 138.3,101.6 144.6,96.8 	"/> <polygon class="st24" points="140,97.9 137.7,96.9 138.6,104.9 140.9,105.9 	"/> <polygon class="st18" points="144.2,92 137.7,96.9 140,97.9 146.5,93 	"/> <polygon class="st9" points="146.5,93 140,97.9 140.9,105.9 147.5,101.1 	"/> <polygon class="st9" points="57.4,147.7 44.1,154.2 49.8,158 63.2,151.5 	"/> <polygon class="st18" points="44.1,154.2 43.7,161.1 49.4,164.9 49.8,158 	"/> <polygon class="st24" points="49.8,158 49.4,164.9 62.8,158.4 63.2,151.5 	"/> <polygon class="st18" points="50.2,158.3 49.8,165.2 55.6,169 56,162.1 	"/> <polygon class="st24" points="56,162.1 55.6,169 69,162.4 69.4,155.5 	"/> <polygon class="st9" points="63.6,151.7 50.2,158.3 56,162.1 69.4,155.5 	"/> <polygon class="st18" points="56.3,162.4 55.9,169.3 61.7,173.1 62.1,166.2 	"/> <polygon class="st24" points="62.1,166.2 61.7,173.1 75.1,166.6 75.5,159.7 	"/> <polygon class="st9" points="69.7,155.9 56.3,162.4 62.1,166.2 75.5,159.7 	"/> </g>         </symbol></svg>