<svg xmlns="http://www.w3.org/2000/svg"><symbol viewBox="0 0 160.39 158.85" id="shape-sprites_math-a"><title>sprites</title>  <g id="sprites_math-a-math-a-anim1"> <polygon points="82.48 0 0 158.85 160.39 158.85 82.48 0" style="fill: #e0a9b1"/> <path d="M146.61,130.67l-4.48-9.17-14.68,7.17a2,2,0,1,1-1.79-3.67l14.67-7.17-3.58-7.34-14.67,7.17a2,2,0,0,1-1.79-3.67L135,106.82l-3.58-7.33-14.67,7.17a2,2,0,1,1-1.79-3.67l14.67-7.17L126,88.48l-14.67,7.17A2,2,0,1,1,109.54,92l14.67-7.17-3.58-7.34L106,84.64A2,2,0,0,1,104.17,81l14.67-7.17-3.58-7.33-14.67,7.17A2,2,0,0,1,98.79,70l14.67-7.17-3.58-7.34L95.21,62.63A2,2,0,1,1,93.42,59l14.67-7.17-4.48-9.17a2,2,0,0,0-2.73-.94L71.54,56a2,2,0,0,0-.94,2.73l43,88a2,2,0,0,0,2.73.94l29.35-14.33A2,2,0,0,0,146.61,130.67Z" style="fill: #b57682"/> </g> <g id="sprites_math-a-math-a-anim2"> <polygon points="82.48 0 0 158.85 160.39 158.85 82.48 0" style="fill: #e0a9b1"/> <path d="M64.37,35.52l-4.7,9.06L74.16,52.1a2,2,0,1,1-1.88,3.62L57.79,48.2,54,55.44,68.52,63a2,2,0,0,1-1.88,3.62L52.14,59.07l-3.76,7.24,14.49,7.53A2,2,0,1,1,61,77.46L46.5,69.94l-3.76,7.25,14.49,7.53a2,2,0,1,1-1.88,3.62L40.85,80.81l-3.76,7.25,14.49,7.53A2,2,0,0,1,49.7,99.2L35.21,91.68l-3.76,7.24,14.49,7.53a2,2,0,0,1-1.88,3.62l-14.49-7.53-3.76,7.25,14.49,7.52a2,2,0,1,1-1.88,3.62l-14.49-7.53-4.7,9.06a2,2,0,0,0,.87,2.75l29,15.05a2,2,0,0,0,2.75-.87L97,52.45a2,2,0,0,0-.87-2.75l-29-15.05A2,2,0,0,0,64.37,35.52Z" style="fill: #b57682"/> </g> </symbol><symbol viewBox="0 0 201.23 180.67" id="shape-sprites_math-h"><title>sprites</title>  <g id="sprites_math-h-math-h-anim1"> <rect x="111.88" y="6.54" width="49.92" height="159.29" style="fill: #a9d8e0"/> <polygon points="153.99 157.17 120.21 157.29 119.69 15.46 153.99 15.46 153.99 157.17" style="fill: #a9d8e0"/> <rect x="10.37" y="6.54" width="49.92" height="159.29" style="fill: #a9d8e0"/> <path d="M134.79,56.89a9.54,9.54,0,1,0-6.62-2.77A9.22,9.22,0,0,0,134.79,56.89Z" style="fill: #bee5ea"/> <path d="M135,114.89a7.4,7.4,0,1,0-5.13-2.15A7.15,7.15,0,0,0,135,114.89Z" style="fill: #bee5ea"/> <path d="M134.79,85.7A9.36,9.36,0,1,0,128.29,83,9,9,0,0,0,134.79,85.7Z" style="fill: #bee5ea"/> <path d="M135.15,148a7.39,7.39,0,1,0-5.13-2.15A7.14,7.14,0,0,0,135.15,148Z" style="fill: #bee5ea"/> <circle cx="37.13" cy="26.56" r="11.1" style="fill: #bee5ea"/> <circle cx="43.78" cy="68.9" r="11.1" style="fill: #bee5ea"/> <rect x="23.17" y="114.55" width="8" height="40.36" style="fill: #bee5ea"/> <rect x="39.78" y="114.55" width="8" height="40.36" style="fill: #bee5ea"/> <circle cx="134.13" cy="76.47" r="6.29" style="fill: #99bdc1"/> <circle cx="43.78" cy="68.9" r="6.29" style="fill: #99bdc1"/> <circle cx="37.49" cy="27.31" r="6.29" style="fill: #99bdc1"/> <circle cx="135.1" cy="47.49" r="6.29" style="fill: #99bdc1"/> <path d="M96.72,104.37A79.8,79.8,0,0,1,77,101.7,52.46,52.46,0,0,1,51.35,85.79,67.7,67.7,0,0,1,45.86,78a52.68,52.68,0,0,0-6.57-8.89L41.44,67a55.77,55.77,0,0,1,7,9.38,65.52,65.52,0,0,0,5.24,7.44,49.35,49.35,0,0,0,24.12,15c10,2.63,34.74,7,48.15-9.24,4.76-5.77,7.45-10.22,8-13.25l3,0.53c-0.64,3.59-3.47,8.38-8.63,14.63C119.84,101.6,107.61,104.37,96.72,104.37Z" style="fill: #99bdc1"/> <path d="M85.91,97.24c-7.37,0-14.87-3.12-21-8.82C53.57,77.87,48.5,62.24,44,48.44l-0.32-1q-0.37-1.15-.74-2.31C41.19,39.57,39.35,33.8,36,29l2.46-1.72c3.62,5.17,5.53,11.16,7.38,17l0.74,2.29,0.32,1c4.57,14.11,9.3,28.69,20.07,38.71,6.39,5.95,14.35,8.8,21.86,7.83,17-2.19,29.4-16.32,35.36-28.8,2.5-5.22,5-11.52,5-18.6h3c0,7.68-2.7,14.37-5.34,19.9C120.57,79.75,107.36,94.69,89.19,97A25.69,25.69,0,0,1,85.91,97.24Z" style="fill: #99bdc1"/> <circle cx="27.17" cy="127.92" r="6.65" style="fill: #99bdc1"/> <circle cx="43.78" cy="142.75" r="6.65" style="fill: #99bdc1"/> <circle id="sprites_math-h-newdot" cx="135.13" cy="140.67" r="5.69" style="fill: #bee5ea"/> </g> <g id="sprites_math-h-math-h-anim2"> <rect x="111.88" y="6.54" width="49.92" height="159.29" style="fill: #a9d8e0"/> <polygon points="153.99 157.17 120.21 157.29 119.69 15.46 153.99 15.46 153.99 157.17" style="fill: #a9d8e0"/> <rect x="10.37" y="6.54" width="49.92" height="159.29" style="fill: #a9d8e0"/> <path d="M134.79,56.89a9.54,9.54,0,1,0-6.62-2.77A9.22,9.22,0,0,0,134.79,56.89Z" style="fill: #bee5ea"/> <path d="M135,114.89a7.4,7.4,0,1,0-5.13-2.15A7.15,7.15,0,0,0,135,114.89Z" style="fill: #bee5ea"/> <path d="M134.79,85.7A9.36,9.36,0,1,0,128.29,83,9,9,0,0,0,134.79,85.7Z" style="fill: #bee5ea"/> <path d="M135.15,148a7.39,7.39,0,1,0-5.13-2.15A7.14,7.14,0,0,0,135.15,148Z" style="fill: #bee5ea"/> <circle cx="37.13" cy="26.56" r="11.1" style="fill: #bee5ea"/> <circle cx="43.78" cy="68.9" r="11.1" style="fill: #bee5ea"/> <rect x="23.17" y="114.55" width="8" height="40.36" style="fill: #bee5ea"/> <rect x="39.78" y="114.55" width="8" height="40.36" style="fill: #bee5ea"/> <circle cx="134.13" cy="76.47" r="6.29" style="fill: #99bdc1"/> <circle cx="43.78" cy="68.9" r="6.29" style="fill: #99bdc1"/> <circle cx="37.49" cy="27.31" r="6.29" style="fill: #99bdc1"/> <circle cx="135.1" cy="47.49" r="6.29" style="fill: #99bdc1"/> <path d="M134.37,82.76a1.55,1.55,0,0,1-1.05-.66A10,10,0,0,1,132,78.16c-0.11-.61-0.2-1.28-0.29-1.93s-0.19-1.36-.3-1.95a1.48,1.48,0,0,1,0-.51h0c0-.15.09-0.14,0.12,0,0.12,0.63.22,1.34,0.31,2s0.17,1.28.28,1.84a9.4,9.4,0,0,0,1.28,3.7c0.53,0.65,1.85,1.73,2.56-2.29,0.22-1.24.36-2.23,0.41-3,0-.18.05-0.29,0.09-0.26h0a0.89,0.89,0,0,1,.06.48,31.72,31.72,0,0,1-.44,3.21C135.6,82.07,135,82.76,134.37,82.76Z" style="fill: #99bdc1"/> <path d="M111.85,97.24c-3.24,0-6.54-3.08-9.24-8.73-5-10.43-7.21-25.91-9.18-39.56l-0.14-1q-0.16-1.14-.33-2.28a106.32,106.32,0,0,0-3.07-16L91,28c1.59,5.11,2.43,11,3.24,16.78l0.32,2.27,0.14,1c2,14,4.09,28.39,8.83,38.3,2.81,5.88,6.31,8.71,9.62,7.75,7.47-2.17,12.93-16.15,15.55-28.5a87.3,87.3,0,0,0,2.22-18.41h1.32a93,93,0,0,1-2.35,19.69C127.1,79.93,121.29,94.71,113.29,97A5.17,5.17,0,0,1,111.85,97.24Z" style="fill: #99bdc1"/> <circle cx="27.17" cy="143.36" r="6.65" style="fill: #99bdc1"/> <circle cx="43.78" cy="126.74" r="6.65" style="fill: #99bdc1"/> <circle id="sprites_math-h-newdot-2" data-name="newdot" cx="135.13" cy="140.67" r="5.69" style="fill: #bee5ea"/> </g> </symbol><symbol viewBox="0 0 248 158.86" id="shape-sprites_math-m"><title>sprites</title>  <g id="sprites_math-m-math-m-anim1"> <polygon points="85.21 0 2.73 158.86 163.12 158.86 85.21 0" style="fill: #ea455e"/> <polygon points="165.41 0 82.92 158.86 243.31 158.86 165.41 0" style="fill: #403f4f"/> </g> <g id="sprites_math-m-math-m-anim2"> <polygon points="127.21 0 44.73 158.86 205.12 158.86 127.21 0" style="fill: #ea455e"/> <polygon points="131.41 0 48.92 158.86 209.31 158.86 131.41 0" style="fill: #403f4f"/> </g> </symbol><symbol viewBox="0 0 164.67 162.42" id="shape-sprites_math-t"><title>sprites</title>  <g id="sprites_math-t-math-t-anim1"> <rect x="59.77" y="22.9" width="49.92" height="139.52" style="fill: #3c7457"/> <rect x="14.97" y="3.07" width="139.52" height="49.91" style="fill: #fb951f"/> </g> <g id="sprites_math-t-math-t-anim2"> <rect x="59.77" y="22.9" width="49.92" height="139.52" style="fill: #3c7457"/> <rect x="14.97" y="112.51" width="139.52" height="49.91" style="fill: #fb951f"/> </g> </symbol><symbol viewBox="0 0 161.41 158.43" id="shape-sprites_music-c"><title>sprites</title>  <g id="sprites_music-c-music-c-anim1"> <path d="M60.55,79.21A18.8,18.8,0,0,1,79.18,60.42L79.06,0a79.21,79.21,0,0,0,.29,158.43L79.24,98A18.8,18.8,0,0,1,60.55,79.21Z" style="fill: #3e372f"/> </g> <g id="sprites_music-c-music-c-anim2"> <path d="M79.21-.52l0.11,60.93h0a18.8,18.8,0,0,1,0,37.6l0.11,59.9A79.21,79.21,0,0,0,79.21-.52Z" style="fill: #3e372f"/> </g> </symbol><symbol viewBox="0 0 49.91 207.79" id="shape-sprites_music-i"><title>sprites</title>  <g id="sprites_music-i-music-i-anim1"> <rect y="24.54" width="49.91" height="158.97" style="fill: #e2b2b0"/> <circle cx="25.23" cy="164.24" r="4.61" style="fill: #cc8b8b"/> <circle cx="25.23" cy="149.24" r="4.61" style="fill: #cc8b8b"/> <circle cx="25.23" cy="123.13" r="4.61" style="fill: #cc8b8b"/> <circle cx="25.23" cy="108.13" r="4.61" style="fill: #cc8b8b"/> <circle cx="25.23" cy="93.13" r="4.61" style="fill: #cc8b8b"/> <circle cx="25.23" cy="40.15" r="6.2" style="fill: #cc8b8b"/> </g> <g id="sprites_music-i-music-i-anim2"> <rect y="1.06" width="49.91" height="206.73" style="fill: #e2b2b0"/> <ellipse cx="25.23" cy="182.72" rx="4.61" ry="6" style="fill: #cc8b8b"/> <ellipse cx="25.23" cy="163.22" rx="4.61" ry="6" style="fill: #cc8b8b"/> <ellipse cx="25.23" cy="129.26" rx="4.61" ry="6" style="fill: #cc8b8b"/> <ellipse cx="25.23" cy="109.75" rx="4.61" ry="6" style="fill: #cc8b8b"/> <ellipse cx="25.23" cy="90.25" rx="4.61" ry="6" style="fill: #cc8b8b"/> <ellipse cx="25.23" cy="21.36" rx="6.2" ry="8.07" style="fill: #cc8b8b"/> </g> </symbol><symbol viewBox="0 0 246.92 206.91" id="shape-sprites_music-m"><title>sprites</title>  <g id="sprites_music-m-music-m-anim1"> <polygon points="87.36 41.78 4.95 200.48 165.19 200.48 87.36 41.78" style="fill: #fdbc2e"/> <path d="M171.33,37.51V10.59a7.67,7.67,0,0,0-15.35,0V38.84a19.35,19.35,0,0,0-4.18,5L71.59,178.6C65,189.71,71.11,200.48,84,200.48H224.3a5.75,5.75,0,1,0,0-11.51H84c-4,0-4.6-1.05-2.55-4.49L161.69,49.74c2.12-3.57,3.69-3.56,5.83,0l66.31,111.4a5.75,5.75,0,1,0,9.89-5.89L177.41,43.88A18.2,18.2,0,0,0,171.33,37.51Z" style="fill: #f99324"/> </g> <g id="sprites_music-m-music-m-anim2"> <polygon points="126.18 41.78 54.23 180.35 194.13 180.35 126.18 41.78" style="fill: #fdbc2e"/> <path d="M132.67,37.51V10.59a7.67,7.67,0,0,0-15.35,0V38.84a19.35,19.35,0,0,0-4.18,5L32.93,178.6c-6.61,11.11-.49,21.88,12.44,21.88H185.64a5.75,5.75,0,1,0,0-11.51H45.38c-4,0-4.6-1.05-2.55-4.49L123,49.74c2.12-3.57,3.69-3.56,5.83,0l66.31,111.4a5.75,5.75,0,1,0,9.89-5.89L138.75,43.88A18.2,18.2,0,0,0,132.67,37.51Z" style="fill: #f99324"/> </g> </symbol><symbol viewBox="0 0 208.52 210.53" id="shape-sprites_music-s"><title>sprites</title>  <g id="sprites_music-s-music-s-anim1"> <path d="M167.4,108.52a69.89,69.89,0,1,0-138.77,16.8Z" style="fill: #f04565"/> <path d="M19.59,127.86a69.89,69.89,0,1,0,138.77-16.8Z" style="fill: #6e4565"/> <path d="M143.82,69l16.6-1.88c9.3-1.22,19.05,7.85,24.62,14.22a30.7,30.7,0,0,0,3.59,4.85L189,86.48c2,1.51,4.2,2.7,7.1,2.32,13-2,10.45-28.56,9.69-34.37s-4.51-32.22-17.55-30.22c-2.91.38-4.75,2.1-6.52,4.4a17.39,17.39,0,0,0-2.47,5.94c-3.23,6.92-8.81,16.23-16.06,19.54-0.58.08-1.42,0.48-2,.56l-18.6,2.43a1.88,1.88,0,0,1-1.64-1.26L139,39.22a1.26,1.26,0,0,1,1-1.31c2.5-1.21,4.27-3.51,3.89-6.42a5.9,5.9,0,0,0-6.82-4.72l-9.88,1.29c-2.91.38-5.51,3.09-5.46,5.74a5.29,5.29,0,0,0,4.58,5.61c0.58-.08,1,0.76,1.06,1.34l2.21,16.85a1.88,1.88,0,0,1-1.26,1.64L115,61a1.26,1.26,0,0,1-1.31-1l-2.28-17.44c-0.08-.58.18-0.91,1-1.31,2.5-1.21,4.19-4.1,3.56-6.67s-3.84-4.52-6.75-4.14L99.33,31.7c-2.91.38-5.51,3.09-5.46,5.74A5.37,5.37,0,0,0,99,43a1.26,1.26,0,0,1,1.31,1l2.28,17.44a1.26,1.26,0,0,1-1,1.31l-14.53,1.9a0.86,0.86,0,0,1-1.31-1l-2-17.18a2.49,2.49,0,0,1,.68-1.57c2.17-1.47,3.61-4,2.65-6.85a5.65,5.65,0,0,0-6.42-3.89L70.6,35.76a6.27,6.27,0,0,0-5.46,5.74,5.87,5.87,0,0,0,5.49,5.78c0.58-.08,1,0.76,1.06,1.34L73.9,65.48a1.85,1.85,0,0,1-1.26,1.64L61.34,68.89a31.82,31.82,0,0,0-27.66,32.58,30.38,30.38,0,0,0,8.74,20l20.73-3.23A19.12,19.12,0,0,1,45.31,100c-0.13-10,7.93-18.48,17.81-19.77l11.29-1.77a1.26,1.26,0,0,1,1.31,1l4.39,35.78a1,1,0,0,1,0,.39l11.54-1.8a4,4,0,0,1-.21-0.37L87,77.65a1.26,1.26,0,0,1,1-1.31L129,70.68a1.88,1.88,0,0,1,1.64,1.26l4.3,35.12,11.88-1.85-4.23-34.54A1.88,1.88,0,0,1,143.82,69Z" style="fill: #f04565"/> <path d="M141.78,132.72a19.58,19.58,0,0,1-16.44,23.43L50.45,166.54a1.26,1.26,0,0,1-1.31-1l-3.28-28.74-12,2.86,3.4,27.74a1.26,1.26,0,0,1-1,1.31l-7,.91c-0.58.08-.58,0.08-0.66-0.5-2.71-9.4-8.78-15.11-15.75-14.2C4.73,156-.12,166.36,1.3,179.47S10.08,201.38,18.47,200c7-.91,11.37-8,11.82-18.1-0.33-.25-0.08-0.58.5-0.66l94.91-13.31a31.82,31.82,0,0,0,27.66-32.58,30.37,30.37,0,0,0-10.53-21.64l-19.3,4.6A19.46,19.46,0,0,1,141.78,132.72Z" style="fill: #6e4565"/> <path d="M61.54,114.07A19.11,19.11,0,0,1,40,95.91c-0.13-10,7.93-18.48,17.81-19.77l11.29-1.77a1.26,1.26,0,0,1,1.31,1l4.39,35.78a1.26,1.26,0,0,1-1,1.31Z" style="fill: #f47a94"/> <path d="M86.05,109.38L81.67,73.6a1.26,1.26,0,0,1,1-1.31l40.94-5.65a1.88,1.88,0,0,1,1.64,1.26l4.31,35.2a1.85,1.85,0,0,1-1.26,1.64l-40.93,5.65C86.79,110.47,86.46,110.21,86.05,109.38Z" style="fill: #f47a94"/> <path d="M51.95,167.77l-4.06-35.53a1.85,1.85,0,0,1,1.26-1.64L97.06,124l25.57-3.35c9.88-1.29,19.51,4.54,22,14.27a19.58,19.58,0,0,1-16.44,23.43L53.26,168.78A1.26,1.26,0,0,1,51.95,167.77Z" style="fill: #af77a5"/> </g> <g id="sprites_music-s-music-s-anim2"> <path d="M167.4,108.52a69.89,69.89,0,1,0-138.77,16.8Z" style="fill: #f04565"/> <path d="M19.59,127.86a69.89,69.89,0,1,0,138.77-16.8Z" style="fill: #6e4565"/> <path d="M143.82,69l16.6-1.88c9.3-1.22,19.05,7.85,24.62,14.22a30.7,30.7,0,0,0,3.59,4.85L189,86.48c2,1.51,4.2,2.7,7.1,2.32,13-2-.67-27.49-1.43-33.3s6.61-33.29-6.43-31.29c-2.91.38-4.75,2.1-6.52,4.4a17.39,17.39,0,0,0-2.47,5.94c-3.23,6.92-8.81,16.23-16.06,19.54-0.58.08-1.42,0.48-2,.56l-18.6,2.43a1.88,1.88,0,0,1-1.64-1.26l-0.26-4.92c-0.08-.58-0.53-3,0-3,2.5-1.21,4.27-3.51,3.89-6.42a5.9,5.9,0,0,0-6.82-4.72L127.88,38c-2.91.38-5.51,3.09-5.46,5.74A5.29,5.29,0,0,0,127,49.35c0.58-.08,2,2.49,2,3.07l0.59,5.17a1.88,1.88,0,0,1-1.26,1.64L115,61a1.26,1.26,0,0,1-1.31-1l-2.28-14.4c-0.08-.58-0.55-0.39.29-0.79,2.5-1.21,4.19-4.1,3.56-6.67s-3.84-4.52-6.75-4.14l-9.88,1.29c-2.91.38-5.51,3.09-5.46,5.74a5.37,5.37,0,0,0,5.16,5.53c0.58-.08,2-0.1,2,0.48l2.28,14.4a1.26,1.26,0,0,1-1,1.31l-14.53,1.9a0.86,0.86,0,0,1-1.31-1l-2-17.18C83.75,45.86,82.72,35.2,83,34.87c2.17-1.47,3.61-4,2.65-6.85a5.65,5.65,0,0,0-6.42-3.89L69.07,25.75a6.27,6.27,0,0,0-5.46,5.74,5.87,5.87,0,0,0,5.49,5.78c0.58-.08,2.52,10.77,2.6,11.35L73.9,65.48a1.85,1.85,0,0,1-1.26,1.64L61.34,68.89a31.82,31.82,0,0,0-27.66,32.58,30.38,30.38,0,0,0,8.74,20l20.73-3.23A19.12,19.12,0,0,1,45.31,100c-0.13-10,7.93-18.48,17.81-19.77l11.29-1.77a1.26,1.26,0,0,1,1.31,1l4.39,35.78a1,1,0,0,1,0,.39l11.54-1.8a4,4,0,0,1-.21-0.37L87,77.65a1.26,1.26,0,0,1,1-1.31L129,70.68a1.88,1.88,0,0,1,1.64,1.26l4.3,35.12,11.88-1.85-4.23-34.54A1.88,1.88,0,0,1,143.82,69Z" style="fill: #f04565"/> <path d="M141.78,132.72a19.58,19.58,0,0,1-16.44,23.43L50.45,166.54a1.26,1.26,0,0,1-1.31-1l-3.28-28.74-12,2.86,3.4,27.74a1.26,1.26,0,0,1-1,1.31l-7,.91c-0.58.08-.58,0.08-0.66-0.5-2.71-9.4-8.78-15.11-15.75-14.2-8.14,1.06-.15,9.23,1.27,22.34S10.08,201.38,18.47,200c7-.91,11.37-8,11.82-18.1-0.33-.25-0.08-0.58.5-0.66l94.91-13.31a31.82,31.82,0,0,0,27.66-32.58,30.37,30.37,0,0,0-10.53-21.64l-19.3,4.6A19.46,19.46,0,0,1,141.78,132.72Z" style="fill: #6e4565"/> <path d="M61.54,114.07A19.11,19.11,0,0,1,40,95.91c-0.13-10,7.93-18.48,17.81-19.77l11.29-1.77a1.26,1.26,0,0,1,1.31,1l4.39,35.78a1.26,1.26,0,0,1-1,1.31Z" style="fill: #f47a94"/> <path d="M86.05,109.38L81.67,73.6a1.26,1.26,0,0,1,1-1.31l40.94-5.65a1.88,1.88,0,0,1,1.64,1.26l4.31,35.2a1.85,1.85,0,0,1-1.26,1.64l-40.93,5.65C86.79,110.47,86.46,110.21,86.05,109.38Z" style="fill: #f47a94"/> <path d="M51.95,167.77l-4.06-35.53a1.85,1.85,0,0,1,1.26-1.64L97.06,124l25.57-3.35c9.88-1.29,19.51,4.54,22,14.27a19.58,19.58,0,0,1-16.44,23.43L53.26,168.78A1.26,1.26,0,0,1,51.95,167.77Z" style="fill: #af77a5"/> </g> </symbol><symbol viewBox="0 0 127.19 166.33" id="shape-sprites_music-u"><title>sprites</title>  <g id="sprites_music-u-music-u-anim1"> <rect x="2.76" width="51.68" height="100.76" style="fill: #a2b985"/> <rect x="69.14" width="51.67" height="100.76" style="fill: #fb8e1a"/> <path d="M2.76,100.81a59,59,0,0,0,118.05-.22Z" style="fill: #92b9d6"/> </g> <g id="sprites_music-u-music-u-anim2"> <rect x="69.14" width="51.68" height="100.76" style="fill: #a2b985"/> <rect x="2.76" width="51.67" height="100.76" style="fill: #fb8e1a"/> <path d="M2.76,100.81a59,59,0,0,0,118.05-.22Z" style="fill: #92b9d6"/> </g> </symbol><symbol viewBox="0 0 170 163.74" id="shape-sprites_science-c1"><title>sprites</title>  <g id="sprites_science-c1-science-c1-anim1"> <path d="M83.16,0a79.21,79.21,0,0,0,.29,158.43Z" style="fill: #476f4d"/> <circle cx="83.46" cy="76.46" r="18.8" style="fill: #fff"/> </g> <g id="sprites_science-c1-science-c1-anim2"> <path d="M83.6,158.59A79.21,79.21,0,0,0,83.31.17Z" style="fill: #476f4d"/> <circle cx="83.46" cy="76.46" r="18.8" style="fill: #fff"/> </g> </symbol><symbol viewBox="0 0 114.7 157.41" id="shape-sprites_science-e1"><title>sprites</title>  <g id="sprites_science-e1-science-e1-anim1"> <circle cx="83.21" cy="78.71" r="18.8" style="fill: #f73724"/> <rect y="-0.35" width="114.7" height="51.87" style="fill: #c85763"/> <rect width="51.87" height="157.41" style="fill: #c23f3f"/> <rect y="105.54" width="114.7" height="51.87" style="fill: #e2b2b0"/> </g> <g id="sprites_science-e1-science-e1-anim2"> <ellipse cx="55.61" cy="78.71" rx="4.2" ry="18.8" style="fill: #f73724"/> <rect y="-0.35" width="114.7" height="51.87" style="fill: #c85763"/> <rect width="51.87" height="157.41" style="fill: #c23f3f"/> <rect y="105.54" width="114.7" height="51.87" style="fill: #e2b2b0"/> </g> </symbol><symbol viewBox="0 0 75.74 176" id="shape-sprites_science-i"><title>sprites</title>  <g id="sprites_science-i-science-i-anim1"> <rect x="13.83" y="7.36" width="49.91" height="158.97" style="fill: #9e9b3c"/> <circle cx="38.78" cy="89.47" r="18.8" style="fill: #c4bf62"/> <path d="M28.15,15.28c0,69.75,0,69.75,0,139.49" style="fill: none;stroke: #fff;stroke-linecap: round;stroke-linejoin: round;stroke-width: 3px"/> <path d="M38.78,15.28c0,69.75,0,69.75,0,139.49" style="fill: none;stroke: #fff;stroke-linecap: round;stroke-linejoin: round;stroke-width: 3px"/> <path d="M49,15.28C49,85,49,85,49,154.77" style="fill: none;stroke: #fff;stroke-linecap: round;stroke-linejoin: round;stroke-width: 3px"/> </g> <g id="sprites_science-i-science-i-anim2"> <rect x="13.83" y="7.36" width="49.91" height="158.97" style="fill: #9e9b3c"/> <circle cx="38.78" cy="89.47" r="18.8" style="fill: #c4bf62"/> <path d="M31.15,15.28c0,13.95-6,13.95-6,27.9s6,13.95,6,27.9-6,13.95-6,27.9,6,14,6,27.9-6,14-6,27.9" style="fill: none;stroke: #fff;stroke-linecap: round;stroke-linejoin: round;stroke-width: 3px"/> <path d="M40.78,15.28c0,11.62-4,11.62-4,23.25s4,11.62,4,23.25-4,11.62-4,23.25,4,11.62,4,23.25-4,11.63-4,23.25,4,11.63,4,23.25" style="fill: none;stroke: #fff;stroke-linecap: round;stroke-linejoin: round;stroke-width: 3px"/> <path d="M51,15.28C51,24,47,24,47,32.71s4,8.72,4,17.43-4,8.72-4,17.44S51,76.3,51,85s-4,8.72-4,17.44,4,8.72,4,17.44-4,8.72-4,17.44,4,8.72,4,17.44" style="fill: none;stroke: #fff;stroke-linecap: round;stroke-linejoin: round;stroke-width: 3px"/> </g> </symbol><symbol viewBox="0 0 108.58 159.59" id="shape-sprites_science-n"><title>sprites</title>  <g id="sprites_science-n-science-n-anim1"> <polygon points="0 5.48 1.3 159.59 100.28 159.59 0 5.48" style="fill: #266187"/> <polygon points="110.58 154.11 109.27 0 10.29 0 110.58 154.11" style="fill: #4096c7"/> </g> <g id="sprites_science-n-science-n-anim2"> <polygon points="4 2.48 5.3 156.59 104.28 156.59 4 2.48" style="fill: #266187"/> <polygon points="104.58 157.11 103.27 3 4.29 3 104.58 157.11" style="fill: #4096c7"/> </g> </symbol><symbol viewBox="0 0 146.67 167.33" id="shape-sprites_science-s"><title>sprites</title>  <g id="sprites_science-s-science-s-anim1"> <path d="M7.3,117.46A69.89,69.89,0,1,0,138.63,69.58Z" style="fill: #fdbc2e"/> <ellipse cx="73.3" cy="93.54" rx="69.98" ry="15.98" transform="matrix(0.95, -0.32, 0.32, 0.95, -26.11, 28.42)" style="fill: #dba02a"/> <ellipse cx="73.3" cy="93.54" rx="28.88" ry="6.6" transform="translate(-26.11 28.42) rotate(-18.69)" style="fill: #b7852e"/> <path d="M7.3,117.46a69.89,69.89,0,0,0,89.6,41.73c36.27-13.22,55.72-52.23,42.5-88.5Z" style="fill: #fdbc2e"/> <path d="M140.22,49.57A69.89,69.89,0,1,0,8.9,97.45Z" style="fill: #6e7d2a"/> </g> <g id="sprites_science-s-science-s-anim2"> <path d="M7.3,117.46A69.89,69.89,0,1,0,138.63,69.58Z" style="fill: #fdbc2e"/> <ellipse cx="73.3" cy="93.54" rx="69.98" ry="15.98" transform="matrix(0.95, -0.32, 0.32, 0.95, -26.11, 28.42)" style="fill: #dba02a"/> <ellipse cx="73.3" cy="93.54" rx="28.88" ry="6.6" transform="translate(-26.11 28.42) rotate(-18.69)" style="fill: #b7852e"/> <path d="M7.3,117.46a69.89,69.89,0,0,0,89.6,41.73c36.27-13.22,55.72-52.23,42.5-88.5Z" style="fill: #fdbc2e"/> <path d="M139.22,70.57A69.89,69.89,0,1,0,7.9,118.45Z" style="fill: #6e7d2a"/> </g> </symbol><symbol viewBox="0 0 160.39 158.85" id="shape-sptires_math-a"><title>sptires</title>  <g id="sptires_math-a-math-a-anim1"> <polygon points="82.48 0 0 158.85 160.39 158.85 82.48 0" style="fill: #e0a9b1"/> <path d="M146.61,130.67l-4.48-9.17-14.68,7.17a2,2,0,1,1-1.79-3.67l14.67-7.17-3.58-7.34-14.67,7.17a2,2,0,0,1-1.79-3.67L135,106.82l-3.58-7.33-14.67,7.17a2,2,0,1,1-1.79-3.67l14.67-7.17L126,88.48l-14.67,7.17A2,2,0,1,1,109.54,92l14.67-7.17-3.58-7.34L106,84.64A2,2,0,0,1,104.17,81l14.67-7.17-3.58-7.33-14.67,7.17A2,2,0,0,1,98.79,70l14.67-7.17-3.58-7.34L95.21,62.63A2,2,0,1,1,93.42,59l14.67-7.17-4.48-9.17a2,2,0,0,0-2.73-.94L71.54,56a2,2,0,0,0-.94,2.73l43,88a2,2,0,0,0,2.73.94l29.35-14.33A2,2,0,0,0,146.61,130.67Z" style="fill: #b57682"/> </g> <g id="sptires_math-a-math-a-anim2"> <polygon points="82.48 0 0 158.85 160.39 158.85 82.48 0" style="fill: #e0a9b1"/> <path d="M64.37,35.52l-4.7,9.06L74.16,52.1a2,2,0,1,1-1.88,3.62L57.79,48.2,54,55.44,68.52,63a2,2,0,0,1-1.88,3.62L52.14,59.07l-3.76,7.24,14.49,7.53A2,2,0,1,1,61,77.46L46.5,69.94l-3.76,7.25,14.49,7.53a2,2,0,1,1-1.88,3.62L40.85,80.81l-3.76,7.25,14.49,7.53A2,2,0,0,1,49.7,99.2L35.21,91.68l-3.76,7.24,14.49,7.53a2,2,0,0,1-1.88,3.62l-14.49-7.53-3.76,7.25,14.49,7.52a2,2,0,1,1-1.88,3.62l-14.49-7.53-4.7,9.06a2,2,0,0,0,.87,2.75l29,15.05a2,2,0,0,0,2.75-.87L97,52.45a2,2,0,0,0-.87-2.75l-29-15.05A2,2,0,0,0,64.37,35.52Z" style="fill: #b57682"/> </g> </symbol><symbol viewBox="0 0 201.23 180.67" id="shape-sptires_math-h"><title>sptires</title>  <g id="sptires_math-h-math-h-anim1"> <rect x="111.88" y="6.54" width="49.92" height="159.29" style="fill: #a9d8e0"/> <polygon points="153.99 157.17 120.21 157.29 119.69 15.46 153.99 15.46 153.99 157.17" style="fill: #a9d8e0"/> <rect x="10.37" y="6.54" width="49.92" height="159.29" style="fill: #a9d8e0"/> <path d="M134.79,56.89a9.54,9.54,0,1,0-6.62-2.77A9.22,9.22,0,0,0,134.79,56.89Z" style="fill: #bee5ea"/> <path d="M135,114.89a7.4,7.4,0,1,0-5.13-2.15A7.15,7.15,0,0,0,135,114.89Z" style="fill: #bee5ea"/> <path d="M134.79,85.7A9.36,9.36,0,1,0,128.29,83,9,9,0,0,0,134.79,85.7Z" style="fill: #bee5ea"/> <path d="M135.15,148a7.39,7.39,0,1,0-5.13-2.15A7.14,7.14,0,0,0,135.15,148Z" style="fill: #bee5ea"/> <circle cx="37.13" cy="26.56" r="11.1" style="fill: #bee5ea"/> <circle cx="43.78" cy="68.9" r="11.1" style="fill: #bee5ea"/> <rect x="23.17" y="114.55" width="8" height="40.36" style="fill: #bee5ea"/> <rect x="39.78" y="114.55" width="8" height="40.36" style="fill: #bee5ea"/> <circle cx="134.13" cy="76.47" r="6.29" style="fill: #99bdc1"/> <circle cx="43.78" cy="68.9" r="6.29" style="fill: #99bdc1"/> <circle cx="37.49" cy="27.31" r="6.29" style="fill: #99bdc1"/> <circle cx="135.1" cy="47.49" r="6.29" style="fill: #99bdc1"/> <path d="M96.72,104.37A79.8,79.8,0,0,1,77,101.7,52.46,52.46,0,0,1,51.35,85.79,67.7,67.7,0,0,1,45.86,78a52.68,52.68,0,0,0-6.57-8.89L41.44,67a55.77,55.77,0,0,1,7,9.38,65.52,65.52,0,0,0,5.24,7.44,49.35,49.35,0,0,0,24.12,15c10,2.63,34.74,7,48.15-9.24,4.76-5.77,7.45-10.22,8-13.25l3,0.53c-0.64,3.59-3.47,8.38-8.63,14.63C119.84,101.6,107.61,104.37,96.72,104.37Z" style="fill: #99bdc1"/> <path d="M85.91,97.24c-7.37,0-14.87-3.12-21-8.82C53.57,77.87,48.5,62.24,44,48.44l-0.32-1q-0.37-1.15-.74-2.31C41.19,39.57,39.35,33.8,36,29l2.46-1.72c3.62,5.17,5.53,11.16,7.38,17l0.74,2.29,0.32,1c4.57,14.11,9.3,28.69,20.07,38.71,6.39,5.95,14.35,8.8,21.86,7.83,17-2.19,29.4-16.32,35.36-28.8,2.5-5.22,5-11.52,5-18.6h3c0,7.68-2.7,14.37-5.34,19.9C120.57,79.75,107.36,94.69,89.19,97A25.69,25.69,0,0,1,85.91,97.24Z" style="fill: #99bdc1"/> <circle cx="27.17" cy="127.92" r="6.65" style="fill: #99bdc1"/> <circle cx="43.78" cy="142.75" r="6.65" style="fill: #99bdc1"/> </g> <g id="sptires_math-h-math-h-anim2"> <rect x="111.88" y="6.54" width="49.92" height="159.29" style="fill: #a9d8e0"/> <polygon points="153.99 157.17 120.21 157.29 119.69 15.46 153.99 15.46 153.99 157.17" style="fill: #a9d8e0"/> <rect x="10.37" y="6.54" width="49.92" height="159.29" style="fill: #a9d8e0"/> <path d="M134.79,56.89a9.54,9.54,0,1,0-6.62-2.77A9.22,9.22,0,0,0,134.79,56.89Z" style="fill: #bee5ea"/> <path d="M135,114.89a7.4,7.4,0,1,0-5.13-2.15A7.15,7.15,0,0,0,135,114.89Z" style="fill: #bee5ea"/> <path d="M134.79,85.7A9.36,9.36,0,1,0,128.29,83,9,9,0,0,0,134.79,85.7Z" style="fill: #bee5ea"/> <path d="M135.15,148a7.39,7.39,0,1,0-5.13-2.15A7.14,7.14,0,0,0,135.15,148Z" style="fill: #bee5ea"/> <circle cx="37.13" cy="26.56" r="11.1" style="fill: #bee5ea"/> <circle cx="43.78" cy="68.9" r="11.1" style="fill: #bee5ea"/> <rect x="23.17" y="114.55" width="8" height="40.36" style="fill: #bee5ea"/> <rect x="39.78" y="114.55" width="8" height="40.36" style="fill: #bee5ea"/> <circle cx="134.13" cy="76.47" r="6.29" style="fill: #99bdc1"/> <circle cx="43.78" cy="68.9" r="6.29" style="fill: #99bdc1"/> <circle cx="37.49" cy="27.31" r="6.29" style="fill: #99bdc1"/> <circle cx="135.1" cy="47.49" r="6.29" style="fill: #99bdc1"/> <path d="M101.74,107c-12.86,4.41-23.32,5.44-28.25,5.06-12.07-.37-11.52-9.9-6.1-22.41A63.26,63.26,0,0,0,71.15,77c0.77-5.1,0-9.64-2.27-13.39a18.11,18.11,0,0,0-.39-2.75,20,20,0,0,1,4.38,13.68,53.28,53.28,0,0,1-2.12,11.78c-3.57,11.39-3.66,20.15,6.55,20.92,4.45,0.9,17-.56,29.93-5.54,12.51-4.63,25.31-12.79,21.7-17.13-2.14-3.39-6.5-4.87-10-6.38q1.32,0.23,2.71.42c4.49,1.56,9.63,2.7,12.19,6.05C138.26,89.84,119.11,101.24,101.74,107Z" style="fill: #99bdc1"/> <path d="M85.92,93.58c-7.45,15.16-15,27.16-21.17,27.39C53.4,121,48.48,93.72,44.18,69.83L43.88,68q-0.36-2.12-.71-4.29c-1.7-10.69-3.46-21.72-6.72-40q1.23,3.75,2.46,6.82C42.42,48.21,44.25,58.45,46,68.51q0.35,1.95.71,3.84L47,74c4.41,22,9,44.29,19.79,42.26,6.4-1.4,14.44-15.66,22-31.59,8.56-18.31,16-32.12,21.93-38.24,6-6.59,10.51-5.48,13.43-4.91,2.44,0.41,4.9,3.1,4.81-2.84q1.49,4.72,3,10.45c0.11,6.38-2.5,1.66-5.07-.24-3.08-2.35-7.9-6-14.26-.57-6.36,4.86-14.26,18.81-23.43,38.52C88.14,89.08,87,91.36,85.92,93.58Z" style="fill: #99bdc1"/> <circle cx="27.17" cy="147.96" r="6.65" style="fill: #99bdc1"/> <circle cx="43.78" cy="124.17" r="6.65" style="fill: #99bdc1"/> </g> </symbol><symbol viewBox="0 0 248 158.86" id="shape-sptires_math-m"><title>sptires</title>  <g id="sptires_math-m-math-m-anim1"> <polygon points="85.21 0 2.73 158.86 163.12 158.86 85.21 0" style="fill: #ea455e"/> <polygon points="165.41 0 82.92 158.86 243.31 158.86 165.41 0" style="fill: #403f4f"/> </g> <g id="sptires_math-m-math-m-anim2"> <polygon points="127.21 0 44.73 158.86 205.12 158.86 127.21 0" style="fill: #ea455e"/> <polygon points="131.41 0 48.92 158.86 209.31 158.86 131.41 0" style="fill: #403f4f"/> </g> </symbol><symbol viewBox="0 0 164.67 162.42" id="shape-sptires_math-t"><title>sptires</title>  <g id="sptires_math-t-math-t-anim1"> <rect x="59.77" y="22.9" width="49.92" height="139.52" style="fill: #3c7457"/> <rect x="14.97" y="3.07" width="139.52" height="49.91" style="fill: #fb951f"/> </g> <g id="sptires_math-t-math-t-anim2"> <rect x="59.77" y="22.9" width="49.92" height="139.52" style="fill: #3c7457"/> <rect x="14.97" y="112.51" width="139.52" height="49.91" style="fill: #fb951f"/> </g> </symbol><symbol viewBox="0 0 161.41 158.43" id="shape-sptires_music-c"><title>sptires</title>  <g id="sptires_music-c-music-c-anim1"> <path d="M60.55,79.21A18.8,18.8,0,0,1,79.18,60.42L79.06,0a79.21,79.21,0,0,0,.29,158.43L79.24,98A18.8,18.8,0,0,1,60.55,79.21Z" style="fill: #3e372f"/> </g> <g id="sptires_music-c-music-c-anim2"> <path d="M79.21-.52l0.11,60.93h0a18.8,18.8,0,0,1,0,37.6l0.11,59.9A79.21,79.21,0,0,0,79.21-.52Z" style="fill: #3e372f"/> </g> </symbol><symbol viewBox="0 0 49.91 207.79" id="shape-sptires_music-i"><title>sptires</title>  <g id="sptires_music-i-music-i-anim1"> <rect y="24.54" width="49.91" height="158.97" style="fill: #e2b2b0"/> <circle cx="25.23" cy="164.24" r="4.61" style="fill: #cc8b8b"/> <circle cx="25.23" cy="149.24" r="4.61" style="fill: #cc8b8b"/> <circle cx="25.23" cy="123.13" r="4.61" style="fill: #cc8b8b"/> <circle cx="25.23" cy="108.13" r="4.61" style="fill: #cc8b8b"/> <circle cx="25.23" cy="93.13" r="4.61" style="fill: #cc8b8b"/> <circle cx="25.23" cy="40.15" r="6.2" style="fill: #cc8b8b"/> </g> <g id="sptires_music-i-music-i-anim2"> <rect y="1.06" width="49.91" height="206.73" style="fill: #e2b2b0"/> <ellipse cx="25.23" cy="182.72" rx="4.61" ry="6" style="fill: #cc8b8b"/> <ellipse cx="25.23" cy="163.22" rx="4.61" ry="6" style="fill: #cc8b8b"/> <ellipse cx="25.23" cy="129.26" rx="4.61" ry="6" style="fill: #cc8b8b"/> <ellipse cx="25.23" cy="109.75" rx="4.61" ry="6" style="fill: #cc8b8b"/> <ellipse cx="25.23" cy="90.25" rx="4.61" ry="6" style="fill: #cc8b8b"/> <ellipse cx="25.23" cy="21.36" rx="6.2" ry="8.07" style="fill: #cc8b8b"/> </g> </symbol><symbol viewBox="0 0 246.92 206.91" id="shape-sptires_music-m"><title>sptires</title>  <g id="sptires_music-m-music-m-anim1"> <polygon points="87.36 41.78 4.95 200.48 165.19 200.48 87.36 41.78" style="fill: #fdbc2e"/> <path d="M171.33,37.51V10.59a7.67,7.67,0,0,0-15.35,0V38.84a19.35,19.35,0,0,0-4.18,5L71.59,178.6C65,189.71,71.11,200.48,84,200.48H224.3a5.75,5.75,0,1,0,0-11.51H84c-4,0-4.6-1.05-2.55-4.49L161.69,49.74c2.12-3.57,3.69-3.56,5.83,0l66.31,111.4a5.75,5.75,0,1,0,9.89-5.89L177.41,43.88A18.2,18.2,0,0,0,171.33,37.51Z" style="fill: #f99324"/> </g> <g id="sptires_music-m-music-m-anim2"> <polygon points="126.18 41.78 54.23 180.35 194.13 180.35 126.18 41.78" style="fill: #fdbc2e"/> <path d="M132.67,37.51V10.59a7.67,7.67,0,0,0-15.35,0V38.84a19.35,19.35,0,0,0-4.18,5L32.93,178.6c-6.61,11.11-.49,21.88,12.44,21.88H185.64a5.75,5.75,0,1,0,0-11.51H45.38c-4,0-4.6-1.05-2.55-4.49L123,49.74c2.12-3.57,3.69-3.56,5.83,0l66.31,111.4a5.75,5.75,0,1,0,9.89-5.89L138.75,43.88A18.2,18.2,0,0,0,132.67,37.51Z" style="fill: #f99324"/> </g> </symbol><symbol viewBox="0 0 208.52 210.53" id="shape-sptires_music-s"><title>sptires</title>  <g id="sptires_music-s-music-s-anim1"> <path d="M167.4,108.52a69.89,69.89,0,1,0-138.77,16.8Z" style="fill: #f04565"/> <path d="M19.59,127.86a69.89,69.89,0,1,0,138.77-16.8Z" style="fill: #6e4565"/> <path d="M143.82,69l16.6-1.88c9.3-1.22,19.05,7.85,24.62,14.22a30.7,30.7,0,0,0,3.59,4.85L189,86.48c2,1.51,4.2,2.7,7.1,2.32,13-2,10.45-28.56,9.69-34.37s-4.51-32.22-17.55-30.22c-2.91.38-4.75,2.1-6.52,4.4a17.39,17.39,0,0,0-2.47,5.94c-3.23,6.92-8.81,16.23-16.06,19.54-0.58.08-1.42,0.48-2,.56l-18.6,2.43a1.88,1.88,0,0,1-1.64-1.26L139,39.22a1.26,1.26,0,0,1,1-1.31c2.5-1.21,4.27-3.51,3.89-6.42a5.9,5.9,0,0,0-6.82-4.72l-9.88,1.29c-2.91.38-5.51,3.09-5.46,5.74a5.29,5.29,0,0,0,4.58,5.61c0.58-.08,1,0.76,1.06,1.34l2.21,16.85a1.88,1.88,0,0,1-1.26,1.64L115,61a1.26,1.26,0,0,1-1.31-1l-2.28-17.44c-0.08-.58.18-0.91,1-1.31,2.5-1.21,4.19-4.1,3.56-6.67s-3.84-4.52-6.75-4.14L99.33,31.7c-2.91.38-5.51,3.09-5.46,5.74A5.37,5.37,0,0,0,99,43a1.26,1.26,0,0,1,1.31,1l2.28,17.44a1.26,1.26,0,0,1-1,1.31l-14.53,1.9a0.86,0.86,0,0,1-1.31-1l-2-17.18a2.49,2.49,0,0,1,.68-1.57c2.17-1.47,3.61-4,2.65-6.85a5.65,5.65,0,0,0-6.42-3.89L70.6,35.76a6.27,6.27,0,0,0-5.46,5.74,5.87,5.87,0,0,0,5.49,5.78c0.58-.08,1,0.76,1.06,1.34L73.9,65.48a1.85,1.85,0,0,1-1.26,1.64L61.34,68.89a31.82,31.82,0,0,0-27.66,32.58,30.38,30.38,0,0,0,8.74,20l20.73-3.23A19.12,19.12,0,0,1,45.31,100c-0.13-10,7.93-18.48,17.81-19.77l11.29-1.77a1.26,1.26,0,0,1,1.31,1l4.39,35.78a1,1,0,0,1,0,.39l11.54-1.8a4,4,0,0,1-.21-0.37L87,77.65a1.26,1.26,0,0,1,1-1.31L129,70.68a1.88,1.88,0,0,1,1.64,1.26l4.3,35.12,11.88-1.85-4.23-34.54A1.88,1.88,0,0,1,143.82,69Z" style="fill: #f04565"/> <path d="M141.78,132.72a19.58,19.58,0,0,1-16.44,23.43L50.45,166.54a1.26,1.26,0,0,1-1.31-1l-3.28-28.74-12,2.86,3.4,27.74a1.26,1.26,0,0,1-1,1.31l-7,.91c-0.58.08-.58,0.08-0.66-0.5-2.71-9.4-8.78-15.11-15.75-14.2C4.73,156-.12,166.36,1.3,179.47S10.08,201.38,18.47,200c7-.91,11.37-8,11.82-18.1-0.33-.25-0.08-0.58.5-0.66l94.91-13.31a31.82,31.82,0,0,0,27.66-32.58,30.37,30.37,0,0,0-10.53-21.64l-19.3,4.6A19.46,19.46,0,0,1,141.78,132.72Z" style="fill: #6e4565"/> <path d="M61.54,114.07A19.11,19.11,0,0,1,40,95.91c-0.13-10,7.93-18.48,17.81-19.77l11.29-1.77a1.26,1.26,0,0,1,1.31,1l4.39,35.78a1.26,1.26,0,0,1-1,1.31Z" style="fill: #f47a94"/> <path d="M86.05,109.38L81.67,73.6a1.26,1.26,0,0,1,1-1.31l40.94-5.65a1.88,1.88,0,0,1,1.64,1.26l4.31,35.2a1.85,1.85,0,0,1-1.26,1.64l-40.93,5.65C86.79,110.47,86.46,110.21,86.05,109.38Z" style="fill: #f47a94"/> <path d="M51.95,167.77l-4.06-35.53a1.85,1.85,0,0,1,1.26-1.64L97.06,124l25.57-3.35c9.88-1.29,19.51,4.54,22,14.27a19.58,19.58,0,0,1-16.44,23.43L53.26,168.78A1.26,1.26,0,0,1,51.95,167.77Z" style="fill: #af77a5"/> </g> <g id="sptires_music-s-music-s-anim2"> <path d="M167.4,108.52a69.89,69.89,0,1,0-138.77,16.8Z" style="fill: #f04565"/> <path d="M19.59,127.86a69.89,69.89,0,1,0,138.77-16.8Z" style="fill: #6e4565"/> <path d="M143.82,69l16.6-1.88c9.3-1.22,19.05,7.85,24.62,14.22a30.7,30.7,0,0,0,3.59,4.85L189,86.48c2,1.51,4.2,2.7,7.1,2.32,13-2-.67-27.49-1.43-33.3s6.61-33.29-6.43-31.29c-2.91.38-4.75,2.1-6.52,4.4a17.39,17.39,0,0,0-2.47,5.94c-3.23,6.92-8.81,16.23-16.06,19.54-0.58.08-1.42,0.48-2,.56l-18.6,2.43a1.88,1.88,0,0,1-1.64-1.26l-0.26-4.92c-0.08-.58-0.53-3,0-3,2.5-1.21,4.27-3.51,3.89-6.42a5.9,5.9,0,0,0-6.82-4.72L127.88,38c-2.91.38-5.51,3.09-5.46,5.74A5.29,5.29,0,0,0,127,49.35c0.58-.08,2,2.49,2,3.07l0.59,5.17a1.88,1.88,0,0,1-1.26,1.64L115,61a1.26,1.26,0,0,1-1.31-1l-2.28-14.4c-0.08-.58-0.55-0.39.29-0.79,2.5-1.21,4.19-4.1,3.56-6.67s-3.84-4.52-6.75-4.14l-9.88,1.29c-2.91.38-5.51,3.09-5.46,5.74a5.37,5.37,0,0,0,5.16,5.53c0.58-.08,2-0.1,2,0.48l2.28,14.4a1.26,1.26,0,0,1-1,1.31l-14.53,1.9a0.86,0.86,0,0,1-1.31-1l-2-17.18C83.75,45.86,82.72,35.2,83,34.87c2.17-1.47,3.61-4,2.65-6.85a5.65,5.65,0,0,0-6.42-3.89L69.07,25.75a6.27,6.27,0,0,0-5.46,5.74,5.87,5.87,0,0,0,5.49,5.78c0.58-.08,2.52,10.77,2.6,11.35L73.9,65.48a1.85,1.85,0,0,1-1.26,1.64L61.34,68.89a31.82,31.82,0,0,0-27.66,32.58,30.38,30.38,0,0,0,8.74,20l20.73-3.23A19.12,19.12,0,0,1,45.31,100c-0.13-10,7.93-18.48,17.81-19.77l11.29-1.77a1.26,1.26,0,0,1,1.31,1l4.39,35.78a1,1,0,0,1,0,.39l11.54-1.8a4,4,0,0,1-.21-0.37L87,77.65a1.26,1.26,0,0,1,1-1.31L129,70.68a1.88,1.88,0,0,1,1.64,1.26l4.3,35.12,11.88-1.85-4.23-34.54A1.88,1.88,0,0,1,143.82,69Z" style="fill: #f04565"/> <path d="M141.78,132.72a19.58,19.58,0,0,1-16.44,23.43L50.45,166.54a1.26,1.26,0,0,1-1.31-1l-3.28-28.74-12,2.86,3.4,27.74a1.26,1.26,0,0,1-1,1.31l-7,.91c-0.58.08-.58,0.08-0.66-0.5-2.71-9.4-8.78-15.11-15.75-14.2-8.14,1.06-.15,9.23,1.27,22.34S10.08,201.38,18.47,200c7-.91,11.37-8,11.82-18.1-0.33-.25-0.08-0.58.5-0.66l94.91-13.31a31.82,31.82,0,0,0,27.66-32.58,30.37,30.37,0,0,0-10.53-21.64l-19.3,4.6A19.46,19.46,0,0,1,141.78,132.72Z" style="fill: #6e4565"/> <path d="M61.54,114.07A19.11,19.11,0,0,1,40,95.91c-0.13-10,7.93-18.48,17.81-19.77l11.29-1.77a1.26,1.26,0,0,1,1.31,1l4.39,35.78a1.26,1.26,0,0,1-1,1.31Z" style="fill: #f47a94"/> <path d="M86.05,109.38L81.67,73.6a1.26,1.26,0,0,1,1-1.31l40.94-5.65a1.88,1.88,0,0,1,1.64,1.26l4.31,35.2a1.85,1.85,0,0,1-1.26,1.64l-40.93,5.65C86.79,110.47,86.46,110.21,86.05,109.38Z" style="fill: #f47a94"/> <path d="M51.95,167.77l-4.06-35.53a1.85,1.85,0,0,1,1.26-1.64L97.06,124l25.57-3.35c9.88-1.29,19.51,4.54,22,14.27a19.58,19.58,0,0,1-16.44,23.43L53.26,168.78A1.26,1.26,0,0,1,51.95,167.77Z" style="fill: #af77a5"/> </g> </symbol><symbol viewBox="0 0 127.19 166.33" id="shape-sptires_music-u"><title>sptires</title>  <g id="sptires_music-u-music-u-anim1"> <rect x="2.76" width="51.68" height="100.76" style="fill: #a2b985"/> <rect x="69.14" width="51.67" height="100.76" style="fill: #fb8e1a"/> <path d="M2.76,100.81a59,59,0,0,0,118.05-.22Z" style="fill: #92b9d6"/> </g> <g id="sptires_music-u-music-u-anim2"> <rect x="69.14" width="51.68" height="100.76" style="fill: #a2b985"/> <rect x="2.76" width="51.67" height="100.76" style="fill: #fb8e1a"/> <path d="M2.76,100.81a59,59,0,0,0,118.05-.22Z" style="fill: #92b9d6"/> </g> </symbol><symbol viewBox="0 0 170 163.74" id="shape-sptires_science-c1"><title>sptires</title>  <g id="sptires_science-c1-science-c1-anim1"> <path d="M83.16,0a79.21,79.21,0,0,0,.29,158.43Z" style="fill: #476f4d"/> <circle cx="83.46" cy="76.46" r="18.8" style="fill: #fff"/> </g> <g id="sptires_science-c1-science-c1-anim2"> <path d="M83.6,158.59A79.21,79.21,0,0,0,83.31.17Z" style="fill: #476f4d"/> <circle cx="83.46" cy="76.46" r="18.8" style="fill: #fff"/> </g> </symbol><symbol viewBox="0 0 114.7 157.41" id="shape-sptires_science-e1"><title>sptires</title>  <g id="sptires_science-e1-science-e1-anim1"> <circle cx="83.21" cy="78.71" r="18.8" style="fill: #f73724"/> <rect y="-0.35" width="114.7" height="51.87" style="fill: #c85763"/> <rect width="51.87" height="157.41" style="fill: #c23f3f"/> <rect y="105.54" width="114.7" height="51.87" style="fill: #e2b2b0"/> </g> <g id="sptires_science-e1-science-e1-anim2"> <ellipse cx="55.61" cy="78.71" rx="4.2" ry="18.8" style="fill: #f73724"/> <rect y="-0.35" width="114.7" height="51.87" style="fill: #c85763"/> <rect width="51.87" height="157.41" style="fill: #c23f3f"/> <rect y="105.54" width="114.7" height="51.87" style="fill: #e2b2b0"/> </g> </symbol><symbol viewBox="0 0 75.74 176" id="shape-sptires_science-i"><title>sptires</title>  <g id="sptires_science-i-science-i-anim1"> <rect x="13.83" y="7.36" width="49.91" height="158.97" style="fill: #9e9b3c"/> <circle cx="38.78" cy="89.47" r="18.8" style="fill: #c4bf62"/> <path d="M28.15,15.28c0,69.75,0,69.75,0,139.49" style="fill: none;stroke: #fff;stroke-linecap: round;stroke-linejoin: round;stroke-width: 3px"/> <path d="M38.78,15.28c0,69.75,0,69.75,0,139.49" style="fill: none;stroke: #fff;stroke-linecap: round;stroke-linejoin: round;stroke-width: 3px"/> <path d="M49,15.28C49,85,49,85,49,154.77" style="fill: none;stroke: #fff;stroke-linecap: round;stroke-linejoin: round;stroke-width: 3px"/> </g> <g id="sptires_science-i-science-i-anim2"> <rect x="13.83" y="7.36" width="49.91" height="158.97" style="fill: #9e9b3c"/> <circle cx="38.78" cy="89.47" r="18.8" style="fill: #c4bf62"/> <path d="M31.15,15.28c0,13.95-6,13.95-6,27.9s6,13.95,6,27.9-6,13.95-6,27.9,6,14,6,27.9-6,14-6,27.9" style="fill: none;stroke: #fff;stroke-linecap: round;stroke-linejoin: round;stroke-width: 3px"/> <path d="M40.78,15.28c0,11.62-4,11.62-4,23.25s4,11.62,4,23.25-4,11.62-4,23.25,4,11.62,4,23.25-4,11.63-4,23.25,4,11.63,4,23.25" style="fill: none;stroke: #fff;stroke-linecap: round;stroke-linejoin: round;stroke-width: 3px"/> <path d="M51,15.28C51,24,47,24,47,32.71s4,8.72,4,17.43-4,8.72-4,17.44S51,76.3,51,85s-4,8.72-4,17.44,4,8.72,4,17.44-4,8.72-4,17.44,4,8.72,4,17.44" style="fill: none;stroke: #fff;stroke-linecap: round;stroke-linejoin: round;stroke-width: 3px"/> </g> </symbol><symbol viewBox="0 0 108.58 159.59" id="shape-sptires_science-n"><title>sptires</title>  <g id="sptires_science-n-science-n-anim1"> <polygon points="0 5.48 1.3 159.59 100.28 159.59 0 5.48" style="fill: #266187"/> <polygon points="110.58 154.11 109.27 0 10.29 0 110.58 154.11" style="fill: #4096c7"/> </g> <g id="sptires_science-n-science-n-anim2"> <polygon points="4 2.48 5.3 156.59 104.28 156.59 4 2.48" style="fill: #266187"/> <polygon points="104.58 157.11 103.27 3 4.29 3 104.58 157.11" style="fill: #4096c7"/> </g> </symbol><symbol viewBox="0 0 146.67 167.33" id="shape-sptires_science-s"><title>sptires</title>  <g id="sptires_science-s-science-s-anim1"> <path d="M7.3,117.46A69.89,69.89,0,1,0,138.63,69.58Z" style="fill: #fdbc2e"/> <ellipse cx="73.3" cy="93.54" rx="69.98" ry="15.98" transform="matrix(0.95, -0.32, 0.32, 0.95, -26.11, 28.42)" style="fill: #dba02a"/> <ellipse cx="73.3" cy="93.54" rx="28.88" ry="6.6" transform="translate(-26.11 28.42) rotate(-18.69)" style="fill: #b7852e"/> <path d="M7.3,117.46a69.89,69.89,0,0,0,89.6,41.73c36.27-13.22,55.72-52.23,42.5-88.5Z" style="fill: #fdbc2e"/> <path d="M140.22,49.57A69.89,69.89,0,1,0,8.9,97.45Z" style="fill: #6e7d2a"/> </g> <g id="sptires_science-s-science-s-anim2"> <path d="M7.3,117.46A69.89,69.89,0,1,0,138.63,69.58Z" style="fill: #fdbc2e"/> <ellipse cx="73.3" cy="93.54" rx="69.98" ry="15.98" transform="matrix(0.95, -0.32, 0.32, 0.95, -26.11, 28.42)" style="fill: #dba02a"/> <ellipse cx="73.3" cy="93.54" rx="28.88" ry="6.6" transform="translate(-26.11 28.42) rotate(-18.69)" style="fill: #b7852e"/> <path d="M7.3,117.46a69.89,69.89,0,0,0,89.6,41.73c36.27-13.22,55.72-52.23,42.5-88.5Z" style="fill: #fdbc2e"/> <path d="M139.22,70.57A69.89,69.89,0,1,0,7.9,118.45Z" style="fill: #6e7d2a"/> </g> </symbol></svg>