<svg xmlns="http://www.w3.org/2000/svg"><symbol viewBox="0 0 160.39 158.85" id="shape-sprites_math-a"><title>sprites</title>  <g id="sprites_math-a-math-a-anim1"> <polygon points="82.48 0 0 158.85 160.39 158.85 82.48 0" style="fill: #e0a9b1"/> <path d="M146.61,130.67l-4.48-9.17-14.68,7.17a2,2,0,1,1-1.79-3.67l14.67-7.17-3.58-7.34-14.67,7.17a2,2,0,0,1-1.79-3.67L135,106.82l-3.58-7.33-14.67,7.17a2,2,0,1,1-1.79-3.67l14.67-7.17L126,88.48l-14.67,7.17A2,2,0,1,1,109.54,92l14.67-7.17-3.58-7.34L106,84.64A2,2,0,0,1,104.17,81l14.67-7.17-3.58-7.33-14.67,7.17A2,2,0,0,1,98.79,70l14.67-7.17-3.58-7.34L95.21,62.63A2,2,0,1,1,93.42,59l14.67-7.17-4.48-9.17a2,2,0,0,0-2.73-.94L71.54,56a2,2,0,0,0-.94,2.73l43,88a2,2,0,0,0,2.73.94l29.35-14.33A2,2,0,0,0,146.61,130.67Z" style="fill: #b57682"/> </g> <g id="sprites_math-a-math-a-anim2"> <polygon points="82.48 0 0 158.85 160.39 158.85 82.48 0" style="fill: #e0a9b1"/> <path d="M64.37,35.52l-4.7,9.06L74.16,52.1a2,2,0,1,1-1.88,3.62L57.79,48.2,54,55.44,68.52,63a2,2,0,0,1-1.88,3.62L52.14,59.07l-3.76,7.24,14.49,7.53A2,2,0,1,1,61,77.46L46.5,69.94l-3.76,7.25,14.49,7.53a2,2,0,1,1-1.88,3.62L40.85,80.81l-3.76,7.25,14.49,7.53A2,2,0,0,1,49.7,99.2L35.21,91.68l-3.76,7.24,14.49,7.53a2,2,0,0,1-1.88,3.62l-14.49-7.53-3.76,7.25,14.49,7.52a2,2,0,1,1-1.88,3.62l-14.49-7.53-4.7,9.06a2,2,0,0,0,.87,2.75l29,15.05a2,2,0,0,0,2.75-.87L97,52.45a2,2,0,0,0-.87-2.75l-29-15.05A2,2,0,0,0,64.37,35.52Z" style="fill: #b57682"/> </g> </symbol><symbol viewBox="0 0 201.23 180.67" id="shape-sprites_math-h"><title>sprites</title>  <g id="sprites_math-h-math-h-anim1"> <rect x="75.85" y="67.14" width="159.29" height="49.92" transform="translate(31.12 223.22) rotate(-77.15)" style="fill: #60a9c9"/> <rect x="86" y="76.89" width="138.22" height="33.78" transform="translate(29.19 224.16) rotate(-77.15)" style="fill: #9fcddd"/> <path d="M160.87,59.92a6.44,6.44,0,1,0-3.93-2.83A6.22,6.22,0,0,0,160.87,59.92Z" style="fill: #60a9c9"/> <path d="M148,116.43a6.44,6.44,0,1,0-3.93-2.83A6.23,6.23,0,0,0,148,116.43Z" style="fill: #60a9c9"/> <path d="M154.43,88.17a6.44,6.44,0,1,0-3.93-2.83A6.22,6.22,0,0,0,154.43,88.17Z" style="fill: #60a9c9"/> <path d="M141.58,144.52a6.44,6.44,0,1,0-3.93-2.83A6.22,6.22,0,0,0,141.58,144.52Z" style="fill: #60a9c9"/> <rect x="4" y="4.89" width="49.92" height="159.29" style="fill: #96af85"/> <path d="M12.07,17.15H45.85V39.27H29A6.34,6.34,0,0,0,29,52H45.85V62.42H29a6.35,6.35,0,0,0,0,12.69H45.85V97.23H29a6.34,6.34,0,0,0,0,12.69H45.85v10.46H29a6.34,6.34,0,0,0,0,12.69H45.85v22.12H12.07v-138Z" style="fill: #ceddc5"/> <polyline points="66.73 38.96 66.73 38.84 66.73 116.43" style="fill: none;stroke: #403f4f;stroke-linecap: round;stroke-linejoin: round;stroke-width: 7px"/> <polyline points="82.54 38.58 82.55 38.46 80.76 116.72" style="fill: none;stroke: #403f4f;stroke-linecap: round;stroke-linejoin: round;stroke-width: 7px"/> <polyline points="104.2 39.83 104.22 39.71 92.07 117.07" style="fill: none;stroke: #403f4f;stroke-linecap: round;stroke-linejoin: round;stroke-width: 7px"/> <polyline points="127.52 41.77 127.56 41.65 105.21 118.47" style="fill: none;stroke: #403f4f;stroke-linecap: round;stroke-linejoin: round;stroke-width: 7px"/> </g> <g id="sprites_math-h-math-h-anim2"> <rect x="55.85" y="60.14" width="159.29" height="49.92" transform="translate(49.78 220.21) rotate(-89.74)" style="fill: #60a9c9"/> <rect x="66.38" y="69.93" width="138.22" height="33.78" transform="translate(48.06 221.92) rotate(-89.74)" style="fill: #9fcddd"/> <path d="M133.73,52.52a6.44,6.44,0,1,0-4.45-1.91A6.22,6.22,0,0,0,133.73,52.52Z" style="fill: #60a9c9"/> <path d="M136.47,110.48a6.44,6.44,0,1,0-4.45-1.91A6.23,6.23,0,0,0,136.47,110.48Z" style="fill: #60a9c9"/> <path d="M133.6,81.5a6.44,6.44,0,1,0-4.45-1.91A6.22,6.22,0,0,0,133.6,81.5Z" style="fill: #60a9c9"/> <path d="M136.34,139.29a6.44,6.44,0,1,0-4.45-1.91A6.22,6.22,0,0,0,136.34,139.29Z" style="fill: #60a9c9"/> <rect x="9" y="4.89" width="49.92" height="159.29" style="fill: #96af85"/> <path d="M17.07,17.15H50.85V39.27H34A6.34,6.34,0,0,0,34,52H50.85V62.42H34a6.35,6.35,0,0,0,0,12.69H50.85V97.23H34a6.34,6.34,0,0,0,0,12.69H50.85v10.46H34a6.34,6.34,0,0,0,0,12.69H50.85v22.12H17.07v-138Z" style="fill: #ceddc5"/> <polyline points="66.03 38.97 66.02 38.84 67.44 116.42" style="fill: none;stroke: #403f4f;stroke-linecap: round;stroke-linejoin: round;stroke-width: 7px"/> <polyline points="78.7 38.57 78.7 38.45 78.61 116.73" style="fill: none;stroke: #403f4f;stroke-linecap: round;stroke-linejoin: round;stroke-width: 7px"/> <polyline points="90.11 38.35 90.11 38.23 90.18 116.54" style="fill: none;stroke: #403f4f;stroke-linecap: round;stroke-linejoin: round;stroke-width: 7px"/> <polyline points="102.89 39.18 102.89 39.06 101.56 116.57" style="fill: none;stroke: #403f4f;stroke-linecap: round;stroke-linejoin: round;stroke-width: 7px"/> </g> </symbol><symbol viewBox="0 0 248 158.86" id="shape-sprites_math-m"><title>sprites</title>  <g id="sprites_math-m-math-m-anim1"> <polygon points="85.21 0 2.73 158.86 163.12 158.86 85.21 0" style="fill: #ea455e"/> <polygon points="165.41 0 82.92 158.86 243.31 158.86 165.41 0" style="fill: #403f4f"/> </g> <g id="sprites_math-m-math-m-anim2"> <polygon points="127.21 0 44.73 158.86 205.12 158.86 127.21 0" style="fill: #ea455e"/> <polygon points="131.41 0 48.92 158.86 209.31 158.86 131.41 0" style="fill: #403f4f"/> </g> </symbol><symbol viewBox="0 0 164.67 162.42" id="shape-sprites_math-t"><title>sprites</title>  <g id="sprites_math-t-math-t-anim1"> <rect x="59.77" y="22.9" width="49.92" height="139.52" style="fill: #3c7457"/> <rect x="14.97" y="3.07" width="139.52" height="49.91" style="fill: #fb951f"/> </g> <g id="sprites_math-t-math-t-anim2"> <rect x="59.77" y="22.9" width="49.92" height="139.52" style="fill: #3c7457"/> <rect x="14.97" y="112.51" width="139.52" height="49.91" style="fill: #fb951f"/> </g> </symbol><symbol viewBox="0 0 161.41 158.43" id="shape-sprites_music-c"><title>sprites</title>  <g id="sprites_music-c-music-c-anim1"> <path d="M60.55,79.21A18.8,18.8,0,0,1,79.18,60.42L79.06,0a79.21,79.21,0,0,0,.29,158.43L79.24,98A18.8,18.8,0,0,1,60.55,79.21Z" style="fill: #3e372f"/> </g> <g id="sprites_music-c-music-c-anim2"> <path d="M79.21-.52l0.11,60.93h0a18.8,18.8,0,0,1,0,37.6l0.11,59.9A79.21,79.21,0,0,0,79.21-.52Z" style="fill: #3e372f"/> </g> </symbol><symbol viewBox="0 0 49.91 158.97" id="shape-sprites_music-i"><title>sprites</title>  <g id="sprites_music-i-music-i-anim1"> <rect width="49.91" height="158.97" style="fill: #e2b2b0"/> <circle cx="25.23" cy="139.7" r="4.61" style="fill: #cc8b8b"/> <circle cx="25.23" cy="124.7" r="4.61" style="fill: #cc8b8b"/> <circle cx="25.23" cy="98.58" r="4.61" style="fill: #cc8b8b"/> <circle cx="25.23" cy="83.58" r="4.61" style="fill: #cc8b8b"/> <circle cx="25.23" cy="68.59" r="4.61" style="fill: #cc8b8b"/> <circle cx="25.23" cy="15.61" r="6.2" style="fill: #cc8b8b"/> </g> <g id="sprites_music-i-music-i-anim2"> <rect width="49.91" height="158.97" style="fill: #e2b2b0"/> <circle cx="25.23" cy="14.02" r="4.61" style="fill: #cc8b8b"/> <circle cx="25.23" cy="29.02" r="4.61" style="fill: #cc8b8b"/> <circle cx="25.23" cy="55.14" r="4.61" style="fill: #cc8b8b"/> <circle cx="25.23" cy="70.14" r="4.61" style="fill: #cc8b8b"/> <circle cx="25.23" cy="85.13" r="4.61" style="fill: #cc8b8b"/> <circle cx="25.23" cy="138.11" r="6.2" style="fill: #cc8b8b"/> </g> </symbol><symbol viewBox="0 0 246.92 206.91" id="shape-sprites_music-m"><title>sprites</title>  <g id="sprites_music-m-music-m-anim1"> <polygon points="87.36 41.78 4.95 200.48 165.19 200.48 87.36 41.78" style="fill: #fdbc2e"/> <path d="M171.33,37.51V10.59a7.67,7.67,0,0,0-15.35,0V38.84a19.35,19.35,0,0,0-4.18,5L71.59,178.6C65,189.71,71.11,200.48,84,200.48H224.3a5.75,5.75,0,1,0,0-11.51H84c-4,0-4.6-1.05-2.55-4.49L161.69,49.74c2.12-3.57,3.69-3.56,5.83,0l66.31,111.4a5.75,5.75,0,1,0,9.89-5.89L177.41,43.88A18.2,18.2,0,0,0,171.33,37.51Z" style="fill: #f99324"/> </g> <g id="sprites_music-m-music-m-anim2"> <polygon points="126.18 41.78 54.23 180.35 194.13 180.35 126.18 41.78" style="fill: #fdbc2e"/> <path d="M132.67,37.51V10.59a7.67,7.67,0,0,0-15.35,0V38.84a19.35,19.35,0,0,0-4.18,5L32.93,178.6c-6.61,11.11-.49,21.88,12.44,21.88H185.64a5.75,5.75,0,1,0,0-11.51H45.38c-4,0-4.6-1.05-2.55-4.49L123,49.74c2.12-3.57,3.69-3.56,5.83,0l66.31,111.4a5.75,5.75,0,1,0,9.89-5.89L138.75,43.88A18.2,18.2,0,0,0,132.67,37.51Z" style="fill: #f99324"/> </g> </symbol><symbol viewBox="0 0 208.52 210.53" id="shape-sprites_music-s"><title>sprites</title>  <g id="sprites_music-s-music-s-anim1"> <path d="M167.4,108.52a69.89,69.89,0,1,0-138.77,16.8Z" style="fill: #f04565"/> <path d="M19.59,127.86a69.89,69.89,0,1,0,138.77-16.8Z" style="fill: #6e4565"/> <path d="M143.82,69l16.6-1.88c9.3-1.22,19.05,7.85,24.62,14.22a30.7,30.7,0,0,0,3.59,4.85L189,86.48c2,1.51,4.2,2.7,7.1,2.32,13-2,10.45-28.56,9.69-34.37s-4.51-32.22-17.55-30.22c-2.91.38-4.75,2.1-6.52,4.4a17.39,17.39,0,0,0-2.47,5.94c-3.23,6.92-8.81,16.23-16.06,19.54-0.58.08-1.42,0.48-2,.56l-18.6,2.43a1.88,1.88,0,0,1-1.64-1.26L139,39.22a1.26,1.26,0,0,1,1-1.31c2.5-1.21,4.27-3.51,3.89-6.42a5.9,5.9,0,0,0-6.82-4.72l-9.88,1.29c-2.91.38-5.51,3.09-5.46,5.74a5.29,5.29,0,0,0,4.58,5.61c0.58-.08,1,0.76,1.06,1.34l2.21,16.85a1.88,1.88,0,0,1-1.26,1.64L115,61a1.26,1.26,0,0,1-1.31-1l-2.28-17.44c-0.08-.58.18-0.91,1-1.31,2.5-1.21,4.19-4.1,3.56-6.67s-3.84-4.52-6.75-4.14L99.33,31.7c-2.91.38-5.51,3.09-5.46,5.74A5.37,5.37,0,0,0,99,43a1.26,1.26,0,0,1,1.31,1l2.28,17.44a1.26,1.26,0,0,1-1,1.31l-14.53,1.9a0.86,0.86,0,0,1-1.31-1l-2-17.18a2.49,2.49,0,0,1,.68-1.57c2.17-1.47,3.61-4,2.65-6.85a5.65,5.65,0,0,0-6.42-3.89L70.6,35.76a6.27,6.27,0,0,0-5.46,5.74,5.87,5.87,0,0,0,5.49,5.78c0.58-.08,1,0.76,1.06,1.34L73.9,65.48a1.85,1.85,0,0,1-1.26,1.64L61.34,68.89a31.82,31.82,0,0,0-27.66,32.58,30.38,30.38,0,0,0,8.74,20l20.73-3.23A19.12,19.12,0,0,1,45.31,100c-0.13-10,7.93-18.48,17.81-19.77l11.29-1.77a1.26,1.26,0,0,1,1.31,1l4.39,35.78a1,1,0,0,1,0,.39l11.54-1.8a4,4,0,0,1-.21-0.37L87,77.65a1.26,1.26,0,0,1,1-1.31L129,70.68a1.88,1.88,0,0,1,1.64,1.26l4.3,35.12,11.88-1.85-4.23-34.54A1.88,1.88,0,0,1,143.82,69Z" style="fill: #f04565"/> <path d="M141.78,132.72a19.58,19.58,0,0,1-16.44,23.43L50.45,166.54a1.26,1.26,0,0,1-1.31-1l-3.28-28.74-12,2.86,3.4,27.74a1.26,1.26,0,0,1-1,1.31l-7,.91c-0.58.08-.58,0.08-0.66-0.5-2.71-9.4-8.78-15.11-15.75-14.2C4.73,156-.12,166.36,1.3,179.47S10.08,201.38,18.47,200c7-.91,11.37-8,11.82-18.1-0.33-.25-0.08-0.58.5-0.66l94.91-13.31a31.82,31.82,0,0,0,27.66-32.58,30.37,30.37,0,0,0-10.53-21.64l-19.3,4.6A19.46,19.46,0,0,1,141.78,132.72Z" style="fill: #6e4565"/> <path d="M61.54,114.07A19.11,19.11,0,0,1,40,95.91c-0.13-10,7.93-18.48,17.81-19.77l11.29-1.77a1.26,1.26,0,0,1,1.31,1l4.39,35.78a1.26,1.26,0,0,1-1,1.31Z" style="fill: #f47a94"/> <path d="M86.05,109.38L81.67,73.6a1.26,1.26,0,0,1,1-1.31l40.94-5.65a1.88,1.88,0,0,1,1.64,1.26l4.31,35.2a1.85,1.85,0,0,1-1.26,1.64l-40.93,5.65C86.79,110.47,86.46,110.21,86.05,109.38Z" style="fill: #f47a94"/> <path d="M51.95,167.77l-4.06-35.53a1.85,1.85,0,0,1,1.26-1.64L97.06,124l25.57-3.35c9.88-1.29,19.51,4.54,22,14.27a19.58,19.58,0,0,1-16.44,23.43L53.26,168.78A1.26,1.26,0,0,1,51.95,167.77Z" style="fill: #af77a5"/> </g> <g id="sprites_music-s-music-s-anim2"> <path d="M167.4,108.52a69.89,69.89,0,1,0-138.77,16.8Z" style="fill: #f04565"/> <path d="M19.59,127.86a69.89,69.89,0,1,0,138.77-16.8Z" style="fill: #6e4565"/> <path d="M143.82,69l16.6-1.88c9.3-1.22,19.05,7.85,24.62,14.22a30.7,30.7,0,0,0,3.59,4.85L189,86.48c2,1.51,4.2,2.7,7.1,2.32,13-2-.67-27.49-1.43-33.3s6.61-33.29-6.43-31.29c-2.91.38-4.75,2.1-6.52,4.4a17.39,17.39,0,0,0-2.47,5.94c-3.23,6.92-8.81,16.23-16.06,19.54-0.58.08-1.42,0.48-2,.56l-18.6,2.43a1.88,1.88,0,0,1-1.64-1.26l-0.26-4.92c-0.08-.58-0.53-3,0-3,2.5-1.21,4.27-3.51,3.89-6.42a5.9,5.9,0,0,0-6.82-4.72L127.88,38c-2.91.38-5.51,3.09-5.46,5.74A5.29,5.29,0,0,0,127,49.35c0.58-.08,2,2.49,2,3.07l0.59,5.17a1.88,1.88,0,0,1-1.26,1.64L115,61a1.26,1.26,0,0,1-1.31-1l-2.28-14.4c-0.08-.58-0.55-0.39.29-0.79,2.5-1.21,4.19-4.1,3.56-6.67s-3.84-4.52-6.75-4.14l-9.88,1.29c-2.91.38-5.51,3.09-5.46,5.74a5.37,5.37,0,0,0,5.16,5.53c0.58-.08,2-0.1,2,0.48l2.28,14.4a1.26,1.26,0,0,1-1,1.31l-14.53,1.9a0.86,0.86,0,0,1-1.31-1l-2-17.18C83.75,45.86,82.72,35.2,83,34.87c2.17-1.47,3.61-4,2.65-6.85a5.65,5.65,0,0,0-6.42-3.89L69.07,25.75a6.27,6.27,0,0,0-5.46,5.74,5.87,5.87,0,0,0,5.49,5.78c0.58-.08,2.52,10.77,2.6,11.35L73.9,65.48a1.85,1.85,0,0,1-1.26,1.64L61.34,68.89a31.82,31.82,0,0,0-27.66,32.58,30.38,30.38,0,0,0,8.74,20l20.73-3.23A19.12,19.12,0,0,1,45.31,100c-0.13-10,7.93-18.48,17.81-19.77l11.29-1.77a1.26,1.26,0,0,1,1.31,1l4.39,35.78a1,1,0,0,1,0,.39l11.54-1.8a4,4,0,0,1-.21-0.37L87,77.65a1.26,1.26,0,0,1,1-1.31L129,70.68a1.88,1.88,0,0,1,1.64,1.26l4.3,35.12,11.88-1.85-4.23-34.54A1.88,1.88,0,0,1,143.82,69Z" style="fill: #f04565"/> <path d="M141.78,132.72a19.58,19.58,0,0,1-16.44,23.43L50.45,166.54a1.26,1.26,0,0,1-1.31-1l-3.28-28.74-12,2.86,3.4,27.74a1.26,1.26,0,0,1-1,1.31l-7,.91c-0.58.08-.58,0.08-0.66-0.5-2.71-9.4-8.78-15.11-15.75-14.2-8.14,1.06-.15,9.23,1.27,22.34S10.08,201.38,18.47,200c7-.91,11.37-8,11.82-18.1-0.33-.25-0.08-0.58.5-0.66l94.91-13.31a31.82,31.82,0,0,0,27.66-32.58,30.37,30.37,0,0,0-10.53-21.64l-19.3,4.6A19.46,19.46,0,0,1,141.78,132.72Z" style="fill: #6e4565"/> <path d="M61.54,114.07A19.11,19.11,0,0,1,40,95.91c-0.13-10,7.93-18.48,17.81-19.77l11.29-1.77a1.26,1.26,0,0,1,1.31,1l4.39,35.78a1.26,1.26,0,0,1-1,1.31Z" style="fill: #f47a94"/> <path d="M86.05,109.38L81.67,73.6a1.26,1.26,0,0,1,1-1.31l40.94-5.65a1.88,1.88,0,0,1,1.64,1.26l4.31,35.2a1.85,1.85,0,0,1-1.26,1.64l-40.93,5.65C86.79,110.47,86.46,110.21,86.05,109.38Z" style="fill: #f47a94"/> <path d="M51.95,167.77l-4.06-35.53a1.85,1.85,0,0,1,1.26-1.64L97.06,124l25.57-3.35c9.88-1.29,19.51,4.54,22,14.27a19.58,19.58,0,0,1-16.44,23.43L53.26,168.78A1.26,1.26,0,0,1,51.95,167.77Z" style="fill: #af77a5"/> </g> </symbol><symbol viewBox="0 0 124.43 166.33" id="shape-sprites_music-u"><title>sprites</title>  <g id="sprites_music-u-music-u-anim1"> <rect width="51.68" height="100.76" style="fill: #a2b985"/> <rect x="66.38" width="51.67" height="100.76" style="fill: #fb8e1a"/> <path d="M0,100.81a59,59,0,0,0,118.05-.22Z" style="fill: #92b9d6"/> </g> <g id="sprites_music-u-music-u-anim2"> <rect y="83.16" width="51.68" height="17.6" style="fill: #a2b985"/> <rect x="66.38" y="55.81" width="51.67" height="44.95" style="fill: #fb8e1a"/> <path d="M0,100.81a59,59,0,0,0,118.05-.22Z" style="fill: #92b9d6"/> </g> </symbol><symbol viewBox="0 0 170 163.74" id="shape-sprites_science-c1"><title>sprites</title>  <g id="sprites_science-c1-science-c1-anim1"> <path d="M83.16,0a79.21,79.21,0,0,0,.29,158.43Z" style="fill: #476f4d"/> <circle cx="83.46" cy="76.46" r="18.8" style="fill: #fff"/> </g> <g id="sprites_science-c1-science-c1-anim2"> <path d="M83.6,158.59A79.21,79.21,0,0,0,83.31.17Z" style="fill: #476f4d"/> <circle cx="83.46" cy="76.46" r="18.8" style="fill: #fff"/> </g> </symbol><symbol viewBox="0 0 114.7 157.41" id="shape-sprites_science-e1"><title>sprites</title>  <g id="sprites_science-e1-science-e1-anim1"> <circle cx="83.21" cy="78.71" r="18.8" style="fill: #f73724"/> <rect y="-0.35" width="114.7" height="51.87" style="fill: #c85763"/> <rect width="51.87" height="157.41" style="fill: #c23f3f"/> <rect y="105.54" width="114.7" height="51.87" style="fill: #e2b2b0"/> </g> <g id="sprites_science-e1-science-e1-anim2"> <ellipse cx="55.61" cy="78.71" rx="4.2" ry="18.8" style="fill: #f73724"/> <rect y="-0.35" width="114.7" height="51.87" style="fill: #c85763"/> <rect width="51.87" height="157.41" style="fill: #c23f3f"/> <rect y="105.54" width="114.7" height="51.87" style="fill: #e2b2b0"/> </g> </symbol><symbol viewBox="0 0 75.74 176" id="shape-sprites_science-i"><title>sprites</title>  <g id="sprites_science-i-science-i-anim1"> <rect x="13.83" y="7.36" width="49.91" height="158.97" style="fill: #9e9b3c"/> <circle cx="38.78" cy="89.47" r="18.8" style="fill: #c4bf62"/> <path d="M28.15,15.28c0,69.75,0,69.75,0,139.49" style="fill: none;stroke: #fff;stroke-linecap: round;stroke-linejoin: round;stroke-width: 3px"/> <path d="M38.78,15.28c0,69.75,0,69.75,0,139.49" style="fill: none;stroke: #fff;stroke-linecap: round;stroke-linejoin: round;stroke-width: 3px"/> <path d="M49,15.28C49,85,49,85,49,154.77" style="fill: none;stroke: #fff;stroke-linecap: round;stroke-linejoin: round;stroke-width: 3px"/> </g> <g id="sprites_science-i-science-i-anim2"> <rect x="13.83" y="7.36" width="49.91" height="158.97" style="fill: #9e9b3c"/> <circle cx="38.78" cy="89.47" r="18.8" style="fill: #c4bf62"/> <path d="M31.15,15.28c0,13.95-6,13.95-6,27.9s6,13.95,6,27.9-6,13.95-6,27.9,6,14,6,27.9-6,14-6,27.9" style="fill: none;stroke: #fff;stroke-linecap: round;stroke-linejoin: round;stroke-width: 3px"/> <path d="M40.78,15.28c0,11.62-4,11.62-4,23.25s4,11.62,4,23.25-4,11.62-4,23.25,4,11.62,4,23.25-4,11.63-4,23.25,4,11.63,4,23.25" style="fill: none;stroke: #fff;stroke-linecap: round;stroke-linejoin: round;stroke-width: 3px"/> <path d="M51,15.28C51,24,47,24,47,32.71s4,8.72,4,17.43-4,8.72-4,17.44S51,76.3,51,85s-4,8.72-4,17.44,4,8.72,4,17.44-4,8.72-4,17.44,4,8.72,4,17.44" style="fill: none;stroke: #fff;stroke-linecap: round;stroke-linejoin: round;stroke-width: 3px"/> </g> </symbol><symbol viewBox="0 0 108.58 159.59" id="shape-sprites_science-n"><title>sprites</title>  <g id="sprites_science-n-science-n-anim1"> <polygon points="0 5.48 1.3 159.59 100.28 159.59 0 5.48" style="fill: #266187"/> <polygon points="110.58 154.11 109.27 0 10.29 0 110.58 154.11" style="fill: #4096c7"/> </g> <g id="sprites_science-n-science-n-anim2"> <polygon points="4 2.48 5.3 156.59 104.28 156.59 4 2.48" style="fill: #266187"/> <polygon points="104.58 157.11 103.27 3 4.29 3 104.58 157.11" style="fill: #4096c7"/> </g> </symbol><symbol viewBox="0 0 146.67 167.33" id="shape-sprites_science-s"><title>sprites</title>  <g id="sprites_science-s-science-s-anim1"> <path d="M7.3,117.46A69.89,69.89,0,1,0,138.63,69.58Z" style="fill: #fdbc2e"/> <ellipse cx="73.3" cy="93.54" rx="69.98" ry="15.98" transform="matrix(0.95, -0.32, 0.32, 0.95, -26.11, 28.42)" style="fill: #dba02a"/> <ellipse cx="73.3" cy="93.54" rx="28.88" ry="6.6" transform="translate(-26.11 28.42) rotate(-18.69)" style="fill: #b7852e"/> <path d="M7.3,117.46a69.89,69.89,0,0,0,89.6,41.73c36.27-13.22,55.72-52.23,42.5-88.5Z" style="fill: #fdbc2e"/> <path d="M140.22,49.57A69.89,69.89,0,1,0,8.9,97.45Z" style="fill: #6e7d2a"/> </g> <g id="sprites_science-s-science-s-anim2"> <path d="M7.3,117.46A69.89,69.89,0,1,0,138.63,69.58Z" style="fill: #fdbc2e"/> <ellipse cx="73.3" cy="93.54" rx="69.98" ry="15.98" transform="matrix(0.95, -0.32, 0.32, 0.95, -26.11, 28.42)" style="fill: #dba02a"/> <ellipse cx="73.3" cy="93.54" rx="28.88" ry="6.6" transform="translate(-26.11 28.42) rotate(-18.69)" style="fill: #b7852e"/> <path d="M7.3,117.46a69.89,69.89,0,0,0,89.6,41.73c36.27-13.22,55.72-52.23,42.5-88.5Z" style="fill: #fdbc2e"/> <path d="M139.22,70.57A69.89,69.89,0,1,0,7.9,118.45Z" style="fill: #6e7d2a"/> </g> </symbol></svg>