<svg xmlns="http://www.w3.org/2000/svg"><symbol viewBox="0 0 160.39 158.85" id="shape-sprites_math-a"><title>sprites</title>  <g id="sprites_math-a-math-a-anim1"> <polygon points="82.48 0 0 158.85 160.39 158.85 82.48 0" style="fill: #e0a9b1"/> <path d="M146.61,130.67l-4.48-9.17-14.68,7.17a2,2,0,1,1-1.79-3.67l14.67-7.17-3.58-7.34-14.67,7.17a2,2,0,0,1-1.79-3.67L135,106.82l-3.58-7.33-14.67,7.17a2,2,0,1,1-1.79-3.67l14.67-7.17L126,88.48l-14.67,7.17A2,2,0,1,1,109.54,92l14.67-7.17-3.58-7.34L106,84.64A2,2,0,0,1,104.17,81l14.67-7.17-3.58-7.33-14.67,7.17A2,2,0,0,1,98.79,70l14.67-7.17-3.58-7.34L95.21,62.63A2,2,0,1,1,93.42,59l14.67-7.17-4.48-9.17a2,2,0,0,0-2.73-.94L71.54,56a2,2,0,0,0-.94,2.73l43,88a2,2,0,0,0,2.73.94l29.35-14.33A2,2,0,0,0,146.61,130.67Z" style="fill: #b57682"/> </g> <g id="sprites_math-a-math-a-anim2"> <polygon points="82.48 0 0 158.85 160.39 158.85 82.48 0" style="fill: #e0a9b1"/> <path d="M64.37,35.52l-4.7,9.06L74.16,52.1a2,2,0,1,1-1.88,3.62L57.79,48.2,54,55.44,68.52,63a2,2,0,0,1-1.88,3.62L52.14,59.07l-3.76,7.24,14.49,7.53A2,2,0,1,1,61,77.46L46.5,69.94l-3.76,7.25,14.49,7.53a2,2,0,1,1-1.88,3.62L40.85,80.81l-3.76,7.25,14.49,7.53A2,2,0,0,1,49.7,99.2L35.21,91.68l-3.76,7.24,14.49,7.53a2,2,0,0,1-1.88,3.62l-14.49-7.53-3.76,7.25,14.49,7.52a2,2,0,1,1-1.88,3.62l-14.49-7.53-4.7,9.06a2,2,0,0,0,.87,2.75l29,15.05a2,2,0,0,0,2.75-.87L97,52.45a2,2,0,0,0-.87-2.75l-29-15.05A2,2,0,0,0,64.37,35.52Z" style="fill: #b57682"/> </g> </symbol><symbol viewBox="0 0 201.23 180.67" id="shape-sprites_math-h"><title>sprites</title>  <g id="sprites_math-h-math-h-anim1"> <rect x="75.85" y="67.14" width="159.29" height="49.92" transform="translate(31.12 223.22) rotate(-77.15)" style="fill: #60a9c9"/> <rect x="86" y="76.89" width="138.22" height="33.78" transform="translate(29.19 224.16) rotate(-77.15)" style="fill: #9fcddd"/> <path d="M160.87,59.92a6.44,6.44,0,1,0-3.93-2.83A6.22,6.22,0,0,0,160.87,59.92Z" style="fill: #60a9c9"/> <path d="M148,116.43a6.44,6.44,0,1,0-3.93-2.83A6.23,6.23,0,0,0,148,116.43Z" style="fill: #60a9c9"/> <path d="M154.43,88.17a6.44,6.44,0,1,0-3.93-2.83A6.22,6.22,0,0,0,154.43,88.17Z" style="fill: #60a9c9"/> <path d="M141.58,144.52a6.44,6.44,0,1,0-3.93-2.83A6.22,6.22,0,0,0,141.58,144.52Z" style="fill: #60a9c9"/> <rect x="4" y="4.89" width="49.92" height="159.29" style="fill: #96af85"/> <path d="M12.07,17.15H45.85V39.27H29A6.34,6.34,0,0,0,29,52H45.85V62.42H29a6.35,6.35,0,0,0,0,12.69H45.85V97.23H29a6.34,6.34,0,0,0,0,12.69H45.85v10.46H29a6.34,6.34,0,0,0,0,12.69H45.85v22.12H12.07v-138Z" style="fill: #ceddc5"/> <polyline points="66.73 38.96 66.73 38.84 66.73 116.43" style="fill: none;stroke: #403f4f;stroke-linecap: round;stroke-linejoin: round;stroke-width: 7px"/> <polyline points="82.54 38.58 82.55 38.46 80.76 116.72" style="fill: none;stroke: #403f4f;stroke-linecap: round;stroke-linejoin: round;stroke-width: 7px"/> <polyline points="104.2 39.83 104.22 39.71 92.07 117.07" style="fill: none;stroke: #403f4f;stroke-linecap: round;stroke-linejoin: round;stroke-width: 7px"/> <polyline points="127.52 41.77 127.56 41.65 105.21 118.47" style="fill: none;stroke: #403f4f;stroke-linecap: round;stroke-linejoin: round;stroke-width: 7px"/> </g> <g id="sprites_math-h-math-h-anim2"> <rect x="55.85" y="60.14" width="159.29" height="49.92" transform="translate(49.78 220.21) rotate(-89.74)" style="fill: #60a9c9"/> <rect x="66.38" y="69.93" width="138.22" height="33.78" transform="translate(48.06 221.92) rotate(-89.74)" style="fill: #9fcddd"/> <path d="M133.73,52.52a6.44,6.44,0,1,0-4.45-1.91A6.22,6.22,0,0,0,133.73,52.52Z" style="fill: #60a9c9"/> <path d="M136.47,110.48a6.44,6.44,0,1,0-4.45-1.91A6.23,6.23,0,0,0,136.47,110.48Z" style="fill: #60a9c9"/> <path d="M133.6,81.5a6.44,6.44,0,1,0-4.45-1.91A6.22,6.22,0,0,0,133.6,81.5Z" style="fill: #60a9c9"/> <path d="M136.34,139.29a6.44,6.44,0,1,0-4.45-1.91A6.22,6.22,0,0,0,136.34,139.29Z" style="fill: #60a9c9"/> <rect x="9" y="4.89" width="49.92" height="159.29" style="fill: #96af85"/> <path d="M17.07,17.15H50.85V39.27H34A6.34,6.34,0,0,0,34,52H50.85V62.42H34a6.35,6.35,0,0,0,0,12.69H50.85V97.23H34a6.34,6.34,0,0,0,0,12.69H50.85v10.46H34a6.34,6.34,0,0,0,0,12.69H50.85v22.12H17.07v-138Z" style="fill: #ceddc5"/> <polyline points="66.03 38.97 66.02 38.84 67.44 116.42" style="fill: none;stroke: #403f4f;stroke-linecap: round;stroke-linejoin: round;stroke-width: 7px"/> <polyline points="78.7 38.57 78.7 38.45 78.61 116.73" style="fill: none;stroke: #403f4f;stroke-linecap: round;stroke-linejoin: round;stroke-width: 7px"/> <polyline points="90.11 38.35 90.11 38.23 90.18 116.54" style="fill: none;stroke: #403f4f;stroke-linecap: round;stroke-linejoin: round;stroke-width: 7px"/> <polyline points="102.89 39.18 102.89 39.06 101.56 116.57" style="fill: none;stroke: #403f4f;stroke-linecap: round;stroke-linejoin: round;stroke-width: 7px"/> </g> </symbol><symbol viewBox="0 0 248 158.86" id="shape-sprites_math-m"><title>sprites</title>  <g id="sprites_math-m-math-m-anim1"> <polygon points="85.21 0 2.73 158.86 163.12 158.86 85.21 0" style="fill: #ea455e"/> <polygon points="165.41 0 82.92 158.86 243.31 158.86 165.41 0" style="fill: #403f4f"/> </g> <g id="sprites_math-m-math-m-anim2"> <polygon points="127.21 0 44.73 158.86 205.12 158.86 127.21 0" style="fill: #ea455e"/> <polygon points="131.41 0 48.92 158.86 209.31 158.86 131.41 0" style="fill: #403f4f"/> </g> </symbol><symbol viewBox="0 0 164.67 162.42" id="shape-sprites_math-t"><title>sprites</title>  <g id="sprites_math-t-math-t-anim1"> <rect x="59.77" y="22.9" width="49.92" height="139.52" style="fill: #3c7457"/> <rect x="14.97" y="3.07" width="139.52" height="49.91" style="fill: #fb951f"/> </g> <g id="sprites_math-t-math-t-anim2"> <rect x="59.77" y="22.9" width="49.92" height="139.52" style="fill: #3c7457"/> <rect x="14.97" y="112.51" width="139.52" height="49.91" style="fill: #fb951f"/> </g> </symbol></svg>