<svg id="individual-letters-for-animation-and-export" xmlns="http://www.w3.org/2000/svg" viewBox="0 0 201.23 180.67">
  <title>sprites</title>
  <g id="math-h-anim1">
    <rect x="111.88" y="6.54" width="49.92" height="159.29" style="fill: #a9d8e0"/>
    <polygon points="153.99 157.17 120.21 157.29 119.69 15.46 153.99 15.46 153.99 157.17" style="fill: #a9d8e0"/>
    <rect x="10.37" y="6.54" width="49.92" height="159.29" style="fill: #a9d8e0"/>
    <path d="M134.79,56.89a9.54,9.54,0,1,0-6.62-2.77A9.22,9.22,0,0,0,134.79,56.89Z" style="fill: #bee5ea"/>
    <path d="M135,114.89a7.4,7.4,0,1,0-5.13-2.15A7.15,7.15,0,0,0,135,114.89Z" style="fill: #bee5ea"/>
    <path d="M134.79,85.7A9.36,9.36,0,1,0,128.29,83,9,9,0,0,0,134.79,85.7Z" style="fill: #bee5ea"/>
    <path d="M135.15,148a7.39,7.39,0,1,0-5.13-2.15A7.14,7.14,0,0,0,135.15,148Z" style="fill: #bee5ea"/>
    <circle cx="37.13" cy="26.56" r="11.1" style="fill: #bee5ea"/>
    <circle cx="43.78" cy="68.9" r="11.1" style="fill: #bee5ea"/>
    <rect x="23.17" y="114.55" width="8" height="40.36" style="fill: #bee5ea"/>
    <rect x="39.78" y="114.55" width="8" height="40.36" style="fill: #bee5ea"/>
    <circle cx="134.13" cy="76.47" r="6.29" style="fill: #99bdc1"/>
    <circle cx="43.78" cy="68.9" r="6.29" style="fill: #99bdc1"/>
    <circle cx="37.49" cy="27.31" r="6.29" style="fill: #99bdc1"/>
    <circle cx="135.1" cy="47.49" r="6.29" style="fill: #99bdc1"/>
    <path d="M96.72,104.37A79.8,79.8,0,0,1,77,101.7,52.46,52.46,0,0,1,51.35,85.79,67.7,67.7,0,0,1,45.86,78a52.68,52.68,0,0,0-6.57-8.89L41.44,67a55.77,55.77,0,0,1,7,9.38,65.52,65.52,0,0,0,5.24,7.44,49.35,49.35,0,0,0,24.12,15c10,2.63,34.74,7,48.15-9.24,4.76-5.77,7.45-10.22,8-13.25l3,0.53c-0.64,3.59-3.47,8.38-8.63,14.63C119.84,101.6,107.61,104.37,96.72,104.37Z" style="fill: #99bdc1"/>
    <path d="M85.91,97.24c-7.37,0-14.87-3.12-21-8.82C53.57,77.87,48.5,62.24,44,48.44l-0.32-1q-0.37-1.15-.74-2.31C41.19,39.57,39.35,33.8,36,29l2.46-1.72c3.62,5.17,5.53,11.16,7.38,17l0.74,2.29,0.32,1c4.57,14.11,9.3,28.69,20.07,38.71,6.39,5.95,14.35,8.8,21.86,7.83,17-2.19,29.4-16.32,35.36-28.8,2.5-5.22,5-11.52,5-18.6h3c0,7.68-2.7,14.37-5.34,19.9C120.57,79.75,107.36,94.69,89.19,97A25.69,25.69,0,0,1,85.91,97.24Z" style="fill: #99bdc1"/>
    <circle cx="27.17" cy="127.92" r="6.65" style="fill: #99bdc1"/>
    <circle cx="43.78" cy="142.75" r="6.65" style="fill: #99bdc1"/>
    <circle id="newdot" cx="135.13" cy="140.67" r="5.69" style="fill: #bee5ea"/>
  </g>
  <g id="math-h-anim2">
    <rect x="111.88" y="6.54" width="49.92" height="159.29" style="fill: #a9d8e0"/>
    <polygon points="153.99 157.17 120.21 157.29 119.69 15.46 153.99 15.46 153.99 157.17" style="fill: #a9d8e0"/>
    <rect x="10.37" y="6.54" width="49.92" height="159.29" style="fill: #a9d8e0"/>
    <path d="M134.79,56.89a9.54,9.54,0,1,0-6.62-2.77A9.22,9.22,0,0,0,134.79,56.89Z" style="fill: #bee5ea"/>
    <path d="M135,114.89a7.4,7.4,0,1,0-5.13-2.15A7.15,7.15,0,0,0,135,114.89Z" style="fill: #bee5ea"/>
    <path d="M134.79,85.7A9.36,9.36,0,1,0,128.29,83,9,9,0,0,0,134.79,85.7Z" style="fill: #bee5ea"/>
    <path d="M135.15,148a7.39,7.39,0,1,0-5.13-2.15A7.14,7.14,0,0,0,135.15,148Z" style="fill: #bee5ea"/>
    <circle cx="37.13" cy="26.56" r="11.1" style="fill: #bee5ea"/>
    <circle cx="43.78" cy="68.9" r="11.1" style="fill: #bee5ea"/>
    <rect x="23.17" y="114.55" width="8" height="40.36" style="fill: #bee5ea"/>
    <rect x="39.78" y="114.55" width="8" height="40.36" style="fill: #bee5ea"/>
    <circle cx="134.13" cy="76.47" r="6.29" style="fill: #99bdc1"/>
    <circle cx="43.78" cy="68.9" r="6.29" style="fill: #99bdc1"/>
    <circle cx="37.49" cy="27.31" r="6.29" style="fill: #99bdc1"/>
    <circle cx="135.1" cy="47.49" r="6.29" style="fill: #99bdc1"/>
    <path d="M134.37,82.76a1.55,1.55,0,0,1-1.05-.66A10,10,0,0,1,132,78.16c-0.11-.61-0.2-1.28-0.29-1.93s-0.19-1.36-.3-1.95a1.48,1.48,0,0,1,0-.51h0c0-.15.09-0.14,0.12,0,0.12,0.63.22,1.34,0.31,2s0.17,1.28.28,1.84a9.4,9.4,0,0,0,1.28,3.7c0.53,0.65,1.85,1.73,2.56-2.29,0.22-1.24.36-2.23,0.41-3,0-.18.05-0.29,0.09-0.26h0a0.89,0.89,0,0,1,.06.48,31.72,31.72,0,0,1-.44,3.21C135.6,82.07,135,82.76,134.37,82.76Z" style="fill: #99bdc1"/>
    <path d="M111.85,97.24c-3.24,0-6.54-3.08-9.24-8.73-5-10.43-7.21-25.91-9.18-39.56l-0.14-1q-0.16-1.14-.33-2.28a106.32,106.32,0,0,0-3.07-16L91,28c1.59,5.11,2.43,11,3.24,16.78l0.32,2.27,0.14,1c2,14,4.09,28.39,8.83,38.3,2.81,5.88,6.31,8.71,9.62,7.75,7.47-2.17,12.93-16.15,15.55-28.5a87.3,87.3,0,0,0,2.22-18.41h1.32a93,93,0,0,1-2.35,19.69C127.1,79.93,121.29,94.71,113.29,97A5.17,5.17,0,0,1,111.85,97.24Z" style="fill: #99bdc1"/>
    <circle cx="27.17" cy="143.36" r="6.65" style="fill: #99bdc1"/>
    <circle cx="43.78" cy="126.74" r="6.65" style="fill: #99bdc1"/>
    <circle id="newdot-2" data-name="newdot" cx="135.13" cy="140.67" r="5.69" style="fill: #bee5ea"/>
  </g>
</svg>
