<svg id="all" xmlns="http://www.w3.org/2000/svg" viewBox="0 0 160.39 158.85">
  <title>sprites</title>
  <g id="math-a-anim1">
    <polygon points="82.48 0 0 158.85 160.39 158.85 82.48 0" style="fill: #e0a9b1"/>
    <path d="M146.61,130.67l-4.48-9.17-14.68,7.17a2,2,0,1,1-1.79-3.67l14.67-7.17-3.58-7.34-14.67,7.17a2,2,0,0,1-1.79-3.67L135,106.82l-3.58-7.33-14.67,7.17a2,2,0,1,1-1.79-3.67l14.67-7.17L126,88.48l-14.67,7.17A2,2,0,1,1,109.54,92l14.67-7.17-3.58-7.34L106,84.64A2,2,0,0,1,104.17,81l14.67-7.17-3.58-7.33-14.67,7.17A2,2,0,0,1,98.79,70l14.67-7.17-3.58-7.34L95.21,62.63A2,2,0,1,1,93.42,59l14.67-7.17-4.48-9.17a2,2,0,0,0-2.73-.94L71.54,56a2,2,0,0,0-.94,2.73l43,88a2,2,0,0,0,2.73.94l29.35-14.33A2,2,0,0,0,146.61,130.67Z" style="fill: #b57682"/>
  </g>
  <g id="math-a-anim2">
    <polygon points="82.48 0 0 158.85 160.39 158.85 82.48 0" style="fill: #e0a9b1"/>
    <path d="M64.37,35.52l-4.7,9.06L74.16,52.1a2,2,0,1,1-1.88,3.62L57.79,48.2,54,55.44,68.52,63a2,2,0,0,1-1.88,3.62L52.14,59.07l-3.76,7.24,14.49,7.53A2,2,0,1,1,61,77.46L46.5,69.94l-3.76,7.25,14.49,7.53a2,2,0,1,1-1.88,3.62L40.85,80.81l-3.76,7.25,14.49,7.53A2,2,0,0,1,49.7,99.2L35.21,91.68l-3.76,7.24,14.49,7.53a2,2,0,0,1-1.88,3.62l-14.49-7.53-3.76,7.25,14.49,7.52a2,2,0,1,1-1.88,3.62l-14.49-7.53-4.7,9.06a2,2,0,0,0,.87,2.75l29,15.05a2,2,0,0,0,2.75-.87L97,52.45a2,2,0,0,0-.87-2.75l-29-15.05A2,2,0,0,0,64.37,35.52Z" style="fill: #b57682"/>
  </g>
</svg>
